<?xml version="1.0" encoding="UTF-8" standalone="no"?>
<svg
   xmlns:dc="http://purl.org/dc/elements/1.1/"
   xmlns:cc="http://creativecommons.org/ns#"
   xmlns:rdf="http://www.w3.org/1999/02/22-rdf-syntax-ns#"
   xmlns:svg="http://www.w3.org/2000/svg"
   xmlns="http://www.w3.org/2000/svg"
   xmlns:sodipodi="http://sodipodi.sourceforge.net/DTD/sodipodi-0.dtd"
   xmlns:inkscape="http://www.inkscape.org/namespaces/inkscape"
   version="1.1"
   x="0px"
   y="0px"
   viewBox="0 0 99.598648 90"
   xml:space="preserve"
   id="svg8"
   sodipodi:docname="poster.svg"
   width="99.598648"
   height="90"
   inkscape:version="1.0.1 (3bc2e813f5, 2020-09-07, custom)"><metadata
     id="metadata14"><rdf:RDF><cc:Work
         rdf:about=""><dc:format>image/svg+xml</dc:format><dc:type
           rdf:resource="http://purl.org/dc/dcmitype/StillImage" /><dc:title></dc:title></cc:Work></rdf:RDF></metadata><defs
     id="defs12" /><sodipodi:namedview
     pagecolor="#ffffff"
     bordercolor="#666666"
     borderopacity="1"
     objecttolerance="10"
     gridtolerance="10"
     guidetolerance="10"
     inkscape:pageopacity="0"
     inkscape:pageshadow="2"
     inkscape:window-width="1920"
     inkscape:window-height="1039"
     id="namedview10"
     showgrid="false"
     inkscape:zoom="5.024"
     inkscape:cx="49.872244"
     inkscape:cy="57.400478"
     inkscape:window-x="0"
     inkscape:window-y="0"
     inkscape:window-maximized="1"
     inkscape:current-layer="svg8" /><g
     id="g843"
     transform="translate(-0.12775591,-5)"><path
       d="m 64.08,54.05 c 0.73,-1.23 0.76,-2.7 0.08,-3.95 L 54.52,32.29 C 53.82,31 52.47,30.2 51,30.2 c -1.47,0 -2.82,0.8 -3.52,2.09 L 45,36.88 42.52,32.29 C 41.82,31 40.47,30.2 39,30.2 c -1.47,0 -2.82,0.8 -3.52,2.09 L 25.84,50.1 c -0.68,1.25 -0.65,2.72 0.08,3.95 0.73,1.22 2.01,1.95 3.44,1.95 h 31.28 c 1.43,0 2.71,-0.73 3.44,-1.95 z M 29.36,52 39,34.2 48.64,52 Z M 52.16,50.1 47.27,41.08 51,34.2 60.64,52 h -8 c 0,-0.65 -0.16,-1.3 -0.48,-1.9 z M 58,66 H 32 c -1.1,0 -2,-0.9 -2,-2 0,-1.1 0.9,-2 2,-2 h 26 c 1.1,0 2,0.9 2,2 0,1.1 -0.9,2 -2,2 z M 83,77 H 75 V 17 c 0,-1.1 -0.9,-2 -2,-2 H 67 V 7 C 67,5.9 66.1,5 65,5 H 55 c -1.1,0 -2,0.9 -2,2 v 8 H 37 V 7 C 37,5.9 36.1,5 35,5 H 25 c -1.1,0 -2,0.9 -2,2 v 8 h -6 c -1.1,0 -2,0.9 -2,2 v 66 c 0,6.62 5.38,12 12,12 h 46 c 6.62,0 12,-5.38 12,-12 v -4 c 0,-1.1 -0.9,-2 -2,-2 z M 57,9 h 6 v 6 H 57 Z M 27,9 h 6 v 6 h -6 z m 8,70 v 4 c 0,4.41 -3.59,8 -8,8 -4.41,0 -8,-3.59 -8,-8 V 19 H 71 V 77 H 37 c -1.1,0 -2,0.9 -2,2 z m 46,4 c 0,4.41 -3.59,8 -8,8 H 35.92 C 37.83,88.87 39,86.08 39,83 v -2 h 42 z"
       id="path2"
       style="fill:#5f76b7;fill-opacity:1" /><path
       style="fill:none;stroke:none;stroke-width:0;stroke-linecap:butt;stroke-linejoin:miter;stroke-miterlimit:4;stroke-dasharray:none;stroke-opacity:1"
       d="M 0.12775591,39.110949 99.726404,38.710892"
       id="path839" /></g></svg>
