<?xml version="1.0" encoding="UTF-8" standalone="no"?>
<svg
   xmlns:dc="http://purl.org/dc/elements/1.1/"
   xmlns:cc="http://creativecommons.org/ns#"
   xmlns:rdf="http://www.w3.org/1999/02/22-rdf-syntax-ns#"
   xmlns:svg="http://www.w3.org/2000/svg"
   xmlns="http://www.w3.org/2000/svg"
   xmlns:sodipodi="http://sodipodi.sourceforge.net/DTD/sodipodi-0.dtd"
   xmlns:inkscape="http://www.inkscape.org/namespaces/inkscape"
   viewBox="0 0 90 63.5"
   x="0px"
   y="0px"
   version="1.1"
   id="svg18"
   sodipodi:docname="slidedeck.svg"
   width="90"
   height="63.5"
   inkscape:version="1.0.1 (3bc2e813f5, 2020-09-07, custom)">
  <metadata
     id="metadata24">
    <rdf:RDF>
      <cc:Work
         rdf:about="">
        <dc:format>image/svg+xml</dc:format>
        <dc:type
           rdf:resource="http://purl.org/dc/dcmitype/StillImage" />
        <dc:title>design_process</dc:title>
      </cc:Work>
    </rdf:RDF>
  </metadata>
  <defs
     id="defs22" />
  <sodipodi:namedview
     pagecolor="#ffffff"
     bordercolor="#666666"
     borderopacity="1"
     objecttolerance="10"
     gridtolerance="10"
     guidetolerance="10"
     inkscape:pageopacity="0"
     inkscape:pageshadow="2"
     inkscape:window-width="1920"
     inkscape:window-height="1039"
     id="namedview20"
     showgrid="false"
     inkscape:zoom="5.5822222"
     inkscape:cx="45"
     inkscape:cy="43"
     inkscape:window-x="0"
     inkscape:window-y="0"
     inkscape:window-maximized="1"
     inkscape:current-layer="svg18" />
  <title
     id="title2">design_process</title>
  <g
     data-name="Your Icon"
     id="g12"
     style="fill:#5f76b7;fill-opacity:1;stroke:none;stroke-opacity:1"
     transform="translate(0,-13.25)">
    <path
       d="M 87.61,13.25 H 18.35 A 2.39,2.39 0 0 0 16,15.64 v 5.6 H 10.4 A 2.39,2.39 0 0 0 8,23.62 v 5.6 H 2.39 A 2.39,2.39 0 0 0 0,31.61 v 42.75 a 2.39,2.39 0 0 0 2.39,2.39 H 71.65 A 2.39,2.39 0 0 0 74,74.36 v -5.6 h 5.6 A 2.39,2.39 0 0 0 82,66.38 v -5.6 h 5.6 A 2.39,2.39 0 0 0 90,58.39 V 15.64 a 2.39,2.39 0 0 0 -2.39,-2.39 z m -9,47.53 v 4.54 H 74 V 31.61 A 2.39,2.39 0 0 0 71.61,29.22 H 11.43 v -4.53 h 67.14 v 36.09 z m -8,8 V 73.3 H 3.45 V 32.67 h 67.13 v 36.09 z m 9,-47.53 H 19.42 V 16.7 H 86.55 V 57.33 H 82 V 23.62 a 2.39,2.39 0 0 0 -2.37,-2.38 z"
       id="path4"
       style="fill:#5f76b7;fill-opacity:1;stroke:none;stroke-opacity:1" />
    <path
       d="M 62.8,62.31 H 44.13 A 1.72,1.72 0 0 0 42.4,64 1.77,1.77 0 0 0 44.12,65.72 H 62.8 A 1.77,1.77 0 0 0 64.52,64 1.72,1.72 0 0 0 62.8,62.31 Z"
       id="path6"
       style="fill:#5f76b7;fill-opacity:1;stroke:none;stroke-opacity:1" />
    <path
       d="m 43.16,59.05 a 1.68,1.68 0 0 0 1,0.34 h 9.58 a 1.81,1.81 0 0 0 1.72,-1.72 1.64,1.64 0 0 0 -0.07,-0.34 1.7,1.7 0 0 0 -1.66,-1.39 h -9.6 a 1.7,1.7 0 0 0 -1.66,1.39 1.64,1.64 0 0 0 -0.07,0.34 1.69,1.69 0 0 0 0.76,1.38 z"
       id="path8"
       style="fill:#5f76b7;fill-opacity:1;stroke:none;stroke-opacity:1" />
    <path
       d="M 36.88,39.69 H 12.2 a 1.68,1.68 0 0 0 -0.77,0.2 1.71,1.71 0 0 0 -1,1.52 V 64 a 1.72,1.72 0 0 0 1.72,1.72 H 36.88 A 1.77,1.77 0 0 0 38.6,64 V 41.41 A 1.72,1.72 0 0 0 36.88,39.69 Z M 35.16,59.05 V 62.3 H 13.92 V 43.14 h 21.24 z"
       id="path10"
       style="fill:#5f76b7;fill-opacity:1;stroke:none;stroke-opacity:1" />
  </g>
</svg>
