<?xml version="1.0" encoding="UTF-8" standalone="no"?>
<svg
   xmlns:dc="http://purl.org/dc/elements/1.1/"
   xmlns:cc="http://creativecommons.org/ns#"
   xmlns:rdf="http://www.w3.org/1999/02/22-rdf-syntax-ns#"
   xmlns:svg="http://www.w3.org/2000/svg"
   xmlns="http://www.w3.org/2000/svg"
   xmlns:sodipodi="http://sodipodi.sourceforge.net/DTD/sodipodi-0.dtd"
   xmlns:inkscape="http://www.inkscape.org/namespaces/inkscape"
   enable-background="new 0 0 800 800"
   version="1.1"
   viewBox="0 0 497.32639 691.58502"
   xml:space="preserve"
   id="svg26"
   sodipodi:docname="takehome.svg"
   inkscape:version="1.0.1 (3bc2e813f5, 2020-09-07, custom)"
   width="497.32639"
   height="691.58502"><metadata
   id="metadata32"><rdf:RDF><cc:Work
       rdf:about=""><dc:format>image/svg+xml</dc:format><dc:type
         rdf:resource="http://purl.org/dc/dcmitype/StillImage" /><dc:title></dc:title></cc:Work></rdf:RDF></metadata><defs
   id="defs30"><inkscape:path-effect
     effect="perspective-envelope"
     up_left_point="-301.04091,102.63787"
     up_right_point="21.332192,136.91945"
     down_left_point="-301.04091,278.2111"
     down_right_point="0.57293071,336.57455"
     id="path-effect876"
     is_visible="true"
     lpeversion="1"
     deform_type="perspective"
     horizontal_mirror="false"
     vertical_mirror="false"
     overflow_perspective="false" /></defs><sodipodi:namedview
   pagecolor="#ffffff"
   bordercolor="#666666"
   borderopacity="1"
   objecttolerance="10"
   gridtolerance="10"
   guidetolerance="10"
   inkscape:pageopacity="0"
   inkscape:pageshadow="2"
   inkscape:window-width="1920"
   inkscape:window-height="1039"
   id="namedview28"
   showgrid="false"
   inkscape:zoom="0.785"
   inkscape:cx="206.15853"
   inkscape:cy="335.28006"
   inkscape:window-x="0"
   inkscape:window-y="0"
   inkscape:window-maximized="1"
   inkscape:current-layer="svg26"
   inkscape:document-rotation="0"
   showguides="false" />
	<rect
   y="0"
   width="497.32639"
   height="691.58502"
   fill="#ffffff"
   id="rect2"
   x="0"
   style="stroke-width:0.733084" />
				<path
   d="m 332.44649,182.02783 c -0.897,2.009 -2.794,3.129 -4.216,2.49 -1.422,-0.64 -1.856,-2.809 -0.966,-4.82 0,0 28.57,-64.531 8.089,-108.119999 -9.465,-20.143 -40.938,-35.679 -74.838,-36.94 -35.226,-1.304 -63.768,12.719 -78.308,38.492 -13.388,23.73 -9.549,93.036999 -9.549,93.036999 0.122,2.197 -1.052,4.067 -2.609,4.157 -1.557,0.09 -2.93,-1.634 -3.051,-3.831 0,0 -3.927,-70.983999 10.271,-96.149999 15.619,-27.685 46.052,-42.757 83.456,-41.372 35.899,1.336 69.442,18.24 79.758,40.194 6.258,13.317 11.917,37.292999 3.341,75.881999 -5.08,22.9 -11.37,36.98 -11.37,36.98 z"
   fill="#58595b"
   id="path4" />
	<polygon
   points="528.84,716.16 548.58,228 205,196.3 192,613.53 "
   fill="#EF4136"
   id="polygon6"
   style="fill:#5f76b7;fill-opacity:1"
   transform="translate(-160.08351,-62.172169)" />
	<polygon
   points="630,208 574,216 548.58,228 528.84,716.16 630,659 "
   fill="#E83A0C"
   id="polygon8"
   style="fill:#536cb2;fill-opacity:1"
   transform="translate(-160.08351,-62.172169)" />
	<polygon
   points="574,626 528.84,716.16 548.58,228 574,216 "
   fill="#F95753"
   id="polygon10"
   style="fill:#7c8ec3;fill-opacity:1"
   transform="translate(-160.08351,-62.172169)" />
	<polygon
   points="630,659 528.84,716.16 574,626 "
   fill="#F98585"
   id="polygon12"
   style="fill:#a7b4d7;fill-opacity:1"
   transform="translate(-160.08351,-62.172169)" />
	<polygon
   points="630,208 274,186 259,191 205,196.3 548.58,228 574,216 "
   fill="#939598"
   id="polygon14"
   transform="translate(-160.08351,-62.172169)" />
		<circle
   cx="124.51649"
   cy="178.01784"
   r="14.191"
   fill="#eaeeef"
   id="circle16" />
		<circle
   cx="124.51649"
   cy="178.01784"
   r="9.6890001"
   fill="#939598"
   id="circle18" />
		<circle
   cx="283.69647"
   cy="192.20784"
   r="14.191"
   fill="#eaeeef"
   id="circle20" />
		<circle
   cx="283.69647"
   cy="192.20784"
   r="9.6890001"
   fill="#939598"
   id="circle22" />
				<path
   d="m 286.90649,191.71783 c -0.897,2.009 -2.794,3.129 -4.216,2.489 -1.422,-0.64 -1.856,-2.809 -0.966,-4.82 0,0 28.57,-64.531 8.089,-108.119999 -9.465,-20.143 -40.939,-35.679 -74.838,-36.94 -35.213,-1.309 -63.768,12.719 -78.308,38.492 -13.383,23.722999 -9.549,93.037999 -9.549,93.037999 0.121,2.197 -1.053,4.067 -2.609,4.157 -1.557,0.09 -2.93,-1.634 -3.051,-3.831 0,0 -3.927,-70.984 10.271,-96.149999 15.619,-27.684 46.038,-42.76 83.456,-41.372 35.899,1.336 69.442,18.24 79.758,40.194 6.258,13.317 11.917,37.291999 3.341,75.881999 -5.08,22.9 -11.37,36.98 -11.37,36.98 z"
   fill="#6d6e71"
   id="path24" />
<g
   aria-label="TAKE
HOME
MESSAGE"
   id="text859"
   style="font-style:italic;font-size:40px;line-height:1.25;font-family:sans-serif;-inkscape-font-specification:'sans-serif Italic';text-align:center;text-anchor:middle"
   inkscape:path-effect="#path-effect876"
   transform="translate(352.79782,160.55355)"><path
     d="m -195.45107,128.19309 -9.65075,-1.0915 0.14088,-4.56749 -3.57405,-0.39646 -0.77584,26.12726 3.87547,0.47813 -0.29187,9.42911 -22.96843,-2.93677 0.21911,-9.33503 3.80519,0.46946 0.64117,-25.951 -3.50981,-0.38934 -0.10663,4.52232 -9.36049,-1.05866 0.28821,-14.01516 41.75263,4.44003 z"
     style="font-style:normal;font-variant:normal;font-weight:normal;font-stretch:normal;font-size:53.3333px;font-family:'Alfa Slab One';-inkscape-font-specification:'Alfa Slab One, Normal';font-variant-ligatures:normal;font-variant-caps:normal;font-variant-numeric:normal;font-variant-east-asian:normal;fill:#fcbb06;fill-opacity:1"
     id="path845"
     inkscape:original-d="m -195.8943,115.54453 h -9.17333 v -4.16 h -3.41333 v 23.99999 h 3.73333 v 8.74666 h -22.39999 v -8.74666 h 3.73333 v -23.99999 h -3.41333 v 4.16 h -9.17333 v -12.90666 h 40.10665 z" /><path
     d="m -158.71984,154.50652 2.32045,0.28629 -0.45179,9.62866 -22.45304,-2.87086 0.37747,-9.5371 3.41755,0.42164 -0.72342,-4.79133 -7.73658,-0.93749 -1.08171,4.55162 3.39797,0.41922 -0.36857,9.526 -19.16239,-2.45012 0.30644,-9.44769 2.23057,0.27519 10.78389,-34.90719 20.95881,2.22879 z m -23.76414,-13.85293 5.24467,0.62021 -1.88038,-12.006 -0.57236,-0.0645 z"
     style="font-style:normal;font-variant:normal;font-weight:normal;font-stretch:normal;font-size:53.3333px;font-family:'Alfa Slab One';-inkscape-font-specification:'Alfa Slab One, Normal';font-variant-ligatures:normal;font-variant-caps:normal;font-variant-numeric:normal;font-variant-east-asian:normal;fill:#fcbb06;fill-opacity:1"
     id="path847"
     inkscape:original-d="m -160.80109,135.38452 h 2.13333 v 8.74666 h -20.90665 v -8.74666 h 3.2 l -0.85333,-4.26667 h -7.25333 l -0.85334,4.26667 h 3.2 v 8.74666 h -18.23999 v -8.74666 h 2.13333 l 9.01333,-32.74665 h 19.41332 z m -22.50665,-9.92 h 4.90666 l -2.18666,-10.61332 h -0.53334 z" /><path
     d="m -110.07051,160.5086 3.0338,0.37429 -0.61979,9.82866 -16.40692,-2.0978 -7.90211,-19.57563 -2.8581,1.94266 -0.34635,6.43119 2.84634,0.35117 -0.53285,9.72632 -22.14094,-2.83097 0.458,-9.63621 2.91262,0.35934 1.29863,-26.78723 -2.93967,-0.32609 0.46893,-9.86618 22.50059,2.39274 -0.5457,9.96086 -2.87322,-0.31872 -0.42877,7.96151 9.73418,-6.92929 -3.79175,-0.42061 0.55484,-9.97199 22.66042,2.40974 -0.63383,10.06716 -3.06222,-0.33969 -10.65795,7.24678 z"
     style="font-style:normal;font-variant:normal;font-weight:normal;font-stretch:normal;font-size:53.3333px;font-family:'Alfa Slab One';-inkscape-font-specification:'Alfa Slab One, Normal';font-variant-ligatures:normal;font-variant-caps:normal;font-variant-numeric:normal;font-variant-east-asian:normal;fill:#fcbb06;fill-opacity:1"
     id="path849"
     inkscape:original-d="m -117.01445,135.38452 h 2.66666 v 8.74666 h -14.55999 l -8,-16.53332 -2.45333,2.02666 v 5.76 h 2.56 v 8.74666 h -20.15999 v -8.74666 h 2.66667 v -23.99999 h -2.66667 v -8.74666 h 20.15999 v 8.74666 h -2.56 v 7.04 l 8.26666,-7.04 h -3.35999 v -8.74666 h 19.83998 v 8.74666 h -2.66666 l -8.90666,7.36 z" /><path
     d="m -105.47467,170.99052 0.62741,-9.8375 3.04822,0.37607 1.77194,-27.35492 -3.07775,-0.34141 0.64273,-10.07776 42.437149,4.51282 -1.459904,18.83286 -14.167127,-1.6259 0.621643,-8.52778 -7.601883,-0.84326 -0.685197,9.72942 5.504452,0.63478 -0.505391,6.99789 -5.49078,-0.65052 -0.763346,10.83909 7.527576,0.92871 0.703233,-9.64704 14.119153,1.68056 -1.527808,19.7088 z"
     style="font-style:normal;font-variant:normal;font-weight:normal;font-stretch:normal;font-size:53.3333px;font-family:'Alfa Slab One';-inkscape-font-specification:'Alfa Slab One, Normal';font-variant-ligatures:normal;font-variant-caps:normal;font-variant-numeric:normal;font-variant-east-asian:normal;fill:#fcbb06;fill-opacity:1"
     id="path851"
     inkscape:original-d="m -112.42785,144.13118 v -8.74666 h 2.66667 v -23.99999 h -2.66667 v -8.74666 h 35.99998 v 16.10666 h -11.94666 v -7.36 h -6.453329 v 8.42666 h 4.69333 v 6.08 h -4.69333 v 9.49333 h 6.453329 v -8.42666 h 11.94666 v 17.17332 z" /><path
     d="m -207.49762,194.1055 -2.72541,-0.39523 -0.7445,24.95094 2.70209,0.42402 -0.2767,9.00207 -20.19492,-3.25577 0.21421,-8.92517 2.55075,0.40028 0.22471,-9.043 -7.44527,-1.136 -0.20176,9.01426 2.53885,0.39841 -0.20709,8.9163 -19.76752,-3.18686 0.14718,-8.84083 2.601,0.40815 0.42994,-24.5546 -2.62263,-0.38032 0.15046,-9.03782 20.05499,2.82031 -0.21175,9.11691 -2.56032,-0.37128 -0.18784,8.39211 7.46386,1.11255 0.20921,-8.41919 -2.57242,-0.37304 0.21903,-9.12621 20.49485,2.88217 z"
     style="font-style:normal;font-variant:normal;font-weight:normal;font-stretch:normal;font-size:53.3333px;font-family:'Alfa Slab One';-inkscape-font-specification:'Alfa Slab One, Normal';font-variant-ligatures:normal;font-variant-caps:normal;font-variant-numeric:normal;font-variant-east-asian:normal;fill:#fcbb06;fill-opacity:1"
     id="path853"
     inkscape:original-d="m -205.38765,178.05116 h -2.66666 v 23.99999 h 2.66666 v 8.74666 h -20.15999 v -8.74666 h 2.56 v -8.8 h -7.46666 v 8.8 h 2.56 v 8.74666 h -20.15999 v -8.74666 h 2.66666 v -23.99999 h -2.66666 v -8.74666 h 20.15999 v 8.74666 h -2.56 v 8.10666 h 7.46666 v -8.10666 h -2.56 v -8.74666 h 20.15999 z" /><path
     d="m -185.89008,232.51725 c -6.70051,-1.08268 -11.79222,-3.67455 -15.30384,-7.77733 -3.4716,-4.09263 -5.08432,-10.01949 -4.83996,-17.81387 0.24562,-7.83468 2.23156,-13.29872 5.97307,-16.37503 3.80014,-3.08901 9.09552,-4.16527 15.90197,-3.21064 6.85022,0.96076 12.08094,3.5341 15.662,7.71878 3.62284,4.19469 5.25383,10.29749 4.89135,18.27328 -0.36057,7.93394 -2.49936,13.38415 -6.40058,16.36863 -3.84126,2.97303 -9.14106,3.90572 -15.88401,2.81618 z m 0.37791,-9.8615 c 1.25389,0.19677 2.20831,0.0106 2.86267,-0.55897 0.65504,-0.5702 1.01077,-1.56179 1.06671,-2.97533 l 0.67099,-16.95336 c 0.0566,-1.4308 -0.21856,-2.53215 -0.82554,-3.30296 -0.60688,-0.77069 -1.54334,-1.2478 -2.8083,-1.43124 -1.26346,-0.18322 -2.22281,0.0183 -2.87865,0.60382 -0.65517,0.58495 -1.00894,1.59082 -1.06181,3.01705 l -0.62647,16.89974 c -0.0536,1.44615 0.21966,2.55087 0.81982,3.31527 0.60164,0.72748 1.52816,1.18945 2.78058,1.38598 z"
     style="font-style:normal;font-variant:normal;font-weight:normal;font-stretch:normal;font-size:53.3333px;font-family:'Alfa Slab One';-inkscape-font-specification:'Alfa Slab One, Normal';font-variant-ligatures:normal;font-variant-caps:normal;font-variant-numeric:normal;font-variant-east-asian:normal;fill:#fcbb06;fill-opacity:1"
     id="path855"
     inkscape:original-d="m -183.20109,211.54447 q -9.75999,0 -15.09332,-5.11999 -5.28,-5.12 -5.28,-16.37333 0,-11.25332 5.28,-16.37332 5.33333,-5.12 15.09332,-5.12 9.76,0 15.03999,5.12 5.33333,5.12 5.33333,16.37332 0,11.25333 -5.33333,16.37333 -5.27999,5.11999 -15.03999,5.11999 z m 0,-9.49332 q 1.81333,0 2.72,-0.96 0.90667,-0.96 0.90667,-2.98667 v -16.10666 q 0,-2.02666 -0.90667,-2.98666 -0.90667,-0.96 -2.72,-0.96 -1.81333,0 -2.72,0.96 -0.90666,0.96 -0.90666,2.98666 v 16.10666 q 0,2.08 0.90666,3.04 0.90667,0.90667 2.72,0.90667 z" /><path
     d="m -96.316945,210.22843 -3.020299,-0.43799 -1.739836,26.11516 2.991861,0.4695 -0.636867,9.41705 -22.343994,-3.60223 0.5608,-9.33306 2.82183,0.44281 1.22908,-20.13701 -11.72742,27.88009 -8.57046,-1.38171 -8.564,-30.47229 -1.00877,19.61639 2.75579,0.43245 -0.48404,9.24641 -18.63171,-3.00375 0.42291,-9.17601 2.8287,0.44389 1.19935,-25.49864 -2.85421,-0.41391 0.43275,-9.38936 26.51842,3.72926 5.08579,18.9137 6.93719,-17.22292 26.449258,3.71953 z"
     style="font-style:normal;font-variant:normal;font-weight:normal;font-stretch:normal;font-size:53.3333px;font-family:'Alfa Slab One';-inkscape-font-specification:'Alfa Slab One, Normal';font-variant-ligatures:normal;font-variant-caps:normal;font-variant-numeric:normal;font-variant-east-asian:normal;fill:#fcbb06;fill-opacity:1"
     id="path857"
     inkscape:original-d="m -102.18782,178.05116 h -2.66666 v 23.99999 h 2.66666 v 8.74666 h -20.15999 v -8.74666 h 2.56 v -18.66666 l -9.06666,27.41332 h -7.89333 l -9.33333,-27.14665 v 18.39999 h 2.56 v 8.74666 h -17.49332 v -8.74666 h 2.66666 v -23.99999 h -2.66666 v -8.74666 h 24.42665 l 5.54667,16.63999 5.33333,-16.63999 h 23.51998 z" /><path
     d="m -96.331003,246.17764 0.645091,-9.42604 3.006458,0.47179 1.819838,-26.20356 -3.035164,-0.44015 0.660561,-9.65208 41.834595,5.88315 -1.484655,18.02331 -13.964193,-2.0763 0.63422,-8.16397 -7.493969,-1.08674 -0.700353,9.31579 5.426684,0.80976 -0.515924,6.70032 -5.413405,-0.82412 -0.780387,10.38038 7.421798,1.16466 0.717617,-9.23749 13.917615,2.1261 -1.554236,18.868 z"
     style="font-style:normal;font-variant:normal;font-weight:normal;font-stretch:normal;font-size:53.3333px;font-family:'Alfa Slab One';-inkscape-font-specification:'Alfa Slab One, Normal';font-variant-ligatures:normal;font-variant-caps:normal;font-variant-numeric:normal;font-variant-east-asian:normal;fill:#fcbb06;fill-opacity:1"
     id="path859"
     inkscape:original-d="m -100.0545,210.79781 v -8.74666 h 2.666661 v -23.99999 h -2.666661 v -8.74666 h 35.999974 v 16.10666 h -11.94666 v -7.36 h -6.453329 v 8.42666 h 4.693331 v 6.08 h -4.693331 v 9.49333 h 6.453329 v -8.42667 h 11.94666 v 17.17333 z" /><path
     d="m -245.77071,256.07033 -2.571,-0.45671 -0.4152,23.49248 2.55021,0.48209 -0.15719,8.47897 -19.06915,-3.68328 0.10142,-8.41109 2.40895,0.45539 0.2334,-18.13034 -8.82355,24.91171 -7.32724,-1.41529 -8.47678,-27.67596 -0.0813,17.683 2.35734,0.44563 -0.045,8.34093 -15.95505,-3.08178 0,-8.28382 2.42272,0.45799 0.0188,-22.99431 -2.44149,-0.4337 v -8.45994 l 22.65209,3.92874 5.06367,17.15278 5.19073,-15.37428 22.52434,3.90658 z"
     style="font-style:normal;font-variant:normal;font-weight:normal;font-stretch:normal;font-size:53.3333px;font-family:'Alfa Slab One';-inkscape-font-specification:'Alfa Slab One, Normal';font-variant-ligatures:normal;font-variant-caps:normal;font-variant-numeric:normal;font-variant-east-asian:normal;fill:#fcbb06;fill-opacity:1"
     id="path861"
     inkscape:original-d="m -242.21428,244.71779 h -2.66667 v 23.99998 h 2.66667 v 8.74666 h -20.15999 v -8.74666 h 2.56 v -18.66665 l -9.06666,27.41331 h -7.89333 l -9.33333,-27.14665 v 18.39999 h 2.56 v 8.74666 h -17.49332 v -8.74666 h 2.66666 v -23.99998 h -2.66666 v -8.74666 h 24.42665 l 5.54666,16.63999 5.33333,-16.63999 h 23.51999 z" /><path
     d="m -244.32523,288.46093 0.16321,-8.48621 2.56157,0.48424 0.47368,-23.56369 -2.58255,-0.45876 0.16678,-8.6718 35.52384,6.16119 -0.50411,16.16819 -11.85586,-2.14774 0.19912,-7.33006 -6.36517,-1.13069 -0.20932,8.36716 4.61189,0.8378 -0.15998,6.01946 -4.6022,-0.84935 -0.23346,9.33234 6.31255,1.19333 0.22553,-8.30256 11.82193,2.18774 -0.52859,16.95344 z"
     style="font-style:normal;font-variant:normal;font-weight:normal;font-stretch:normal;font-size:53.3333px;font-family:'Alfa Slab One';-inkscape-font-specification:'Alfa Slab One, Normal';font-variant-ligatures:normal;font-variant-caps:normal;font-variant-numeric:normal;font-variant-east-asian:normal;fill:#fcbb06;fill-opacity:1"
     id="path863"
     inkscape:original-d="m -240.08097,277.46443 v -8.74666 h 2.66667 v -23.99998 h -2.66667 v -8.74666 h 35.99998 v 16.10665 h -11.94666 v -7.35999 h -6.45333 v 8.42666 h 4.69333 v 6.07999 h -4.69333 v 9.49333 h 6.45333 v -8.42666 h 11.94666 v 17.17332 z" /><path
     d="m -190.81321,299.54059 c -3.42964,-0.66365 -6.66057,-1.57119 -9.69537,-2.72206 -2.99068,-1.17618 -5.2836,-2.28694 -6.883,-3.33363 l 0.33161,-10.42448 11.74367,2.19816 c -0.0393,1.09679 0.18259,1.93942 0.66563,2.52857 0.4831,0.58923 1.38711,1.00884 2.71323,1.25903 1.11233,0.20986 1.90844,0.19964 2.38767,-0.031 0.51687,-0.2594 0.78826,-0.72586 0.81391,-1.39949 0.0216,-0.5675 -0.19418,-1.09032 -0.64732,-1.56821 -0.45172,-0.51331 -1.24501,-1.09029 -2.37926,-1.73063 l -4.56756,-2.45658 c -3.91431,-2.22353 -6.70623,-4.50351 -8.38345,-6.84397 -1.64121,-2.33333 -2.40715,-5.22204 -2.29794,-8.6726 0.13319,-4.20842 1.60882,-7.16687 4.43524,-8.8716 2.87517,-1.74146 7.5827,-2.04972 14.14393,-0.91411 3.16821,0.54835 6.1317,1.39007 8.88785,2.52578 2.8004,1.10824 5.04541,2.34086 6.7315,3.69694 l -0.4193,9.72692 -10.96252,-1.96554 c 0.0708,-1.79846 -1.0212,-2.89922 -3.27259,-3.30001 -1.08767,-0.19363 -1.87189,-0.18854 -2.35327,0.015 -0.44356,0.17399 -0.67793,0.60195 -0.70331,1.28372 -0.0227,0.60974 0.21226,1.13916 0.70495,1.58852 0.52898,0.45596 1.38312,0.98857 2.56309,1.59813 l 4.674,2.4695 c 3.8089,1.99217 6.55067,4.19179 8.21774,6.59516 1.70564,2.3748 2.48571,5.22886 2.3401,8.55604 -0.19831,4.53146 -1.91506,7.64857 -5.13983,9.35599 -3.17418,1.70676 -7.72872,1.98206 -13.6494,0.83639 z"
     style="font-style:normal;font-variant:normal;font-weight:normal;font-stretch:normal;font-size:53.3333px;font-family:'Alfa Slab One';-inkscape-font-specification:'Alfa Slab One, Normal';font-variant-ligatures:normal;font-variant-caps:normal;font-variant-numeric:normal;font-variant-east-asian:normal;fill:#fcbb06;fill-opacity:1"
     id="path865"
     inkscape:original-d="m -185.52103,278.2111 q -5.12,0 -9.70666,-0.85333 -4.53333,-0.90667 -6.98667,-2.02667 v -10.55999 h 11.73333 q 0,1.65333 0.74667,2.4 0.74666,0.74666 2.72,0.74666 1.65333,0 2.34666,-0.48 0.74667,-0.53333 0.74667,-1.54666 0,-0.85334 -0.69334,-1.44 -0.69333,-0.64 -2.39999,-1.28 l -4.58667,-1.6 q -5.92,-2.24 -8.53333,-5.28 -2.56,-3.04 -2.56,-8.21333 0,-6.29333 4.10667,-9.54666 4.16,-3.30666 13.81332,-3.30666 4.64,0 8.69333,0.96 4.10667,0.90666 6.61333,2.45333 v 9.54666 h -10.66666 q 0,-2.66666 -3.30666,-2.66666 -1.6,0 -2.29334,0.42666 -0.64,0.37334 -0.64,1.38667 0,0.90666 0.74667,1.44 0.8,0.53333 2.56,1.12 l 4.64,1.6 q 5.65333,1.91999 8.21333,5.01333 2.61333,3.03999 2.61333,7.99999 0,6.77333 -4.58667,10.24 -4.53333,3.46666 -13.33332,3.46666 z" /><path
     d="m -154.00972,306.66221 c -3.54939,-0.68682 -6.88957,-1.62038 -10.02329,-2.80011 -3.08752,-1.20519 -5.45211,-2.34128 -7.09822,-3.40967 l 0.46796,-10.57934 12.15381,2.27493 c -0.0539,1.11322 0.16617,1.96941 0.66015,2.56926 0.49405,0.59993 1.42674,1.02929 2.7993,1.28824 1.15133,0.21721 1.97728,0.20983 2.47719,-0.0224 0.53929,-0.26138 0.82642,-0.73389 0.86111,-1.41763 0.0292,-0.57603 -0.18834,-1.10758 -0.65267,-1.59441 -0.46244,-0.52277 -1.27845,-1.11147 -2.44738,-1.76574 l -4.70851,-2.51073 c -4.03347,-2.27163 -6.90199,-4.59634 -8.61362,-6.97835 -1.67436,-2.37462 -2.43435,-5.30991 -2.28001,-8.81255 0.18825,-4.27212 1.75402,-7.27067 4.70606,-8.99174 3.00327,-1.75832 7.89055,-2.05511 14.68425,-0.87926 3.28072,0.56782 6.34564,1.4329 9.192,2.59586 2.89271,1.13525 5.20765,2.39494 6.9411,3.77807 l -0.5529,9.87646 -11.35168,-2.03531 c 0.0952,-1.8259 -1.02467,-2.94753 -3.35576,-3.36251 -1.12615,-0.20048 -1.93983,-0.1981 -2.44169,0.007 -0.46226,0.17508 -0.71056,0.60877 -0.74507,1.30093 -0.0309,0.61902 0.20654,1.1574 0.71229,1.61542 0.54332,0.46485 1.42307,1.0087 2.63994,1.63186 l 4.81973,2.5243 c 3.92811,2.03663 6.74655,4.28009 8.44738,6.72653 1.74121,2.41758 2.51615,5.31834 2.32477,8.69591 -0.26065,4.59989 -2.07972,7.75786 -5.44627,9.47878 -3.3138,1.7203 -8.04208,1.98213 -14.16997,0.79636 z"
     style="font-style:normal;font-variant:normal;font-weight:normal;font-stretch:normal;font-size:53.3333px;font-family:'Alfa Slab One';-inkscape-font-specification:'Alfa Slab One, Normal';font-variant-ligatures:normal;font-variant-caps:normal;font-variant-numeric:normal;font-variant-east-asian:normal;fill:#fcbb06;fill-opacity:1"
     id="path867"
     inkscape:original-d="m -149.57441,278.2111 q -5.11999,0 -9.70666,-0.85333 -4.53333,-0.90667 -6.98666,-2.02667 v -10.55999 h 11.73333 q 0,1.65333 0.74666,2.4 0.74667,0.74666 2.72,0.74666 1.65333,0 2.34667,-0.48 0.74666,-0.53333 0.74666,-1.54666 0,-0.85334 -0.69333,-1.44 -0.69333,-0.64 -2.4,-1.28 l -4.58666,-1.6 q -5.92,-2.24 -8.53333,-5.28 -2.56,-3.04 -2.56,-8.21333 0,-6.29333 4.10666,-9.54666 4.16,-3.30666 13.81333,-3.30666 4.64,0 8.69333,0.96 4.10666,0.90666 6.61333,2.45333 v 9.54666 h -10.66666 q 0,-2.66666 -3.30667,-2.66666 -1.6,0 -2.29333,0.42666 -0.64,0.37334 -0.64,1.38667 0,0.90666 0.74667,1.44 0.8,0.53333 2.55999,1.12 l 4.64,1.6 q 5.65333,1.91999 8.21333,5.01333 2.61333,3.03999 2.61333,7.99999 0,6.77333 -4.58666,10.24 -4.53333,3.46666 -13.33333,3.46666 z" /><path
     d="m -90.540069,309.01563 2.364101,0.44692 -0.656669,9.03238 -22.876953,-4.41877 0.57984,-8.95283 3.48262,0.65836 -0.64148,-4.56729 -7.88435,-1.47459 -1.1979,4.20369 3.46291,0.65464 -0.57064,8.94318 -19.52944,-3.77219 0.50636,-8.87502 2.27363,0.42981 11.73034,-32.0451 21.362197,3.70502 z m -23.992251,-14.862 5.34502,0.98535 -1.67638,-11.44887 -0.58335,-0.1046 z"
     style="font-style:normal;font-variant:normal;font-weight:normal;font-stretch:normal;font-size:53.3333px;font-family:'Alfa Slab One';-inkscape-font-specification:'Alfa Slab One, Normal';font-variant-ligatures:normal;font-variant-caps:normal;font-variant-numeric:normal;font-variant-east-asian:normal;fill:#fcbb06;fill-opacity:1"
     id="path869"
     inkscape:original-d="m -91.014448,268.71777 h 2.133332 v 8.74666 h -20.906654 v -8.74666 h 3.2 l -0.85333,-4.26666 h -7.25333 l -0.85334,4.26666 h 3.2 v 8.74666 h -18.23999 v -8.74666 h 2.13333 l 9.01333,-32.74664 h 19.41332 z m -22.506652,-9.91999 h 4.90666 l -2.18666,-10.61333 h -0.53334 z" /><path
     d="m -42.101518,313.24921 -3.082275,-0.576 -0.981838,11.22343 c -1.877526,0.58598 -4.577108,0.91698 -8.092469,0.99378 -3.459372,0.0473 -7.159723,-0.31132 -11.099744,-1.07373 -7.480109,-1.44743 -13.168219,-4.37544 -17.097762,-8.78695 -3.921773,-4.44266 -5.604783,-10.46275 -5.050595,-18.09413 0.570639,-7.8579 3.08022,-13.23012 7.547174,-16.09842 4.535102,-2.87917 10.780597,-3.63889 18.757396,-2.25827 3.886727,0.67271 7.508218,1.68687 10.860696,3.04329 3.360883,1.35983 5.872505,2.67068 7.529643,3.93083 l -1.194212,13.65109 -15.364738,-2.77869 0.218496,-2.65894 c 0.130356,-1.58634 -0.143388,-2.78596 -0.821241,-3.59747 -0.633908,-0.84193 -1.724388,-1.40027 -3.269911,-1.67481 -1.543404,-0.27417 -2.70789,-0.11726 -3.494375,0.46994 -0.742137,0.55606 -1.175494,1.62498 -1.300567,3.20593 l -1.296371,16.38646 c -0.123552,1.56173 0.12794,2.75903 0.754438,3.59321 0.669704,0.80476 1.768217,1.35154 3.297004,1.64055 1.530869,0.2894 2.667336,0.16431 3.408431,-0.37598 0.785373,-0.57051 1.242723,-1.63887 1.371488,-3.20585 l 0.03221,-0.39201 -3.27496,-0.61201 0.677376,-8.3587 21.712989,3.97583 z"
     style="font-style:normal;font-variant:normal;font-weight:normal;font-stretch:normal;font-size:53.3333px;font-family:'Alfa Slab One';-inkscape-font-specification:'Alfa Slab One, Normal';font-variant-ligatures:normal;font-variant-caps:normal;font-variant-numeric:normal;font-variant-east-asian:normal;fill:#fcbb06;fill-opacity:1"
     id="path871"
     inkscape:original-d="m -48.561185,264.13111 h -2.666665 v 10.66666 q -2.346665,1.33333 -6.879996,2.4 -4.479997,1.01333 -9.706661,1.01333 -9.973327,0 -15.626657,-5.22666 -5.65333,-5.28 -5.65333,-16.26666 0,-11.25333 5.599996,-16.37332 5.65333,-5.12 16.106657,-5.12 5.066664,0 9.493328,1.06666 4.426664,1.06667 6.666663,2.4 v 12.74666 h -13.333326 v -2.50666 q 0,-2.24 -0.959999,-3.2 -0.906666,-1.01333 -2.933332,-1.01333 -2.026665,0 -2.986665,1.01333 -0.906666,0.96 -0.906666,3.2 v 15.57332 q 0,2.24 0.906666,3.25333 0.96,0.96 2.986665,0.96 2.026666,0 2.933332,-0.96 0.959999,-1.01333 0.959999,-3.25333 v -0.37333 h -2.879998 v -7.94666 h 18.879989 z" /><path
     d="m -41.623646,327.61353 0.819831,-9.19569 3.089642,0.58407 2.306564,-25.56309 -3.119824,-0.5542 0.839548,-9.41686 43.0070656,7.45907 -1.8273216,17.57452 -14.353937,-2.60027 0.788138,-7.96203 -7.703435,-1.36843 -0.875201,9.08625 5.577919,1.0133 -0.64208,6.53465 -5.56396,-1.02684 -0.975185,10.12427 7.627571,1.44193 0.891743,-9.0087 14.3049801,2.64725 -1.91285977,18.39719 z"
     style="font-style:normal;font-variant:normal;font-weight:normal;font-stretch:normal;font-size:53.3333px;font-family:'Alfa Slab One';-inkscape-font-specification:'Alfa Slab One, Normal';font-variant-ligatures:normal;font-variant-caps:normal;font-variant-numeric:normal;font-variant-east-asian:normal;fill:#fcbb06;fill-opacity:1"
     id="path873"
     inkscape:original-d="m -47.067891,277.46443 v -8.74666 h 2.666666 v -23.99998 h -2.666666 v -8.74666 h 35.999979 v 16.10665 h -11.94666 v -7.35999 h -6.453329 v 8.42666 h 4.693331 v 6.07999 h -4.693331 v 9.49333 h 6.453329 v -8.42666 h 11.94666 v 17.17332 z" /></g></svg>
