<?xml version="1.0" encoding="UTF-8" standalone="no"?>
<svg
   xmlns:dc="http://purl.org/dc/elements/1.1/"
   xmlns:cc="http://creativecommons.org/ns#"
   xmlns:rdf="http://www.w3.org/1999/02/22-rdf-syntax-ns#"
   xmlns:svg="http://www.w3.org/2000/svg"
   xmlns="http://www.w3.org/2000/svg"
   xmlns:sodipodi="http://sodipodi.sourceforge.net/DTD/sodipodi-0.dtd"
   xmlns:inkscape="http://www.inkscape.org/namespaces/inkscape"
   width="415.559021pt"
   height="274.166931pt"
   viewBox="0 0 415.559021 274.166931"
   version="1.1"
   id="svg107"
   sodipodi:docname="tt2.svg"
   inkscape:version="1.0.1 (3bc2e813f5, 2020-09-07, custom)">
  <metadata
     id="metadata113">
    <rdf:RDF>
      <cc:Work
         rdf:about="">
        <dc:format>image/svg+xml</dc:format>
        <dc:type
           rdf:resource="http://purl.org/dc/dcmitype/StillImage" />
      </cc:Work>
    </rdf:RDF>
  </metadata>
  <defs
     id="defs111" />
  <sodipodi:namedview
     pagecolor="#ffffff"
     bordercolor="#666666"
     borderopacity="1"
     objecttolerance="10"
     gridtolerance="10"
     guidetolerance="10"
     inkscape:pageopacity="0"
     inkscape:pageshadow="2"
     inkscape:window-width="1920"
     inkscape:window-height="1039"
     id="namedview109"
     showgrid="false"
     inkscape:zoom="1.7179315"
     inkscape:cx="277.03935"
     inkscape:cy="182.77795"
     inkscape:window-x="0"
     inkscape:window-y="0"
     inkscape:window-maximized="1"
     inkscape:current-layer="svg107" />
  <path
     style="fill:#5f76b7;fill-opacity:1;fill-rule:evenodd;stroke:#000000;stroke-width:1.2;stroke-linecap:butt;stroke-linejoin:miter;stroke-miterlimit:4;stroke-opacity:1"
     d="M 100.03521,93.914035 C 95.691462,104.6445 83.457076,109.82809 72.726604,105.48434 61.996128,101.1406 56.81253,88.910132 61.156284,78.179661 65.500037,67.449195 77.734419,62.265603 88.464895,66.609352 99.011777,70.874977 104.22271,82.730441 100.23834,93.38669"
     id="path2" />
  <path
     style="fill:#000000;fill-opacity:1;fill-rule:nonzero;stroke:none"
     d="m 81.742188,92.5 -0.328126,1.621094 c -0.476562,0.121094 -0.933593,0.183594 -1.378906,0.183594 -0.789062,0 -1.414062,-0.191407 -1.882812,-0.578126 -0.347656,-0.292968 -0.523438,-0.691406 -0.523438,-1.191406 0,-0.257812 0.09375,-0.84375 0.285156,-1.761718 l 1.410157,-6.75 h -1.566407 l 0.320313,-1.53125 h 1.5625 l 0.601563,-2.855469 2.265624,-1.367188 -0.886718,4.222657 h 1.945312 l -0.328125,1.53125 h -1.933593 l -1.347657,6.421874 c -0.167969,0.816407 -0.25,1.304688 -0.25,1.464844 0,0.234375 0.06641,0.414063 0.195313,0.535156 0.140625,0.125 0.363281,0.1875 0.667968,0.1875 0.4375,0 0.828126,-0.04297 1.171876,-0.132812"
     id="path4" />
  <path
     style="fill:#e4e8f2;fill-opacity:1;fill-rule:evenodd;stroke:#000000;stroke-width:1.2;stroke-linecap:butt;stroke-linejoin:miter;stroke-miterlimit:4;stroke-opacity:1"
     d="m 180.13287,93.914035 c -4.34375,10.730465 -16.57813,15.914055 -27.30861,11.570305 -10.73048,-4.34374 -15.91407,-16.574208 -11.57032,-27.304679 4.34375,-10.730466 16.57813,-15.914058 27.30861,-11.570309 10.54688,4.265625 15.75782,16.121089 11.77735,26.777338"
     id="path6" />
  <path
     style="fill:#000000;fill-opacity:1;fill-rule:nonzero;stroke:none"
     d="m 154.87891,94.109375 3.35546,-16.035156 h 1.96875 l -2.07812,9.941406 5.77734,-5.523437 h 2.61328 l -4.95312,4.332031 2.99609,7.285156 h -2.16797 l -2.3164,-5.960937 -2.40625,2.078124 -0.8086,3.882813 h -1.98046"
     id="path8" />
  <path
     style="fill:#000000;fill-opacity:1;fill-rule:nonzero;stroke:none"
     d="m 26.675781,9.765625 0.171875,-3.910156 0.742188,-3.496094 h 2.941406 l -0.757812,3.496094 -1.496094,3.910156 h -1.601563 m 4.726563,0 0.171875,-3.910156 0.742187,-3.496094 h 2.941406 L 34.5,5.855469 33,9.765625 h -1.597656"
     id="path10" />
  <path
     style="fill:#000000;fill-opacity:1;fill-rule:nonzero;stroke:none"
     d="M 34.257812,23.285156 38.640625,2.359375 h 2.570313 L 38.496094,15.335938 46.035156,8.125 h 3.410156 l -6.464843,5.652344 3.910156,9.507812 h -2.824219 l -3.027344,-7.78125 -3.140624,2.714844 -1.058594,5.066406 h -2.582032"
     id="path12" />
  <path
     style="fill:#000000;fill-opacity:1;fill-rule:nonzero;stroke:none"
     d="m 59.980469,18.132812 2.515625,0.257813 c -0.363282,1.246094 -1.195313,2.429687 -2.5,3.554687 -1.292969,1.121094 -2.839844,1.683594 -4.640625,1.683594 -1.121094,0 -2.152344,-0.257812 -3.097657,-0.769531 -0.929687,-0.523437 -1.644531,-1.28125 -2.140624,-2.273437 -0.484376,-0.988282 -0.726563,-2.117188 -0.726563,-3.382813 0,-1.65625 0.378906,-3.257813 1.140625,-4.808594 0.769531,-1.5625 1.765625,-2.71875 2.984375,-3.46875 1.21875,-0.761719 2.535156,-1.144531 3.953125,-1.144531 1.808594,0 3.25,0.5625 4.328125,1.6875 1.082031,1.121094 1.625,2.652344 1.625,4.59375 0,0.742188 -0.06641,1.503906 -0.199219,2.285156 H 52.058594 c -0.03906,0.296875 -0.05469,0.5625 -0.05469,0.800782 0,1.417968 0.320313,2.503906 0.96875,3.253906 0.65625,0.742187 1.457032,1.113281 2.398438,1.113281 0.886718,0 1.757812,-0.289063 2.613281,-0.871094 0.855469,-0.582031 1.523437,-1.417969 1.996094,-2.511719 m -7.507813,-3.753906 h 8.507813 c 0.01172,-0.265625 0.01563,-0.457031 0.01563,-0.570312 0,-1.296875 -0.324219,-2.285156 -0.972656,-2.972656 -0.644532,-0.691407 -1.476563,-1.039063 -2.496094,-1.039063 -1.105469,0 -2.113282,0.378906 -3.027344,1.140625 -0.902344,0.761719 -1.578125,1.90625 -2.027344,3.441406"
     id="path14" />
  <path
     style="fill:#000000;fill-opacity:1;fill-rule:nonzero;stroke:none"
     d="M 65.476562,23.285156 68.234375,10.125 h -2.3125 l 0.414063,-2 h 2.3125 l 0.441406,-2.15625 c 0.230468,-1.074219 0.460937,-1.851562 0.699218,-2.328125 0.25,-0.472656 0.644532,-0.863281 1.1875,-1.167969 C 71.527344,2.15625 72.273438,2 73.214844,2 c 0.65625,0 1.609375,0.140625 2.855468,0.414062 l -0.46875,2.257813 c -0.878906,-0.230469 -1.609374,-0.34375 -2.199218,-0.34375 -0.503906,0 -0.890625,0.128906 -1.15625,0.386719 -0.257813,0.246094 -0.480469,0.839844 -0.671875,1.78125 L 71.230469,8.125 h 2.886719 l -0.414063,2 H 70.816406 L 68.0625,23.285156 h -2.585938"
     id="path16" />
  <path
     style="fill:#000000;fill-opacity:1;fill-rule:nonzero;stroke:none"
     d="m 87.378906,21.1875 -0.429687,2.113281 c -0.617188,0.160157 -1.21875,0.242188 -1.796875,0.242188 -1.03125,0 -1.847656,-0.253907 -2.457032,-0.757813 -0.457031,-0.378906 -0.683593,-0.898437 -0.683593,-1.554687 0,-0.332031 0.121093,-1.097657 0.371093,-2.296875 L 84.222656,10.125 h -2.042968 l 0.414062,-2 h 2.042969 L 85.421875,4.398438 88.375,2.613281 87.21875,8.125 h 2.542969 l -0.429688,2 h -2.527343 l -1.753907,8.378906 c -0.21875,1.066406 -0.328125,1.703125 -0.328125,1.914063 0,0.304687 0.08594,0.535156 0.257813,0.699219 0.179687,0.160156 0.46875,0.242187 0.871093,0.242187 0.570313,0 1.078126,-0.05859 1.527344,-0.171875"
     id="path18" />
  <path
     style="fill:#000000;fill-opacity:1;fill-rule:nonzero;stroke:none"
     d="m 100.58203,18.132812 2.51172,0.257813 c -0.35937,1.246094 -1.19141,2.429687 -2.49609,3.554687 -1.296879,1.121094 -2.839848,1.683594 -4.640629,1.683594 -1.121093,0 -2.15625,-0.257812 -3.097656,-0.769531 -0.933594,-0.523437 -1.644531,-1.28125 -2.140625,-2.273437 -0.484375,-0.988282 -0.730469,-2.117188 -0.730469,-3.382813 0,-1.65625 0.382813,-3.257813 1.144531,-4.808594 0.769532,-1.5625 1.765626,-2.71875 2.984376,-3.46875 1.214843,-0.761719 2.535156,-1.144531 3.953124,-1.144531 1.808594,0 3.249998,0.5625 4.324218,1.6875 1.08594,1.121094 1.62891,2.652344 1.62891,4.59375 0,0.742188 -0.0664,1.503906 -0.19922,2.285156 H 92.660156 c -0.03906,0.296875 -0.05859,0.5625 -0.05859,0.800782 0,1.417968 0.324219,2.503906 0.972657,3.253906 0.65625,0.742187 1.457031,1.113281 2.398437,1.113281 0.882813,0 1.753906,-0.289063 2.613282,-0.871094 0.855468,-0.582031 1.519528,-1.417969 1.996088,-2.511719 m -7.507807,-3.753906 h 8.507807 c 0.008,-0.265625 0.0156,-0.457031 0.0156,-0.570312 0,-1.296875 -0.32422,-2.285156 -0.97266,-2.972656 -0.648434,-0.691407 -1.480465,-1.039063 -2.49609,-1.039063 -1.105468,0 -2.113281,0.378906 -3.027344,1.140625 -0.90625,0.761719 -1.582031,1.90625 -2.027343,3.441406"
     id="path20" />
  <path
     style="fill:#000000;fill-opacity:1;fill-rule:nonzero;stroke:none"
     d="M 106.07813,23.285156 108.83594,10.125 h -2.31641 l 0.41406,-2 H 109.25 l 0.44141,-2.15625 c 0.22656,-1.074219 0.46093,-1.851562 0.69922,-2.328125 0.24609,-0.472656 0.64062,-0.863281 1.18359,-1.167969 C 112.12891,2.15625 112.875,2 113.81641,2 c 0.65625,0 1.60937,0.140625 2.85547,0.414062 l -0.47266,2.257813 c -0.875,-0.230469 -1.60547,-0.34375 -2.19531,-0.34375 -0.50782,0 -0.89063,0.128906 -1.16016,0.386719 -0.25391,0.246094 -0.48047,0.839844 -0.66797,1.78125 L 111.83203,8.125 h 2.88281 l -0.41406,2 h -2.88281 l -2.75391,13.160156 h -2.58593"
     id="path22" />
  <path
     style="fill:#5f76b7;fill-opacity:1;fill-rule:nonzero;stroke:none"
     d="M 123.16797,11.164062 123.79688,8.125 h 1.99609 l 0.5,-2.425781 4.69531,-2.828125 -1.09766,5.253906 h 2.5 l -0.6289,3.039062 H 129.25 l -1.32812,6.355469 c -0.23829,1.152344 -0.35938,1.808594 -0.35938,1.96875 0,0.3125 0.10156,0.5625 0.30078,0.742188 0.19922,0.171875 0.5625,0.257812 1.08594,0.257812 0.17969,0 0.63281,-0.03516 1.35547,-0.101562 l -0.64063,3.042969 c -0.70703,0.140624 -1.42969,0.214843 -2.17187,0.214843 -1.44531,0 -2.4961,-0.277343 -3.15625,-0.828125 -0.65625,-0.5625 -0.98438,-1.339844 -0.98438,-2.328125 0,-0.464843 0.17578,-1.542969 0.52735,-3.226562 l 1.27343,-6.097657 h -1.98437"
     id="path24" />
  <path
     style="fill:#000000;fill-opacity:1;fill-rule:nonzero;stroke:none"
     d="m 142.83984,18.132812 2.51172,0.257813 c -0.36328,1.246094 -1.19531,2.429687 -2.5,3.554687 -1.29297,1.121094 -2.83984,1.683594 -4.63672,1.683594 -1.125,0 -2.15625,-0.257812 -3.09765,-0.769531 -0.9336,-0.523437 -1.64844,-1.28125 -2.14453,-2.273437 -0.48438,-0.988282 -0.72657,-2.117188 -0.72657,-3.382813 0,-1.65625 0.38282,-3.257813 1.14063,-4.808594 0.77344,-1.5625 1.76562,-2.71875 2.98437,-3.46875 1.21875,-0.761719 2.53907,-1.144531 3.95703,-1.144531 1.8086,0 3.25,0.5625 4.32422,1.6875 1.08594,1.121094 1.62891,2.652344 1.62891,4.59375 0,0.742188 -0.0664,1.503906 -0.20313,2.285156 h -11.16015 c -0.0391,0.296875 -0.0586,0.5625 -0.0586,0.800782 0,1.417968 0.32422,2.503906 0.96875,3.253906 0.66016,0.742187 1.45704,1.113281 2.39844,1.113281 0.88672,0 1.75781,-0.289063 2.61328,-0.871094 0.85547,-0.582031 1.52344,-1.417969 2,-2.511719 m -7.51172,-3.753906 h 8.51172 c 0.008,-0.265625 0.0117,-0.457031 0.0117,-0.570312 0,-1.296875 -0.32422,-2.285156 -0.96875,-2.972656 -0.64844,-0.691407 -1.48047,-1.039063 -2.5,-1.039063 -1.10156,0 -2.11328,0.378906 -3.02734,1.140625 -0.90235,0.761719 -1.57813,1.90625 -2.02735,3.441406"
     id="path26" />
  <path
     style="fill:#000000;fill-opacity:1;fill-rule:nonzero;stroke:none"
     d="M 148.33594,23.285156 151.08984,10.125 h -2.3125 l 0.41407,-2 h 2.3125 l 0.4414,-2.15625 c 0.23047,-1.074219 0.46485,-1.851562 0.70313,-2.328125 0.24609,-0.472656 0.64062,-0.863281 1.18359,-1.167969 C 154.38281,2.15625 155.12891,2 156.07422,2 c 0.65625,0 1.60547,0.140625 2.85547,0.414062 l -0.47266,2.257813 c -0.875,-0.230469 -1.60937,-0.34375 -2.19922,-0.34375 -0.5039,0 -0.89062,0.128906 -1.15625,0.386719 -0.25781,0.246094 -0.48047,0.839844 -0.67187,1.78125 L 154.08984,8.125 h 2.88282 l -0.41407,2 h -2.88281 l -2.75781,13.160156 h -2.58203"
     id="path28" />
  <path
     style="fill:#000000;fill-opacity:1;fill-rule:nonzero;stroke:none"
     d="m 164.22266,23.285156 4.38281,-20.925781 h 2.57031 L 168.46484,15.335938 176,8.125 h 3.41406 l -6.46875,5.652344 3.91406,9.507812 h -2.82812 l -3.02734,-7.78125 -3.14063,2.714844 -1.05469,5.066406 h -2.58593"
     id="path30" />
  <path
     style="fill:#000000;fill-opacity:1;fill-rule:nonzero;stroke:none"
     d="m 189.94922,18.132812 2.51172,0.257813 c -0.35938,1.246094 -1.19532,2.429687 -2.4961,3.554687 -1.29687,1.121094 -2.84375,1.683594 -4.64062,1.683594 -1.125,0 -2.15625,-0.257812 -3.09766,-0.769531 -0.93359,-0.523437 -1.64844,-1.28125 -2.14062,-2.273437 -0.48828,-0.988282 -0.73047,-2.117188 -0.73047,-3.382813 0,-1.65625 0.38281,-3.257813 1.14453,-4.808594 0.76953,-1.5625 1.76562,-2.71875 2.98047,-3.46875 1.21875,-0.761719 2.53906,-1.144531 3.95703,-1.144531 1.80859,0 3.25,0.5625 4.32422,1.6875 1.08594,1.121094 1.6289,2.652344 1.6289,4.59375 0,0.742188 -0.0664,1.503906 -0.19921,2.285156 h -11.16407 c -0.0391,0.296875 -0.0586,0.5625 -0.0586,0.800782 0,1.417968 0.32422,2.503906 0.97266,3.253906 0.65625,0.742187 1.45312,1.113281 2.39843,1.113281 0.88282,0 1.75391,-0.289063 2.60938,-0.871094 0.85937,-0.582031 1.52344,-1.417969 2,-2.511719 m -7.50781,-3.753906 h 8.50781 c 0.008,-0.265625 0.0156,-0.457031 0.0156,-0.570312 0,-1.296875 -0.32422,-2.285156 -0.97265,-2.972656 -0.64844,-0.691407 -1.48047,-1.039063 -2.5,-1.039063 -1.10157,0 -2.10938,0.378906 -3.02344,1.140625 -0.90625,0.761719 -1.58203,1.90625 -2.02734,3.441406"
     id="path32" />
  <path
     style="fill:#000000;fill-opacity:1;fill-rule:nonzero;stroke:none"
     d="M 195.44531,23.285156 198.19922,10.125 h -2.3125 l 0.41406,-2 h 2.3125 l 0.44531,-2.15625 c 0.22657,-1.074219 0.46094,-1.851562 0.69922,-2.328125 0.2461,-0.472656 0.64063,-0.863281 1.1836,-1.167969 C 201.49219,2.15625 202.24219,2 203.18359,2 c 0.65625,0 1.60938,0.140625 2.85547,0.414062 l -0.47265,2.257813 c -0.875,-0.230469 -1.60938,-0.34375 -2.19922,-0.34375 -0.50391,0 -0.88672,0.128906 -1.15625,0.386719 -0.25391,0.246094 -0.48047,0.839844 -0.66797,1.78125 L 201.19922,8.125 h 2.88281 l -0.41406,2 h -2.88281 l -2.75391,13.160156 h -2.58594"
     id="path34" />
  <path
     style="fill:#000000;fill-opacity:1;fill-rule:nonzero;stroke:none"
     d="m 206.03906,9.765625 0.17188,-3.910156 0.74218,-3.496094 h 2.94141 l -0.75781,3.496094 -1.5,3.910156 h -1.59766 m 4.72266,0 0.17187,-3.910156 0.74219,-3.496094 h 2.94141 l -0.75391,3.496094 -1.5,3.910156 h -1.60156"
     id="path36" />
  <path
     style="fill:#cacaca;fill-opacity:1;fill-rule:evenodd;stroke:none"
     d="m 59.054688,119.37891 h 39.316406 v 81.125 H 59.054688 Z m 0,0"
     id="path38" />
  <path
     style="fill:#cacaca;fill-opacity:1;fill-rule:evenodd;stroke:none"
     d="M 114.79688,171.23047 78.714844,236.49609 42.632812,171.23047 Z m 0,0"
     id="path40" />
  <path
     style="fill:#000000;fill-opacity:1;fill-rule:nonzero;stroke:none"
     d="m 60.867188,268.27344 c -0.894532,0.76953 -1.753907,1.33593 -2.582032,1.69922 -0.828125,0.35156 -1.714844,0.52734 -2.65625,0.52734 -1.398437,0 -2.527344,-0.41016 -3.382812,-1.22656 -0.859375,-0.82813 -1.285156,-1.88672 -1.285156,-3.17188 0,-0.84375 0.1875,-1.59375 0.570312,-2.23828 0.390625,-0.65625 0.902344,-1.17969 1.542969,-1.57031 0.636719,-0.40235 1.417969,-0.6875 2.339843,-0.85938 0.582032,-0.11328 1.679688,-0.20312 3.296876,-0.26953 1.628906,-0.0664 2.792968,-0.23828 3.5,-0.51562 0.199218,-0.70313 0.296874,-1.28907 0.296874,-1.75391 0,-0.60156 -0.21875,-1.07031 -0.65625,-1.41406 -0.597656,-0.47656 -1.472656,-0.71485 -2.625,-0.71485 -1.085937,0 -1.976562,0.24219 -2.671874,0.73047 -0.683594,0.47266 -1.183594,1.15625 -1.496094,2.03907 l -2.613282,-0.22657 c 0.53125,-1.5039 1.375,-2.65625 2.527344,-3.45703 1.160156,-0.79687 2.621094,-1.19922 4.382813,-1.19922 1.875,0 3.359375,0.44922 4.453125,1.34375 0.835937,0.66407 1.257812,1.53125 1.257812,2.59766 0,0.80859 -0.121094,1.74609 -0.359375,2.8125 l -0.839843,3.76953 c -0.269532,1.19922 -0.402344,2.17578 -0.402344,2.92578 0,0.47656 0.105468,1.16016 0.316406,2.05469 h -2.613281 c -0.144531,-0.49219 -0.242188,-1.12109 -0.300781,-1.88281 m 0.957031,-5.79688 c -0.363281,0.14453 -0.753907,0.25391 -1.171875,0.32813 -0.410156,0.0781 -1.097656,0.15625 -2.070313,0.24218 -1.503906,0.13282 -2.5625,0.30469 -3.183593,0.51563 -0.617188,0.19922 -1.082032,0.52344 -1.398438,0.96875 -0.3125,0.44922 -0.46875,0.94531 -0.46875,1.48437 0,0.72657 0.246094,1.32032 0.742188,1.78516 0.503906,0.46875 1.214843,0.69922 2.140624,0.69922 0.855469,0 1.679688,-0.22266 2.46875,-0.66797 0.789063,-0.45703 1.414063,-1.08984 1.871094,-1.89844 0.457032,-0.8125 0.8125,-1.96093 1.070313,-3.45703"
     id="path42" />
  <path
     style="fill:#000000;fill-opacity:1;fill-rule:nonzero;stroke:none"
     d="m 66.921875,270.15625 3.167969,-15.16016 H 72.375 l -0.644531,3.09766 c 0.78125,-1.17188 1.542969,-2.03516 2.285156,-2.59766 0.75,-0.5625 1.519531,-0.84375 2.296875,-0.84375 0.515625,0 1.148438,0.1875 1.898438,0.5586 l -1.054688,2.39843 c -0.449219,-0.32421 -0.9375,-0.48437 -1.46875,-0.48437 -0.90625,0 -1.832031,0.50391 -2.785156,1.51172 -0.953125,1.00781 -1.699219,2.82031 -2.242188,5.4375 L 69.375,270.15625 h -2.453125"
     id="path44" />
  <path
     style="fill:#000000;fill-opacity:1;fill-rule:nonzero;stroke:none"
     d="m 82.722656,268.05859 -0.425781,2.11328 c -0.621094,0.16016 -1.21875,0.24219 -1.800781,0.24219 -1.027344,0 -1.847656,-0.25 -2.453125,-0.75781 -0.457031,-0.37891 -0.6875,-0.89844 -0.6875,-1.55469 0,-0.33203 0.125,-1.09765 0.371093,-2.29687 l 1.84375,-8.8086 h -2.042968 l 0.414062,-2 h 2.042969 l 0.785156,-3.72656 2.953125,-1.78516 -1.15625,5.51172 h 2.542969 l -0.429687,2 h -2.527344 l -1.753906,8.37891 c -0.21875,1.06641 -0.332032,1.70312 -0.332032,1.91406 0,0.30469 0.08594,0.53516 0.257813,0.69922 0.183593,0.16016 0.472656,0.24219 0.871093,0.24219 0.570313,0 1.082032,-0.0586 1.527344,-0.17188"
     id="path46" />
  <path
     style="fill:#000000;fill-opacity:1;fill-rule:nonzero;stroke:none"
     d="m 88.460938,252.15625 0.617187,-2.92578 h 2.566406 l -0.613281,2.92578 h -2.570312 m -3.765626,18 3.167969,-15.16016 h 2.582031 l -3.167968,15.16016 h -2.582032"
     id="path48" />
  <path
     style="fill:#000000;fill-opacity:1;fill-rule:nonzero;stroke:none"
     d="m 101.76953,264.63281 2.58203,0.26953 c -0.64843,1.89453 -1.57031,3.30469 -2.76953,4.22657 -1.1914,0.91406 -2.546874,1.37109 -4.070311,1.37109 -1.644531,0 -2.980469,-0.53125 -4.011719,-1.59766 -1.015625,-1.0664 -1.527344,-2.55468 -1.527344,-4.46875 0,-1.65625 0.332032,-3.28515 0.988282,-4.88281 0.65625,-1.59766 1.59375,-2.8125 2.8125,-3.64062 1.226562,-0.83594 2.625,-1.25782 4.195312,-1.25782 1.62891,0 2.91797,0.46485 3.86719,1.38672 0.95312,0.91406 1.42969,2.125 1.42969,3.64063 l -2.54297,0.17187 c -0.008,-0.96094 -0.28907,-1.71484 -0.83985,-2.25781 -0.54297,-0.54297 -1.26172,-0.8125 -2.156248,-0.8125 -1.039062,0 -1.9375,0.32812 -2.699218,0.98437 -0.761719,0.65625 -1.359375,1.65625 -1.796875,3 -0.429688,1.33204 -0.644531,2.61719 -0.644531,3.85157 0,1.29687 0.285156,2.26562 0.859374,2.91406 0.570313,0.64844 1.273438,0.96875 2.109376,0.96875 0.839843,0 1.636718,-0.31641 2.398437,-0.95313 0.773435,-0.64062 1.375005,-1.60937 1.816405,-2.91406"
     id="path50" />
  <path
     style="fill:#000000;fill-opacity:1;fill-rule:nonzero;stroke:none"
     d="m 116.27344,267.41797 c -1.82031,2.05469 -3.67969,3.08203 -5.58203,3.08203 -1.17188,0 -2.11719,-0.33203 -2.84375,-1 -0.71094,-0.67578 -1.07032,-1.5 -1.07032,-2.46875 0,-0.63672 0.16407,-1.73047 0.48829,-3.28516 l 1.82421,-8.75 h 2.58594 l -2.02734,9.69532 c -0.17188,0.80859 -0.25781,1.43359 -0.25781,1.88281 0,0.57031 0.17187,1.01953 0.51562,1.34375 0.35156,0.3125 0.86328,0.46875 1.53906,0.46875 0.72266,0 1.42969,-0.17578 2.11328,-0.52735 0.69532,-0.35156 1.28907,-0.82812 1.78516,-1.42968 0.50391,-0.59766 0.91406,-1.3086 1.22656,-2.125 0.21094,-0.52344 0.45313,-1.44141 0.73047,-2.75391 l 1.3711,-6.55469 h 2.58203 l -3.16797,15.16016 h -2.38672 l 0.57422,-2.73828"
     id="path52" />
  <path
     style="fill:#000000;fill-opacity:1;fill-rule:nonzero;stroke:none"
     d="m 121.99609,270.15625 4.36719,-20.92578 h 2.58594 l -4.36719,20.92578 h -2.58594"
     id="path54" />
  <path
     style="fill:#000000;fill-opacity:1;fill-rule:nonzero;stroke:none"
     d="m 138.92578,268.27344 c -0.89453,0.76953 -1.75391,1.33593 -2.58203,1.69922 -0.82813,0.35156 -1.71484,0.52734 -2.65625,0.52734 -1.39844,0 -2.52734,-0.41016 -3.38281,-1.22656 -0.85547,-0.82813 -1.28516,-1.88672 -1.28516,-3.17188 0,-0.84375 0.19141,-1.59375 0.57031,-2.23828 0.39063,-0.65625 0.90625,-1.17969 1.54297,-1.57031 0.63672,-0.40235 1.41797,-0.6875 2.33985,-0.85938 0.58203,-0.11328 1.67968,-0.20312 3.30078,-0.26953 1.625,-0.0664 2.79297,-0.23828 3.49609,-0.51562 0.19922,-0.70313 0.30078,-1.28907 0.30078,-1.75391 0,-0.60156 -0.21875,-1.07031 -0.65625,-1.41406 -0.60156,-0.47656 -1.47656,-0.71485 -2.6289,-0.71485 -1.08594,0 -1.97266,0.24219 -2.66797,0.73047 -0.6875,0.47266 -1.1875,1.15625 -1.5,2.03907 l -2.61328,-0.22657 c 0.53515,-1.5039 1.375,-2.65625 2.52734,-3.45703 1.16016,-0.79687 2.62109,-1.19922 4.38281,-1.19922 1.875,0 3.35938,0.44922 4.45313,1.34375 0.83984,0.66407 1.25781,1.53125 1.25781,2.59766 0,0.80859 -0.12109,1.74609 -0.35547,2.8125 l -0.84375,3.76953 c -0.26562,1.19922 -0.39844,2.17578 -0.39844,2.92578 0,0.47656 0.10157,1.16016 0.3125,2.05469 h -2.61328 c -0.14062,-0.49219 -0.24219,-1.12109 -0.30078,-1.88281 m 0.95703,-5.79688 c -0.35937,0.14453 -0.75,0.25391 -1.16797,0.32813 -0.41015,0.0781 -1.10156,0.15625 -2.07031,0.24218 -1.50391,0.13282 -2.56641,0.30469 -3.18359,0.51563 -0.6211,0.19922 -1.08594,0.52344 -1.39844,0.96875 -0.31641,0.44922 -0.47266,0.94531 -0.47266,1.48437 0,0.72657 0.2461,1.32032 0.74219,1.78516 0.50391,0.46875 1.21875,0.69922 2.14063,0.69922 0.85546,0 1.67968,-0.22266 2.46875,-0.66797 0.79296,-0.45703 1.41406,-1.08984 1.87109,-1.89844 0.45703,-0.8125 0.81641,-1.96093 1.07031,-3.45703"
     id="path56" />
  <path
     style="fill:#000000;fill-opacity:1;fill-rule:nonzero;stroke:none"
     d="m 151.01953,268.05859 -0.42969,2.11328 c -0.61718,0.16016 -1.21875,0.24219 -1.79687,0.24219 -1.02735,0 -1.84766,-0.25 -2.45703,-0.75781 -0.45703,-0.37891 -0.6836,-0.89844 -0.6836,-1.55469 0,-0.33203 0.1211,-1.09765 0.3711,-2.29687 l 1.83984,-8.8086 h -2.03906 l 0.41406,-2 h 2.03906 l 0.78516,-3.72656 2.95703,-1.78516 -1.15625,5.51172 h 2.53906 l -0.42578,2 h -2.52734 l -1.75781,8.37891 c -0.21875,1.06641 -0.32813,1.70312 -0.32813,1.91406 0,0.30469 0.0859,0.53516 0.25781,0.69922 0.17969,0.16016 0.47266,0.24219 0.8711,0.24219 0.57031,0 1.07812,-0.0586 1.52734,-0.17188"
     id="path58" />
  <path
     style="fill:#000000;fill-opacity:1;fill-rule:nonzero;stroke:none"
     d="m 156.75781,252.15625 0.61328,-2.92578 h 2.57032 l -0.61329,2.92578 h -2.57031 m -3.76953,18 3.17188,-15.16016 h 2.58203 l -3.16797,15.16016 h -2.58594"
     id="path60" />
  <path
     style="fill:#000000;fill-opacity:1;fill-rule:nonzero;stroke:none"
     d="m 160.05469,264.40234 c 0,-2.95703 0.87109,-5.41015 2.61328,-7.35156 1.4375,-1.59766 3.32031,-2.39844 5.65234,-2.39844 1.82813,0 3.30078,0.57422 4.41406,1.71485 1.1211,1.14062 1.6836,2.68359 1.6836,4.625 0,1.74218 -0.35156,3.36328 -1.0586,4.86718 -0.70312,1.4961 -1.70703,2.64063 -3.01171,3.44141 -1.29297,0.80078 -2.66016,1.19922 -4.09766,1.19922 -1.17969,0 -2.25391,-0.25391 -3.22656,-0.75781 -0.96094,-0.50391 -1.69532,-1.21875 -2.21094,-2.14063 -0.50391,-0.92187 -0.75781,-1.98828 -0.75781,-3.19922 m 2.58593,-0.2539 c 0,1.42578 0.33985,2.51172 1.02735,3.2539 0.68359,0.73438 1.55469,1.09766 2.61328,1.09766 0.55078,0 1.09766,-0.10938 1.64062,-0.32813 0.54297,-0.22656 1.04688,-0.57031 1.51172,-1.02734 0.46875,-0.45703 0.86328,-0.97656 1.1875,-1.55469 0.33203,-0.58984 0.59766,-1.22265 0.79688,-1.89843 0.29687,-0.94141 0.44531,-1.84766 0.44531,-2.71485 0,-1.36719 -0.34766,-2.42969 -1.04297,-3.18359 -0.6875,-0.75781 -1.55078,-1.14063 -2.59765,-1.14063 -0.8086,0 -1.54688,0.19532 -2.21485,0.58594 -0.66406,0.37891 -1.26953,0.94141 -1.8125,1.68359 -0.53125,0.74219 -0.92578,1.60938 -1.18359,2.59766 -0.25,0.98047 -0.3711,1.85547 -0.3711,2.62891"
     id="path62" />
  <path
     style="fill:#000000;fill-opacity:1;fill-rule:nonzero;stroke:none"
     d="m 175.875,270.15625 3.16797,-15.16016 h 2.33984 l -0.55469,2.64063 c 1.01563,-1.03516 1.96875,-1.79297 2.85547,-2.26953 0.88282,-0.47657 1.78907,-0.71485 2.71094,-0.71485 1.22656,0 2.1875,0.33594 2.88281,1 0.70703,0.66797 1.0586,1.5586 1.0586,2.67188 0,0.55859 -0.125,1.44531 -0.3711,2.65234 l -1.92968,9.17969 h -2.58204 l 2.01172,-9.60547 c 0.19922,-0.93359 0.30078,-1.625 0.30078,-2.07031 0,-0.50391 -0.17578,-0.91406 -0.52734,-1.22656 -0.34375,-0.31641 -0.84375,-0.47266 -1.5,-0.47266 -1.32422,0 -2.50391,0.47656 -3.53906,1.42578 -1.03125,0.95313 -1.78516,2.58594 -2.26953,4.89844 l -1.47266,7.05078 H 175.875"
     id="path64" />
  <path
     style="fill:#000000;fill-opacity:1;fill-rule:nonzero;stroke:none"
     d="m 258.55859,18.671875 2,-0.175781 c 0.0937,0.804687 0.3125,1.464844 0.65625,1.980468 0.35157,0.511719 0.89063,0.925782 1.61719,1.246094 0.73047,0.316406 1.55078,0.472656 2.46094,0.472656 0.8125,0 1.52344,-0.121093 2.14453,-0.363281 0.62109,-0.238281 1.07812,-0.566406 1.37891,-0.984375 0.30468,-0.421875 0.46093,-0.882812 0.46093,-1.378906 0,-0.5 -0.14843,-0.9375 -0.4375,-1.3125 -0.29297,-0.378906 -0.77343,-0.695312 -1.44531,-0.949219 -0.42969,-0.167969 -1.38281,-0.425781 -2.85547,-0.777343 -1.47265,-0.355469 -2.5039,-0.691407 -3.09375,-1.007813 -0.76562,-0.398437 -1.33984,-0.894531 -1.71875,-1.484375 -0.37109,-0.597656 -0.55859,-1.265625 -0.55859,-2.003906 0,-0.808594 0.23047,-1.5625 0.6914,-2.261719 0.45704,-0.707031 1.12891,-1.246094 2.01172,-1.609375 0.88282,-0.363281 1.86328,-0.546875 2.94141,-0.546875 1.1875,0 2.23437,0.195313 3.14062,0.578125 0.91016,0.382812 1.60938,0.941406 2.09766,1.6875 0.48828,0.742188 0.75391,1.585938 0.78906,2.523438 l -2.03515,0.15625 c -0.10938,-1.015626 -0.48047,-1.78125 -1.11328,-2.296876 -0.62891,-0.519531 -1.5586,-0.777343 -2.78907,-0.777343 -1.28515,0 -2.22265,0.238281 -2.8125,0.710937 -0.58203,0.464844 -0.875,1.03125 -0.875,1.695313 0,0.574219 0.20703,1.050781 0.625,1.421875 0.40625,0.371094 1.47266,0.753906 3.19141,1.148437 1.73047,0.386719 2.91406,0.726563 3.55469,1.015625 0.93359,0.429688 1.62109,0.976563 2.0664,1.640625 0.44532,0.65625 0.66797,1.414063 0.66797,2.277344 0,0.851563 -0.24219,1.65625 -0.73047,2.414063 -0.49218,0.753906 -1.19531,1.339843 -2.11328,1.761718 -0.91015,0.417969 -1.9375,0.625 -3.08203,0.625 -1.45312,0 -2.67187,-0.210937 -3.65625,-0.636718 -0.97656,-0.421876 -1.74609,-1.054688 -2.30469,-1.902344 -0.55468,-0.851563 -0.84765,-1.816406 -0.875,-2.886719"
     id="path66" />
  <path
     style="fill:#000000;fill-opacity:1;fill-rule:nonzero;stroke:none"
     d="M 274.24219,23.824219 V 7.789062 h 6.04687 c 1.06641,0 1.87891,0.050782 2.44141,0.152344 0.78515,0.132813 1.44531,0.382813 1.97656,0.753906 0.53516,0.367188 0.96094,0.878907 1.28125,1.542969 0.32813,0.664063 0.49219,1.394531 0.49219,2.1875 0,1.363281 -0.4336,2.519531 -1.30078,3.46875 -0.86719,0.941407 -2.4375,1.410157 -4.70313,1.410157 h -4.11328 v 6.519531 h -2.12109 m 2.12109,-8.410157 h 4.14453 c 1.3711,0 2.34375,-0.257812 2.92188,-0.765624 0.57422,-0.511719 0.86328,-1.230469 0.86328,-2.15625 0,-0.671876 -0.17188,-1.242188 -0.51563,-1.71875 C 283.44141,10.292969 283,9.976562 282.44531,9.824219 282.08594,9.730469 281.42578,9.679688 280.46484,9.679688 h -4.10156 v 5.734374"
     id="path68" />
  <path
     style="fill:#000000;fill-opacity:1;fill-rule:nonzero;stroke:none"
     d="M 289.24609,23.824219 V 7.789062 h 11.59375 v 1.890626 h -9.46875 v 4.914062 h 8.86719 v 1.878906 h -8.86719 v 5.457032 h 9.84375 v 1.894531 h -11.96875"
     id="path70" />
  <path
     style="fill:#000000;fill-opacity:1;fill-rule:nonzero;stroke:none"
     d="M 304.21094,23.824219 V 7.789062 h 11.59375 v 1.890626 h -9.47266 v 4.914062 h 8.87109 v 1.878906 h -8.87109 v 5.457032 h 9.84375 v 1.894531 h -11.96484"
     id="path72" />
  <path
     style="fill:#000000;fill-opacity:1;fill-rule:nonzero;stroke:none"
     d="m 330.57031,18.203125 2.1211,0.535156 c -0.44532,1.742188 -1.2461,3.074219 -2.40625,3.992188 -1.15235,0.910156 -2.5625,1.367187 -4.23438,1.367187 -1.72656,0 -3.13281,-0.351562 -4.21875,-1.050781 -1.08203,-0.707031 -1.90625,-1.726563 -2.47266,-3.0625 -0.5625,-1.335937 -0.84375,-2.765625 -0.84375,-4.296875 0,-1.671875 0.31641,-3.125 0.95313,-4.367188 0.64062,-1.246093 1.54687,-2.1875 2.72266,-2.832031 1.17968,-0.648437 2.48046,-0.972656 3.89453,-0.972656 1.60156,0 2.95312,0.410156 4.04687,1.226563 1.09375,0.816406 1.85547,1.964843 2.28516,3.445312 l -2.08985,0.492188 c -0.37109,-1.167969 -0.91015,-2.015626 -1.61718,-2.550782 -0.70703,-0.53125 -1.59766,-0.796875 -2.66797,-0.796875 -1.23438,0 -2.26563,0.292969 -3.09766,0.886719 -0.82422,0.589844 -1.40234,1.382812 -1.73828,2.382812 -0.33594,0.992188 -0.50391,2.015626 -0.50391,3.074219 0,1.363281 0.19922,2.554688 0.58985,3.574219 0.40234,1.015625 1.02344,1.773438 1.85937,2.277344 0.83985,0.503906 1.7461,0.753906 2.72657,0.753906 1.1875,0 2.1914,-0.34375 3.01562,-1.027344 0.82422,-0.6875 1.38281,-1.703125 1.67578,-3.050781"
     id="path74" />
  <path
     style="fill:#000000;fill-opacity:1;fill-rule:nonzero;stroke:none"
     d="M 335.38281,23.824219 V 7.789062 h 2.1211 V 14.375 h 8.33593 V 7.789062 h 2.1211 v 16.035157 h -2.1211 v -7.558594 h -8.33593 v 7.558594 h -2.1211"
     id="path76" />
  <path
     style="fill:#000000;fill-opacity:1;fill-rule:nonzero;stroke:none"
     d="M 357.71484,23.824219 V 7.789062 h 6.05078 c 1.0625,0 1.875,0.050782 2.4375,0.152344 0.78907,0.132813 1.44922,0.382813 1.98047,0.753906 0.53125,0.367188 0.95703,0.878907 1.28125,1.542969 0.32813,0.664063 0.49219,1.394531 0.49219,2.1875 0,1.363281 -0.4375,2.519531 -1.30469,3.46875 -0.86718,0.941407 -2.43359,1.410157 -4.70312,1.410157 h -4.10938 v 6.519531 h -2.125 m 2.125,-8.410157 h 4.14453 c 1.3711,0 2.34375,-0.257812 2.91797,-0.765624 0.57813,-0.511719 0.86719,-1.230469 0.86719,-2.15625 0,-0.671876 -0.17187,-1.242188 -0.51562,-1.71875 -0.33594,-0.480469 -0.78125,-0.796876 -1.33594,-0.949219 -0.35547,-0.09375 -1.01563,-0.144531 -1.97656,-0.144531 h -4.10157 v 5.734374"
     id="path78" />
  <path
     style="fill:#000000;fill-opacity:1;fill-rule:nonzero;stroke:none"
     d="M 372.58984,23.824219 V 7.789062 h 2.125 v 14.140626 h 7.89453 v 1.894531 h -10.01953"
     id="path80" />
  <path
     style="fill:#000000;fill-opacity:1;fill-rule:nonzero;stroke:none"
     d="m 383.38672,23.824219 6.15625,-16.035157 h 2.28906 l 6.5625,16.035157 h -2.41797 l -1.87109,-4.855469 h -6.70313 l -1.76172,4.855469 h -2.2539 m 4.625,-6.585938 h 5.4375 l -1.67188,-4.441406 c -0.51172,-1.347656 -0.89062,-2.457031 -1.14062,-3.324219 -0.20313,1.027344 -0.49219,2.050782 -0.86328,3.0625 l -1.76172,4.703125"
     id="path82" />
  <path
     style="fill:#000000;fill-opacity:1;fill-rule:nonzero;stroke:none"
     d="M 400.08984,23.824219 V 7.789062 h 2.17578 l 8.42188,12.589844 V 7.789062 h 2.03516 v 16.035157 h -2.17969 l -8.42188,-12.601563 v 12.601563 h -2.03125"
     id="path84" />
  <path
     style="fill:#000000;fill-opacity:1;fill-rule:nonzero;stroke:none"
     d="M 272.94141,97.875 V 81.839844 h 6.04687 c 1.0625,0 1.87891,0.05078 2.4375,0.152344 0.78906,0.132812 1.44922,0.382812 1.98047,0.753906 0.53125,0.367187 0.96094,0.878906 1.28125,1.542968 0.32812,0.664063 0.49219,1.394532 0.49219,2.1875 0,1.363282 -0.4336,2.519532 -1.30078,3.46875 -0.8711,0.941407 -2.4375,1.410157 -4.70313,1.410157 H 275.0625 V 97.875 h -2.12109 m 2.12109,-8.410156 h 4.14453 c 1.37109,0 2.34375,-0.257813 2.92188,-0.765625 0.57421,-0.511719 0.86328,-1.230469 0.86328,-2.15625 0,-0.671875 -0.17188,-1.242188 -0.51563,-1.71875 -0.33594,-0.480469 -0.78125,-0.796875 -1.33203,-0.949219 -0.35937,-0.09375 -1.01953,-0.144531 -1.98047,-0.144531 h -4.10156 v 5.734375"
     id="path86" />
  <path
     style="fill:#000000;fill-opacity:1;fill-rule:nonzero;stroke:none"
     d="M 287.96875,97.875 V 81.839844 h 2.12109 v 6.585937 h 8.33594 v -6.585937 h 2.12109 V 97.875 h -2.12109 v -7.558594 h -8.33594 V 97.875 h -2.12109"
     id="path88" />
  <path
     style="fill:#000000;fill-opacity:1;fill-rule:nonzero;stroke:none"
     d="m 303.44531,90.066406 c 0,-2.664062 0.71485,-4.746094 2.14453,-6.246094 1.42578,-1.511718 3.27344,-2.265624 5.53125,-2.265624 1.48047,0 2.81641,0.355468 4.00391,1.0625 1.1875,0.707031 2.09375,1.695312 2.71484,2.964843 0.625,1.261719 0.9375,2.691407 0.9375,4.296875 0,1.625 -0.32812,3.082032 -0.98437,4.363282 -0.65625,1.285156 -1.58594,2.257812 -2.78906,2.921874 -1.20313,0.65625 -2.5,0.984376 -3.89063,0.984376 -1.51172,0 -2.85937,-0.367188 -4.04687,-1.09375 -1.19141,-0.730469 -2.08985,-1.726563 -2.70313,-2.988282 -0.61328,-1.261718 -0.91797,-2.59375 -0.91797,-4 m 2.1875,0.03125 c 0,1.933594 0.51563,3.457032 1.55078,4.570313 1.04297,1.109375 2.34766,1.664062 3.91797,1.664062 1.59766,0 2.91016,-0.5625 3.9375,-1.683593 1.03516,-1.125 1.55078,-2.71875 1.55078,-4.78125 0,-1.304688 -0.22265,-2.441407 -0.66406,-3.410157 -0.4375,-0.980469 -1.08594,-1.734375 -1.9375,-2.265625 -0.84766,-0.539062 -1.79687,-0.808594 -2.85547,-0.808594 -1.5,0 -2.79687,0.515626 -3.88281,1.550782 -1.07813,1.03125 -1.61719,2.75 -1.61719,5.164062"
     id="path90" />
  <path
     style="fill:#000000;fill-opacity:1;fill-rule:nonzero;stroke:none"
     d="M 321.48047,97.875 V 81.839844 h 2.17578 l 8.42187,12.589844 V 81.839844 h 2.03516 V 97.875 H 331.9375 L 323.51562,85.273438 V 97.875 h -2.03515"
     id="path92" />
  <path
     style="fill:#000000;fill-opacity:1;fill-rule:nonzero;stroke:none"
     d="M 337.73437,97.875 V 81.839844 h 11.59375 v 1.890625 h -9.47265 v 4.914062 h 8.87109 v 1.878907 h -8.87109 v 5.457031 h 9.84375 V 97.875 h -11.96485"
     id="path94" />
  <path
     style="fill:#000000;fill-opacity:1;fill-rule:nonzero;stroke:none"
     d="M 352.58594,97.875 V 81.839844 h 3.19531 l 3.79297,11.351562 c 0.35156,1.058594 0.60547,1.851563 0.76562,2.375 0.1836,-0.582031 0.46875,-1.441406 0.85547,-2.570312 l 3.83985,-11.15625 h 2.85156 V 97.875 h -2.04297 V 84.453125 L 361.18359,97.875 h -1.91406 L 354.63281,84.222656 V 97.875 h -2.04687"
     id="path96" />
  <path
     style="fill:#000000;fill-opacity:1;fill-rule:nonzero;stroke:none"
     d="M 371.37891,97.875 V 81.839844 h 11.59375 v 1.890625 H 373.5 v 4.914062 h 8.87109 v 1.878907 H 373.5 v 5.457031 h 9.84375 V 97.875 h -11.96484"
     id="path98" />
  <path
     style="fill:#000000;fill-opacity:1;fill-rule:nonzero;stroke:none"
     d="m 385.57422,92.722656 2,-0.175781 c 0.0976,0.804687 0.3164,1.460937 0.65625,1.980469 0.35156,0.511718 0.89062,0.925781 1.62109,1.246094 0.72656,0.3125 1.54688,0.472656 2.46094,0.472656 0.80859,0 1.52344,-0.121094 2.14453,-0.363282 0.61719,-0.238281 1.07813,-0.566406 1.375,-0.984374 0.30859,-0.421876 0.46094,-0.882813 0.46094,-1.378907 0,-0.5 -0.14453,-0.9375 -0.4375,-1.3125 -0.29297,-0.378906 -0.77344,-0.695312 -1.44531,-0.949219 -0.42969,-0.167968 -1.37891,-0.425781 -2.85157,-0.777343 -1.47656,-0.355469 -2.50781,-0.691407 -3.09765,-1.007813 -0.76563,-0.398437 -1.33594,-0.894531 -1.71485,-1.484375 -0.375,-0.597656 -0.55859,-1.265625 -0.55859,-2.003906 0,-0.808594 0.23047,-1.5625 0.6875,-2.261719 0.46094,-0.707031 1.12891,-1.246094 2.01172,-1.609375 0.88281,-0.363281 1.86328,-0.546875 2.94531,-0.546875 1.1875,0 2.23438,0.191406 3.13672,0.578125 0.91016,0.378907 1.61328,0.941407 2.10156,1.6875 0.48828,0.742188 0.75,1.585938 0.78516,2.523438 l -2.03125,0.15625 c -0.10938,-1.015625 -0.48438,-1.78125 -1.11719,-2.296875 -0.62891,-0.519532 -1.55859,-0.777344 -2.78906,-0.777344 -1.28516,0 -2.21875,0.234375 -2.8125,0.710938 -0.58203,0.464843 -0.875,1.03125 -0.875,1.695312 0,0.574219 0.21094,1.050781 0.625,1.421875 0.40625,0.371094 1.47265,0.753906 3.19531,1.148437 1.72656,0.386719 2.91016,0.726563 3.55469,1.015626 0.92969,0.429687 1.62109,0.976562 2.0664,1.640624 0.44532,0.65625 0.66797,1.414063 0.66797,2.277344 0,0.851563 -0.24609,1.65625 -0.73437,2.414063 -0.48828,0.753906 -1.19141,1.339843 -2.10938,1.761719 -0.91406,0.417968 -1.9414,0.625 -3.08593,0.625 -1.45313,0 -2.66797,-0.210938 -3.65235,-0.636719 -0.97656,-0.421875 -1.74609,-1.054688 -2.30859,-1.902344 -0.55469,-0.851563 -0.84766,-1.816406 -0.875,-2.886719"
     id="path100" />
  <path
     style="fill:#7f0000;fill-opacity:0.75;fill-rule:evenodd;stroke:#fcbb06;stroke-width:6.4;stroke-linecap:round;stroke-linejoin:miter;stroke-miterlimit:4;stroke-opacity:1"
     d="m 141.92969,59.367188 34.40625,52.683592"
     id="path102" />
  <path
     style="fill:none;stroke:#fcbb06;stroke-width:6.4;stroke-linecap:round;stroke-linejoin:miter;stroke-miterlimit:4;stroke-opacity:1"
     d="M 184.9375,64.207031 135.47656,105.0625"
     id="path104" />
</svg>
