<?xml version="1.0" encoding="UTF-8" standalone="no"?>
<svg
   xmlns:dc="http://purl.org/dc/elements/1.1/"
   xmlns:cc="http://creativecommons.org/ns#"
   xmlns:rdf="http://www.w3.org/1999/02/22-rdf-syntax-ns#"
   xmlns:svg="http://www.w3.org/2000/svg"
   xmlns="http://www.w3.org/2000/svg"
   xmlns:sodipodi="http://sodipodi.sourceforge.net/DTD/sodipodi-0.dtd"
   xmlns:inkscape="http://www.inkscape.org/namespaces/inkscape"
   width="364.7128"
   height="705.18243"
   version="1.1"
   id="svg149"
   sodipodi:docname="crowd.svg"
   inkscape:version="1.0.2 (e86c870879, 2021-01-15)">
  <defs
     id="defs153" />
  <sodipodi:namedview
     pagecolor="#ffffff"
     bordercolor="#666666"
     borderopacity="1"
     objecttolerance="10"
     gridtolerance="10"
     guidetolerance="10"
     inkscape:pageopacity="0"
     inkscape:pageshadow="2"
     inkscape:window-width="1920"
     inkscape:window-height="1119"
     id="namedview151"
     showgrid="false"
     inkscape:zoom="1.3083333"
     inkscape:cx="327.50198"
     inkscape:cy="352.14937"
     inkscape:window-x="1"
     inkscape:window-y="1080"
     inkscape:window-maximized="1"
     inkscape:current-layer="svg149" />
  <title
     id="title2">smaller Crowd_RDC_Color</title>
  <metadata
     id="metadata7072">image/svg+xml<rdf:RDF>
  <cc:Work
     rdf:about="">
    <dc:format>image/svg+xml</dc:format>
    <dc:type
       rdf:resource="http://purl.org/dc/dcmitype/StillImage" />
    <dc:title>smaller Crowd_RDC_Color</dc:title>
  </cc:Work>
</rdf:RDF>
</metadata>
  <g
     id="g1527"
     transform="translate(-14.374562,-70.854136)">
    <path
       d="m 271.8161,235.68121 c 0,-62.36865 17.67651,-112.92853 39.48157,-112.92853 21.80511,0 39.48163,50.55988 39.48163,112.92853 0,0 0,0 0,0"
       id="path5013-7"
       stroke-dashoffset="0"
       stroke-miterlimit="4"
       fill-rule="nonzero"
       fill="#002154" />
    <path
       d="m 213.3833,219.68094 c 0,-50.98276 17.67654,-92.31241 39.4816,-92.31241 21.80511,0 39.4816,41.32965 39.4816,92.31241 0,0 0,0 0,0"
       id="path5015-3"
       stroke-dashoffset="0"
       stroke-miterlimit="4"
       fill-rule="nonzero"
       fill="#fff5aa" />
    <path
       d="m 156.52982,219.68085 c 0,-54.38158 17.67651,-98.46666 39.48159,-98.46666 21.80509,0 39.4816,44.08508 39.4816,98.46666 0,0 0,0 0,0"
       id="path5017-1"
       stroke-dashoffset="0"
       stroke-miterlimit="4"
       fill-rule="nonzero"
       fill="#174c41" />
    <path
       d="m 101.25555,219.68091 c 0,-49.28331 17.67658,-89.23531 39.48163,-89.23531 21.80506,0 39.48157,39.952 39.48157,89.23531 0,0 0,0 0,0"
       id="path5019-5"
       stroke-dashoffset="0"
       stroke-miterlimit="4"
       fill-rule="nonzero"
       fill="#6d0000" />
    <path
       id="path5021-9"
       d="m 45.981319,227.68105 c 0,-56.25069 17.676521,-101.85099 39.481632,-101.85099 21.805059,0 39.481569,45.6003 39.481569,101.85099 0,0 0,0 0,0"
       stroke-dashoffset="0"
       stroke-miterlimit="4"
       fill-rule="nonzero"
       fill="#a9b5c9" />
    <path
       d="m 290.76727,105.82892 c 0,16.99428 12.37354,30.77081 27.63715,30.77081 15.26355,0 27.63708,-13.77658 27.63708,-30.77081 0,-16.994249 -12.37353,-30.7708 -27.63708,-30.7708 -12.50873,0 -23.45795,9.354248 -26.69544,22.806747"
       id="path5023-3"
       stroke-dashoffset="0"
       stroke-miterlimit="4"
       fill-rule="nonzero"
       fill="#47301c" />
    <path
       d="m 233.91376,111.21381 c 0,14.86999 10.60589,26.92445 23.68896,26.92445 13.08304,0 23.68894,-12.05449 23.68894,-26.92445 0,-14.869983 -10.6059,-26.924457 -23.68894,-26.924457 -10.72177,0 -20.10678,8.184967 -22.88177,19.955917"
       id="path5025-5"
       stroke-dashoffset="0"
       stroke-miterlimit="4"
       fill-rule="nonzero"
       fill="#cc813b" />
    <path
       d="m 168.40066,106.44901 c 4.42551,15.99865 18.25367,26.27958 30.88608,22.9631 12.63239,-3.31644 19.28537,-18.97444 14.85987,-34.973068 -4.42551,-15.998672 -18.25367,-26.279594 -30.88605,-22.96312 -10.35245,2.71788 -16.97824,13.903137 -16.15445,27.270981"
       id="path5027-0"
       stroke-dashoffset="0"
       stroke-miterlimit="4"
       fill-rule="nonzero"
       fill="#a35b18" />
    <path
       d="m 104.65375,109.47804 c -2.41309,16.40178 6.12933,31.16399 19.08001,32.97235 12.95069,1.80835 25.40555,-10.02197 27.81861,-26.42372 2.41308,-16.401791 -6.12934,-31.163998 -19.08002,-32.972348 -10.61334,-1.481979 -21.23163,6.248947 -25.88879,18.848888"
       id="path5029-7"
       stroke-dashoffset="0"
       stroke-miterlimit="4"
       fill-rule="nonzero"
       fill="#cc813b" />
    <path
       d="m 45.981319,108.13673 c 0,16.56942 10.6059,30.00154 23.688969,30.00154 13.083015,0 23.688965,-13.43217 23.688965,-30.00154 0,-16.569409 -10.605949,-30.001538 -23.688965,-30.001538 -10.721737,0 -20.106808,9.120384 -22.881779,22.236588"
       id="path5031-9"
       stroke-dashoffset="0"
       stroke-miterlimit="4"
       fill-rule="nonzero"
       fill="#ffd4aa" />
    <path
       id="path5033-2"
       d="m 48.623051,118.72743 c 7.80505,14.72167 23.555477,21.91428 35.179562,16.0652 C 95.426759,128.94354 98.522637,112.26764 90.71753,97.546051 82.912484,82.824371 67.162049,75.631737 55.537961,81.480827 46.011842,86.274246 41.969602,98.573356 45.6825,111.46753"
       stroke-dashoffset="0"
       stroke-miterlimit="4"
       fill-rule="nonzero"
       fill="#ffd4aa" />
  </g>
  <path
     d="m 260.90335,98.384133 c 0,16.569417 10.60589,30.001537 23.68896,30.001537 13.08307,0 23.68897,-13.43217 23.68897,-30.001537 0,-16.56941 -10.6059,-30.00154 -23.68897,-30.00154 -10.72174,0 -20.10675,9.12039 -22.88177,22.23659"
     id="path5055-8"
     stroke-dashoffset="0"
     stroke-miterlimit="4"
     fill-rule="nonzero"
     fill="#bc9673" />
  <path
     id="path5057-8"
     d="m 263.54507,108.97483 c 7.80505,14.72167 23.55548,21.91428 35.17957,16.0652 11.62408,-5.84909 14.72003,-22.52499 6.91497,-37.246577 -7.80511,-14.72168 -23.55548,-21.91431 -35.17962,-16.06521 -9.52612,4.79341 -13.56836,17.09252 -9.85547,29.986687"
     stroke-dashoffset="0"
     stroke-miterlimit="4"
     fill-rule="nonzero"
     fill="#bc9673" />
  <path
     d="m 84.556347,243.54537 c 0,-76.72839 -17.423267,-138.92915 -38.915997,-138.92915 -21.492741,0 -38.915961,62.20076 -38.915961,138.92915 0,0 0,0 0,0"
     id="path5135-5"
     stroke-dashoffset="0"
     stroke-miterlimit="4"
     fill-rule="nonzero"
     fill="#148972" />
  <path
     d="m 143.15206,210.54504 c 0,-55.95328 -17.42327,-101.31238 -38.91601,-101.31238 -21.492738,0 -38.91602,45.3591 -38.91602,101.31238 0,0 0,0 0,0"
     id="path5137-8"
     stroke-dashoffset="0"
     stroke-miterlimit="4"
     fill-rule="nonzero"
     fill="#fff5aa" />
  <path
     d="m 199.19113,201.54492 c 0,-54.3816 -17.42333,-98.46669 -38.91602,-98.46669 -21.49274,0 -38.91601,44.08509 -38.91601,98.46669 0,0 0,0 0,0"
     id="path5139-9"
     stroke-dashoffset="0"
     stroke-miterlimit="4"
     fill-rule="nonzero"
     fill="#738973" />
  <path
     stroke="#444444"
     d="m 253.67349,201.54498 c 0,-49.28333 -17.42322,-89.23532 -38.91597,-89.23532 -21.49272,0 -38.916,39.95199 -38.916,89.23532 0,0 0,0 0,0"
     id="path5141-7"
     stroke-dashoffset="0"
     stroke-miterlimit="4"
     fill-rule="nonzero"
     fill="#434144" />
  <path
     id="path5143-2"
     d="m 322.15594,213.54501 c 0,-51.83246 -17.42331,-93.85106 -38.91598,-93.85106 -21.49274,0 -38.91602,42.0186 -38.91602,93.85106 0,0 0,0 0,0"
     stroke-dashoffset="0"
     stroke-miterlimit="4"
     fill-rule="nonzero"
     fill="#a9b5c9" />
  <path
     d="m 66.876671,87.692973 c 0,16.994257 -12.196281,30.770797 -27.241211,30.770797 -15.044861,0 -27.24121,-13.77658 -27.24121,-30.770797 0,-16.99426 12.196349,-30.77081 27.24121,-30.77081 12.329529,0 23.121891,9.35425 26.312988,22.80676"
     id="path5145-6"
     stroke-dashoffset="0"
     stroke-miterlimit="4"
     fill-rule="nonzero"
     fill="#f2cfb0" />
  <path
     d="m 122.91574,93.077863 c 0,14.869977 -10.45398,26.924447 -23.349612,26.924447 -12.89563,0 -23.349609,-12.0545 -23.349609,-26.924447 0,-14.86998 10.453979,-26.92445 23.349609,-26.92445 10.568172,0 19.818722,8.18496 22.554012,19.95591"
     id="path5147-9"
     stroke-dashoffset="0"
     stroke-miterlimit="4"
     fill-rule="nonzero"
     fill="#cc813b" />
  <path
     d="m 187.49032,88.313043 c -4.36212,15.998667 -17.99219,26.279597 -30.4436,22.963137 -12.45142,-3.31645 -19.0091,-18.974457 -14.64704,-34.973087 4.36213,-15.99865 17.99219,-26.27958 30.44361,-22.96312 10.20416,2.7179 16.73498,13.90314 15.92303,27.27099"
     id="path5149-1"
     stroke-dashoffset="0"
     stroke-miterlimit="4"
     fill-rule="nonzero"
     fill="#f2cfb0" />
  <path
     d="m 250.324,91.342083 c 2.37854,16.401787 -6.0415,31.163987 -18.80664,32.972367 -12.76526,1.80835 -25.04155,-10.02198 -27.42018,-26.423717 -2.37847,-16.4018 6.04158,-31.16402 18.80678,-32.97237 10.46124,-1.48196 20.92743,6.24895 25.51782,18.84891"
     id="path5151-2"
     stroke-dashoffset="0"
     stroke-miterlimit="4"
     fill-rule="nonzero"
     fill="#ffd4aa" />
  <path
     id="path5255-2"
     d="m 274.50552,236.85751 c 0,-53.53189 -17.42328,-96.92813 -38.91599,-96.92813 -21.4927,0 -38.91604,43.39624 -38.91604,96.92813 0,0 0,0 0,0"
     stroke-dashoffset="0"
     stroke-miterlimit="4"
     fill-rule="nonzero"
     fill="#d35d5d" />
  <path
     id="path5257-3"
     d="m 332.10122,236.85745 c 0,-50.98273 -17.42331,-92.31238 -38.91601,-92.31238 -21.49271,0 -38.91599,41.32965 -38.91599,92.31238 0,0 0,0 0,0"
     stroke-dashoffset="0"
     stroke-miterlimit="4"
     fill-rule="nonzero"
     fill="#5f7561" />
  <path
     id="path5265-0"
     d="m 255.82583,123.00546 c 0,16.99426 -12.19629,30.77078 -27.24121,30.77078 -15.04492,0 -27.24121,-13.77658 -27.24121,-30.77078 0,-16.9943 12.19629,-30.770817 27.24121,-30.770817 12.32953,0 23.12186,9.354247 26.31299,22.806767"
     stroke-dashoffset="0"
     stroke-miterlimit="4"
     fill-rule="nonzero"
     fill="#f2ad6d" />
  <path
     id="path5267-0"
     d="m 311.86489,128.39034 c 0,14.86997 -10.45397,26.92444 -23.3496,26.92444 -12.89563,0 -23.34961,-12.0545 -23.34961,-26.92444 0,-14.86999 10.45398,-26.92447 23.34961,-26.92447 10.56817,0 19.81875,8.18497 22.55398,19.95591"
     stroke-dashoffset="0"
     stroke-miterlimit="4"
     fill-rule="nonzero"
     fill="#f2cfb0" />
  <path
     id="path5327-2"
     d="m 106.05466,267.93356 c 0,-53.53189 24.81059,-96.92813 55.41602,-96.92813 30.60537,0 55.41599,43.39624 55.41599,96.92813 0,0 0,0 0,0"
     stroke-dashoffset="0"
     stroke-miterlimit="4"
     fill-rule="nonzero"
     fill="#2d3e4f" />
  <path
     id="path5329-6"
     d="m 48.458401,267.9335 c 0,-50.98273 17.42334,-92.31238 38.916016,-92.31238 21.492673,0 38.915953,41.32965 38.915953,92.31238 0,0 0,0 0,0"
     stroke-dashoffset="0"
     stroke-miterlimit="4"
     fill-rule="nonzero"
     fill="#331e30" />
  <path
     id="path5331-6"
     d="m 5.419377,292.93304 c 0,-68.74066 16.304049,-124.46613 36.416011,-124.46613 20.11203,0 36.416019,55.72547 36.416019,124.46613 0,0 0,0 0,0"
     stroke-dashoffset="0"
     stroke-miterlimit="4"
     fill-rule="nonzero"
     fill="#ea0000" />
  <path
     id="path5337-2"
     d="m 124.73379,154.08151 c 0,16.99426 12.19629,30.77078 27.24121,30.77078 15.04492,0 27.24121,-13.77658 27.24121,-30.77078 0,-16.9943 -12.19629,-30.77082 -27.24121,-30.77082 -12.32953,0 -23.12188,9.35425 -26.31299,22.80677"
     stroke-dashoffset="0"
     stroke-miterlimit="4"
     fill-rule="nonzero"
     fill="#efd5bd" />
  <path
     id="path5339-8"
     d="m 68.694729,159.46639 c 0,14.86997 10.453979,26.92444 23.349609,26.92444 12.895632,0 23.349612,-12.0545 23.349612,-26.92444 0,-14.86999 -10.45398,-26.92446 -23.349612,-26.92446 -10.568176,0 -19.818726,8.18496 -22.55402,19.9559"
     stroke-dashoffset="0"
     stroke-miterlimit="4"
     fill-rule="nonzero"
     fill="#fffbdb" />
  <path
     id="path5341-9"
     d="m 21.12014,161.70156 c 4.362129,15.99866 17.992189,26.2796 30.443611,22.96314 12.451408,-3.31647 19.00909,-18.97446 14.646969,-34.97308 -4.362061,-15.99866 -17.99213,-26.27959 -30.443541,-22.96314 -10.204159,2.7179 -16.735049,13.90317 -15.923039,27.271"
     stroke-dashoffset="0"
     stroke-miterlimit="4"
     fill-rule="nonzero"
     fill="#ffd59e" />
  <path
     id="path4409-2"
     d="m 304.88131,297.63143 c 0,-53.53189 -15.14425,-96.92813 -33.82562,-96.92813 -18.6814,0 -33.82565,43.39624 -33.82565,96.92813 0,0 0,0 0,0"
     stroke-dashoffset="0"
     stroke-miterlimit="4"
     fill-rule="nonzero"
     fill="#a9b5c9" />
  <path
     id="path4419-2"
     d="m 288.64502,183.77938 c 0,16.99427 -10.60099,30.77078 -23.67798,30.77078 -13.07697,0 -23.67795,-13.77658 -23.67795,-30.77078 0,-16.99429 10.60098,-30.77081 23.67795,-30.77081 10.71676,0 20.09744,9.35425 22.87115,22.80676"
     stroke-dashoffset="0"
     stroke-miterlimit="4"
     fill-rule="nonzero"
     fill="#bc9673" />
  <path
     id="path4433-6"
     d="m 79.629063,369.24551 c 0,-72.86151 -15.591934,-131.92752 -34.825611,-131.92752 -19.233667,0 -34.825666,59.06601 -34.825666,131.92752 0,0 0,0 0,0"
     stroke-dashoffset="0"
     stroke-miterlimit="4"
     fill-rule="nonzero"
     fill="#088985" />
  <path
     id="path4435-9"
     d="m 129.69107,334.24597 c 0,-50.98273 -15.14423,-92.31238 -33.825633,-92.31238 -18.681389,0 -33.825615,41.32965 -33.825615,92.31238 0,0 0,0 0,0"
     stroke-dashoffset="0"
     stroke-miterlimit="4"
     fill-rule="nonzero"
     fill="#577a1c" />
  <path
     id="path4437-6"
     d="m 178.40005,334.24591 c 0,-54.3816 -15.14429,-98.46668 -33.82568,-98.46668 -18.68134,0 -33.82562,44.08508 -33.82562,98.46668 0,0 0,0 0,0"
     stroke-dashoffset="0"
     stroke-miterlimit="4"
     fill-rule="nonzero"
     fill="#b3b3b3" />
  <path
     id="path4439-3"
     d="m 225.75595,334.24597 c 0,-49.28333 -15.14426,-89.23533 -33.82563,-89.23533 -18.68139,0 -33.82568,39.952 -33.82568,89.23533 0,0 0,0 0,0"
     stroke-dashoffset="0"
     stroke-miterlimit="4"
     fill-rule="nonzero"
     fill="#b3b3b3" />
  <path
     d="m 273.11187,334.246 c 0,-51.83246 -15.14428,-93.85105 -33.82565,-93.85105 -18.6814,0 -33.82565,42.01859 -33.82565,93.85105 0,0 0,0 0,0"
     id="path4441-4"
     stroke-dashoffset="0"
     stroke-miterlimit="4"
     fill-rule="nonzero"
     fill="#b3b3b3" />
  <path
     id="path4443-9"
     d="m 63.392849,220.39398 c 0,16.99426 -10.601009,30.77078 -23.677979,30.77078 -13.07703,0 -23.67798,-13.77658 -23.67798,-30.77078 0,-16.9943 10.60095,-30.77082 23.67798,-30.77082 10.71674,0 20.097408,9.35425 22.871159,22.80677"
     stroke-dashoffset="0"
     stroke-miterlimit="4"
     fill-rule="nonzero"
     fill="#cc813b" />
  <path
     id="path4445-3"
     d="m 112.10171,225.77886 c 0,14.86997 -9.08655,26.92444 -20.295348,26.92444 -11.208862,0 -20.29541,-12.0545 -20.29541,-26.92444 0,-14.86999 9.086548,-26.92446 20.29541,-26.92446 9.185788,0 17.226378,8.18496 19.603818,19.9559"
     stroke-dashoffset="0"
     stroke-miterlimit="4"
     fill-rule="nonzero"
     fill="#f2cfb0" />
  <path
     id="path4447-5"
     d="m 168.22976,221.01403 c -3.7915,15.99866 -15.63873,26.2796 -26.46148,22.96314 -10.8227,-3.31647 -16.52265,-18.97446 -12.73114,-34.97309 3.7915,-15.99865 15.63879,-26.27957 26.46148,-22.96313 8.86939,2.7179 14.54602,13.90317 13.84027,27.271"
     stroke-dashoffset="0"
     stroke-miterlimit="4"
     fill-rule="nonzero"
     fill="#e0a674" />
  <path
     id="path4449-3"
     d="m 222.84457,224.04308 c 2.06741,16.4018 -5.25125,31.16401 -16.34671,32.97236 -11.09546,1.80835 -21.76602,-10.02198 -23.83347,-26.42374 -2.06738,-16.4018 5.25135,-31.164 16.34675,-32.97235 9.09289,-1.48197 18.19009,6.24896 22.18005,18.8489"
     stroke-dashoffset="0"
     stroke-miterlimit="4"
     fill-rule="nonzero"
     fill="#47301c" />
  <path
     d="m 266.8486,235.29247 c -6.68695,14.72165 -20.18103,21.91428 -30.13992,16.06519 -9.95887,-5.84906 -12.6113,-22.52496 -5.92438,-37.24658 6.68698,-14.72168 20.18106,-21.91428 30.13995,-16.06522 8.16144,4.79343 11.62464,17.09253 8.44364,29.9867"
     id="path4453-6"
     stroke-dashoffset="0"
     stroke-miterlimit="4"
     fill-rule="nonzero"
     fill="#f2cfb0" />
  <path
     d="m 165.40725,355.5585 c 0,-53.53186 -15.14428,-96.92813 -33.82565,-96.92813 -18.6814,0 -33.825653,43.39627 -33.825653,96.92813 0,0 0,0 0,0"
     id="path4529-7"
     stroke-dashoffset="0"
     stroke-miterlimit="4"
     fill-rule="nonzero"
     fill="#ddd177" />
  <path
     d="m 215.4692,355.55843 c 0,-50.98272 -15.14425,-92.31237 -33.82565,-92.31237 -18.6814,0 -33.82562,41.32965 -33.82562,92.31237 0,0 0,0 0,0"
     id="path4531-3"
     stroke-dashoffset="0"
     stroke-miterlimit="4"
     fill-rule="nonzero"
     fill="#cecea3" />
  <path
     d="m 264.17813,355.55837 c 0,-54.38159 -15.14423,-98.46667 -33.82563,-98.46667 -18.68139,0 -33.82565,44.08508 -33.82565,98.46667 0,0 0,0 0,0"
     id="path4533-4"
     stroke-dashoffset="0"
     stroke-miterlimit="4"
     fill-rule="nonzero"
     fill="#d89797" />
  <path
     d="m 311.53408,355.55843 c 0,-49.28332 -15.14428,-89.23532 -33.82568,-89.23532 -18.6814,0 -33.82562,39.952 -33.82562,89.23532 0,0 0,0 0,0"
     id="path4535-0"
     stroke-dashoffset="0"
     stroke-miterlimit="4"
     fill-rule="nonzero"
     fill="#031044" />
  <path
     d="m 149.17092,241.70644 c 0,16.99427 -10.60098,30.77079 -23.67794,30.77079 -13.077,0 -23.67798,-13.77658 -23.67798,-30.77079 0,-16.99429 10.60098,-30.77081 23.67798,-30.77081 10.71676,0 20.09741,9.35425 22.87112,22.80677"
     id="path4539-7"
     stroke-dashoffset="0"
     stroke-miterlimit="4"
     fill-rule="nonzero"
     fill="#bc9673" />
  <path
     d="m 197.87988,247.09133 c 0,14.86997 -9.08658,26.92444 -20.29541,26.92444 -11.20883,0 -20.29538,-12.0545 -20.29538,-26.92444 0,-14.86999 9.08655,-26.92447 20.29538,-26.92447 9.18582,0 17.22638,8.18497 19.60385,19.95591"
     id="path4541-7"
     stroke-dashoffset="0"
     stroke-miterlimit="4"
     fill-rule="nonzero"
     fill="#fce0c7" />
  <path
     d="m 254.00784,242.3265 c -3.79151,15.99866 -15.63873,26.2796 -26.46143,22.96314 -10.82275,-3.31647 -16.5227,-18.97446 -12.73114,-34.97309 3.79151,-15.99865 15.63874,-26.27957 26.46149,-22.96313 8.86938,2.71789 14.54596,13.90317 13.84021,27.271"
     id="path4543-2"
     stroke-dashoffset="0"
     stroke-miterlimit="4"
     fill-rule="nonzero"
     fill="#ddb694" />
  <path
     d="m 308.62271,245.35555 c 2.06738,16.4018 -5.25128,31.164 -16.34674,32.97236 -11.09546,1.80835 -21.76606,-10.02198 -23.83344,-26.42374 -2.06738,-16.4018 5.25128,-31.16397 16.34674,-32.97235 9.0929,-1.48197 18.19007,6.24896 22.18,18.8489"
     id="path4545-5"
     stroke-dashoffset="0"
     stroke-miterlimit="4"
     fill-rule="nonzero"
     fill="#e0a674" />
  <path
     id="path4505-5"
     d="m 200.8083,401.09908 c 0,-52.4273 18.50204,-94.92816 41.32552,-94.92816 22.82345,0 41.32556,42.50086 41.32556,94.92816 0,0 0,0 0,0"
     stroke-dashoffset="0"
     stroke-miterlimit="4"
     fill-rule="nonzero"
     fill="#aaffff" />
  <path
     id="path4507-9"
     d="m 150.74606,401.09908 c 0,-49.8782 15.14423,-90.31243 33.82562,-90.31243 18.6814,0 33.82563,40.43423 33.82563,90.31243 0,0 0,0 0,0"
     stroke-dashoffset="0"
     stroke-miterlimit="4"
     fill-rule="nonzero"
     fill="#ff4300" />
  <path
     id="path4509-1"
     d="m 102.03708,402.09896 c 0,-53.82928 15.14428,-97.46664 33.82568,-97.46664 18.6814,0 33.82562,43.63736 33.82562,97.46664 0,0 0,0 0,0"
     stroke-dashoffset="0"
     stroke-miterlimit="4"
     fill-rule="nonzero"
     fill="#8e5163" />
  <path
     id="path4511-7"
     d="m 54.681179,401.09902 c 0,-48.17877 15.144291,-87.23529 33.825684,-87.23529 18.681337,0 33.825627,39.05652 33.825627,87.23529 0,0 0,0 0,0"
     stroke-dashoffset="0"
     stroke-miterlimit="4"
     fill-rule="nonzero"
     fill="#bbbc64" />
  <path
     d="m 7.32528,401.09908 c 0,-50.7279 15.14429,-91.8511 33.825691,-91.8511 18.681328,0 33.825619,41.1232 33.825619,91.8511 0,0 0,0 0,0"
     id="path4513-2"
     stroke-dashoffset="0"
     stroke-miterlimit="4"
     fill-rule="nonzero"
     fill="#5100c4" />
  <path
     id="path4515-5"
     d="m 217.04434,289.24703 c 0,16.99427 10.60095,30.77082 23.67792,30.77082 13.07696,0 23.67797,-13.77655 23.67797,-30.77082 0,-16.99426 -10.60101,-30.77078 -23.67797,-30.77078 -10.71674,0 -20.09742,9.35425 -22.87116,22.80676"
     stroke-dashoffset="0"
     stroke-miterlimit="4"
     fill-rule="nonzero"
     fill="#ffd59e" />
  <path
     id="path4517-3"
     d="m 168.33535,294.63192 c 0,14.87 9.08655,26.9245 20.29541,26.9245 11.20887,0 20.29541,-12.0545 20.29541,-26.9245 0,-14.86996 -9.08654,-26.92444 -20.29541,-26.92444 -9.18579,0 -17.22638,8.18497 -19.60382,19.95594"
     stroke-dashoffset="0"
     stroke-miterlimit="4"
     fill-rule="nonzero"
     fill="#cc813b" />
  <path
     id="path4519-2"
     d="m 112.20736,289.86715 c 3.79157,15.99866 15.63874,26.27954 26.46149,22.96314 10.82275,-3.31647 16.52264,-18.97449 12.73114,-34.97312 -3.79157,-15.99865 -15.63873,-26.27957 -26.46149,-22.96313 -8.86938,2.71789 -14.54602,13.90316 -13.84021,27.27099"
     stroke-dashoffset="0"
     stroke-miterlimit="4"
     fill-rule="nonzero"
     fill="#ffd4aa" />
  <path
     id="path4521-2"
     d="m 57.59256,292.89614 c -2.06739,16.4018 5.251282,31.164 16.346737,32.97235 11.09539,1.80841 21.765991,-10.02191 23.833435,-26.4237 2.06739,-16.4018 -5.251282,-31.16397 -16.346741,-32.97235 -9.092903,-1.48197 -18.190121,6.24896 -22.18005,18.8489"
     stroke-dashoffset="0"
     stroke-miterlimit="4"
     fill-rule="nonzero"
     fill="#e0a674" />
  <path
     d="m 14.58853,306.14559 c 6.686949,14.72162 20.181028,21.91425 30.139952,16.06519 9.958862,-5.84912 12.611267,-22.52496 5.924377,-37.24661 -6.687012,-14.72168 -20.181091,-21.91428 -30.13995,-16.06522 -8.16144,4.79343 -11.62464,17.09256 -8.443668,29.98669"
     id="path4525-8"
     stroke-dashoffset="0"
     stroke-miterlimit="4"
     fill-rule="nonzero"
     fill="#f2cfb0" />
  <path
     d="m 266.6495,401.15963 c 0,-51.28015 15.14429,-92.85104 33.82569,-92.85104 18.68133,0 33.82562,41.57089 33.82562,92.85104 0,0 0,0 0,0"
     stroke-dashoffset="0"
     stroke-miterlimit="4"
     fill-rule="nonzero"
     fill="#03bc00"
     id="svg_18" />
  <path
     d="m 274.91275,306.20614 c 6.68695,14.72162 20.18103,21.91425 30.13995,16.06519 9.95886,-5.84913 12.61127,-22.52497 5.92438,-37.24662 -6.68701,-14.72168 -20.18109,-21.91427 -30.13996,-16.06521 -8.16143,4.79342 -11.62463,17.09256 -8.44366,29.98669"
     stroke-dashoffset="0"
     stroke-miterlimit="4"
     fill-rule="nonzero"
     fill="#f2cfb0"
     id="svg_24" />
  <g
     id="g1514"
     transform="translate(125.79589,-14.121547)">
    <path
       id="path4941-7"
       d="m -10.997,462.60915 c 0,-51.05881 -16.93244,-92.45023 -37.81955,-92.45023 -20.88718,0 -37.81952,41.39142 -37.81952,92.45023 0,0 0,0 0,0"
       stroke-dashoffset="0"
       stroke-miterlimit="4"
       fill-rule="nonzero"
       fill="#440c43" />
    <path
       id="path4943-5"
       d="m 44.9759,462.60912 c 0,-48.62746 -16.93241,-88.04776 -37.81952,-88.04776 -20.88718,0 -37.81955,39.4203 -37.81955,88.04776 0,0 0,0 0,0"
       stroke-dashoffset="0"
       stroke-miterlimit="4"
       fill-rule="nonzero"
       fill="#738973" />
    <path
       id="path4945-9"
       d="m 99.43601,462.60903 c 0,-51.86927 -16.93237,-93.9177 -37.81955,-93.9177 -20.88711,0 -37.81949,42.04843 -37.81949,93.9177 0,0 0,0 0,0"
       stroke-dashoffset="0"
       stroke-miterlimit="4"
       fill-rule="nonzero"
       fill="#72705c" />
    <path
       id="path4947-2"
       d="m 152.3834,473.60892 c 0,-53.08162 -16.93237,-96.11276 -37.81952,-96.11276 -20.88721,0 -37.81958,43.03114 -37.81958,96.11276 0,0 0,0 0,0"
       stroke-dashoffset="0"
       stroke-miterlimit="4"
       fill-rule="nonzero"
       fill="#67bde5" />
    <path
       d="m 205.33073,504.60848 c 0,-72.63372 -16.93238,-131.51514 -37.81952,-131.51514 -20.88715,0 -37.81958,58.88142 -37.81958,131.51514 0,0 0,0 0,0"
       id="path4949-9"
       stroke-dashoffset="0"
       stroke-miterlimit="4"
       fill-rule="nonzero"
       fill="#4f2a54" />
    <path
       id="path4951-7"
       d="m -29.15045,354.01685 c 0,16.20915 -11.85263,29.34924 -26.47363,29.34924 -14.621,0 -26.47369,-13.14014 -26.47369,-29.34924 0,-16.20919 11.85269,-29.34926 26.47369,-29.34926 11.98209,0 22.47037,8.92209 25.57157,21.75313"
       stroke-dashoffset="0"
       stroke-miterlimit="4"
       fill-rule="nonzero"
       fill="#ddb694" />
    <path
       id="path4953-2"
       d="m 25.3097,359.15294 c 0,14.18301 -10.15939,25.68062 -22.69171,25.68062 -12.53226,0 -22.69174,-11.49764 -22.69174,-25.68062 0,-14.183 10.15948,-25.68057 22.69174,-25.68057 10.27044,0 19.26037,7.80682 21.91858,19.03399"
       stroke-dashoffset="0"
       stroke-miterlimit="4"
       fill-rule="nonzero"
       fill="#f2cfb0" />
    <path
       id="path4955-6"
       d="m 89.06492,352.60826 c -4.23926,15.25957 -17.48523,25.06554 -29.58585,21.90229 -12.10064,-3.16324 -18.47354,-18.09787 -14.23434,-33.3574 4.23922,-15.25956 17.48523,-25.06552 29.58587,-21.90228 9.91663,2.59232 16.26349,13.26087 15.47437,26.01114"
       stroke-dashoffset="0"
       stroke-miterlimit="4"
       fill-rule="nonzero"
       fill="#f2cfb0" />
    <path
       id="path4957-6"
       d="m 149.12821,357.49738 c 2.31152,15.64405 -5.87128,29.72427 -18.27679,31.44909 -12.40546,1.72481 -24.336,-9.55897 -26.64752,-25.203 -2.31147,-15.64406 5.87133,-29.72429 18.27685,-31.4491 10.1665,-1.41349 20.33789,5.96026 24.79895,17.97812"
       stroke-dashoffset="0"
       stroke-miterlimit="4"
       fill-rule="nonzero"
       fill="#e0a674" />
    <path
       d="m 199.80027,365.31947 c -7.47656,14.04154 -22.56384,20.90187 -33.69867,15.32302 -11.13477,-5.57888 -14.10028,-21.48438 -6.62384,-35.52588 7.4765,-14.04155 22.5639,-20.9019 33.69861,-15.32301 9.12512,4.57194 12.99719,16.30288 9.44061,28.60136"
       id="path4961-0"
       stroke-dashoffset="0"
       stroke-miterlimit="4"
       fill-rule="nonzero"
       fill="#b25d0e" />
    <path
       d="m 73.65025,542.07289 c 0,-60.71177 17.67651,-109.92846 39.48156,-109.92846 21.80512,0 39.48163,49.21669 39.48163,109.92846 0,0 0,0 0,0"
       id="path5037-8"
       stroke-dashoffset="0"
       stroke-miterlimit="4"
       fill-rule="nonzero"
       fill="#a9b5c9" />
    <path
       d="m 15.21744,561.07311 c 0,-68.6557 17.67652,-124.31206 39.48163,-124.31206 21.80506,0 39.48157,55.65636 39.48157,124.31206 0,0 0,0 0,0"
       id="path5039-4"
       stroke-dashoffset="0"
       stroke-miterlimit="4"
       fill-rule="nonzero"
       fill="#002154" />
    <path
       d="m -41.63607,529.07256 c 0,-54.38158 17.67657,-98.46666 39.48163,-98.46666 21.80505,0 39.48156,44.08508 39.48156,98.46666 0,0 0,0 0,0"
       id="path5041-6"
       stroke-dashoffset="0"
       stroke-miterlimit="4"
       fill-rule="nonzero"
       fill="#6d0000" />
    <path
       d="m -96.9103,529.07262 c 0,-49.28331 17.67651,-89.23531 39.48163,-89.23531 21.80505,0 39.48156,39.952 39.48156,89.23531 0,0 0,0 0,0"
       id="path5043-3"
       stroke-dashoffset="0"
       stroke-miterlimit="4"
       fill-rule="nonzero"
       fill="#ff7700" />
    <path
       id="path5045-9"
       d="m -114.18453,540.07265 c 0,-51.83244 17.67651,-93.85103 39.48162,-93.85103 21.80506,0 39.48157,42.01859 39.48157,93.85103 0,0 0,0 0,0"
       stroke-dashoffset="0"
       stroke-miterlimit="4"
       fill-rule="nonzero"
       fill="#ff7700" />
    <path
       d="m 92.60142,415.22063 c 0,16.99428 12.37353,30.77081 27.63714,30.77081 15.26355,0 27.63709,-13.77658 27.63709,-30.77081 0,-16.99425 -12.37354,-30.7708 -27.63709,-30.7708 -12.50872,0 -23.45794,9.35425 -26.69543,22.80675"
       id="path5047-5"
       stroke-dashoffset="0"
       stroke-miterlimit="4"
       fill-rule="nonzero"
       fill="#f2efcb" />
    <path
       d="m 35.7479,420.60552 c 0,14.86999 10.6059,26.92445 23.68897,26.92445 13.08307,0 23.68896,-12.05449 23.68896,-26.92445 0,-14.86998 -10.60589,-26.92446 -23.68896,-26.92446 -10.72175,0 -20.10675,8.18497 -22.88178,19.95592"
       id="path5049-7"
       stroke-dashoffset="0"
       stroke-miterlimit="4"
       fill-rule="nonzero"
       fill="#bc9673" />
    <path
       d="m -29.76516,415.84071 c 4.42548,15.99866 18.2536,26.27959 30.88605,22.96311 12.63238,-3.31644 19.2854,-18.97444 14.85986,-34.97307 -4.42548,-15.99867 -18.25366,-26.27959 -30.88605,-22.96312 -10.35241,2.71788 -16.97821,13.90314 -16.15442,27.27098"
       id="path5051-4"
       stroke-dashoffset="0"
       stroke-miterlimit="4"
       fill-rule="nonzero"
       fill="#fce0c7" />
    <path
       d="m -93.51211,418.86975 c -2.41308,16.40178 6.12933,31.16399 19.08002,32.97235 12.95074,1.80835 25.40552,-10.02197 27.8186,-26.42372 2.41309,-16.40179 -6.12933,-31.164 -19.08001,-32.97235 -10.61328,-1.48198 -21.23163,6.24895 -25.88874,18.84889"
       id="path5053-6"
       stroke-dashoffset="0"
       stroke-miterlimit="4"
       fill-rule="nonzero"
       fill="#cc813b" />
    <path
       id="path5259-5"
       d="m -24.94759,556.00169 c 0,-54.38159 -17.42328,-98.46667 -38.91602,-98.46667 -21.49271,0 -38.91599,44.08508 -38.91599,98.46667 0,0 0,0 0,0"
       stroke-dashoffset="0"
       stroke-miterlimit="4"
       fill-rule="nonzero"
       fill="#87b500" />
    <path
       id="path5261-4"
       d="m 29.53483,556.00176 c 0,-49.28333 -17.42334,-89.23533 -38.91602,-89.23533 -21.49274,0 -38.91601,39.952 -38.91601,89.23533 0,0 0,0 0,0"
       stroke-dashoffset="0"
       stroke-miterlimit="4"
       fill-rule="nonzero"
       fill="#312dff" />
    <path
       d="m 84.01719,556.00179 c 0,-51.83246 -17.42328,-93.85105 -38.91596,-93.85105 -21.49273,0 -38.91601,42.01859 -38.91601,93.85105 0,0 0,0 0,0"
       id="path5263-9"
       stroke-dashoffset="0"
       stroke-miterlimit="4"
       fill-rule="nonzero"
       fill="#4c0327" />
    <path
       id="path5269-0"
       d="m -36.6484,442.76982 c -4.36212,15.99866 -17.99216,26.27961 -30.4436,22.96314 -12.45145,-3.31647 -19.00913,-18.97446 -14.64704,-34.97309 4.36212,-15.99865 17.99219,-26.27957 30.44364,-22.96313 10.20413,2.7179 16.73501,13.90317 15.923,27.271"
       stroke-dashoffset="0"
       stroke-miterlimit="4"
       fill-rule="nonzero"
       fill="#f2cfb0" />
    <path
       id="path5271-6"
       d="m 26.18534,445.79888 c 2.37848,16.40179 -6.04157,31.164 -18.80676,32.97235 -12.76514,1.80835 -25.04157,-10.02198 -27.42005,-26.42374 -2.37854,-16.40179 6.04151,-31.164 18.8067,-32.97235 10.46125,-1.48197 20.92749,6.24896 25.51789,18.84891"
       stroke-dashoffset="0"
       stroke-miterlimit="4"
       fill-rule="nonzero"
       fill="#f2cfb0" />
    <path
       d="m 77.41337,456.04826 c -7.6933,14.72165 -23.21808,21.91428 -34.6756,16.06519 -11.45758,-5.84906 -14.50916,-22.52496 -6.81592,-37.24658 7.69324,-14.72165 23.21802,-21.91428 34.6756,-16.06522 9.38965,4.79343 13.37402,17.09253 9.71429,29.9867"
       id="path5275-6"
       stroke-dashoffset="0"
       stroke-miterlimit="4"
       fill-rule="nonzero"
       fill="#b25d0e" />
    <path
       id="path5283-1"
       d="m 175.68125,569.54024 c 0,-54.38159 -17.42328,-98.46668 -38.91602,-98.46668 -21.49273,0 -38.91601,44.08509 -38.91601,98.46668 0,0 0,0 0,0"
       stroke-dashoffset="0"
       stroke-miterlimit="4"
       fill-rule="nonzero"
       fill="#174c41" />
    <path
       id="path5285-6"
       d="m 232.16367,587.5403 c 0,-59.22452 -17.87109,-107.23547 -39.91601,-107.23547 -22.04505,0 -39.91602,48.01095 -39.91602,107.23547 0,0 0,0 0,0"
       stroke-dashoffset="0"
       stroke-miterlimit="4"
       fill-rule="nonzero"
       fill="#a9b5c9" />
    <path
       id="path5293-0"
       d="m 163.98044,456.30837 c -4.36212,15.99865 -17.99218,26.2796 -30.4436,22.96313 -12.45142,-3.31647 -19.00909,-18.97446 -14.64703,-34.97308 4.36212,-15.99866 17.99218,-26.2796 30.44366,-22.96314 10.2041,2.7179 16.73499,13.90317 15.92298,27.271"
       stroke-dashoffset="0"
       stroke-miterlimit="4"
       fill-rule="nonzero"
       fill="#ddb694" />
    <path
       id="path5295-6"
       d="m 226.81418,459.33742 c 2.37848,16.40179 -6.04156,31.164 -18.80676,32.97235 -12.76514,1.80835 -25.04156,-10.02197 -27.42004,-26.42374 -2.37854,-16.40179 6.0415,-31.164 18.8067,-32.97235 10.46124,-1.48196 20.92749,6.24896 25.51788,18.84891"
       stroke-dashoffset="0"
       stroke-miterlimit="4"
       fill-rule="nonzero"
       fill="#cc813b" />
    <path
       d="m 152.53428,670.95455 c 0,-75.92109 18.54254,-137.46741 41.41595,-137.46741 22.87348,0 41.41602,61.54632 41.41602,137.46741 0,0 0,0 0,0"
       id="path5379-9"
       stroke-dashoffset="0"
       stroke-miterlimit="4"
       fill-rule="nonzero"
       fill="#002154" />
    <path
       d="m 98.05192,631.95452 c 0,-49.2833 17.42328,-89.2353 38.91601,-89.2353 21.49268,0 38.91596,39.952 38.91596,89.2353 0,0 0,0 0,0"
       id="path5381-2"
       stroke-dashoffset="0"
       stroke-miterlimit="4"
       fill-rule="nonzero"
       fill="#808080" />
    <path
       id="path5383-0"
       d="m 93.5695,630.95461 c 0,-55.69843 17.42327,-100.85105 38.91601,-100.85105 21.49274,0 38.91602,45.15262 38.91602,100.85105 0,0 0,0 0,0"
       stroke-dashoffset="0"
       stroke-miterlimit="4"
       fill-rule="nonzero"
       fill="#ff7700" />
    <path
       d="m 164.23515,518.72261 c 4.36206,15.99866 17.99212,26.2796 30.4436,22.96314 12.45142,-3.31647 19.00909,-18.97446 14.64697,-34.97309 -4.36212,-15.99865 -17.99219,-26.2796 -30.4436,-22.96313 -10.2041,2.7179 -16.73499,13.90314 -15.92304,27.271"
       id="path5389-3"
       stroke-dashoffset="0"
       stroke-miterlimit="4"
       fill-rule="nonzero"
       fill="#ddb694" />
    <path
       d="m 107.4014,514.75163 c -2.37854,16.4018 6.04151,31.164 18.80671,32.97235 12.7652,1.80838 25.04156,-10.02197 27.4201,-26.4237 2.37848,-16.4018 -6.04156,-31.164 -18.8067,-32.97235 -10.4613,-1.48197 -20.92749,6.24893 -25.51788,18.8489"
       id="path5391-5"
       stroke-dashoffset="0"
       stroke-miterlimit="4"
       fill-rule="nonzero"
       fill="#b25d0e" />
    <path
       id="path4411-3"
       d="m -58.14462,616.77568 c 0,-50.98272 -15.14422,-92.31238 -33.82562,-92.31238 -18.6814,0 -33.82565,41.32966 -33.82565,92.31238 0,0 0,0 0,0"
       stroke-dashoffset="0"
       stroke-miterlimit="4"
       fill-rule="nonzero"
       fill="#72705c" />
    <path
       id="path4413-9"
       d="m -9.43563,616.77562 c 0,-54.38159 -15.14429,-98.46667 -33.82569,-98.46667 -18.68139,0 -33.82562,44.08508 -33.82562,98.46667 0,0 0,0 0,0"
       stroke-dashoffset="0"
       stroke-miterlimit="4"
       fill-rule="nonzero"
       fill="#4f2a54" />
    <path
       id="path4415-1"
       d="m 37.92026,616.77568 c 0,-49.28332 -15.14428,-89.23532 -33.82562,-89.23532 -18.68139,0 -33.82568,39.952 -33.82568,89.23532 0,0 0,0 0,0"
       stroke-dashoffset="0"
       stroke-miterlimit="4"
       fill-rule="nonzero"
       fill="#fff5aa" />
    <path
       d="m 85.27616,616.77571 c 0,-51.83245 -15.14429,-93.85104 -33.82562,-93.85104 -18.6814,0 -33.82569,42.01858 -33.82569,93.85104 0,0 0,0 0,0"
       id="path4417-8"
       stroke-dashoffset="0"
       stroke-miterlimit="4"
       fill-rule="nonzero"
       fill="#000000" />
    <path
       id="path4421-8"
       d="m -75.73391,508.30858 c 0,14.86996 -9.08655,26.92444 -20.29541,26.92444 -11.20886,0 -20.29541,-12.05451 -20.29541,-26.92444 0,-14.86999 9.08655,-26.92447 20.29541,-26.92447 9.18579,0 17.22638,8.18497 19.60382,19.95593"
       stroke-dashoffset="0"
       stroke-miterlimit="4"
       fill-rule="nonzero"
       fill="#fce0c7" />
    <path
       id="path4423-5"
       d="m -19.60592,503.54375 c -3.79156,15.99869 -15.63873,26.2796 -26.46149,22.96313 -10.82275,-3.31643 -16.52264,-18.97445 -12.73114,-34.97308 3.79157,-15.99866 15.63874,-26.27957 26.46149,-22.96313 8.86939,2.71789 14.54602,13.90316 13.84021,27.27099"
       stroke-dashoffset="0"
       stroke-miterlimit="4"
       fill-rule="nonzero"
       fill="#a35b18" />
    <path
       id="path4425-0"
       d="m 35.00889,506.5728 c 2.06738,16.40179 -5.25128,31.164 -16.34674,32.97235 -11.09546,1.80835 -21.76606,-10.02197 -23.83344,-26.4237 -2.06738,-16.4018 5.25128,-31.164 16.34674,-32.97239 9.0929,-1.48196 18.19007,6.24897 22.18006,18.84891"
       stroke-dashoffset="0"
       stroke-miterlimit="4"
       fill-rule="nonzero"
       fill="#47301c" />
    <path
       d="m 86.01292,518.82219 c -6.68696,14.72165 -20.18103,21.91428 -30.13996,16.06519 -9.95886,-5.84906 -12.61127,-22.52497 -5.92431,-37.24659 6.68695,-14.72168 20.18103,-21.91427 30.13989,-16.06518 8.16144,4.79339 11.62463,17.09253 8.44366,29.98666"
       id="path4429-9"
       stroke-dashoffset="0"
       stroke-miterlimit="4"
       fill-rule="nonzero"
       fill="#f2cfb0" />
    <path
       id="path4361-7"
       d="m -22.7217,669.97514 c 0,-53.53185 -15.14429,-96.9281 -33.82566,-96.9281 -18.68139,0 -33.82565,43.39624 -33.82565,96.9281 0,0 0,0 0,0"
       stroke-dashoffset="0"
       stroke-miterlimit="4"
       fill-rule="nonzero"
       fill="#088985" />
    <path
       id="path4363-9"
       d="m 27.34025,669.97508 c 0,-50.98272 -15.14429,-92.31237 -33.82569,-92.31237 -18.68133,0 -33.82562,41.32965 -33.82562,92.31237 0,0 0,0 0,0"
       stroke-dashoffset="0"
       stroke-miterlimit="4"
       fill-rule="nonzero"
       fill="#333333" />
    <path
       id="path4365-2"
       d="m 76.04917,669.97502 c 0,-54.38159 -15.14423,-98.46667 -33.82562,-98.46667 -18.6814,0 -33.82569,44.08508 -33.82569,98.46667 0,0 0,0 0,0"
       stroke-dashoffset="0"
       stroke-miterlimit="4"
       fill-rule="nonzero"
       fill="#333333" />
    <path
       id="path4367-7"
       d="m 123.40507,669.97508 c 0,-49.28332 -15.14423,-89.23529 -33.82563,-89.23529 -18.68139,0 -33.82562,39.95197 -33.82562,89.23529 0,0 0,0 0,0"
       stroke-dashoffset="0"
       stroke-miterlimit="4"
       fill-rule="nonzero"
       fill="#333333" />
    <path
       d="m 170.76102,669.97514 c 0,-51.83245 -15.14428,-93.85107 -33.82568,-93.85107 -18.6814,0 -33.82562,42.01862 -33.82562,93.85107 0,0 0,0 0,0"
       id="path4369-8"
       stroke-dashoffset="0"
       stroke-miterlimit="4"
       fill-rule="nonzero"
       fill="#333333" />
    <path
       id="path4371-1"
       d="m -34.95803,553.12309 c 0,16.99427 -10.60101,30.77082 -23.67798,30.77082 -13.07697,0 -23.67795,-13.77658 -23.67795,-30.77082 0,-16.99426 10.60098,-30.77081 23.67795,-30.77081 10.7168,0 20.09747,9.35425 22.87115,22.80676"
       stroke-dashoffset="0"
       stroke-miterlimit="4"
       fill-rule="nonzero"
       fill="#cc813b" />
    <path
       id="path4373-0"
       d="m 9.75089,561.50798 c 0,14.87 -9.08655,26.92447 -20.29541,26.92447 -11.2088,0 -20.29535,-12.0545 -20.29535,-26.92447 0,-14.86996 9.08655,-26.92444 20.29535,-26.92444 9.18585,0 17.22638,8.18497 19.60388,19.95591"
       stroke-dashoffset="0"
       stroke-miterlimit="4"
       fill-rule="nonzero"
       fill="#e0a674" />
    <path
       id="path4375-7"
       d="m 65.87888,556.74318 c -3.7915,15.99866 -15.63873,26.2796 -26.46148,22.96314 -10.8227,-3.31647 -16.52265,-18.97446 -12.73114,-34.97309 3.79156,-15.99865 15.63879,-26.2796 26.46148,-22.96313 8.86939,2.71789 14.54602,13.90314 13.84027,27.27099"
       stroke-dashoffset="0"
       stroke-miterlimit="4"
       fill-rule="nonzero"
       fill="#cc813b" />
    <path
       id="path4377-1"
       d="m 120.49375,559.7722 c 2.06738,16.4018 -5.25128,31.164 -16.34674,32.97235 -11.09546,1.80838 -21.76605,-10.02194 -23.83344,-26.4237 -2.06744,-16.4018 5.25129,-31.164 16.34675,-32.97235 9.09283,-1.48197 18.19006,6.24893 22.17999,18.8489"
       stroke-dashoffset="0"
       stroke-miterlimit="4"
       fill-rule="nonzero"
       fill="#cc813b" />
    <path
       d="m 164.49772,562.02162 c -6.68695,14.72165 -20.18103,21.91428 -30.1399,16.06519 -9.95886,-5.84909 -12.61132,-22.525 -5.92437,-37.24661 6.68695,-14.72165 20.18109,-21.91428 30.13995,-16.06519 8.16144,4.7934 11.62464,17.09253 8.44361,29.98669"
       id="path4381-0"
       stroke-dashoffset="0"
       stroke-miterlimit="4"
       fill-rule="nonzero"
       fill="#fce0c7" />
    <path
       id="path4537-2"
       d="m -54.1979,674.70274 c 0,-51.83239 -15.14429,-93.85101 -33.82568,-93.85101 -18.6814,0 -33.82563,42.01862 -33.82563,93.85101 0,0 0,0 0,0"
       stroke-dashoffset="0"
       stroke-miterlimit="4"
       fill-rule="nonzero"
       fill="#775073" />
    <path
       id="path4549-7"
       d="m -55.46114,577.74925 c -6.68696,14.72165 -20.1811,21.91428 -30.13996,16.06519 -9.95886,-5.84906 -12.61127,-22.52496 -5.92438,-37.24658 6.68696,-14.72168 20.1811,-21.91428 30.13996,-16.06522 8.16144,4.79343 11.62463,17.09253 8.44366,29.9867"
       stroke-dashoffset="0"
       stroke-miterlimit="4"
       fill-rule="nonzero"
       fill="#ffd4aa" />
    <path
       d="m 168.56284,700.39446 c 0,-53.53186 15.14429,-96.9281 33.82563,-96.9281 18.68139,0 33.82568,43.39624 33.82568,96.9281 0,0 0,0 0,0"
       id="path4337-5"
       stroke-dashoffset="0"
       stroke-miterlimit="4"
       fill-rule="nonzero"
       fill="#088985" />
    <path
       d="m 118.50089,700.3944 c 0,-50.98273 15.14423,-92.31238 33.82562,-92.31238 18.6814,0 33.82563,41.32965 33.82563,92.31238 0,0 0,0 0,0"
       id="path4339-9"
       stroke-dashoffset="0"
       stroke-miterlimit="4"
       fill-rule="nonzero"
       fill="#d35d5d" />
    <path
       d="m 69.79191,700.39434 c 0,-54.3816 15.14429,-98.46668 33.82568,-98.46668 18.6814,0 33.82563,44.08508 33.82563,98.46668 0,0 0,0 0,0"
       id="path4341-2"
       stroke-dashoffset="0"
       stroke-miterlimit="4"
       fill-rule="nonzero"
       fill="#87b500" />
    <path
       d="m 22.43601,700.3944 c 0,-49.28333 15.14423,-89.2353 33.82562,-89.2353 18.6814,0 33.82563,39.95197 33.82563,89.2353 0,0 0,0 0,0"
       id="path4343-0"
       stroke-dashoffset="0"
       stroke-miterlimit="4"
       fill-rule="nonzero"
       fill="#331e30" />
    <path
       id="path4345-2"
       d="m -24.91988,700.39446 c 0,-51.83246 15.14422,-93.85108 33.82562,-93.85108 18.6814,0 33.82562,42.01862 33.82562,93.85108 0,0 0,0 0,0"
       stroke-dashoffset="0"
       stroke-miterlimit="4"
       fill-rule="nonzero"
       fill="#738973" />
    <path
       d="m 184.79917,586.54241 c 0,16.99426 10.60095,30.77081 23.67792,30.77081 13.07696,0 23.67791,-13.77658 23.67791,-30.77081 0,-16.99427 -10.60095,-30.77082 -23.67791,-30.77082 -10.71674,0 -20.09741,9.35425 -22.8711,22.80677"
       id="path4347-2"
       stroke-dashoffset="0"
       stroke-miterlimit="4"
       fill-rule="nonzero"
       fill="#f2cfb0" />
    <path
       d="m 136.09019,591.92729 c 0,14.87 9.08654,26.92447 20.29541,26.92447 11.2088,0 20.29541,-12.0545 20.29541,-26.92447 0,-14.86996 -9.08661,-26.92444 -20.29541,-26.92444 -9.1858,0 -17.22638,8.18497 -19.60383,19.95591"
       id="path4349-8"
       stroke-dashoffset="0"
       stroke-miterlimit="4"
       fill-rule="nonzero"
       fill="#fffbdb" />
    <path
       d="m 79.9622,587.16249 c 3.7915,15.99866 15.63873,26.27957 26.46148,22.96314 10.82276,-3.31647 16.52265,-18.97446 12.73114,-34.97309 -3.79156,-15.99865 -15.63879,-26.2796 -26.46148,-22.96313 -8.86945,2.7179 -14.54602,13.90314 -13.84027,27.271"
       id="path4351-5"
       stroke-dashoffset="0"
       stroke-miterlimit="4"
       fill-rule="nonzero"
       fill="#f2cfb0" />
    <path
       d="m 25.34739,590.19151 c -2.06738,16.4018 5.25128,31.16401 16.34674,32.97239 11.0954,1.80835 21.76599,-10.02198 23.83337,-26.42374 2.06739,-16.40179 -5.25122,-31.164 -16.34668,-32.97235 -9.09289,-1.48197 -18.19006,6.24893 -22.18005,18.84891"
       id="path4353-2"
       stroke-dashoffset="0"
       stroke-miterlimit="4"
       fill-rule="nonzero"
       fill="#bc9673" />
    <path
       d="m -22.91988,583.85024 c 0,16.56939 9.08654,30.00152 20.29534,30.00152 11.20887,0 20.29541,-13.43216 20.29541,-30.00152 0,-16.56943 -9.08654,-30.00156 -20.29541,-30.00156 -9.18579,0 -17.22631,9.12039 -19.60382,22.2366"
       id="path4355-5"
       stroke-dashoffset="0"
       stroke-miterlimit="4"
       fill-rule="nonzero"
       fill="#f2efcb" />
    <path
       d="m 47.04435,719.30397 c 0,-52.4273 15.14422,-94.92813 33.82562,-94.92813 18.6814,0 33.82569,42.50083 33.82569,94.92813 0,0 0,0 0,0"
       stroke-dashoffset="0"
       stroke-miterlimit="4"
       fill-rule="nonzero"
       fill="#1c3304"
       id="svg_14" />
    <path
       d="m -3.0176,719.30397 c 0,-49.8782 15.14422,-90.31244 33.82562,-90.31244 18.6814,0 33.82562,40.43424 33.82562,90.31244 0,0 0,0 0,0"
       stroke-dashoffset="0"
       stroke-miterlimit="4"
       fill-rule="nonzero"
       fill="#0b5c82"
       id="svg_15" />
    <path
       d="m -51.72659,719.30385 c 0,-53.27704 15.14429,-96.4667 33.82569,-96.4667 18.68139,0 33.82562,43.18966 33.82562,96.4667 0,0 0,0 0,0"
       stroke-dashoffset="0"
       stroke-miterlimit="4"
       fill-rule="nonzero"
       fill="#dbb448"
       id="svg_16" />
    <path
       d="m -99.08248,719.30391 c 0,-48.17877 15.14429,-87.23535 33.82568,-87.23535 18.68134,0 33.82563,39.05658 33.82563,87.23535 0,0 0,0 0,0"
       stroke-dashoffset="0"
       stroke-miterlimit="4"
       fill-rule="nonzero"
       fill="#5e3af2"
       id="svg_17" />
    <path
       d="m 63.28068,607.45189 c 0,16.99426 10.60095,30.77081 23.67791,30.77081 13.07697,0 23.67798,-13.77655 23.67798,-30.77081 0,-16.99426 -10.60101,-30.77078 -23.67798,-30.77078 -10.71673,0 -20.09741,9.35425 -22.87115,22.80676"
       stroke-dashoffset="0"
       stroke-miterlimit="4"
       fill-rule="nonzero"
       fill="#47301c"
       id="svg_19" />
    <path
       d="m 14.57169,612.83678 c 0,14.86999 9.08655,26.9245 20.29541,26.9245 11.20887,0 20.29541,-12.05451 20.29541,-26.9245 0,-14.86997 -9.08654,-26.92444 -20.29541,-26.92444 -9.18579,0 -17.22638,8.18497 -19.60382,19.95593"
       stroke-dashoffset="0"
       stroke-miterlimit="4"
       fill-rule="nonzero"
       fill="#e0a674"
       id="svg_20" />
    <path
       d="m -41.5563,608.07201 c 3.79157,15.99865 15.63874,26.27954 26.46149,22.96313 10.82275,-3.31646 16.52264,-18.97448 12.73114,-34.97311 -3.79157,-15.99866 -15.63873,-26.27957 -26.46149,-22.96314 -8.86938,2.7179 -14.54602,13.90317 -13.84021,27.271"
       stroke-dashoffset="0"
       stroke-miterlimit="4"
       fill-rule="nonzero"
       fill="#f2cfb0"
       id="svg_21" />
    <path
       d="m -96.1711,611.101 c -2.06739,16.40179 5.25128,31.164 16.34674,32.97235 11.09539,1.80841 21.76599,-10.02191 23.83343,-26.4237 2.06738,-16.4018 -5.25128,-31.16398 -16.34674,-32.97236 -9.0929,-1.48196 -18.19013,6.24897 -22.18005,18.84891"
       stroke-dashoffset="0"
       stroke-miterlimit="4"
       fill-rule="nonzero"
       fill="#fffbdb"
       id="svg_22" />
    <path
       d="m 171.2656,719.30382 c 0,-54.38159 15.14429,-98.46668 33.82568,-98.46668 18.6814,0 33.82563,44.08509 33.82563,98.46668 0,0 0,0 0,0"
       stroke-dashoffset="0"
       stroke-miterlimit="4"
       fill-rule="nonzero"
       fill="#8db8bc"
       id="svg_25" />
    <path
       d="m 108.90958,719.30388 c 0,-49.28333 18.50214,-89.23529 41.32557,-89.23529 22.82342,0 41.3255,39.95196 41.3255,89.23529 0,0 0,0 0,0"
       stroke-dashoffset="0"
       stroke-miterlimit="4"
       fill-rule="nonzero"
       fill="#7c3860"
       id="svg_26" />
    <path
       d="m 181.43589,606.07201 c 3.79156,15.99865 15.63873,26.27954 26.46149,22.96313 10.82275,-3.31646 16.52264,-18.97448 12.73114,-34.97311 -3.79157,-15.99866 -15.63874,-26.27957 -26.46149,-22.96314 -8.86938,2.7179 -14.54602,13.90317 -13.84021,27.271"
       stroke-dashoffset="0"
       stroke-miterlimit="4"
       fill-rule="nonzero"
       fill="#cc813b"
       id="svg_27" />
    <path
       d="m 126.82108,609.101 c -2.06738,16.40179 5.25128,31.164 16.34674,32.97235 11.0954,1.80841 21.76599,-10.02191 23.83344,-26.4237 2.06738,-16.4018 -5.25128,-31.16398 -16.34674,-32.97236 -9.0929,-1.48196 -18.19013,6.24897 -22.18006,18.84891"
       stroke-dashoffset="0"
       stroke-miterlimit="4"
       fill-rule="nonzero"
       fill="#ffd4aa"
       id="svg_28" />
  </g>
</svg>
