<?xml version='1.0'?>
<!--
Bitly Generated QR Code
v4
33x33
-->
<svg width='656' height='656'
xmlns='http://www.w3.org/2000/svg'
xmlns:xlink='http://www.w3.org/1999/xlink'>
	<g id='background' style='fill:#ffffff' >
<rect x="0" y="0" width="656" height="656" />
</g>
<g id='pips' style='fill:#000000' >
<path d="M64,240L80,240L80,256L64,256L64,240M64,272L80,272L80,288L80,304L64,304L64,288L64,272M64,320L80,320L96,320L96,336L80,336L64,336L64,320M64,384L80,384L80,400L64,400L64,384M64,416L80,416L80,432L64,432L64,416M64,448L80,448L80,464L64,464L64,448M80,208L96,208L96,192L112,192L112,208L112,224L128,224L128,240L112,240L96,240L96,224L80,224L80,208M80,368L96,368L96,352L112,352L112,336L128,336L128,352L128,368L128,384L128,400L112,400L96,400L96,384L80,384L80,368M80,400L96,400L96,416L80,416L80,400M80,432L96,432L96,448L80,448L80,432M96,256L112,256L128,256L128,240L144,240L144,256L160,256L176,256L176,272L160,272L144,272L144,288L128,288L128,304L144,304L160,304L160,320L144,320L144,336L128,336L128,320L112,320L96,320L96,304L112,304L112,288L96,288L96,272L96,256M96,448L112,448L112,464L96,464L96,448M128,192L144,192L160,192L176,192L176,208L160,208L144,208L128,208L128,192M128,400L144,400L144,416L144,432L128,432L128,416L128,400M128,448L144,448L144,464L128,464L128,448M144,352L160,352L176,352L176,368L160,368L160,384L144,384L144,368L144,352M144,432L160,432L160,448L144,448L144,432M160,224L176,224L176,208L192,208L192,224L208,224L208,240L192,240L176,240L160,240L160,224M160,288L176,288L176,272L192,272L192,288L208,288L208,304L208,320L192,320L176,320L176,304L160,304L160,288M160,320L176,320L176,336L160,336L160,320M160,384L176,384L176,368L192,368L192,352L208,352L224,352L240,352L240,368L240,384L256,384L256,400L256,416L240,416L240,432L224,432L224,416L208,416L192,416L192,432L176,432L160,432L160,416L176,416L176,400L160,400L160,384M160,448L176,448L176,464L160,464L160,448M192,64L208,64L208,80L192,80L192,64M192,112L208,112L208,96L224,96L224,112L224,128L208,128L192,128L192,112M192,160L208,160L208,176L192,176L192,160M192,192L208,192L208,208L192,208L192,192M192,256L208,256L208,272L192,272L192,256M208,368L208,384L208,400L224,400L224,384L224,368L208,368M192,432L208,432L208,448L224,448L240,448L240,464L224,464L224,480L208,480L192,480L192,464L192,448L192,432M192,496L208,496L208,512L224,512L224,528L240,528L256,528L256,512L240,512L240,496L256,496L256,480L272,480L272,496L272,512L288,512L288,496L288,480L272,480L272,464L272,448L272,432L288,432L288,448L304,448L304,432L304,416L304,400L288,400L288,384L272,384L272,368L288,368L288,352L304,352L320,352L336,352L336,368L320,368L304,368L304,384L320,384L336,384L352,384L352,400L368,400L368,416L352,416L336,416L336,400L320,400L320,416L336,416L336,432L336,448L320,448L320,464L336,464L352,464L368,464L368,480L352,480L352,496L352,512L336,512L320,512L320,496L336,496L336,480L320,480L320,496L304,496L304,512L320,512L320,528L304,528L304,544L304,560L320,560L320,544L336,544L336,560L352,560L352,576L336,576L336,592L320,592L304,592L304,576L288,576L288,560L288,544L288,528L272,528L272,544L272,560L272,576L288,576L288,592L272,592L256,592L240,592L240,576L224,576L224,560L240,560L256,560L256,544L240,544L224,544L208,544L208,528L192,528L192,512L192,496M192,544L208,544L208,560L192,560L192,544M208,144L224,144L224,160L208,160L208,144M208,176L224,176L224,192L208,192L208,176M208,208L224,208L224,192L240,192L240,208L256,208L256,224L240,224L240,240L240,256L240,272L224,272L224,256L224,240L224,224L208,224L208,208M224,80L240,80L240,96L224,96L224,80M224,128L240,128L240,144L224,144L224,128M224,160L240,160L240,176L224,176L224,160M224,304L240,304L240,320L240,336L224,336L224,320L224,304M224,480L240,480L240,496L224,496L224,480M240,96L256,96L256,112L272,112L272,128L272,144L256,144L256,128L240,128L240,112L240,96M240,144L256,144L256,160L240,160L240,144M240,464L256,464L256,480L240,480L240,464M256,64L272,64L272,80L256,80L256,64M256,160L272,160L272,176L272,192L272,208L256,208L256,192L256,176L256,160M256,224L272,224L272,208L288,208L288,224L288,240L272,240L256,240L256,224M256,288L272,288L272,304L288,304L288,320L272,320L256,320L256,304L256,288M272,96L288,96L288,80L288,64L304,64L320,64L336,64L352,64L368,64L368,80L368,96L352,96L336,96L336,80L320,80L320,96L304,96L304,112L304,128L288,128L288,112L272,112L272,96M272,256L288,256L288,272L272,272L272,256M272,336L288,336L288,352L272,352L272,336M288,144L304,144L320,144L320,128L336,128L352,128L352,144L336,144L336,160L336,176L320,176L320,160L304,160L304,176L304,192L304,208L288,208L288,192L288,176L288,160L288,144M288,272L304,272L320,272L320,256L320,240L336,240L336,256L336,272L352,272L352,288L336,288L320,288L304,288L304,304L288,304L288,288L288,272M304,208L320,208L320,224L304,224L304,208M304,320L320,320L320,304L336,304L352,304L368,304L384,304L384,288L368,288L368,272L368,256L384,256L384,272L400,272L400,288L416,288L416,304L432,304L448,304L448,320L432,320L432,336L416,336L400,336L400,352L384,352L384,336L384,320L368,320L352,320L352,336L336,336L320,336L304,336L304,320M320,96L336,96L336,112L320,112L320,96M320,192L336,192L336,208L320,208L320,192M336,176L352,176L352,192L336,192L336,176M336,208L352,208L352,224L352,240L336,240L336,224L336,208M336,528L352,528L352,512L368,512L384,512L384,528L368,528L368,544L352,544L336,544L336,528M352,112L368,112L368,128L352,128L352,112M352,144L368,144L368,160L368,176L352,176L352,160L352,144M352,192L368,192L368,176L384,176L384,160L400,160L400,176L416,176L416,160L416,144L400,144L384,144L384,128L400,128L416,128L432,128L432,144L448,144L448,128L448,112L432,112L432,96L432,80L416,80L416,64L432,64L448,64L464,64L464,80L448,80L448,96L464,96L464,112L464,128L464,144L464,160L464,176L448,176L448,160L432,160L432,176L448,176L448,192L432,192L416,192L416,208L400,208L400,192L384,192L384,208L368,208L352,208L352,192M352,336L368,336L368,352L352,352L352,336M352,432L368,432L368,448L352,448L352,432M352,576L368,576L384,576L384,560L384,544L384,528L400,528L400,544L416,544L416,528L416,512L400,512L384,512L384,496L368,496L368,480L384,480L400,480L400,496L416,496L416,480L400,480L400,464L384,464L368,464L368,448L384,448L400,448L400,432L384,432L384,416L400,416L400,400L400,384L400,368L400,352L416,352L416,368L432,368L432,384L432,400L448,400L448,384L464,384L464,400L464,416L464,432L480,432L480,448L496,448L496,432L480,432L480,416L496,416L512,416L528,416L528,432L528,448L528,464L528,480L528,496L528,512L528,528L544,528L544,544L528,544L528,560L512,560L512,576L528,576L528,592L512,592L496,592L496,576L480,576L480,560L496,560L496,544L512,544L512,528L496,528L480,528L464,528L448,528L448,512L448,496L448,480L432,480L432,496L432,512L432,528L432,544L432,560L448,560L448,544L464,544L480,544L480,560L464,560L464,576L464,592L448,592L432,592L432,576L416,576L416,592L400,592L384,592L368,592L352,592L352,576M368,352L384,352L384,368L384,384L384,400L368,400L368,384L368,368L368,352M384,64L400,64L400,80L384,80L384,64M400,224L416,224L416,240L400,240L400,224M416,432L416,448L432,448L448,448L448,432L432,432L416,432M416,208L432,208L432,224L416,224L416,208M432,256L448,256L464,256L464,272L480,272L480,256L464,256L464,240L448,240L448,224L464,224L480,224L480,240L496,240L496,256L496,272L496,288L480,288L464,288L448,288L448,272L432,272L432,256M464,464L464,480L464,496L464,512L480,512L496,512L512,512L512,496L512,480L512,464L496,464L480,464L464,464M464,192L480,192L480,208L464,208L464,192M464,304L480,304L496,304L496,320L512,320L512,336L496,336L480,336L480,352L464,352L464,336L464,320L464,304M480,208L496,208L496,224L480,224L480,208M480,352L496,352L512,352L528,352L528,368L528,384L512,384L512,368L496,368L480,368L480,352M480,384L496,384L496,400L480,400L480,384M480,480L496,480L496,496L480,496L480,480M512,224L528,224L528,208L528,192L544,192L544,208L544,224L560,224L560,208L576,208L576,192L592,192L592,208L592,224L592,240L576,240L560,240L544,240L528,240L512,240L512,224M512,256L528,256L544,256L544,272L544,288L560,288L560,272L560,256L576,256L592,256L592,272L592,288L592,304L576,304L576,320L576,336L560,336L560,320L560,304L544,304L528,304L528,288L512,288L512,272L512,256M512,304L528,304L528,320L512,320L512,304M528,320L544,320L544,336L560,336L560,352L576,352L576,336L592,336L592,352L592,368L576,368L560,368L544,368L544,352L528,352L528,336L528,320M528,384L544,384L544,400L528,400L528,384M528,560L544,560L544,576L528,576L528,560M544,416L560,416L560,400L560,384L576,384L576,400L576,416L592,416L592,432L592,448L592,464L592,480L592,496L592,512L576,512L576,496L560,496L544,496L544,480L560,480L560,464L576,464L576,448L576,432L560,432L544,432L544,416M544,512L560,512L576,512L576,528L560,528L544,528L544,512M544,576L560,576L560,560L576,560L576,576L592,576L592,592L576,592L560,592L544,592L544,576M576,544L592,544L592,560L576,560L576,544Z" />
</g>
<g id='corners-outer-1' style='fill:#000000' >
<path d="M64,64L80,64L96,64L112,64L128,64L144,64L160,64L176,64L176,80L176,96L176,112L176,128L176,144L176,160L176,176L160,176L144,176L128,176L112,176L96,176L80,176L64,176L64,160L64,144L64,128L64,112L64,96L64,80L64,64M80,80L80,96L80,112L80,128L80,144L80,160L96,160L112,160L128,160L144,160L160,160L160,144L160,128L160,112L160,96L160,80L144,80L128,80L112,80L96,80L80,80Z" />
</g>
<g id='corners-outer-2' style='fill:#000000' >
<path d="M480,64L496,64L512,64L528,64L544,64L560,64L576,64L592,64L592,80L592,96L592,112L592,128L592,144L592,160L592,176L576,176L560,176L544,176L528,176L512,176L496,176L480,176L480,160L480,144L480,128L480,112L480,96L480,80L480,64M496,80L496,96L496,112L496,128L496,144L496,160L512,160L528,160L544,160L560,160L576,160L576,144L576,128L576,112L576,96L576,80L560,80L544,80L528,80L512,80L496,80Z" />
</g>
<g id='corners-outer-3' style='fill:#000000' >
<path d="M64,480L80,480L96,480L112,480L128,480L144,480L160,480L176,480L176,496L176,512L176,528L176,544L176,560L176,576L176,592L160,592L144,592L128,592L112,592L96,592L80,592L64,592L64,576L64,560L64,544L64,528L64,512L64,496L64,480M80,496L80,512L80,528L80,544L80,560L80,576L96,576L112,576L128,576L144,576L160,576L160,560L160,544L160,528L160,512L160,496L144,496L128,496L112,496L96,496L80,496Z" />
</g>
<g id='corners-inner-1' style='fill:#000000' >
<path d="M96,96L112,96L128,96L144,96L144,112L144,128L144,144L128,144L112,144L96,144L96,128L96,112L96,96Z" />
</g>
<g id='corners-inner-2' style='fill:#000000' >
<path d="M512,96L528,96L544,96L560,96L560,112L560,128L560,144L544,144L528,144L512,144L512,128L512,112L512,96Z" />
</g>
<g id='corners-inner-3' style='fill:#000000' >
<path d="M96,512L112,512L128,512L144,512L144,528L144,544L144,560L128,560L112,560L96,560L96,544L96,528L96,512Z" />
</g>
</svg>
