<svg version="1.1" xmlns="http://www.w3.org/2000/svg" viewBox="0 0 412.7386323692991 126.39999389648438" width="412.7386323692991" height="126.39999389648438">
  <!-- svg-source:excalidraw -->
  
  <defs>
    <style class="style-fonts">
      @font-face {
        font-family: "Virgil";
        src: url("https://excalidraw.com/Virgil.woff2");
      }
      @font-face {
        font-family: "Cascadia";
        src: url("https://excalidraw.com/Cascadia.woff2");
      }
      @font-face {
        font-family: "Assistant";
        src: url("https://excalidraw.com/Assistant-Regular.woff2");
      }
    </style>
    
  </defs>
  <g stroke-linecap="round" transform="translate(181.93858354117413 10) rotate(0 110.4000244140625 53.19999694824219)"><path d="M105.83 0.78 C119.88 -0.28, 137.38 1.04, 151.31 3.64 C165.24 6.25, 178.78 11.05, 189.39 16.43 C200 21.81, 209.93 29.16, 214.98 35.91 C220.02 42.66, 220.84 49.83, 219.67 56.95 C218.5 64.08, 214.76 72.38, 207.95 78.64 C201.13 84.9, 190.66 90.17, 178.79 94.51 C166.92 98.86, 151.46 102.78, 136.73 104.72 C121.99 106.66, 105.06 107.23, 90.4 106.14 C75.74 105.05, 60.97 102.47, 48.76 98.19 C36.55 93.91, 25.03 86.82, 17.14 80.45 C9.25 74.07, 3.53 66.97, 1.42 59.93 C-0.68 52.89, 0.53 45.14, 4.51 38.21 C8.49 31.28, 15.68 23.75, 25.31 18.34 C34.93 12.93, 48.16 8.94, 62.26 5.76 C76.35 2.57, 101.81 -0.03, 109.88 -0.76 C117.96 -1.5, 110.77 0.43, 110.68 1.36 M64.58 4.49 C76.9 0.73, 93.91 -1.22, 108.75 -1.48 C123.59 -1.74, 140.12 0.05, 153.63 2.94 C167.13 5.82, 179.81 10.41, 189.78 15.83 C199.74 21.25, 208.24 28.63, 213.4 35.45 C218.57 42.26, 221.63 49.3, 220.77 56.72 C219.92 64.15, 215.42 73.48, 208.3 80 C201.18 86.52, 189.98 91.54, 178.04 95.84 C166.1 100.14, 151.18 104.42, 136.66 105.81 C122.13 107.2, 105.55 105.42, 90.87 104.15 C76.18 102.89, 60.91 102.14, 48.55 98.21 C36.18 94.29, 24.86 86.79, 16.68 80.61 C8.49 74.43, 1.29 68.16, -0.55 61.14 C-2.38 54.11, 1.15 45.38, 5.68 38.45 C10.22 31.53, 17.17 24.92, 26.66 19.59 C36.15 14.26, 56.4 8.64, 62.63 6.46 C68.86 4.27, 63.05 5.9, 64.06 6.47" stroke="none" stroke-width="0" fill="#ffffff"></path><path d="M62.62 6.07 C74.56 2.25, 92.56 0.54, 107.37 0.17 C122.17 -0.21, 137.67 1.12, 151.46 3.84 C165.25 6.57, 179.59 11.36, 190.12 16.53 C200.65 21.71, 209.5 28.19, 214.64 34.89 C219.79 41.6, 222.12 49.36, 221 56.74 C219.89 64.13, 215.01 72.84, 207.97 79.2 C200.93 85.55, 190.74 90.72, 178.76 94.88 C166.77 99.03, 150.75 102.43, 136.06 104.12 C121.37 105.82, 105.39 106.17, 90.6 105.04 C75.81 103.91, 59.85 101.19, 47.33 97.35 C34.82 93.5, 23.26 88.14, 15.52 81.98 C7.77 75.82, 2.78 67.78, 0.87 60.39 C-1.03 52.99, -0.07 44.47, 4.08 37.61 C8.22 30.75, 15.2 24.98, 25.74 19.23 C36.28 13.47, 59.4 5.6, 67.34 3.09 C75.27 0.58, 72.5 3.2, 73.37 4.16 M71.18 3.26 C84.19 -0.22, 102 -0.48, 116.61 -0.13 C131.23 0.21, 145.45 2, 158.89 5.31 C172.33 8.63, 187.4 14.26, 197.26 19.75 C207.13 25.25, 214.43 31.15, 218.09 38.28 C221.74 45.4, 221.56 55.16, 219.18 62.51 C216.81 69.85, 211.84 76.62, 203.85 82.32 C195.86 88.02, 184.01 93.01, 171.25 96.7 C158.48 100.39, 141.99 103.27, 127.27 104.47 C112.55 105.68, 97.4 105.48, 82.91 103.96 C68.42 102.43, 52.18 99.86, 40.34 95.34 C28.5 90.81, 18.58 83.47, 11.86 76.82 C5.14 70.17, 0.65 62.62, 0.04 55.44 C-0.58 48.27, 2.63 40.62, 8.17 33.77 C13.71 26.92, 22.69 19.28, 33.28 14.37 C43.87 9.46, 65.31 6.17, 71.68 4.33 C78.06 2.5, 71.26 2.43, 71.52 3.36" stroke="#1e1e1e" stroke-width="2" fill="none"></path></g><g stroke-linecap="round"><g transform="translate(194.5479817926622 75.94286201113749) rotate(0 -84.66660999116442 8.857144855317642)" fill-rule="evenodd"><path d="M-1.76 1.23 C0.58 4.14, 29.55 15.84, 13.48 19.39 C-2.59 22.94, -65.79 26.28, -98.17 22.51 C-130.56 18.74, -180.29 -1.51, -180.83 -3.24 C-181.37 -4.97, -131.94 11.95, -101.41 12.13 C-70.87 12.3, -14.49 -0.46, 2.37 -2.21" stroke="none" stroke-width="0" fill="#ffffff" fill-rule="evenodd"></path><path d="M0.1 -0.62 C2.52 2.64, 30.53 16.59, 14.21 20.41 C-2.11 24.24, -64.76 26.37, -97.83 22.31 C-130.91 18.25, -183.31 -2.68, -184.25 -3.95 C-185.18 -5.22, -134.02 14.02, -103.45 14.68 C-72.88 15.34, -17.88 2.53, -0.83 0.02 M-1.31 1.66 C1 4.99, 29.66 18.42, 13.42 21.57 C-2.82 24.72, -65.77 24.69, -98.76 20.58 C-131.76 16.46, -183.49 -1.67, -184.53 -3.12 C-185.58 -4.56, -135.82 11.57, -105.04 11.92 C-74.26 12.27, -17.17 0.69, 0.14 -1.01" stroke="transparent" stroke-width="2" fill="none"></path></g></g><mask></mask><g stroke-linecap="round"><g transform="translate(204.35752304080222 96.4190615699406) rotate(0 -95.90475173223587 -11.142860594249925)"><path d="M0.13 0.57 C-17.31 0.81, -73.64 5.72, -105.63 1.66 C-137.62 -2.4, -190.64 -22.58, -191.82 -23.79 C-192.99 -24.99, -141.73 -6.1, -112.7 -5.58 C-83.67 -5.05, -33.21 -18.27, -17.63 -20.63 M-1.26 -0.18 C-18.73 -0.32, -74.45 3.55, -106.33 -0.2 C-138.22 -3.94, -191.49 -21.4, -192.58 -22.66 C-193.68 -23.92, -141.88 -8.11, -112.92 -7.76 C-83.97 -7.41, -34.6 -18.43, -18.85 -20.56" stroke="#1e1e1e" stroke-width="2" fill="none"></path></g></g><mask></mask><g transform="translate(230.73857688279315 36.79350399661385) rotate(0 64.72991943359375 25)"><text x="0" y="0" font-family="Virgil, Segoe UI Emoji" font-size="20px" fill="#1e1e1e" text-anchor="start" style="white-space: pre;" direction="ltr" dominant-baseline="text-before-edge">can you pass</text><text x="0" y="25" font-family="Virgil, Segoe UI Emoji" font-size="20px" fill="#1e1e1e" text-anchor="start" style="white-space: pre;" direction="ltr" dominant-baseline="text-before-edge">the, uh...</text></g></svg>