<?xml version="1.0" encoding="UTF-8" standalone="no"?>
<!-- Created with Inkscape (http://www.inkscape.org/) -->

<svg
   width="105.14096mm"
   height="64.809944mm"
   viewBox="0 0 105.14096 64.809944"
   version="1.1"
   id="svg1"
   inkscape:version="1.3.2 (091e20ef0f, 2023-11-25, custom)"
   sodipodi:docname="thought_bubble.svg"
   xmlns:inkscape="http://www.inkscape.org/namespaces/inkscape"
   xmlns:sodipodi="http://sodipodi.sourceforge.net/DTD/sodipodi-0.dtd"
   xmlns="http://www.w3.org/2000/svg"
   xmlns:svg="http://www.w3.org/2000/svg">
  <sodipodi:namedview
     id="namedview1"
     pagecolor="#ffffff"
     bordercolor="#999999"
     borderopacity="1"
     inkscape:showpageshadow="2"
     inkscape:pageopacity="0"
     inkscape:pagecheckerboard="0"
     inkscape:deskcolor="#d1d1d1"
     inkscape:document-units="mm"
     inkscape:zoom="0.71624579"
     inkscape:cx="281.32801"
     inkscape:cy="419.54871"
     inkscape:window-width="1549"
     inkscape:window-height="939"
     inkscape:window-x="2117"
     inkscape:window-y="61"
     inkscape:window-maximized="0"
     inkscape:current-layer="layer1" />
  <defs
     id="defs1" />
  <g
     inkscape:label="Layer 1"
     inkscape:groupmode="layer"
     id="layer1"
     transform="translate(-30.84103,-37.306246)">
    <g
       id="g6"
       transform="matrix(0.94563745,0,0,0.82437569,3.6868751,-51.750876)"
       style="stroke-width:1.13259;fill:#f9f9f9;fill-opacity:1">
      <path
         style="font-variation-settings:normal;opacity:1;fill:#f9f9f9;fill-opacity:1;stroke:#000000;stroke-width:2.26519;stroke-linecap:butt;stroke-linejoin:miter;stroke-miterlimit:4;stroke-dasharray:none;stroke-dashoffset:0;stroke-opacity:1;stop-color:#000000;stop-opacity:1"
         d="m 96.931307,150.01453 c 2.068603,10.46576 23.641883,9.59363 19.800033,-2.39841 10.04774,8.06738 24.52832,-8.72148 13.59405,-11.77399 7.6836,1.30822 14.77603,-5.45092 -0.88662,-9.59363 7.09252,-0.43608 9.1613,-11.774 -10.93428,-8.06737 5.54408,-3.62266 -20.095482,-16.57082 -20.686563,-2.83449 0,0 -14.185038,-10.68379 -20.391026,3.05254 -14.480579,-10.24774 -18.026883,4.57877 -12.116435,9.37558 -12.411886,-0.43608 -9.278897,10.35438 3.841753,12.64614 -8.939397,6.93607 1.637508,13.41441 12.116437,7.6313 -1.580793,12.39756 13.298508,13.95436 15.662651,1.96233 z"
         id="path2"
         sodipodi:nodetypes="ccccccccccc" />
      <ellipse
         style="fill:#f9f9f9;fill-opacity:1;stroke:#1a1a1a;stroke-width:2.26519;stroke-dasharray:none"
         id="path4"
         cx="62.946278"
         cy="159.36046"
         rx="7.9790955"
         ry="5.1716413" />
      <ellipse
         style="fill:#f9f9f9;fill-opacity:1;stroke:#1a1a1a;stroke-width:2.26519;stroke-dasharray:none"
         id="path5"
         cx="51.568645"
         cy="172.80672"
         rx="7.2402897"
         ry="4.4328356" />
      <ellipse
         style="fill:#f9f9f9;fill-opacity:1;stroke:#1a1a1a;stroke-width:2.26519;stroke-dasharray:none"
         id="path6"
         cx="34.428387"
         cy="182.55896"
         rx="4.580606"
         ry="2.9552238" />
    </g>
  </g>
</svg>
