<?xml version="1.0" encoding="UTF-8" standalone="no"?>
<!-- Created with Inkscape (http://www.inkscape.org/) -->

<svg
   width="210mm"
   height="297mm"
   viewBox="0 0 210 297"
   version="1.1"
   id="svg1"
   xml:space="preserve"
   inkscape:version="1.3.2 (091e20ef0f, 2023-11-25, custom)"
   sodipodi:docname="weekend0.svg"
   xmlns:inkscape="http://www.inkscape.org/namespaces/inkscape"
   xmlns:sodipodi="http://sodipodi.sourceforge.net/DTD/sodipodi-0.dtd"
   xmlns="http://www.w3.org/2000/svg"
   xmlns:svg="http://www.w3.org/2000/svg"><sodipodi:namedview
     id="namedview1"
     pagecolor="#505050"
     bordercolor="#eeeeee"
     borderopacity="1"
     inkscape:showpageshadow="0"
     inkscape:pageopacity="0"
     inkscape:pagecheckerboard="0"
     inkscape:deskcolor="#d1d1d1"
     inkscape:document-units="mm"
     inkscape:zoom="0.38484849"
     inkscape:cx="506.69291"
     inkscape:cy="745.74803"
     inkscape:window-width="1920"
     inkscape:window-height="1006"
     inkscape:window-x="1920"
     inkscape:window-y="0"
     inkscape:window-maximized="1"
     inkscape:current-layer="layer1" /><defs
     id="defs1" /><g
     inkscape:label="Layer 1"
     inkscape:groupmode="layer"
     id="layer1"><g
       style="fill:none"
       id="g1"
       transform="matrix(0.16058433,0,0,0.16058433,7.201332,3.264014)"><path
         d="m 62.2234,191.656 c -14.887,-19.553 -17.4457,-35.478 -7.6759,-47.776 9.7697,-12.298 24.4216,-14.277 43.9556,-5.938 -10.5157,-22.975 -9.6605,-37.343 2.5659,-43.1033 12.226,-5.7601 31.227,-7.186 57.002,-4.2776 18.482,-23.2398 38.316,-34.0394 59.502,-32.3988 31.778,2.4607 54.083,8.3032 63.549,49.7917 3.404,8.19 46.28,-4.474 62.018,20.589 15.737,25.064 12.608,57.977 0,60.545 -12.609,2.568 30.569,-2.175 13.628,24.018 -5.93,9.169 -32.192,32.764 -50.361,38.026 -33.737,9.771 -67.039,-4.06 -84.057,-11.679 -6.677,-8.444 -34.517,32.03 -71.703,29.783 -24.791,-1.498 -38.835,-14.24 -42.131,-38.227 -10.6704,9.802 -24.4451,12.617 -41.3247,8.444 -25.3194,-6.259 -35.3209,-28.116 -19.7855,-40.972"
         stroke="#000000"
         stroke-opacity="0.9"
         stroke-width="16"
         stroke-linecap="round"
         stroke-linejoin="round"
         id="path1" /><path
         d="m 75.8046,278.033 c 1.0073,-2.276 3.0842,-3.705 5.2938,-4.267 1.2638,-0.321 2.0753,-0.377 3.3576,-0.605 1.8277,-0.324 5.0807,0.596 6.2747,1.173 2.3536,1.139 3.5192,3.196 4.4725,5.461 0.8257,1.962 1.4666,4.117 1.3076,6.288 3e-4,0.946 -0.1995,1.829 -0.3911,2.761 -1.2532,6.093 -6.6931,8.87 -9.607,9.166 -3.0245,0.306 -5.8746,-0.197 -8.4547,-1.976 -0.6979,-0.482 -2.6996,-2.199 -3.3588,-4.091 -0.7479,-2.147 -1.5895,-4.457 -0.9201,-6.843 0.2741,-0.976 0.3347,-2.082 1.1419,-2.906"
         stroke="#000000"
         stroke-opacity="0.9"
         stroke-width="16"
         stroke-linecap="round"
         stroke-linejoin="round"
         id="path2" /><path
         d="m 53.3444,327.882 c 0.7007,-1.638 2.1455,-2.667 3.6826,-3.072 0.8792,-0.231 1.4437,-0.271 2.3357,-0.435 1.2715,-0.234 3.5344,0.429 4.365,0.844 1.6373,0.82 2.4482,2.301 3.1113,3.932 0.5745,1.413 1.0203,2.964 0.9097,4.527 2e-4,0.681 -0.1388,1.317 -0.2721,1.988 -0.8717,4.387 -4.6561,6.387 -6.6831,6.6 -2.104,0.22 -4.0867,-0.142 -5.8815,-1.423 -0.4856,-0.347 -1.878,-1.583 -2.3366,-2.945 -0.5203,-1.546 -1.1058,-3.209 -0.64,-4.927 0.1906,-0.703 0.2327,-1.499 0.7943,-2.092"
         stroke="#000000"
         stroke-opacity="0.9"
         stroke-width="16"
         stroke-linecap="round"
         stroke-linejoin="round"
         id="path3" /></g><text
       xml:space="preserve"
       style="font-size:11.2889px;line-height:1.25;font-family:Urbanist;-inkscape-font-specification:'Urbanist, Normal';font-variant-ligatures:none;stroke-width:0.264583"
       x="66.4813"
       y="19.743629"
       id="text1"><tspan
         sodipodi:role="line"
         id="tspan1"
         style="stroke-width:0.264583"
         x="66.4813"
         y="19.743629">concept</tspan></text><text
       xml:space="preserve"
       style="font-weight:normal;font-size:11.28888889px;line-height:1.25;font-family:Urbanist;-inkscape-font-specification:Urbanist;letter-spacing:0px;word-spacing:0px;stroke-width:0.264583;font-style:normal;font-stretch:normal;font-variant:normal"
       x="105.80627"
       y="55.6875"
       id="text4"><tspan
         sodipodi:role="line"
         id="tspan4"
         style="stroke-width:0.264583;-inkscape-font-specification:Urbanist;font-family:Urbanist;font-weight:normal;font-style:normal;font-stretch:normal;font-variant:normal;font-size:11.28888889px"
         x="105.80627"
         y="55.6875" /></text><text
       xml:space="preserve"
       style="font-weight:normal;font-size:11.28888889px;line-height:1.25;font-family:Urbanist;-inkscape-font-specification:Urbanist;letter-spacing:0px;word-spacing:0px;stroke-width:0.264583;font-style:normal;font-stretch:normal;font-variant:normal"
       x="100.23753"
       y="47.987503"
       id="text5"><tspan
         sodipodi:role="line"
         id="tspan5"
         style="stroke-width:0.264583;-inkscape-font-specification:Urbanist;font-family:Urbanist;font-weight:normal;font-style:normal;font-stretch:normal;font-variant:normal;font-size:11.28888889px"
         x="100.23753"
         y="47.987503" /></text><text
       xml:space="preserve"
       style="font-size:11.2889px;line-height:1.25;font-family:Urbanist;-inkscape-font-specification:'Urbanist, Normal';letter-spacing:0px;word-spacing:0px;fill:#fb9f46;fill-opacity:1;stroke-width:0.264583"
       x="80.732285"
       y="19.82856"
       id="text6"
       transform="rotate(12.943488)"><tspan
         sodipodi:role="line"
         id="tspan6"
         style="fill:#fb9f46;fill-opacity:1;stroke-width:0.264583"
         x="80.732285"
         y="19.82856">maniac</tspan></text><text
       xml:space="preserve"
       style="font-size:11.2889px;line-height:1.25;font-family:Urbanist;-inkscape-font-specification:'Urbanist, Normal';letter-spacing:0px;word-spacing:0px;fill:#fb9f46;fill-opacity:1;stroke-width:0.264583"
       x="82.570557"
       y="62.045067"
       id="text6-0"
       transform="rotate(-18.573658)"><tspan
         sodipodi:role="line"
         id="tspan6-5"
         style="fill:#fb9f46;fill-opacity:1;stroke-width:0.264583"
         x="82.570557"
         y="62.045067">weekend</tspan></text><path
       style="fill:none;stroke:none;stroke-width:0.264583px;stroke-linecap:butt;stroke-linejoin:miter;stroke-opacity:1"
       d="m 200.19996,191.8125 v 24.20001 l -21.44996,-0.55"
       id="path12" /></g></svg>
