<?xml version="1.0" encoding="UTF-8" standalone="no"?>
<!-- Generator: Adobe Illustrator 27.5.0, SVG Export Plug-In . SVG Version: 6.00 Build 0)  -->

<svg
   version="1.1"
   id="PRINT"
   x="0px"
   y="0px"
   viewBox="0 0 3000.0001 2562.5756"
   xml:space="preserve"
   sodipodi:docname="calendar.svg"
   inkscape:version="1.3.2 (091e20ef0f, 2023-11-25, custom)"
   width="3000"
   height="2562.5757"
   xmlns:inkscape="http://www.inkscape.org/namespaces/inkscape"
   xmlns:sodipodi="http://sodipodi.sourceforge.net/DTD/sodipodi-0.dtd"
   xmlns="http://www.w3.org/2000/svg"
   xmlns:svg="http://www.w3.org/2000/svg"><defs
   id="defs92">
	
	
	
		

		
		
		
		
		
		
		
	
			
			
			
			
			
			
			
			
			
			
			
			
			
			
			
			
			
			
			
			
			
			
			
			
			
			
			
			
			
			
			
			
			
			
			
			
			
			
			
			
			
			
			
			
			
			
			
			
			
			
			
			
			
			
			
			
			
			
			
			
			
			
			
			
			
			
			
			
			
			
			
			
			
		
			
				
			
		
			
				
			
		
			
				
			
		
			
				
			
		
			
				
			
		
				
				
					
			
				
				
					
			
				
				
					
			
				
				
					
			
				
				
					
			</defs><sodipodi:namedview
   id="namedview92"
   pagecolor="#505050"
   bordercolor="#eeeeee"
   borderopacity="1"
   inkscape:showpageshadow="0"
   inkscape:pageopacity="0"
   inkscape:pagecheckerboard="0"
   inkscape:deskcolor="#d1d1d1"
   inkscape:zoom="0.41872266"
   inkscape:cx="457.34329"
   inkscape:cy="486.00188"
   inkscape:window-width="1600"
   inkscape:window-height="924"
   inkscape:window-x="0"
   inkscape:window-y="0"
   inkscape:window-maximized="1"
   inkscape:current-layer="g1" />
<g
   id="g1"
   style="display:inline"
   inkscape:groupmode="layer"
   transform="translate(-73.439,-239.31675)"><g
     id="g3"
     transform="matrix(2.9411419,0,0,2.943536,-142.55552,-467.20753)"
     style="stroke-width:0.339866"><g
       id="g2"
       style="stroke-width:0.339866">
				<path
   style="fill:#58c9e5;stroke-width:0.339866"
   d="m 73.439,312.831 v 797.772 H 1093.148 V 312.831 Z m 997.054,773.791 H 96.094 V 311.528 h 974.399 z"
   id="path2" />
			</g><rect
       x="282.198"
       y="1018.993"
       style="fill:#ffffff;stroke-width:0.339866"
       width="200.073"
       height="83.936996"
       id="rect3" /><rect
       x="684.31598"
       y="937.93402"
       style="fill:#f3f3f3;stroke-width:0.339866"
       width="200.073"
       height="82.017998"
       id="rect4" /><rect
       x="282.198"
       y="364.28799"
       style="fill:#f3f3f3;stroke-width:0.339866"
       width="200.073"
       height="169.312"
       id="rect5" /><rect
       x="684.31598"
       y="1018.993"
       style="fill:#ffffff;stroke-width:0.339866"
       width="200.073"
       height="83.936996"
       id="rect6" /><rect
       x="684.31598"
       y="856.875"
       style="fill:#ffffff;stroke-width:0.339866"
       width="200.073"
       height="82.017998"
       id="rect7" /><rect
       x="684.31598"
       y="775.81702"
       style="fill:#f3f3f3;stroke-width:0.339866"
       width="200.073"
       height="82.017998"
       id="rect8" /><rect
       x="684.31598"
       y="694.758"
       style="fill:#ffffff;stroke-width:0.339866"
       width="200.073"
       height="82.017998"
       id="rect9" /><rect
       x="684.31598"
       y="364.28799"
       style="fill:#f3f3f3;stroke-width:0.339866"
       width="200.073"
       height="169.312"
       id="rect10" /><rect
       x="282.198"
       y="856.875"
       style="fill:#ffffff;stroke-width:0.339866"
       width="200.073"
       height="82.017998"
       id="rect11" /><rect
       x="684.31598"
       y="532.64099"
       style="fill:#ffffff;stroke-width:0.339866"
       width="200.073"
       height="82.017998"
       id="rect12" /><rect
       x="282.198"
       y="775.81702"
       style="fill:#f3f3f3;stroke-width:0.339866"
       width="200.073"
       height="82.017998"
       id="rect13" /><rect
       x="282.198"
       y="694.758"
       style="fill:#ffffff;stroke-width:0.339866"
       width="200.073"
       height="82.017998"
       id="rect14" /><rect
       x="282.198"
       y="613.69897"
       style="fill:#f3f3f3;stroke-width:0.339866"
       width="200.073"
       height="82.017998"
       id="rect15" /><rect
       x="282.198"
       y="532.64099"
       style="fill:#ffffff;stroke-width:0.339866"
       width="200.073"
       height="82.017998"
       id="rect16" /><rect
       x="684.31598"
       y="613.69897"
       style="fill:#f3f3f3;stroke-width:0.339866"
       width="200.073"
       height="82.017998"
       id="rect17" /><rect
       x="282.198"
       y="937.93402"
       style="fill:#f3f3f3;stroke-width:0.339866"
       width="200.073"
       height="82.017998"
       id="rect18" /><rect
       x="80.153999"
       y="354.69501"
       style="opacity:0.7;fill:#ffffff;stroke-width:0.339866"
       width="202.04401"
       height="9.5930004"
       id="rect19" /><rect
       x="80.153999"
       y="694.758"
       style="fill:#f3f3f3;stroke-width:0.339866"
       width="202.04401"
       height="82.017998"
       id="rect20" /><rect
       x="80.153999"
       y="694.758"
       style="fill:#f3f3f3;stroke-width:0.339866"
       width="202.04401"
       height="82.017998"
       id="rect21" /><rect
       x="80.153999"
       y="532.64099"
       style="fill:#f3f3f3;stroke-width:0.339866"
       width="202.04401"
       height="82.017998"
       id="rect22" /><rect
       x="80.153999"
       y="532.64099"
       style="fill:#f3f3f3;stroke-width:0.339866"
       width="202.04401"
       height="82.017998"
       id="rect23" /><rect
       x="80.153999"
       y="613.69897"
       style="fill:#f3f3f3;stroke-width:0.339866"
       width="202.04401"
       height="82.017998"
       id="rect24" /><rect
       x="80.153999"
       y="613.69897"
       style="opacity:0.7;fill:#ffffff;stroke-width:0.339866"
       width="202.04401"
       height="82.017998"
       id="rect25" /><rect
       x="80.153999"
       y="364.28799"
       style="fill:#f3f3f3;stroke-width:0.339866"
       width="202.04401"
       height="169.312"
       id="rect26" /><rect
       x="80.153999"
       y="364.28799"
       style="opacity:0.7;fill:#ffffff;stroke-width:0.339866"
       width="202.04401"
       height="169.312"
       id="rect27" /><rect
       x="80.153999"
       y="937.93402"
       style="fill:#f3f3f3;stroke-width:0.339866"
       width="202.04401"
       height="82.017998"
       id="rect28" /><rect
       x="80.153999"
       y="937.93402"
       style="opacity:0.7;fill:#ffffff;stroke-width:0.339866"
       width="202.04401"
       height="82.017998"
       id="rect29" /><rect
       x="80.153999"
       y="856.875"
       style="fill:#f3f3f3;stroke-width:0.339866"
       width="202.04401"
       height="82.017998"
       id="rect30" /><rect
       x="80.153999"
       y="856.875"
       style="fill:#f3f3f3;stroke-width:0.339866"
       width="202.04401"
       height="82.017998"
       id="rect31" /><rect
       x="80.153999"
       y="1018.993"
       style="fill:#f3f3f3;stroke-width:0.339866"
       width="202.04401"
       height="83.936996"
       id="rect32" /><rect
       x="80.153999"
       y="1018.993"
       style="fill:#f3f3f3;stroke-width:0.339866"
       width="202.04401"
       height="83.936996"
       id="rect33" /><rect
       x="80.153999"
       y="775.81702"
       style="fill:#f3f3f3;stroke-width:0.339866"
       width="202.04401"
       height="82.017998"
       id="rect34" /><rect
       x="80.153999"
       y="775.81702"
       style="opacity:0.7;fill:#ffffff;stroke-width:0.339866"
       width="202.04401"
       height="82.017998"
       id="rect35" /><rect
       x="482.271"
       y="354.69501"
       style="opacity:0.7;fill:#ffffff;stroke-width:0.339866"
       width="202.04401"
       height="9.5930004"
       id="rect36" /><rect
       x="482.271"
       y="613.69897"
       style="fill:#f3f3f3;stroke-width:0.339866"
       width="202.04401"
       height="82.017998"
       id="rect37" /><rect
       x="482.271"
       y="613.69897"
       style="opacity:0.7;fill:#ffffff;stroke-width:0.339866"
       width="202.04401"
       height="82.017998"
       id="rect38" /><rect
       x="482.271"
       y="694.758"
       style="fill:#f3f3f3;stroke-width:0.339866"
       width="202.04401"
       height="82.017998"
       id="rect39" /><rect
       x="482.271"
       y="694.758"
       style="fill:#f3f3f3;stroke-width:0.339866"
       width="202.04401"
       height="82.017998"
       id="rect40" /><rect
       x="482.271"
       y="775.81702"
       style="fill:#f3f3f3;stroke-width:0.339866"
       width="202.04401"
       height="82.017998"
       id="rect41" /><rect
       x="482.271"
       y="775.81702"
       style="opacity:0.7;fill:#ffffff;stroke-width:0.339866"
       width="202.04401"
       height="82.017998"
       id="rect42" /><rect
       x="482.271"
       y="937.93402"
       style="fill:#f3f3f3;stroke-width:0.339866"
       width="202.04401"
       height="82.017998"
       id="rect43" /><rect
       x="482.271"
       y="937.93402"
       style="opacity:0.7;fill:#ffffff;stroke-width:0.339866"
       width="202.04401"
       height="82.017998"
       id="rect44" /><rect
       x="482.271"
       y="856.875"
       style="fill:#f3f3f3;stroke-width:0.339866"
       width="202.04401"
       height="82.017998"
       id="rect45" /><rect
       x="482.271"
       y="856.875"
       style="fill:#f3f3f3;stroke-width:0.339866"
       width="202.04401"
       height="82.017998"
       id="rect46" /><rect
       x="482.271"
       y="532.64099"
       style="fill:#f3f3f3;stroke-width:0.339866"
       width="202.04401"
       height="82.017998"
       id="rect47" /><rect
       x="482.271"
       y="532.64099"
       style="fill:#f3f3f3;stroke-width:0.339866"
       width="202.04401"
       height="82.017998"
       id="rect48" /><rect
       x="482.271"
       y="364.28799"
       style="fill:#f3f3f3;stroke-width:0.339866"
       width="202.04401"
       height="169.312"
       id="rect49" /><rect
       x="482.271"
       y="364.28799"
       style="opacity:0.7;fill:#ffffff;stroke-width:0.339866"
       width="202.04401"
       height="169.312"
       id="rect50" /><rect
       x="482.271"
       y="1018.993"
       style="fill:#f3f3f3;stroke-width:0.339866"
       width="202.04401"
       height="83.936996"
       id="rect51" /><rect
       x="482.271"
       y="1018.993"
       style="fill:#f3f3f3;stroke-width:0.339866"
       width="202.04401"
       height="83.936996"
       id="rect52" /><rect
       x="884.38898"
       y="354.69501"
       style="opacity:0.7;fill:#ffffff;stroke-width:0.339866"
       width="202.04401"
       height="9.5930004"
       id="rect53" /><rect
       x="884.38898"
       y="856.875"
       style="fill:#f3f3f3;stroke-width:0.339866"
       width="202.04401"
       height="82.017998"
       id="rect54" /><rect
       x="884.38898"
       y="856.875"
       style="fill:#f3f3f3;stroke-width:0.339866"
       width="202.04401"
       height="82.017998"
       id="rect55" /><rect
       x="884.38898"
       y="1018.993"
       style="fill:#f3f3f3;stroke-width:0.339866"
       width="202.04401"
       height="83.936996"
       id="rect56" /><rect
       x="884.38898"
       y="1018.993"
       style="fill:#f3f3f3;stroke-width:0.339866"
       width="202.04401"
       height="83.936996"
       id="rect57" /><rect
       x="884.38898"
       y="364.28799"
       style="fill:#f3f3f3;stroke-width:0.339866"
       width="202.04401"
       height="169.312"
       id="rect58" /><rect
       x="884.38898"
       y="364.28799"
       style="opacity:0.7;fill:#ffffff;stroke-width:0.339866"
       width="202.04401"
       height="169.312"
       id="rect59" /><rect
       x="884.38898"
       y="613.69897"
       style="fill:#f3f3f3;stroke-width:0.339866"
       width="202.04401"
       height="82.017998"
       id="rect60" /><rect
       x="884.38898"
       y="613.69897"
       style="opacity:0.7;fill:#ffffff;stroke-width:0.339866"
       width="202.04401"
       height="82.017998"
       id="rect61" /><rect
       x="884.38898"
       y="775.81702"
       style="fill:#f3f3f3;stroke-width:0.339866"
       width="202.04401"
       height="82.017998"
       id="rect62" /><rect
       x="884.38898"
       y="775.81702"
       style="opacity:0.7;fill:#ffffff;stroke-width:0.339866"
       width="202.04401"
       height="82.017998"
       id="rect63" /><rect
       x="884.38898"
       y="937.93402"
       style="fill:#f3f3f3;stroke-width:0.339866"
       width="202.04401"
       height="82.017998"
       id="rect64" /><rect
       x="884.38898"
       y="937.93402"
       style="opacity:0.7;fill:#ffffff;stroke-width:0.339866"
       width="202.04401"
       height="82.017998"
       id="rect65" /><rect
       x="884.38898"
       y="532.64099"
       style="fill:#f3f3f3;stroke-width:0.339866"
       width="202.04401"
       height="82.017998"
       id="rect66" /><rect
       x="884.38898"
       y="532.64099"
       style="fill:#f3f3f3;stroke-width:0.339866"
       width="202.04401"
       height="82.017998"
       id="rect67" /><rect
       x="884.38898"
       y="694.758"
       style="fill:#f3f3f3;stroke-width:0.339866"
       width="202.04401"
       height="82.017998"
       id="rect68" /><rect
       x="884.38898"
       y="694.758"
       style="fill:#f3f3f3;stroke-width:0.339866"
       width="202.04401"
       height="82.017998"
       id="rect69" /><g
       id="g71"
       style="stroke-width:0.339866">
					<polygon
   style="fill:#ffd95e;stroke-width:0.339866"
   points="277.746,425.843 294.514,265.559 91.298,244.299 79.121,360.696 156.858,456.599 230.322,464.284 "
   id="polygon69" />
					<polygon
   style="fill:#f9d84e;stroke-width:0.339866"
   points="273.255,468.776 277.746,425.843 230.322,464.284 "
   id="polygon70" />
					<polygon
   style="fill:#f5c639;stroke-width:0.339866"
   points="156.858,456.599 165.941,369.779 79.121,360.696 "
   id="polygon71" />
				</g><path
       d="m 185.11432,308.85576 q -0.18448,-0.0922 -0.55346,1.0608 -0.32285,1.10691 -0.87631,2.90566 -0.55346,1.75262 -1.19916,4.01257 -0.59958,2.21384 -1.33752,4.42767 -0.73795,2.21384 -1.47589,4.15095 -0.73795,1.89098 -1.4759,2.9979 -0.73794,1.10692 -1.38364,1.24528 -0.6457,0.0922 -1.15304,-1.33752 -0.36897,-0.64571 -1.0608,-2.02935 -0.6457,-1.42977 -1.52201,-3.18239 -0.87631,-1.75262 -1.84486,-3.68973 -0.96856,-1.93711 -1.84487,-3.6436 -0.83019,-1.75262 -1.56813,-3.13627 -0.69182,-1.38365 -1.01468,-2.02935 -0.55345,-1.01468 -1.01467,-1.61426 -0.4151,-0.6457 -1.33753,-0.6457 0,3.22851 0.36898,7.10273 0.36897,3.87421 0.78406,7.84066 0.46122,3.96646 0.83019,7.84067 0.36897,3.82809 0.36897,7.10273 0.18449,0.41509 -0.13836,0.78406 -0.27673,0.36898 -0.83019,0.55346 -0.50734,0.18449 -1.15304,0 -0.59958,-0.13836 -1.01467,-0.73794 -0.4151,-4.10482 -0.46122,-8.34801 0,-4.28931 -0.0461,-8.57861 -0.0461,-4.28931 -0.36897,-8.57862 -0.32285,-4.33543 -1.29141,-8.62473 -0.0461,-0.83019 0.27673,-1.01468 0.32285,-0.23061 0.83019,-0.23061 1.10692,0 1.98323,0.55346 0.92243,0.50734 1.66038,1.33753 0.73794,0.78407 1.2914,1.75262 0.59958,0.96855 1.0608,1.75262 0.36897,0.59958 1.01467,1.89098 l 1.47589,2.99791 q 0.83019,1.66037 1.7065,3.50524 0.92243,1.79874 1.75262,3.45912 0.83019,1.61425 1.52201,2.90566 0.69183,1.24528 1.0608,1.79874 0.18448,0 0.32285,-0.13837 0.13836,-0.13836 0.36897,-0.78406 0.27673,-0.64571 0.69183,-1.98323 0.46121,-1.33753 1.24528,-3.68973 0.78407,-2.3522 1.93711,-5.94968 1.15303,-3.59749 2.81341,-8.7631 0.0922,-0.23061 0.59958,-0.4151 0.50734,-0.18448 0.92243,-0.18448 0.4151,0 0.55346,0.27672 0.18449,0.27673 0.27673,0.92244 0.4151,3.92033 0.6457,8.20964 0.27673,4.24318 0.69183,8.62473 0.41509,4.33543 1.01467,8.62474 0.64571,4.28931 1.75262,8.16352 l -3.18239,1.24528 z m 7.93292,20.80083 q 0.55345,-8.02515 2.30607,-13.05241 1.75262,-5.07337 4.0587,-7.24108 2.3522,-2.16772 4.84277,-1.42977 2.53669,0.69182 4.56604,4.19706 0.69182,2.30608 0.87631,5.16562 0.2306,2.85954 -0.0922,5.81132 -0.27673,2.90566 -1.06079,5.71907 -0.73795,2.81342 -2.07547,5.07338 -1.33753,2.25996 -3.18239,3.82809 -1.84487,1.52201 -4.24319,1.84486 -1.7065,0 -2.85954,-1.06079 -1.15304,-1.0608 -1.84486,-2.58281 -0.69182,-1.56814 -1.01468,-3.22851 -0.27672,-1.7065 -0.27672,-3.04403 z m 2.44444,-0.27673 q 0,1.15304 0.0922,2.39833 0.13837,1.24528 0.55346,2.30607 0.4151,1.01468 1.24528,1.7065 0.87631,0.64571 2.30608,0.64571 1.61426,0 2.95178,-1.4759 1.33753,-1.47589 2.30608,-3.82809 0.96856,-2.3522 1.52202,-5.21174 0.59958,-2.85953 0.69182,-5.58071 0.13836,-2.76729 -0.27673,-5.07337 -0.36897,-2.30608 -1.33753,-3.45912 -0.96855,-1.19916 -2.5828,-0.96855 -1.56814,0.2306 -3.78197,2.53668 -0.64571,1.89099 -1.29141,3.92034 -0.6457,1.98323 -1.15304,4.0587 -0.50734,2.02935 -0.87631,4.0587 -0.36897,2.02935 -0.36897,3.96645 z m 16.37316,-18.21802 V 308.948 q 0.55346,0 1.24529,0.36897 0.69182,0.36898 1.33752,0.87631 0.6457,0.50734 1.19916,1.15304 0.55346,0.59959 0.87631,1.01468 l 13.60587,18.31027 q 0.13836,-0.78407 0.23061,-2.90566 0.13836,-2.12159 0.0922,-4.79665 0,-2.72117 -0.13836,-5.67295 -0.0923,-2.95178 -0.32286,-5.48847 -0.18448,-2.58281 -0.46121,-4.33543 -0.23061,-1.79874 -0.6457,-2.16771 0,-0.69183 0.2306,-1.29141 0.27673,-0.59958 1.01468,-0.59958 0.73794,0 1.19916,0.83019 0.46122,0.83019 0.69182,1.89099 0.23061,1.01467 0.32286,2.02935 0.13836,0.96855 0.13836,1.2914 0.0461,0.83019 0.0922,2.53669 0.0461,1.66037 0.0923,3.82809 0.0461,2.12159 0.0922,4.51991 0.0922,2.39833 0.13836,4.51992 0.0923,2.12159 0.0923,3.87421 0.0461,1.7065 0.0922,2.53669 0,0.59958 0.18449,1.10692 0.23061,0.50733 0.41509,1.01467 0.23061,0.50734 0.4151,1.01468 0.18448,0.50733 0.18448,1.06079 0,0.92243 -0.69182,1.38365 -0.6457,0.41509 -1.47589,0.41509 -0.46122,0 -0.83019,-0.0922 -0.32285,-0.13836 -0.55346,-0.41509 -0.18449,-0.32285 -0.23061,-0.78407 0,-0.46122 0.18449,-1.19916 -0.50734,-0.59958 -1.56814,-1.93711 -1.06079,-1.38365 -2.39832,-3.04402 -1.2914,-1.7065 -2.76729,-3.55136 -1.47589,-1.84487 -2.81342,-3.50524 -1.33752,-1.7065 -2.39832,-3.04403 l -1.56814,-1.98323 q -0.0922,-0.13836 -0.32285,-0.36897 l -1.10691,-1.10692 q -0.23061,-0.23061 -0.36898,-0.32285 -0.18448,2.67505 0.0461,5.39623 0.23061,2.67505 0.59959,5.3501 0.41509,2.67505 0.78406,5.3501 0.4151,2.62893 0.4151,5.30399 0,0.73794 -0.13837,1.33752 -0.13836,0.55346 -1.10692,0.87631 -0.92243,-0.32285 -1.24528,-1.19916 -0.32285,-0.92243 0.0461,-1.75262 z m 31.54716,27.44234 q 0,-0.92243 1.15304,-2.3522 1.15304,-1.47589 2.85954,-3.32075 1.7065,-1.84487 3.73585,-4.01258 2.02935,-2.16772 3.73585,-4.4738 1.70649,-2.3522 2.85953,-4.75052 1.15304,-2.44444 1.15304,-4.79664 0,-1.24529 -0.69182,-2.1216 -0.69182,-0.92243 -1.79874,-1.56813 -1.0608,-0.6457 -2.44445,-1.01468 -1.33752,-0.36897 -2.72117,-0.55345 -1.38365,-0.23061 -2.62893,-0.27673 -1.24528,-0.0922 -2.12159,-0.0922 -0.23061,0 -0.59958,0.0461 -0.36898,0 -0.78407,0.0461 -0.36897,0 -0.69182,0.0461 -0.32285,0.0461 -0.36898,0.0461 l -0.59958,0.55346 q 0,0.0922 -0.0461,0.78407 0,0.69182 -0.0461,1.56813 0,0.87631 0,1.79874 v 1.42977 q 0,4.65828 0.32285,9.27044 0.36897,4.56603 0.36897,9.22431 0,0.27673 0,0.59959 0.0461,0.32285 0,0.6457 -0.0461,0.27673 -0.27673,0.50733 -0.18448,0.18449 -0.59958,0.18449 -0.27673,0 -0.55345,-0.13836 -0.27673,-0.13837 -0.32286,-0.46122 l -1.79874,-24.25995 q -0.13836,0.0922 -0.50734,0.27673 -0.32285,0.13836 -0.69182,0.32285 -0.36897,0.18449 -0.73794,0.41509 -0.32286,0.18449 -0.4151,0.18449 -0.0461,0 -0.18448,0.0461 -0.0923,0 -0.13837,0 -0.23061,0 -0.55346,-0.0922 -0.27673,-0.13837 -0.27673,-0.55346 0,-0.69183 0.27673,-1.10692 0.32285,-0.46122 0.78407,-0.83019 0.50734,-0.36897 1.06079,-0.73794 0.55346,-0.36898 1.01468,-0.92243 0.50734,-0.59959 0.78407,-1.4759 0.32285,-0.87631 0.32285,-2.21383 0.92243,0 1.15304,0.32285 0.23061,0.32285 0.27673,0.78407 0.0461,0.41509 0.0922,0.87631 0.0922,0.41509 0.69182,0.59958 1.29141,-0.0461 3.09015,0 1.84486,0.0461 3.82809,0.32285 2.02935,0.23061 3.96646,0.73794 1.98323,0.50734 3.50524,1.42977 1.56813,0.92243 2.44444,2.3522 0.92243,1.38365 0.83019,3.413 -0.59958,3.55136 -2.30608,6.82599 -1.66038,3.27464 -3.96646,6.31866 -2.25995,2.9979 -4.935,5.7652 -2.62894,2.76729 -5.25787,5.30398 -0.0461,0 -0.13836,0 -0.0922,0.0461 -0.13836,0.0461 -0.4151,0 -0.69183,-0.27673 -0.27673,-0.27673 -0.27673,-0.69182 z m 19.97065,-0.27673 q 0.13836,-0.6457 0.23061,-1.66038 0.0922,-1.01467 0.2306,-2.67505 0.18449,-1.66038 0.36898,-4.10482 0.2306,-2.44444 0.59958,-5.94968 0.36897,-3.50524 0.83019,-8.20965 0.50733,-4.75052 1.2914,-11.02305 0.0461,-0.46122 0.41509,-0.55346 0.4151,-0.0923 0.73795,-0.0923 0.50734,0 0.83019,0.36898 0.32285,0.36897 0.55346,0.83019 0.27673,0.46121 0.50733,0.96855 0.23061,0.50734 0.50734,0.83019 0.46122,1.06079 0.92243,2.44444 0.50734,1.38365 1.0608,2.95178 0.55346,1.56814 1.10692,3.18239 0.55346,1.56814 1.10692,3.09015 0.55345,1.47589 1.01467,2.76729 0.50734,1.24529 0.92243,2.07547 0.50734,-0.0461 1.42977,-0.36897 0.92243,-0.36897 1.98323,-0.69182 1.0608,-0.32285 2.07547,-0.50734 1.01468,-0.18449 1.7065,0 0.69182,0.13836 0.87631,0.78407 0.23061,0.6457 -0.32285,2.02935 -0.32285,0 -0.59958,-0.0922 -0.27673,-0.13836 -0.55346,-0.2306 -0.27673,-0.13837 -0.59958,-0.23061 -0.27673,-0.13837 -0.6457,-0.13837 -0.23061,0 -1.0608,0.27673 -0.78407,0.23061 -1.7065,0.55346 -0.92243,0.27673 -1.61425,0.59958 -0.69183,0.27673 -0.69183,0.4151 l 3.18239,12.49894 -1.19916,1.75263 q -0.78407,-1.33753 -1.33753,-3.04403 -0.50733,-1.75262 -0.96855,-3.45912 -0.46122,-1.75262 -0.96855,-3.22851 -0.46122,-1.52201 -1.19916,-2.53669 -0.96856,0.46122 -2.30608,0.78407 -1.33753,0.32285 -2.58281,0.83019 -1.24528,0.46122 -2.16772,1.2914 -0.87631,0.78407 -1.06079,2.16772 -0.0923,0.55346 -0.18449,1.47589 -0.0461,0.92243 -0.13836,1.75262 -0.13837,1.01467 -0.23061,2.07547 z m 5.30398,-27.16561 -0.0922,0.78407 q -0.0461,0.78406 -0.13837,1.84486 -0.0922,1.01467 -0.23061,2.12159 -0.0922,1.0608 -0.13836,1.79874 -0.23061,2.58281 -0.50734,5.1195 -0.23061,2.49056 -0.23061,5.11949 0.87631,0 1.84487,-0.2306 1.01467,-0.23061 1.9371,-0.59958 0.92244,-0.4151 1.66038,-0.96856 0.78407,-0.59958 1.19916,-1.33752 -0.36897,-1.61426 -0.83019,-3.32076 -0.41509,-1.75262 -0.92243,-3.50524 -0.50734,-1.79874 -1.10692,-3.50524 -0.59958,-1.7065 -1.2914,-3.32075 -0.0461,-0.0461 -0.32285,-0.18449 -0.27673,-0.18448 -0.83019,0.18449 z m 20.80084,27.21173 q 0,-1.66038 0.50734,-3.22851 0.50733,-1.61425 1.10692,-3.22851 0.59958,-1.61426 1.01467,-3.18239 0.46122,-1.61425 0.32285,-3.36687 -1.33752,-1.4759 -2.95178,-3.18239 -1.61426,-1.75262 -3.18239,-3.59749 -1.56813,-1.89098 -2.90566,-3.87421 -1.33753,-2.02935 -2.16771,-4.10482 -0.0461,-0.0461 -0.0461,-0.13837 v -0.18448 q 0,-0.55346 0.4151,-0.73795 0.41509,-0.18448 0.87631,-0.18448 1.19916,1.42977 2.53669,3.27463 1.38364,1.79874 2.81341,3.59748 1.42977,1.79874 2.90566,3.45912 1.47589,1.61426 2.90566,2.67505 h 0.59958 q 0.18449,-0.32285 0.6457,-1.56813 0.46122,-1.29141 1.10692,-3.04403 0.69183,-1.75262 1.42977,-3.87421 0.73795,-2.12159 1.38365,-4.15094 0.69182,-2.07547 1.15304,-3.87421 0.50734,-1.79875 0.73794,-2.95179 0.0461,-0.0922 0.27673,-0.0922 0.69183,0 1.10692,0.6457 0.46122,0.59958 0.36897,1.24529 -1.24528,4.38155 -2.07547,7.19496 -0.78406,2.81342 -1.33752,4.61216 -0.50734,1.75262 -0.87631,2.85954 -0.36898,1.0608 -0.78407,2.02935 -0.36897,0.96855 -0.78407,2.16771 -0.41509,1.15304 -1.10691,3.13627 -0.69183,1.93711 -1.7065,5.02725 -1.01468,3.04403 -2.53669,7.79455 -0.0461,0 -0.27673,0 -0.18449,0.0461 -0.27673,0.0461 -1.19916,0 -1.19916,-1.19916 z"
       id="text71"
       style="font-size:47.2285px;font-family:ShadowsIntoLight;fill:#2f3030;stroke:#2f3030;stroke-width:0.326027;stroke-miterlimit:10"
       transform="rotate(7.2444105)"
       aria-label="MONDAY" /><g
       id="g74"
       style="stroke-width:0.339866">
					<polygon
   style="fill:#f8a45e;stroke-width:0.339866"
   points="684.443,384.439 692.702,471.341 779.605,463.082 "
   id="polygon72" />
					<polygon
   style="fill:#f2943f;stroke-width:0.339866"
   points="892.027,409.036 876.78,248.601 673.371,267.932 684.443,384.439 779.605,463.082 853.138,456.094 "
   id="polygon73" />
					<polygon
   style="fill:#e77d25;stroke-width:0.339866"
   points="849.053,413.12 853.138,456.094 892.027,409.036 "
   id="polygon74" />
				</g><path
       d="m 663.11245,447.46883 q -1.28195,0 -2.60395,0.24036 -1.28195,0.24037 -2.5639,0.56085 -1.28194,0.28043 -2.56389,0.5208 -1.28195,0.24036 -2.60396,0.24036 -0.4006,0 -0.84127,-0.0801 -0.40061,-0.12018 -0.40061,-0.7211 0,-0.4006 0.32048,-0.80121 0.36055,-0.44067 0.76116,-0.48073 l 10.73631,-1.56238 q 0.0401,-0.16024 0.12018,-0.48073 0.0801,-0.36054 0.2003,-0.68103 0.16025,-0.36055 0.40061,-0.60091 0.24037,-0.28043 0.56085,-0.28043 0.48073,0 0.76116,0.24037 0.28042,0.24036 0.48073,0.56085 0.2003,0.28042 0.36055,0.52079 0.16024,0.24036 0.40061,0.24036 h 0.32048 q 0.40061,-0.0401 1.28195,-0.12018 0.88134,-0.12018 2.00304,-0.24036 1.16177,-0.12019 2.44371,-0.24037 1.28195,-0.16024 2.44371,-0.24036 1.16177,-0.12019 2.04311,-0.20031 0.88133,-0.12018 1.28194,-0.2003 0.12019,0 0.56085,0 0.48073,-0.0401 0.68104,-0.0401 0,0.76115 -0.84128,1.28194 -0.80122,0.48073 -2.08316,0.84128 -1.24189,0.32049 -2.80426,0.52079 -1.52231,0.16025 -3.00456,0.28043 -1.44219,0.12018 -2.68408,0.2003 -1.20183,0.0801 -1.8428,0.20031 -0.16024,2.84432 0.12018,5.929 0.32049,3.08469 0.76116,6.20943 0.48073,3.12475 0.88134,6.20943 0.40061,3.08469 0.40061,5.88895 0.16024,0.56085 0.12018,0.88133 0,0.32049 -0.20031,0.44067 -0.2003,0.12019 -0.60091,0.12019 -0.40061,0 -0.96146,-0.0401 -0.40061,-1.4422 -0.72109,-3.36512 -0.28043,-1.96298 -0.52079,-4.16632 -0.24037,-2.24341 -0.48073,-4.607 -0.20031,-2.36359 -0.40061,-4.68712 -0.20031,-2.32353 -0.44067,-4.44675 -0.24037,-2.12323 -0.56085,-3.84584 z m 25.43864,11.25709 q -0.44067,0.32049 -1.56238,0.96146 -1.08164,0.60092 -2.32353,1.32201 -1.24188,0.7211 -2.36359,1.40213 -1.1217,0.64098 -1.56237,0.96146 -0.88134,0.68104 -1.20182,1.56237 -0.32049,0.88134 -0.32049,1.92292 0,1.00153 0.2003,2.12323 0.20031,1.08164 0.28043,2.20335 0,0.56085 -0.36055,1.04158 -0.36055,0.48073 -0.9214,0.48073 -0.24036,0 -0.52079,-0.12018 -0.28042,-0.16025 -0.28042,-0.44067 l -0.9214,-25.679 q 0,-0.24037 0.16024,-0.64098 0.2003,-0.4006 0.32049,-0.44067 0.12018,0 0.32048,0.0401 0.24037,0.0401 0.48073,0.16024 0.24037,0.0801 0.44067,0.2003 0.24037,0.0801 0.32049,0.16025 0.16024,1.60243 0.2003,3.68559 0.0401,2.08317 0.0801,4.20639 0.0801,2.12323 0.20031,4.12627 0.16024,1.96298 0.52079,3.32505 1.72262,-0.7211 3.24493,-1.36207 1.52231,-0.64097 2.64401,-1.48225 1.12171,-0.84128 1.76268,-2.0431 0.64097,-1.24189 0.60091,-3.08469 0,-1.00152 -0.0401,-1.76268 -0.0401,-0.76115 -0.16024,-1.48225 -0.12018,-0.76115 -0.36055,-1.60243 -0.2003,-0.88134 -0.52079,-2.00304 -0.0801,-0.7211 0.24037,-0.9214 0.32048,-0.20031 0.76115,-0.20031 0.52079,0 0.80122,0.24037 0.28042,0.24036 0.44067,0.64097 0.2003,0.40061 0.24036,0.88134 0.0401,0.44067 0.0801,0.84128 0.0801,0.64097 0.20031,1.92292 0.12018,1.28195 0.24036,2.92444 0.16025,1.60243 0.32049,3.40517 0.2003,1.80274 0.36055,3.40517 0.16024,1.60244 0.24036,2.88438 0.12019,1.28195 0.20031,1.92292 0.12018,1.52232 0.32048,3.00457 0.20031,1.48225 0.20031,3.04462 v 0.64097 q 0,0.32049 -0.0801,0.64098 -0.0401,0.28042 -0.28043,0.52079 -0.2003,0.2003 -0.68103,0.32049 -0.7211,-0.5208 -0.84128,-1.16177 -0.12018,-0.64097 -0.20031,-1.40213 -0.0401,-0.44067 -0.0801,-1.32201 -0.0401,-0.9214 -0.16024,-2.00304 -0.0801,-1.1217 -0.2003,-2.32353 -0.0801,-1.24188 -0.20031,-2.32353 -0.0801,-1.1217 -0.16024,-2.00304 -0.0801,-0.88134 -0.12018,-1.32201 z m 18.94877,3.12475 q -0.40061,1.48225 -1.08164,3.28499 -0.64097,1.76268 -1.64249,3.32505 -0.96146,1.56237 -2.32353,2.64401 -1.36207,1.04159 -3.16481,1.04159 -1.40213,0 -2.28347,-0.56086 -0.84127,-0.60091 -1.32201,-1.56237 -0.48073,-1.00152 -0.72109,-2.16328 -0.2003,-1.20183 -0.28043,-2.40365 -0.0401,-0.40061 -0.0801,-1.60244 -0.0401,-1.24188 -0.0801,-2.88438 -0.0401,-1.68255 -0.12018,-3.56541 -0.0401,-1.88286 -0.12018,-3.52536 -0.0401,-1.64249 -0.0801,-2.88438 -0.0401,-1.24188 -0.0401,-1.64249 -0.0401,-0.40061 0.0401,-0.60092 0.0801,-0.24036 0.28043,-0.32048 0.2003,-0.12018 0.44067,-0.12018 0.28042,-0.0401 0.48073,-0.0401 h 0.32049 q 0.24036,0 0.44067,0.0401 0.2003,0.0401 0.36054,0.2003 0.16025,0.12018 0.16025,0.36055 v 17.06592 q 0,0.72109 0.2003,1.44219 0.24037,0.72109 0.64097,1.36206 0.40061,0.60092 1.00152,1.00153 0.60092,0.4006 1.36207,0.4006 1.52232,-0.12018 2.60396,-1.60243 1.1217,-1.52231 1.92292,-3.80578 0.80122,-2.28347 1.32201,-4.96754 0.52079,-2.68408 0.9214,-5.16785 0.4006,-2.48377 0.68103,-4.40669 0.32049,-1.92293 0.68103,-2.68408 0.76116,-0.68104 1.20183,-0.32049 0.44067,0.32049 0.64097,1.04158 0.24037,0.68104 0.28043,1.52232 0.0401,0.80121 -0.0801,1.16176 0,2.68408 -0.28043,5.32809 -0.24036,2.64402 -0.24036,5.36815 0,1.72262 0.16024,3.44524 0.16024,1.72261 0.36055,3.44523 0.2003,1.72262 0.36054,3.44523 0.16025,1.68256 0.16025,3.36511 0,0.32049 -0.0401,0.64098 -0.0401,0.36054 -0.20031,0.64097 -0.12018,0.28043 -0.36054,0.48073 -0.24037,0.2003 -0.68104,0.2003 0,0 -0.12018,-0.0401 -0.0801,0 -0.16025,0 z m 5.48834,-21.7931 q 0.0401,0 0.28042,0.0401 0.24037,0.0401 0.5208,0.0801 0.28042,0 0.52079,0.0401 0.28042,0.0401 0.32048,0.0401 0.20031,0 0.60092,0.0801 0.4006,0.0401 0.4006,0.44067 v 3.52535 q 0.68104,-0.16024 1.56238,-0.72109 0.88134,-0.60092 2.08316,-1.20183 1.20183,-0.60091 2.68408,-1.00152 1.48225,-0.40061 3.40517,-0.2003 2.9645,0.60091 4.28651,1.44219 1.32201,0.80121 1.40213,1.80273 0.0801,0.96146 -0.84128,2.08317 -0.88134,1.1217 -2.36359,2.32353 -1.48225,1.16176 -3.32505,2.32353 -1.80274,1.16176 -3.56541,2.28346 -1.72262,1.08165 -3.16481,2.04311 -1.44219,0.96146 -2.16329,1.72261 0.64098,0.28043 1.8428,0.9214 1.24189,0.60091 2.68408,1.36207 1.48225,0.7211 3.04462,1.56237 1.60244,0.84128 3.00457,1.56238 1.40213,0.68103 2.52383,1.24188 1.1217,0.52079 1.60243,0.68104 0.40061,0.2003 0.76116,0.36054 0.28042,0.20031 0.52079,0.36055 0.28043,0.16024 0.28043,0.32049 0,0.16024 -0.12019,0.44067 -0.0801,0.28042 -0.28042,0.52079 -0.20031,0.24036 -0.44067,0.44067 -0.20031,0.16024 -0.40061,0.16024 -0.0801,0 -0.2003,0 -0.0801,-0.0401 -0.12019,-0.0401 -0.0801,-0.0401 -0.56085,-0.24037 -0.44067,-0.24036 -0.96146,-0.52079 -0.48073,-0.28042 -0.96146,-0.48073 -0.44067,-0.24036 -0.56085,-0.28042 -0.44067,-0.16025 -1.44219,-0.60091 -0.96146,-0.48073 -2.20335,-1.04159 -1.20182,-0.60091 -2.56389,-1.28194 -1.36207,-0.68104 -2.60396,-1.28195 -1.20182,-0.60091 -2.20334,-1.04158 -0.96146,-0.44067 -1.40213,-0.52079 v 12.25861 h -1.80274 z m 2.64401,6.89047 q -0.0801,0.72109 -0.16024,1.68255 -0.0801,0.96146 -0.2003,2.00304 -0.0801,1.04159 -0.16025,2.08317 -0.0401,1.04158 -0.0401,1.92292 0.16025,-0.20031 1.12171,-0.68104 0.96146,-0.48073 2.32352,-1.20182 1.36207,-0.7211 2.92445,-1.60243 1.60243,-0.88134 3.00456,-1.80274 1.40213,-0.96146 2.44371,-1.88286 1.08164,-0.9214 1.36207,-1.68256 0.32049,-0.80121 -0.32049,-1.44219 -0.60091,-0.64097 -2.56389,-1.00152 -1.08164,-0.0801 -2.48377,0.12018 -1.36207,0.20031 -2.7642,0.68104 -1.36207,0.48073 -2.5639,1.20182 -1.20182,0.68104 -1.92292,1.60244 z m 21.27231,23.75608 q 0.0801,-0.40061 1.00152,-0.76116 0.9214,-0.36055 2.28347,-0.76116 1.36207,-0.4006 3.00456,-0.88133 1.6425,-0.48073 3.16481,-1.08165 1.52231,-0.60091 2.7642,-1.36207 1.28194,-0.76115 1.88286,-1.76267 0,-0.60092 -0.80122,-0.9214 -0.76116,-0.32049 -2.08316,-0.52079 -1.28195,-0.24037 -2.96451,-0.36055 -1.64249,-0.16024 -3.40517,-0.40061 -1.72261,-0.28043 -3.40517,-0.64097 -1.64249,-0.40061 -2.9645,-1.08165 -1.28195,-0.72109 -2.08316,-1.80273 -0.76116,-1.08165 -0.76116,-2.64402 0,-1.56237 0.68103,-3.08468 0.68104,-1.56238 1.80274,-3.00457 1.16177,-1.44219 2.60396,-2.68407 1.48225,-1.24189 3.08468,-2.16329 1.60243,-0.9214 3.16481,-1.44219 1.60243,-0.52079 2.9645,-0.52079 0.36055,0 0.76116,0 0.4006,-0.0401 0.68103,0.0401 0.32049,0.0401 0.52079,0.28043 0.2003,0.24036 0.2003,0.72109 0,1.16177 -0.76115,1.68256 -0.76116,0.48073 -1.8428,0.48073 l -1.56237,-1.12171 q -0.9214,0 -2.04311,0.5208 -1.08164,0.52079 -2.2434,1.40212 -1.12171,0.84128 -2.20335,1.96299 -1.08164,1.1217 -1.92292,2.32352 -0.80122,1.20183 -1.32201,2.40365 -0.48073,1.20183 -0.48073,2.16329 0,1.40213 0.76116,2.28347 0.80122,0.84128 2.08316,1.36207 1.32201,0.48073 3.00457,0.72109 1.68255,0.24037 3.40517,0.40061 1.72261,0.16024 3.40517,0.32049 1.68255,0.12018 2.9645,0.48073 1.32201,0.36054 2.08316,0.96146 0.80122,0.60091 0.80122,1.64249 0.44067,0.64098 -0.2003,1.48225 -0.60092,0.80122 -1.92292,1.6425 -1.28195,0.80121 -3.08469,1.64249 -1.76267,0.80122 -3.64553,1.48225 -1.88286,0.64098 -3.64554,1.12171 -1.76268,0.44067 -3.00456,0.56085 -0.36055,0 -0.64098,-0.24037 -0.24036,-0.24036 -0.0801,-0.84127 z m 23.79615,1.08164 q 0,-0.80122 1.00152,-2.0431 1.00152,-1.28195 2.48377,-2.88439 1.48225,-1.60243 3.24493,-3.48529 1.76267,-1.88286 3.24492,-3.8859 1.48226,-2.0431 2.48378,-4.12627 1.00152,-2.12322 1.00152,-4.16632 0,-1.08165 -0.60092,-1.8428 -0.60091,-0.80122 -1.56237,-1.36207 -0.9214,-0.56085 -2.12322,-0.88134 -1.16177,-0.32049 -2.36359,-0.48073 -1.20183,-0.2003 -2.28347,-0.24036 -1.08164,-0.0801 -1.8428,-0.0801 -0.2003,0 -0.52079,0.0401 -0.32049,0 -0.68103,0.0401 -0.32049,0 -0.60092,0.0401 -0.28042,0.0401 -0.32048,0.0401 l -0.52079,0.48073 q 0,0.0801 -0.0401,0.68103 0,0.60091 -0.0401,1.36207 0,0.76116 0,1.56237 v 1.24189 q 0,4.04614 0.28043,8.05223 0.32049,3.96602 0.32049,8.01217 0,0.24036 0,0.52079 0.0401,0.28042 0,0.56085 -0.0401,0.24036 -0.24037,0.44067 -0.16024,0.16024 -0.52079,0.16024 -0.24036,0 -0.48073,-0.12018 -0.24036,-0.12018 -0.28043,-0.40061 l -1.56237,-21.072 q -0.12018,0.0801 -0.44067,0.24036 -0.28042,0.12019 -0.60091,0.28043 -0.32049,0.16024 -0.64097,0.36055 -0.28043,0.16024 -0.36055,0.16024 -0.0401,0 -0.16024,0.0401 -0.0801,0 -0.12019,0 -0.2003,0 -0.48073,-0.0801 -0.24036,-0.12018 -0.24036,-0.48073 0,-0.60091 0.24036,-0.96146 0.28043,-0.40061 0.68104,-0.7211 0.44067,-0.32048 0.9214,-0.64097 0.48073,-0.32049 0.88134,-0.80122 0.44066,-0.52079 0.68103,-1.28194 0.28043,-0.76116 0.28043,-1.92292 0.80121,0 1.00152,0.28042 0.2003,0.28043 0.24036,0.68104 0.0401,0.36054 0.0801,0.76115 0.0801,0.36055 0.60092,0.52079 1.1217,-0.0401 2.68407,0 1.60244,0.0401 3.32505,0.28043 1.76268,0.2003 3.44523,0.64097 1.72262,0.44067 3.04463,1.24189 1.36207,0.80122 2.12322,2.0431 0.80122,1.20183 0.7211,2.9645 -0.52079,3.08469 -2.00304,5.92901 -1.44219,2.84432 -3.44524,5.48833 -1.96298,2.60396 -4.28651,5.00761 -2.28346,2.40365 -4.56693,4.607 -0.0401,0 -0.12018,0 -0.0801,0.0401 -0.12019,0.0401 -0.36054,0 -0.60091,-0.24037 -0.24036,-0.24036 -0.24036,-0.60091 z m 17.34634,-0.24037 q 0.12018,-0.56085 0.2003,-1.44219 0.0801,-0.88134 0.2003,-2.32353 0.16025,-1.44219 0.32049,-3.56541 0.20031,-2.12323 0.52079,-5.16785 0.32049,-3.04462 0.7211,-7.13083 0.44067,-4.12627 1.1217,-9.57454 0.0401,-0.40061 0.36055,-0.48073 0.36055,-0.0801 0.64097,-0.0801 0.44067,0 0.7211,0.32049 0.28042,0.32048 0.48073,0.72109 0.24036,0.40061 0.44067,0.84128 0.2003,0.44067 0.44067,0.72109 0.4006,0.9214 0.80121,2.12323 0.44067,1.20182 0.9214,2.56389 0.48073,1.36207 0.96146,2.7642 0.48073,1.36207 0.96146,2.68408 0.48073,1.28194 0.88134,2.40365 0.44067,1.08164 0.80122,1.80273 0.44067,-0.0401 1.24188,-0.32048 0.80122,-0.32049 1.72262,-0.60092 0.9214,-0.28042 1.80274,-0.44066 0.88134,-0.16025 1.48225,0 0.60091,0.12018 0.76115,0.68103 0.20031,0.56085 -0.28042,1.76268 -0.28043,0 -0.52079,-0.0801 -0.24037,-0.12019 -0.48073,-0.20031 -0.24037,-0.12018 -0.52079,-0.2003 -0.24037,-0.12019 -0.56085,-0.12019 -0.20031,0 -0.9214,0.24037 -0.68104,0.2003 -1.48226,0.48073 -0.80121,0.24036 -1.40212,0.52079 -0.60092,0.24037 -0.60092,0.36055 l 2.7642,10.85649 -1.04158,1.52231 q -0.68104,-1.16177 -1.16177,-2.64402 -0.44066,-1.52231 -0.84127,-3.00456 -0.40061,-1.52231 -0.84128,-2.80426 -0.40061,-1.32201 -1.04158,-2.20335 -0.84128,0.40061 -2.00304,0.68104 -1.16177,0.28042 -2.24341,0.72109 -1.08164,0.40061 -1.88286,1.12171 -0.76116,0.68103 -0.9214,1.88286 -0.0801,0.48073 -0.16024,1.28194 -0.0401,0.80122 -0.12019,1.52232 -0.12018,0.88133 -0.2003,1.80273 z m 4.60699,-23.59583 -0.0801,0.68103 q -0.0401,0.68104 -0.12018,1.60244 -0.0801,0.88133 -0.20031,1.84279 -0.0801,0.9214 -0.12018,1.56238 -0.2003,2.2434 -0.44067,4.44675 -0.2003,2.16329 -0.2003,4.44675 0.76115,0 1.60243,-0.2003 0.88134,-0.2003 1.68256,-0.52079 0.80121,-0.36055 1.44219,-0.84128 0.68103,-0.52079 1.04158,-1.16176 -0.32049,-1.40213 -0.7211,-2.88438 -0.36054,-1.52232 -0.80121,-3.04463 -0.44067,-1.56237 -0.96146,-3.04462 -0.52079,-1.48225 -1.12171,-2.88438 -0.0401,-0.0401 -0.28042,-0.16025 -0.24037,-0.16024 -0.7211,0.16025 z m 18.06744,23.63589 q 0,-1.44219 0.44067,-2.80425 0.44066,-1.40213 0.96146,-2.80426 0.52079,-1.40213 0.88133,-2.7642 0.40061,-1.40213 0.28043,-2.92444 -1.16176,-1.28195 -2.56389,-2.7642 -1.40213,-1.52231 -2.7642,-3.12475 -1.36207,-1.64249 -2.52383,-3.36511 -1.16177,-1.76267 -1.88286,-3.56541 -0.0401,-0.0401 -0.0401,-0.12018 v -0.16025 q 0,-0.48073 0.36055,-0.64097 0.36055,-0.16024 0.76116,-0.16024 1.04158,1.24188 2.20334,2.84432 1.20183,1.56237 2.44372,3.12474 1.24188,1.56237 2.52383,3.00456 1.28195,1.40213 2.52383,2.32353 h 0.52079 q 0.16025,-0.28042 0.56085,-1.36207 0.40061,-1.1217 0.96146,-2.64401 0.60092,-1.52231 1.24189,-3.36511 0.64097,-1.8428 1.20183,-3.60548 0.60091,-1.80274 1.00152,-3.36511 0.44067,-1.56237 0.64097,-2.56389 0.0401,-0.0801 0.24037,-0.0801 0.60091,0 0.96146,0.56085 0.4006,0.52079 0.32048,1.08164 -1.08164,3.80578 -1.80274,6.24949 -0.68103,2.44371 -1.16176,4.00609 -0.44067,1.52231 -0.76116,2.48377 -0.32048,0.9214 -0.68103,1.76267 -0.32049,0.84128 -0.68103,1.88286 -0.36055,1.00153 -0.96146,2.72414 -0.60092,1.68256 -1.48226,4.36663 -0.88133,2.64402 -2.20334,6.77029 -0.0401,0 -0.24037,0 -0.16024,0.0401 -0.24036,0.0401 -1.04158,0 -1.04158,-1.04159 z"
       id="text74"
       style="font-size:41.0223px;font-family:ShadowsIntoLight;fill:#2f3030;stroke:#2f3030;stroke-width:0.326032;stroke-miterlimit:10"
       transform="rotate(-7.9032217)"
       aria-label="THURSDAY" /><g
       id="g77"
       style="stroke-width:0.339866">
					<polygon
   style="fill:#35c4e6;stroke-width:0.339866"
   points="1076.683,427.761 1093.451,267.478 890.235,246.218 878.058,362.614 955.795,458.517 1029.258,466.203 "
   id="polygon75" />
					<polygon
   style="fill:#2eb7cd;stroke-width:0.339866"
   points="1072.191,470.694 1076.683,427.761 1029.258,466.203 "
   id="polygon76" />
					<polygon
   style="fill:#58c9e5;stroke-width:0.339866"
   points="878.058,362.614 868.975,449.435 955.795,458.517 "
   id="polygon77" />
				</g><path
       d="m 952.28622,228.35783 q 0,-0.46121 0.27673,-0.64569 0.27673,-0.23061 0.69182,-0.32285 0.41509,-0.0922 0.8763,-0.0922 0.46121,0 0.78406,-0.0461 v 4.38151 q 3.044,-0.8763 4.98109,-1.75261 1.93709,-0.92242 3.45909,-1.66036 1.522,-0.78406 2.99788,-1.38363 1.522,-0.6457 3.64357,-1.10691 0.32285,0 0.46121,0.32285 0.13837,0.32284 0.13837,0.59957 0,0.50733 -0.59958,0.83018 l -14.8049,7.10267 0.59957,13.00617 q 3.41297,-1.89097 5.76515,-3.22848 2.35218,-1.33752 3.87418,-2.21382 1.522,-0.8763 2.35218,-1.33751 0.87631,-0.46122 1.2914,-0.6457 l 0.50733,-0.23061 q 0.0922,-0.0461 0.13836,-0.0461 0.0923,0 0.13837,0.18449 0.0461,0.13836 0.0461,0.36897 v 0.55345 q 0,0.23061 0.0922,0.41509 -0.2306,0.27673 -1.38363,1.01467 -1.10691,0.73794 -2.67503,1.70648 -1.56812,0.92243 -3.36685,1.98321 -1.75261,1.01467 -3.27461,1.93709 -1.52199,0.92243 -2.53666,1.61425 -0.96855,0.64569 -0.96855,0.8763 v 7.05654 q 0,0.59958 -0.2306,0.92242 -0.18449,0.32285 -0.6457,0.32285 -0.50733,0 -0.92242,-1.15303 -0.36897,-1.15303 -0.6457,-3.044 -0.2306,-1.93709 -0.41509,-4.42763 -0.18448,-2.49054 -0.32285,-5.16557 -0.13836,-2.67503 -0.2306,-5.35006 -0.0461,-2.67503 -0.0923,-4.93497 0,-2.30606 0,-3.96642 z m 20.70842,-7.01042 q 0.0461,0 0.32285,0.0461 0.27672,0.0461 0.59957,0.0923 0.32285,0 0.59958,0.0461 0.32285,0.0461 0.36897,0.0461 0.2306,0 0.69182,0.0922 0.46121,0.0461 0.46121,0.50734 v 4.05866 q 0.78406,-0.18448 1.79872,-0.83018 1.01467,-0.69182 2.39831,-1.38364 1.38363,-0.69182 3.09012,-1.15303 1.70648,-0.46121 3.9203,-0.2306 3.41297,0.69181 4.93496,1.66036 1.522,0.92242 1.61425,2.07545 0.0922,1.10691 -0.96855,2.39831 -1.01466,1.29139 -2.72115,2.67502 -1.70648,1.33752 -3.82806,2.67503 -2.07545,1.33752 -4.10478,2.62891 -1.98321,1.24527 -3.64358,2.35218 -1.66036,1.10691 -2.49054,1.98321 0.73794,0.32285 2.12157,1.06079 1.42976,0.69182 3.09012,1.56812 1.70649,0.83018 3.50521,1.79873 1.84485,0.96854 3.45909,1.79872 1.61424,0.78406 2.90564,1.42976 1.29139,0.59958 1.84485,0.78406 0.46121,0.23061 0.8763,0.41509 0.32285,0.23061 0.59957,0.41509 0.32285,0.18449 0.32285,0.36897 0,0.18449 -0.13836,0.50734 -0.0922,0.32284 -0.32285,0.59957 -0.23061,0.27673 -0.50733,0.50733 -0.23061,0.18449 -0.46122,0.18449 -0.0922,0 -0.2306,0 -0.0922,-0.0461 -0.13836,-0.0461 -0.0922,-0.0461 -0.6457,-0.27673 -0.50733,-0.27673 -1.10691,-0.59957 -0.55345,-0.32285 -1.10691,-0.55346 -0.50733,-0.27673 -0.6457,-0.32285 -0.50733,-0.18448 -1.66036,-0.69182 -1.10691,-0.55345 -2.53666,-1.19915 -1.38364,-0.69181 -2.95176,-1.47587 -1.56812,-0.78406 -2.99788,-1.47588 -1.38363,-0.69182 -2.53666,-1.19915 -1.10691,-0.50734 -1.61424,-0.59958 v 14.11309 h -2.07546 z m 3.044,7.93285 q -0.0922,0.83018 -0.18449,1.93709 -0.0922,1.10691 -0.2306,2.30606 -0.0923,1.19915 -0.18449,2.3983 -0.0461,1.19915 -0.0461,2.21382 0.18449,-0.23061 1.29139,-0.78406 1.10691,-0.55346 2.67503,-1.38364 1.56812,-0.83018 3.36685,-1.84485 1.84485,-1.01466 3.45909,-2.07545 1.61424,-1.10691 2.81339,-2.1677 1.24527,-1.06078 1.56812,-1.93709 0.36897,-0.92242 -0.36897,-1.66036 -0.69181,-0.73794 -2.95175,-1.15303 -1.24527,-0.0922 -2.85952,0.13837 -1.56812,0.2306 -3.18236,0.78406 -1.56812,0.55345 -2.95175,1.38363 -1.38364,0.78406 -2.21382,1.84485 z m 21.30799,-4.93497 q 0,-0.36897 0.2306,-0.50733 0.27673,-0.18449 0.59958,-0.18449 0.36897,-0.0461 0.73794,0 0.41509,0.0461 0.69182,0.0461 0.2306,0.55346 0.36897,2.21382 0.18446,1.61424 0.32286,3.96642 0.1845,2.30606 0.2306,5.11946 0.092,2.81339 0.1384,5.71902 0.092,2.85952 0.092,5.62679 0.046,2.76727 0.046,5.07333 0.046,2.25994 0.046,3.87418 v 2.07545 q -0.046,0.92243 -0.4151,1.10691 -0.3228,0.13837 -1.56807,-0.2306 -0.13837,-0.0461 -0.23061,-1.38364 -0.0922,-1.33751 -0.13836,-3.50521 -0.0461,-2.21382 -0.0922,-5.02721 -0.0461,-2.85951 -0.0923,-5.85739 -0.0461,-2.99788 -0.13836,-5.99576 -0.0461,-2.99787 -0.13836,-5.4423 -0.0923,-2.49054 -0.27673,-4.24315 -0.13836,-1.79872 -0.41509,-2.44442 z m 12.26827,33.53011 q 0,-0.92243 1.153,-2.35218 1.153,-1.47588 2.8595,-3.32073 1.7065,-1.84485 3.7358,-4.01254 2.0294,-2.1677 3.7358,-4.47376 1.7065,-2.35218 2.8596,-4.75048 1.153,-2.44442 1.153,-4.79661 0,-1.24527 -0.6918,-2.12157 -0.6918,-0.92242 -1.7988,-1.56812 -1.0607,-0.6457 -2.4444,-1.01467 -1.3375,-0.36897 -2.7211,-0.55345 -1.3837,-0.23061 -2.6289,-0.27673 -1.2453,-0.0922 -2.1216,-0.0922 -0.2306,0 -0.5996,0.0461 -0.369,0 -0.7841,0.0461 -0.3689,0 -0.6918,0.0461 -0.3228,0.0461 -0.3689,0.0461 l -0.5996,0.55346 q 0,0.0922 -0.046,0.78406 0,0.69182 -0.046,1.56812 0,0.8763 0,1.79873 v 1.42975 q 0,4.65824 0.3229,9.27036 0.369,4.566 0.369,9.22424 0,0.27673 0,0.59958 0.046,0.32284 0,0.64569 -0.046,0.27673 -0.2768,0.50734 -0.1844,0.18448 -0.5995,0.18448 -0.2768,0 -0.5535,-0.13836 -0.2767,-0.13837 -0.3228,-0.46121 l -1.7988,-24.25975 q -0.1383,0.0922 -0.5073,0.27673 -0.3229,0.13836 -0.6918,0.32284 -0.369,0.18449 -0.738,0.41509 -0.3228,0.18449 -0.4151,0.18449 -0.046,0 -0.1844,0.0461 -0.092,0 -0.1384,0 -0.2306,0 -0.5535,-0.0922 -0.2767,-0.13837 -0.2767,-0.55346 0,-0.69181 0.2767,-1.1069 0.3229,-0.46122 0.7841,-0.83019 0.5073,-0.36897 1.0608,-0.73794 0.5534,-0.36896 1.0147,-0.92242 0.5073,-0.59957 0.784,-1.47588 0.3229,-0.8763 0.3229,-2.21381 0.9224,0 1.153,0.32284 0.2306,0.32285 0.2767,0.78406 0.046,0.4151 0.092,0.87631 0.092,0.41509 0.6918,0.59957 1.2914,-0.0461 3.0901,0 1.8449,0.0461 3.8281,0.32285 2.0293,0.23061 3.9664,0.73794 1.9832,0.50733 3.5052,1.42976 1.5681,0.92242 2.4444,2.35218 0.9224,1.38363 0.8302,3.41297 -0.5996,3.55133 -2.3061,6.82593 -1.6603,3.27461 -3.9664,6.31861 -2.2599,2.99787 -4.9349,5.76514 -2.629,2.76728 -5.2579,5.30394 -0.046,0 -0.1383,0 -0.092,0.0461 -0.1384,0.0461 -0.4151,0 -0.6918,-0.27672 -0.2767,-0.27673 -0.2767,-0.69182 z m 19.9704,-0.27673 q 0.1384,-0.6457 0.2306,-1.66036 0.092,-1.01467 0.2307,-2.67503 0.1844,-1.66036 0.3689,-4.10479 0.2306,-2.44442 0.5996,-5.94963 0.369,-3.50521 0.8302,-8.20957 0.5073,-4.75049 1.2914,-11.02297 0.046,-0.46121 0.4151,-0.55345 0.4151,-0.0922 0.7379,-0.0922 0.5073,0 0.8302,0.36897 0.3228,0.36897 0.5534,0.83019 0.2768,0.46121 0.5074,0.96854 0.2306,0.50733 0.5073,0.83018 0.4612,1.06079 0.9224,2.44443 0.5074,1.38363 1.0608,2.95175 0.5535,1.56812 1.1069,3.18236 0.5535,1.56812 1.1069,3.09012 0.5535,1.47588 1.0147,2.76728 0.5073,1.24527 0.9224,2.07545 0.5074,-0.0461 1.4298,-0.36897 0.9224,-0.36897 1.9832,-0.69182 1.0608,-0.32285 2.0754,-0.50733 1.0147,-0.18449 1.7065,0 0.6918,0.13836 0.8763,0.78406 0.2306,0.6457 -0.3228,2.02933 -0.3229,0 -0.5996,-0.0922 -0.2767,-0.13836 -0.5534,-0.23061 -0.2768,-0.13836 -0.5996,-0.2306 -0.2767,-0.13837 -0.6457,-0.13837 -0.2306,0 -1.0608,0.27673 -0.7841,0.23061 -1.7065,0.55345 -0.9224,0.27673 -1.6142,0.59958 -0.6918,0.27673 -0.6918,0.41509 l 3.1823,12.49884 -1.1991,1.75261 q -0.7841,-1.33752 -1.3376,-3.044 -0.5073,-1.7526 -0.9685,-3.45909 -0.4612,-1.7526 -0.9685,-3.22848 -0.4613,-1.522 -1.1992,-2.53667 -0.9685,0.46121 -2.3061,0.78406 -1.3375,0.32285 -2.5827,0.83018 -1.2453,0.46122 -2.1677,1.2914 -0.8763,0.78406 -1.0608,2.16769 -0.092,0.55346 -0.1845,1.47588 -0.046,0.92243 -0.1384,1.75261 -0.1383,1.01466 -0.2306,2.07545 z m 5.304,-27.16538 -0.092,0.78406 q -0.046,0.78406 -0.1383,1.84485 -0.092,1.01466 -0.2306,2.12157 -0.092,1.06079 -0.1384,1.79873 -0.2306,2.58278 -0.5073,5.11945 -0.2306,2.49054 -0.2306,5.11945 0.8763,0 1.8448,-0.2306 1.0147,-0.23061 1.9371,-0.59958 0.9224,-0.41509 1.6604,-0.96854 0.784,-0.59958 1.1991,-1.33752 -0.369,-1.61424 -0.8302,-3.32072 -0.4151,-1.75261 -0.9224,-3.50522 -0.5073,-1.79872 -1.1069,-3.50521 -0.5996,-1.70648 -1.2914,-3.32072 -0.046,-0.0461 -0.3228,-0.18449 -0.2768,-0.18448 -0.8302,0.18449 z m 20.8006,27.2115 q 0,-1.66036 0.5074,-3.22848 0.5073,-1.61424 1.1069,-3.22849 0.5995,-1.61424 1.0146,-3.18236 0.4613,-1.61424 0.3229,-3.36684 -1.3375,-1.47588 -2.9518,-3.18237 -1.6142,-1.7526 -3.1823,-3.59745 -1.5682,-1.89097 -2.9057,-3.87418 -1.3375,-2.02933 -2.1677,-4.10479 -0.046,-0.0461 -0.046,-0.13836 v -0.18448 q 0,-0.55346 0.4151,-0.73794 0.4151,-0.18449 0.8763,-0.18449 1.1992,1.42976 2.5367,3.27461 1.3836,1.79872 2.8134,3.59745 1.4297,1.79873 2.9056,3.45909 1.4759,1.61424 2.9056,2.67503 h 0.5996 q 0.1845,-0.32285 0.6457,-1.56812 0.4612,-1.2914 1.1069,-3.044 0.6918,-1.75261 1.4298,-3.87418 0.7379,-2.12158 1.3836,-4.15091 0.6918,-2.07545 1.153,-3.87418 0.5074,-1.79873 0.738,-2.95175 0.046,-0.0923 0.2767,-0.0923 0.6918,0 1.1069,0.6457 0.4612,0.59957 0.369,1.24527 -1.2453,4.38151 -2.0755,7.19491 -0.784,2.81339 -1.3375,4.61212 -0.5073,1.7526 -0.8763,2.85951 -0.369,1.06079 -0.784,2.02933 -0.369,0.96855 -0.7841,2.1677 -0.4151,1.15303 -1.1069,3.13624 -0.6918,1.93709 -1.7065,5.02721 -1.0147,3.044 -2.5367,7.79448 -0.046,0 -0.2767,0 -0.1845,0.0461 -0.2767,0.0461 -1.1992,0 -1.1992,-1.19915 z"
       id="text77"
       style="font-size:47.2281px;font-family:ShadowsIntoLight;fill:#2f3030;stroke:#2f3030;stroke-width:0.326023;stroke-miterlimit:10"
       transform="rotate(6.4192849)"
       aria-label="FRIDAY" /><g
       id="g80"
       style="stroke-width:0.339866">
					<polygon
   style="fill:#abd266;stroke-width:0.339866"
   points="481.848,364.808 481.297,452.1 568.589,452.651 "
   id="polygon78" />
					<polygon
   style="fill:#a0cc5a;stroke-width:0.339866"
   points="685.891,410.224 686.909,249.069 482.587,247.779 481.848,364.808 568.589,452.651 642.452,453.118 "
   id="polygon79" />
					<polygon
   style="fill:#8eb23e;stroke-width:0.339866"
   points="642.725,409.951 642.452,453.118 685.891,410.224 "
   id="polygon80" />
				</g><path
       d="m 618.38512,235.89318 q 0.0795,-0.19873 0.31798,-0.43722 0.23848,-0.27823 0.51671,-0.55646 0.31798,-0.27823 0.59621,-0.51672 0.31798,-0.27823 0.55647,-0.39747 0.31797,0.23849 0.51671,0.59621 0.23848,0.35773 0.55646,1.23217 0.31798,0.83469 0.7552,2.30535 0.47697,1.47065 1.23217,3.93499 0.7552,2.46433 1.86813,6.08134 1.15267,3.57727 2.78231,8.62518 0.15899,-0.11924 0.55647,-1.27191 0.43722,-1.15268 1.03343,-2.86181 0.59621,-1.74889 1.27191,-3.8555 0.71546,-2.14636 1.39116,-4.29271 0.67571,-2.18611 1.27192,-4.13373 0.63596,-1.98737 1.07318,-3.41827 0.11924,-0.55647 0.15899,-1.07318 0.0795,-0.55647 0.19873,-0.99369 0.11924,-0.43722 0.39748,-0.71545 0.31798,-0.31798 1.03343,-0.31798 0.55646,-0.23848 1.03343,0.55646 0.47697,0.79495 0.95394,2.30535 0.51671,1.5104 1.07317,3.53752 0.55647,1.98737 1.23217,4.17347 0.71546,2.18611 1.55015,4.37221 0.87444,2.14636 2.02712,3.93499 l 5.60437,-22.89448 q 0.0795,-0.31798 0.27824,-0.51672 0.23848,-0.19873 0.51671,-0.19873 0.31798,0 0.63596,0.27823 0.31798,0.27823 0.59621,0.91419 l -5.56463,22.41751 q 0,0.51672 -0.11924,1.23217 -0.11925,0.6757 -0.31798,1.35141 -0.19874,0.63596 -0.47697,1.11292 -0.23848,0.47697 -0.59621,0.59622 -0.31798,0.0795 -0.71545,-0.27824 -0.39748,-0.39747 -0.8347,-1.5104 -2.22585,-3.93499 -3.97473,-8.18795 -1.74889,-4.29272 -3.17979,-9.0624 l -5.08767,16.77339 q -0.23848,1.74888 -0.71545,2.82206 -0.43722,1.03343 -0.99368,1.55015 -0.51672,0.51671 -1.07318,0.63595 -0.55647,0.11925 -0.99369,0.0397 -0.43722,-0.0397 -0.6757,-0.23848 -0.19874,-0.15899 -0.11924,-0.23849 -0.91419,-1.23217 -1.5899,-2.9413 -0.63596,-1.74889 -1.19242,-3.776 -0.51671,-2.06687 -1.03343,-4.29272 -0.51672,-2.2656 -1.11293,-4.4517 -0.55646,-2.22586 -1.35141,-4.25297 -0.79494,-2.02712 -1.86812,-3.69651 z m 37.95873,22.37777 q 0,-3.21954 0.0398,-6.31983 0.0398,-3.10029 -0.0398,-6.16084 -0.0795,-3.06055 -0.31798,-6.1211 -0.23848,-3.10029 -0.71545,-6.28008 0,-0.0795 -0.11924,-0.31798 -0.0795,-0.23848 -0.15899,-0.47697 -0.0795,-0.27823 -0.15899,-0.47697 -0.0795,-0.19873 -0.0795,-0.27823 0,-0.19873 0.11925,-0.47697 0.15898,-0.27823 0.35772,-0.51671 0.23849,-0.27823 0.51672,-0.43722 0.27823,-0.15899 0.55646,-0.11924 0.47697,0.11924 0.7552,0.59621 0.31798,0.47696 0.47697,1.07318 0.15899,0.55646 0.19874,1.11292 0.0795,0.55646 0.0795,0.79495 1.19242,-0.63596 2.66307,-1.35141 1.5104,-0.7552 3.06055,-1.35141 1.5899,-0.63596 3.14004,-1.03343 1.5899,-0.43722 2.98106,-0.43722 0,0.35772 -0.15899,0.63595 -0.11925,0.27823 -0.51672,0.47697 l -11.16901,5.60438 v 1.55015 q 0.0398,0.43722 0.0795,1.5104 0.0795,1.07318 0.15898,2.30534 0.0795,1.19243 0.11925,2.30535 0.0795,1.07318 0.11924,1.47065 l 8.18796,-4.57094 0.19873,-0.23849 q 0.19874,-0.23848 0.51672,-0.43722 0.31798,-0.19873 0.63596,-0.19873 0.35772,-0.0397 0.6757,0.39747 0,0.71545 -0.71545,1.39116 -0.71545,0.6757 -1.78863,1.35141 -1.07318,0.6757 -2.3451,1.31166 -1.23217,0.63596 -2.30534,1.23217 -1.07318,0.59621 -1.78864,1.19242 -0.71545,0.59621 -0.71545,1.11293 v 7.67124 q 0.51672,0.19873 1.43091,-0.15899 0.95393,-0.39748 2.10661,-1.07318 1.15267,-0.67571 2.38484,-1.55015 1.23217,-0.91419 2.38484,-1.70914 1.19242,-0.79494 2.18611,-1.4309 1.03343,-0.63596 1.70913,-0.7552 0.39748,0 0.71546,0.15899 0.31797,0.15899 0.31797,0.63596 0,0.47697 -0.55646,0.7552 -1.39116,0.83469 -3.21954,2.10661 -1.78863,1.23217 -3.65675,2.50408 -1.86813,1.23217 -3.69651,2.2656 -1.78863,0.99369 -3.10029,1.31166 -0.51672,0 -0.8347,-0.0795 -0.31798,-0.0795 -0.71545,-0.47697 z m 22.85473,0.23849 q 0,-0.79495 0.99369,-2.02712 0.99368,-1.27192 2.46434,-2.86181 1.47065,-1.5899 3.21953,-3.45802 1.74889,-1.86813 3.21954,-3.8555 1.47065,-2.02711 2.46434,-4.09397 0.99368,-2.10661 0.99368,-4.13373 0,-1.07318 -0.59621,-1.82838 -0.59621,-0.79495 -1.55015,-1.35141 -0.91419,-0.55646 -2.10661,-0.87444 -1.15267,-0.31798 -2.34509,-0.47697 -1.19242,-0.19874 -2.2656,-0.23848 -1.07318,-0.0795 -1.82838,-0.0795 -0.19874,0 -0.51672,0.0397 -0.31798,0 -0.6757,0.0397 -0.31798,0 -0.59621,0.0397 -0.27823,0.0398 -0.31798,0.0398 l -0.51672,0.47697 q 0,0.0795 -0.0398,0.6757 0,0.59621 -0.0397,1.35141 0,0.7552 0,1.55015 v 1.23217 q 0,4.01448 0.27823,7.98922 0.31798,3.93499 0.31798,7.94947 0,0.23849 0,0.51672 0.0398,0.27823 0,0.55646 -0.0398,0.23849 -0.23849,0.43722 -0.15899,0.15899 -0.51671,0.15899 -0.23849,0 -0.47697,-0.11924 -0.23848,-0.11924 -0.27823,-0.39747 l -1.55015,-20.90712 q -0.11924,0.0795 -0.43722,0.23849 -0.27823,0.11924 -0.59621,0.27823 -0.31798,0.15899 -0.63596,0.35772 -0.27823,0.15899 -0.35772,0.15899 -0.0397,0 -0.15899,0.0397 -0.0795,0 -0.11925,0 -0.19873,0 -0.47696,-0.0795 -0.23849,-0.11925 -0.23849,-0.47697 0,-0.59621 0.23849,-0.95394 0.27823,-0.39747 0.6757,-0.71545 0.43722,-0.31798 0.91419,-0.63596 0.47697,-0.31798 0.87444,-0.79495 0.43722,-0.51671 0.67571,-1.27191 0.27823,-0.7552 0.27823,-1.90787 0.79495,0 0.99368,0.27823 0.19874,0.27823 0.23849,0.6757 0.0397,0.35773 0.0795,0.7552 0.0795,0.35773 0.59621,0.51672 1.11293,-0.0397 2.66308,0 1.58989,0.0397 3.29903,0.27823 1.74888,0.19874 3.41827,0.63596 1.70914,0.43722 3.0208,1.23217 1.35141,0.79494 2.10661,2.02711 0.79495,1.19242 0.71545,2.94131 -0.51671,3.06054 -1.98737,5.88261 -1.4309,2.82206 -3.41827,5.44538 -1.94762,2.58358 -4.25297,4.96843 -2.2656,2.38484 -4.5312,4.57094 -0.0397,0 -0.11924,0 -0.0795,0.0398 -0.11924,0.0398 -0.35773,0 -0.59621,-0.23848 -0.23849,-0.23849 -0.23849,-0.59621 z m 17.40935,-23.64969 v -1.90787 q 0.47697,0 1.07318,0.31798 0.59621,0.31798 1.15267,0.7552 0.55647,0.43722 1.03344,0.99368 0.47696,0.51672 0.7552,0.87444 l 11.72547,15.77971 q 0.11924,-0.67571 0.19873,-2.50409 0.11925,-1.82837 0.0795,-4.13372 0,-2.3451 -0.11924,-4.88893 -0.0795,-2.54383 -0.27823,-4.72993 -0.15899,-2.22586 -0.39748,-3.73626 -0.19873,-1.55014 -0.55646,-1.86812 0,-0.59621 0.19874,-1.11293 0.23848,-0.51671 0.87444,-0.51671 0.63596,0 1.03343,0.71545 0.39747,0.71545 0.59621,1.62964 0.19874,0.87444 0.27823,1.74888 0.11924,0.8347 0.11924,1.11293 0.0398,0.71545 0.0795,2.18611 0.0397,1.4309 0.0795,3.29903 0.0398,1.82838 0.0795,3.89524 0.0795,2.06686 0.11924,3.89524 0.0795,1.82838 0.0795,3.33878 0.0398,1.47065 0.0795,2.1861 0,0.51672 0.15899,0.95394 0.19874,0.43722 0.35772,0.87444 0.19874,0.43722 0.35773,0.87444 0.15899,0.43723 0.15899,0.91419 0,0.79495 -0.59621,1.19243 -0.55646,0.35772 -1.27192,0.35772 -0.39747,0 -0.71545,-0.0795 -0.27823,-0.11925 -0.47697,-0.35773 -0.15899,-0.27823 -0.19873,-0.6757 0,-0.39748 0.15899,-1.03344 -0.43722,-0.51671 -1.35141,-1.66939 -0.91419,-1.19242 -2.06687,-2.62332 -1.11292,-1.47065 -2.38484,-3.06055 -1.27191,-1.58989 -2.42459,-3.0208 -1.15267,-1.47065 -2.06686,-2.62332 l -1.35141,-1.70914 q -0.0795,-0.11924 -0.27823,-0.31798 l -0.95394,-0.95394 q -0.19874,-0.19873 -0.31798,-0.27823 -0.15899,2.30535 0.0398,4.65044 0.19874,2.30535 0.51671,4.6107 0.35773,2.30534 0.67571,4.61069 0.35773,2.2656 0.35773,4.57095 0,0.63596 -0.11925,1.15267 -0.11924,0.47697 -0.95393,0.7552 -0.79495,-0.27823 -1.07318,-1.03343 -0.27823,-0.79495 0.0398,-1.5104 z m 23.64969,23.4112 q 0,-3.21954 0.0397,-6.31983 0.0398,-3.10029 -0.0397,-6.16084 -0.0795,-3.06055 -0.31798,-6.1211 -0.23849,-3.10029 -0.71546,-6.28008 0,-0.0795 -0.11924,-0.31798 -0.0795,-0.23848 -0.15899,-0.47697 -0.0795,-0.27823 -0.15899,-0.47697 -0.0795,-0.19873 -0.0795,-0.27823 0,-0.19873 0.11924,-0.47697 0.15899,-0.27823 0.35773,-0.51671 0.23848,-0.27823 0.51671,-0.43722 0.27823,-0.15899 0.55647,-0.11924 0.47696,0.11924 0.7552,0.59621 0.31797,0.47696 0.47696,1.07318 0.15899,0.55646 0.19874,1.11292 0.0795,0.55646 0.0795,0.79495 1.19242,-0.63596 2.66307,-1.35141 1.5104,-0.7552 3.06055,-1.35141 1.58989,-0.63596 3.14004,-1.03343 1.58989,-0.43722 2.98105,-0.43722 0,0.35772 -0.15899,0.63595 -0.11924,0.27823 -0.51671,0.47697 l -11.16901,5.60438 v 1.55015 q 0.0397,0.43722 0.0795,1.5104 0.0795,1.07318 0.15899,2.30534 0.0795,1.19243 0.11924,2.30535 0.0795,1.07318 0.11924,1.47065 l 8.18796,-4.57094 0.19874,-0.23849 q 0.19873,-0.23848 0.51671,-0.43722 0.31798,-0.19873 0.63596,-0.19873 0.35773,-0.0397 0.67571,0.39747 0,0.71545 -0.71546,1.39116 -0.71545,0.6757 -1.78863,1.35141 -1.07318,0.6757 -2.34509,1.31166 -1.23217,0.63596 -2.30535,1.23217 -1.07318,0.59621 -1.78863,1.19242 -0.71545,0.59621 -0.71545,1.11293 v 7.67124 q 0.51671,0.19873 1.4309,-0.15899 0.95394,-0.39748 2.10661,-1.07318 1.15268,-0.67571 2.38484,-1.55015 1.23217,-0.91419 2.38485,-1.70914 1.19242,-0.79494 2.1861,-1.4309 1.03343,-0.63596 1.70914,-0.7552 0.39747,0 0.71545,0.15899 0.31798,0.15899 0.31798,0.63596 0,0.47697 -0.55646,0.7552 -1.39116,0.83469 -3.21954,2.10661 -1.78863,1.23217 -3.65676,2.50408 -1.86812,1.23217 -3.6965,2.2656 -1.78863,0.99369 -3.1003,1.31166 -0.51671,0 -0.83469,-0.0795 -0.31798,-0.0795 -0.71545,-0.47697 z m 21.26483,-0.83469 q 0.0795,-0.39748 0.99369,-0.7552 0.91418,-0.35773 2.2656,-0.7552 1.35141,-0.39748 2.98105,-0.87445 1.62964,-0.47696 3.14004,-1.07317 1.5104,-0.59622 2.74257,-1.35141 1.27191,-0.7552 1.86812,-1.74889 0,-0.59621 -0.79494,-0.91419 -0.7552,-0.31798 -2.06687,-0.51671 -1.27191,-0.23849 -2.9413,-0.35773 -1.62964,-0.15899 -3.37853,-0.39747 -1.70913,-0.27824 -3.37852,-0.63596 -1.62965,-0.39748 -2.94131,-1.07318 -1.27191,-0.71545 -2.06686,-1.78863 -0.7552,-1.07318 -0.7552,-2.62333 0,-1.55015 0.6757,-3.06055 0.67571,-1.55014 1.78864,-2.98105 1.15267,-1.4309 2.58357,-2.66307 1.47066,-1.23217 3.06055,-2.14636 1.5899,-0.91419 3.14004,-1.4309 1.5899,-0.51672 2.94131,-0.51672 0.35772,0 0.7552,0 0.39747,-0.0397 0.6757,0.0397 0.31798,0.0397 0.51672,0.27823 0.19874,0.23848 0.19874,0.71545 0,1.15268 -0.7552,1.66939 -0.7552,0.47697 -1.82838,0.47697 l -1.55015,-1.11293 q -0.91419,0 -2.02712,0.51672 -1.07317,0.51671 -2.22585,1.39116 -1.11292,0.83469 -2.1861,1.94762 -1.07318,1.11292 -1.90788,2.30534 -0.79494,1.19243 -1.31166,2.38485 -0.47697,1.19242 -0.47697,2.14635 0,1.39116 0.7552,2.2656 0.79495,0.8347 2.06686,1.35141 1.31167,0.47697 2.98106,0.71546 1.66939,0.23848 3.37852,0.39747 1.70914,0.15899 3.37853,0.31798 1.66939,0.11924 2.9413,0.47697 1.31167,0.35772 2.06687,0.95393 0.79494,0.59622 0.79494,1.62965 0.43723,0.63595 -0.19873,1.47065 -0.59621,0.79495 -1.90788,1.62964 -1.27191,0.79495 -3.06054,1.62964 -1.74889,0.79495 -3.61701,1.47066 -1.86813,0.63595 -3.61701,1.11292 -1.74889,0.43722 -2.98106,0.55647 -0.35772,0 -0.63595,-0.23849 -0.23849,-0.23848 -0.0795,-0.83469 z m 23.60994,1.07318 q 0,-0.79495 0.99368,-2.02712 0.99369,-1.27192 2.46434,-2.86181 1.47065,-1.5899 3.21954,-3.45802 1.74888,-1.86813 3.21953,-3.8555 1.47065,-2.02711 2.46434,-4.09397 0.99368,-2.10661 0.99368,-4.13373 0,-1.07318 -0.59621,-1.82838 -0.59621,-0.79495 -1.55014,-1.35141 -0.91419,-0.55646 -2.10661,-0.87444 -1.15268,-0.31798 -2.3451,-0.47697 -1.19242,-0.19874 -2.2656,-0.23848 -1.07318,-0.0795 -1.82838,-0.0795 -0.19873,0 -0.51671,0.0397 -0.31798,0 -0.67571,0.0397 -0.31798,0 -0.59621,0.0397 -0.27823,0.0398 -0.31798,0.0398 l -0.51671,0.47697 q 0,0.0795 -0.0398,0.6757 0,0.59621 -0.0398,1.35141 0,0.7552 0,1.55015 v 1.23217 q 0,4.01448 0.27823,7.98922 0.31798,3.93499 0.31798,7.94947 0,0.23849 0,0.51672 0.0398,0.27823 0,0.55646 -0.0398,0.23849 -0.23848,0.43722 -0.15899,0.15899 -0.51672,0.15899 -0.23848,0 -0.47697,-0.11924 -0.23848,-0.11924 -0.27823,-0.39747 l -1.55015,-20.90712 q -0.11924,0.0795 -0.43722,0.23849 -0.27823,0.11924 -0.59621,0.27823 -0.31798,0.15899 -0.63595,0.35772 -0.27824,0.15899 -0.35773,0.15899 -0.0398,0 -0.15899,0.0397 -0.0795,0 -0.11924,0 -0.19874,0 -0.47697,-0.0795 -0.23849,-0.11925 -0.23849,-0.47697 0,-0.59621 0.23849,-0.95394 0.27823,-0.39747 0.6757,-0.71545 0.43723,-0.31798 0.91419,-0.63596 0.47697,-0.31798 0.87445,-0.79495 0.43722,-0.51671 0.6757,-1.27191 0.27823,-0.7552 0.27823,-1.90787 0.79495,0 0.99369,0.27823 0.19873,0.27823 0.23848,0.6757 0.0397,0.35773 0.0795,0.7552 0.0795,0.35773 0.59621,0.51672 1.11292,-0.0397 2.66307,0 1.58989,0.0397 3.29903,0.27823 1.74888,0.19874 3.41827,0.63596 1.70914,0.43722 3.0208,1.23217 1.35141,0.79494 2.10661,2.02711 0.79495,1.19242 0.71546,2.94131 -0.51672,3.06054 -1.98737,5.88261 -1.43091,2.82206 -3.41828,5.44538 -1.94762,2.58358 -4.25296,4.96843 -2.2656,2.38484 -4.5312,4.57094 -0.0397,0 -0.11924,0 -0.0795,0.0398 -0.11925,0.0398 -0.35772,0 -0.59621,-0.23848 -0.23848,-0.23849 -0.23848,-0.59621 z m 17.21061,-0.23849 q 0.11924,-0.55646 0.19874,-1.4309 0.0795,-0.87445 0.19874,-2.30535 0.15898,-1.43091 0.31797,-3.53752 0.19874,-2.10661 0.51672,-5.12741 0.31798,-3.0208 0.71545,-7.07503 0.43722,-4.09398 1.11293,-9.49962 0.0398,-0.39747 0.35773,-0.47697 0.35772,-0.0795 0.63595,-0.0795 0.43722,0 0.71546,0.31798 0.27823,0.31798 0.47696,0.71545 0.23849,0.39747 0.43722,0.83469 0.19874,0.43723 0.43723,0.71546 0.39747,0.91419 0.79494,2.10661 0.43722,1.19242 0.91419,2.54383 0.47697,1.35141 0.95394,2.74257 0.47697,1.35141 0.95394,2.66307 0.47696,1.27192 0.87444,2.38484 0.43722,1.07318 0.79495,1.78863 0.43722,-0.0397 1.23216,-0.31797 0.79495,-0.31798 1.70914,-0.59622 0.91419,-0.27823 1.78863,-0.43722 0.87444,-0.15899 1.47065,0 0.59621,0.11925 0.7552,0.67571 0.19874,0.55646 -0.27823,1.74888 -0.27823,0 -0.51671,-0.0795 -0.23849,-0.11924 -0.47697,-0.19874 -0.23849,-0.11924 -0.51672,-0.19874 -0.23848,-0.11924 -0.55646,-0.11924 -0.19874,0 -0.91419,0.23849 -0.6757,0.19873 -1.47065,0.47697 -0.79495,0.23848 -1.39116,0.51671 -0.59621,0.23848 -0.59621,0.35773 l 2.74257,10.77153 -1.03343,1.5104 q -0.67571,-1.15267 -1.15268,-2.62332 -0.43722,-1.5104 -0.83469,-2.98106 -0.39748,-1.5104 -0.8347,-2.78231 -0.39747,-1.31166 -1.03343,-2.18611 -0.83469,0.39748 -1.98737,0.67571 -1.15267,0.27823 -2.22585,0.71545 -1.07318,0.39748 -1.86812,1.11293 -0.7552,0.6757 -0.91419,1.86812 -0.0795,0.47697 -0.15899,1.27192 -0.0397,0.79495 -0.11925,1.5104 -0.11924,0.87444 -0.19873,1.78863 z m 4.57095,-23.4112 -0.0795,0.67571 q -0.0397,0.6757 -0.11924,1.58989 -0.0795,0.87444 -0.19873,1.82838 -0.0795,0.91419 -0.11925,1.55015 -0.19873,2.22585 -0.43722,4.41196 -0.19873,2.14635 -0.19873,4.41195 0.7552,0 1.58989,-0.19873 0.87444,-0.19874 1.66939,-0.51672 0.79495,-0.35773 1.4309,-0.83469 0.67571,-0.51672 1.03344,-1.15268 -0.31798,-1.39115 -0.71546,-2.86181 -0.35772,-1.5104 -0.79494,-3.0208 -0.43723,-1.55014 -0.95394,-3.0208 -0.51672,-1.47065 -1.11293,-2.86181 -0.0397,-0.0397 -0.27823,-0.15899 -0.23848,-0.15899 -0.71545,0.15899 z m 17.92606,23.45095 q 0,-1.43091 0.43722,-2.78232 0.43722,-1.39116 0.95393,-2.78231 0.51672,-1.39116 0.87445,-2.74257 0.39747,-1.39116 0.27823,-2.90156 -1.15268,-1.27191 -2.54383,-2.74257 -1.39116,-1.5104 -2.74257,-3.10029 -1.35141,-1.62964 -2.50409,-3.33878 -1.15267,-1.74888 -1.86812,-3.53752 -0.0398,-0.0397 -0.0398,-0.11924 v -0.15899 q 0,-0.47697 0.35773,-0.63595 0.35772,-0.15899 0.7552,-0.15899 1.03343,1.23216 2.1861,2.82206 1.19242,1.55015 2.42459,3.10029 1.23217,1.55015 2.50408,2.98106 1.27192,1.39115 2.50409,2.30534 h 0.51671 q 0.15899,-0.27823 0.55647,-1.35141 0.39747,-1.11292 0.95393,-2.62332 0.59621,-1.5104 1.23217,-3.33878 0.63596,-1.82838 1.19242,-3.57727 0.59621,-1.78863 0.99369,-3.33877 0.43722,-1.55015 0.63596,-2.54384 0.0397,-0.0795 0.23848,-0.0795 0.59621,0 0.95394,0.55646 0.39747,0.51672 0.31797,1.07318 -1.07317,3.776 -1.78863,6.20059 -0.6757,2.42459 -1.15267,3.97474 -0.43722,1.5104 -0.7552,2.46433 -0.31798,0.91419 -0.67571,1.74889 -0.31797,0.83469 -0.6757,1.86812 -0.35773,0.99369 -0.95394,2.70282 -0.59621,1.66939 -1.47065,4.33247 -0.87444,2.62332 -2.1861,6.7173 -0.0398,0 -0.23849,0 -0.15899,0.0398 -0.23848,0.0398 -1.03343,0 -1.03343,-1.03343 z"
       id="text80"
       style="font-size:40.7013px;font-family:ShadowsIntoLight;fill:#2f3030;stroke:#2f3030;stroke-width:0.280967;stroke-miterlimit:10"
       transform="matrix(0.8573014,0.08772602,-0.11812843,1.1543631,0,0)"
       aria-label="WEDNESDAY" /><g
       id="g83"
       style="stroke-width:0.339866">
					<polygon
   style="fill:#f26342;stroke-width:0.339866"
   points="283.467,380.602 291.725,467.504 378.628,459.245 "
   id="polygon81" />
					<polygon
   style="fill:#f26342;stroke-width:0.339866"
   points="491.05,405.199 475.803,244.764 272.394,264.095 283.467,380.602 378.628,459.245 452.161,452.257 "
   id="polygon82" />
					<polygon
   style="fill:#e65239;stroke-width:0.339866"
   points="448.077,409.283 452.161,452.257 491.05,405.199 "
   id="polygon83" />
				</g><path
       d="m 308.81985,343.25382 q -1.47597,0 -2.99806,0.27675 -1.47598,0.27674 -2.95195,0.64573 -1.47597,0.32287 -2.95194,0.59962 -1.47597,0.27674 -2.99807,0.27674 -0.46124,0 -0.96861,-0.0922 -0.46124,-0.13837 -0.46124,-0.83023 0,-0.46124 0.369,-0.92248 0.41511,-0.50737 0.87635,-0.55349 l 12.36127,-1.79884 q 0.0461,-0.1845 0.13837,-0.55349 0.0923,-0.41512 0.23062,-0.78411 0.1845,-0.41512 0.46124,-0.69186 0.27675,-0.32287 0.64574,-0.32287 0.55349,0 0.87636,0.27674 0.32287,0.27675 0.55349,0.64574 0.23062,0.32287 0.41511,0.59961 0.1845,0.27675 0.46125,0.27675 h 0.36899 q 0.46124,-0.0461 1.47597,-0.13837 1.01473,-0.13838 2.30621,-0.27675 1.3376,-0.13837 2.81357,-0.27674 1.47597,-0.1845 2.81357,-0.27675 1.3376,-0.13837 2.35233,-0.23062 1.01473,-0.13837 1.47597,-0.23062 0.13837,0 0.64574,0 0.55349,-0.0461 0.78411,-0.0461 0,0.87636 -0.96861,1.47597 -0.92248,0.55349 -2.39845,0.96861 -1.42985,0.36899 -3.22869,0.59961 -1.75272,0.1845 -3.45931,0.32287 -1.66047,0.13837 -3.09032,0.23062 -1.38372,0.0923 -2.12171,0.23062 -0.18449,3.27481 0.13838,6.82637 0.36899,3.55156 0.87636,7.14924 0.55348,3.59768 1.01473,7.14924 0.46124,3.55155 0.46124,6.78024 0.18449,0.64574 0.13837,1.01473 0,0.36899 -0.23062,0.50737 -0.23062,0.13837 -0.69186,0.13837 -0.46124,0 -1.10698,-0.0461 -0.46124,-1.66047 -0.83024,-3.87443 -0.32286,-2.26008 -0.59961,-4.79691 -0.27674,-2.58295 -0.55349,-5.30427 -0.23062,-2.72133 -0.46124,-5.39653 -0.23062,-2.67519 -0.50737,-5.11977 -0.27674,-2.44458 -0.64573,-4.42792 z m 31.04154,16.55856 q -0.46125,1.70659 -1.24536,3.78218 -0.73798,2.02946 -1.89108,3.8283 -1.10698,1.79884 -2.6752,3.04419 -1.56822,1.19923 -3.64381,1.19923 -1.61434,0 -2.62907,-0.64574 -0.96861,-0.69186 -1.5221,-1.79884 -0.55349,-1.1531 -0.83023,-2.4907 -0.23062,-1.38372 -0.32287,-2.76745 -0.0461,-0.46124 -0.0923,-1.84496 -0.0461,-1.42985 -0.0922,-3.32094 -0.0461,-1.93721 -0.13837,-4.10505 -0.0461,-2.16783 -0.13837,-4.05892 -0.0461,-1.89109 -0.0922,-3.32094 -0.0461,-1.42984 -0.0461,-1.89108 -0.0461,-0.46125 0.0461,-0.69187 0.0922,-0.27674 0.32287,-0.36899 0.23062,-0.13837 0.50736,-0.13837 0.32287,-0.0461 0.55349,-0.0461 h 0.36899 q 0.27675,0 0.50737,0.0461 0.23062,0.0461 0.41512,0.23062 0.18449,0.13837 0.18449,0.41512 v 19.64887 q 0,0.83024 0.23062,1.66047 0.27675,0.83023 0.73799,1.56822 0.46124,0.69186 1.1531,1.1531 0.69186,0.46124 1.56822,0.46124 1.75272,-0.13837 2.99807,-1.84496 1.29148,-1.75272 2.21396,-4.38179 0.92248,-2.62908 1.52209,-5.71939 0.59962,-3.09032 1.06086,-5.95001 0.46124,-2.8597 0.78411,-5.07366 0.36899,-2.21396 0.78411,-3.09031 0.87636,-0.78411 1.38372,-0.369 0.50737,0.369 0.73799,1.19923 0.27674,0.78411 0.32287,1.75272 0.0461,0.92248 -0.0922,1.3376 0,3.09031 -0.32287,6.1345 -0.27674,3.0442 -0.27674,6.18064 0,1.98333 0.18449,3.96667 0.1845,1.98334 0.41512,3.96667 0.23062,1.98334 0.41512,3.96668 0.18449,1.93721 0.18449,3.87443 0,0.36899 -0.0461,0.73798 -0.0461,0.41512 -0.23062,0.73799 -0.13837,0.32287 -0.41512,0.55349 -0.27674,0.23062 -0.78411,0.23062 0,0 -0.13837,-0.0461 -0.0923,0 -0.1845,0 z m 7.79497,11.16204 q 0,-3.73606 0.0461,-7.33374 0.0461,-3.59768 -0.0461,-7.14924 -0.0922,-3.55155 -0.36899,-7.10311 -0.27674,-3.59768 -0.83023,-7.28761 0,-0.0923 -0.13838,-0.36899 -0.0922,-0.27675 -0.18449,-0.55349 -0.0923,-0.32287 -0.1845,-0.55349 -0.0922,-0.23062 -0.0922,-0.32287 0,-0.23062 0.13837,-0.55349 0.1845,-0.32287 0.41512,-0.59961 0.27675,-0.32287 0.59962,-0.50737 0.32286,-0.1845 0.64573,-0.13837 0.55349,0.13837 0.87636,0.69186 0.36899,0.55349 0.55349,1.24535 0.1845,0.64574 0.23062,1.29148 0.0923,0.64573 0.0923,0.92248 1.38372,-0.73799 3.09032,-1.56822 1.75271,-0.87636 3.55155,-1.56822 1.84497,-0.73799 3.64381,-1.19923 1.84496,-0.50736 3.45931,-0.50736 0,0.41511 -0.1845,0.73798 -0.13837,0.32287 -0.59961,0.55349 l -12.96088,6.5035 v 1.79884 q 0.0461,0.50737 0.0922,1.75272 0.0922,1.24535 0.18449,2.6752 0.0923,1.38372 0.13838,2.6752 0.0922,1.24535 0.13837,1.70659 l 9.50157,-5.30427 0.23062,-0.27675 q 0.23062,-0.27674 0.59961,-0.50736 0.36899,-0.23062 0.73799,-0.23062 0.41511,-0.0461 0.78411,0.46124 0,0.83023 -0.83024,1.61434 -0.83023,0.78411 -2.07558,1.56822 -1.24535,0.78411 -2.72133,1.5221 -1.42984,0.73798 -2.67519,1.42984 -1.24536,0.69187 -2.07559,1.38373 -0.83023,0.69186 -0.83023,1.29147 v 8.90196 q 0.59961,0.23062 1.66046,-0.1845 1.10698,-0.46124 2.44458,-1.24535 1.3376,-0.78411 2.76745,-1.79884 1.42985,-1.06085 2.76745,-1.98334 1.38372,-0.92248 2.53682,-1.66047 1.19923,-0.73798 1.98334,-0.87635 0.46124,0 0.83024,0.18449 0.36899,0.1845 0.36899,0.73799 0,0.55349 -0.64574,0.87636 -1.61434,0.9686 -3.73605,2.44458 -2.07559,1.42984 -4.24342,2.90581 -2.16784,1.42985 -4.28955,2.62908 -2.07558,1.1531 -3.59768,1.5221 -0.59961,0 -0.9686,-0.0922 -0.369,-0.0923 -0.83024,-0.55349 z m 24.67641,-0.96861 q 0.0922,-0.46124 1.1531,-0.87636 1.06085,-0.41511 2.62907,-0.87636 1.56822,-0.46124 3.45931,-1.01473 1.89109,-0.55349 3.64381,-1.24535 1.75271,-0.69186 3.18256,-1.56822 1.47597,-0.87636 2.16784,-2.02946 0,-0.69186 -0.92249,-1.06085 -0.87636,-0.369 -2.39845,-0.59962 -1.47597,-0.27674 -3.41319,-0.41511 -1.89108,-0.1845 -3.92055,-0.46124 -1.98333,-0.32287 -3.92055,-0.73799 -1.89109,-0.46124 -3.41318,-1.24535 -1.47597,-0.83024 -2.39846,-2.07559 -0.87635,-1.24535 -0.87635,-3.04419 0,-1.79884 0.78411,-3.55156 0.78411,-1.79884 2.07558,-3.45931 1.3376,-1.66046 2.99807,-3.09031 1.70659,-1.42985 3.55156,-2.4907 1.84496,-1.06086 3.6438,-1.66047 1.84497,-0.59962 3.41319,-0.59962 0.41511,0 0.87636,0 0.46124,-0.0461 0.78411,0.0461 0.36899,0.0461 0.59961,0.32287 0.23062,0.27674 0.23062,0.83023 0,1.3376 -0.87636,1.93721 -0.87636,0.55349 -2.12171,0.55349 l -1.79884,-1.29147 q -1.06085,0 -2.35233,0.59961 -1.24535,0.59962 -2.58295,1.61435 -1.29147,0.9686 -2.53683,2.26008 -1.24535,1.29147 -2.21395,2.6752 -0.92249,1.38372 -1.5221,2.76744 -0.55349,1.38373 -0.55349,2.49071 0,1.61434 0.87636,2.62907 0.92248,0.96861 2.39845,1.56822 1.5221,0.55349 3.45931,0.83024 1.93722,0.27674 3.92055,0.46124 1.98334,0.18449 3.92055,0.36899 1.93722,0.13837 3.41319,0.55349 1.52209,0.41512 2.39845,1.10698 0.92248,0.69186 0.92248,1.89109 0.50737,0.73798 -0.23062,1.70659 -0.69186,0.92248 -2.21395,1.89109 -1.47598,0.92248 -3.55156,1.89109 -2.02946,0.92248 -4.1973,1.70659 -2.16783,0.73799 -4.19729,1.29147 -2.02946,0.50737 -3.45931,0.64574 -0.41512,0 -0.73799,-0.27674 -0.27674,-0.27675 -0.0922,-0.96861 z m 27.39773,1.24535 q 0,-0.92248 1.1531,-2.35233 1.1531,-1.47597 2.85969,-3.32093 1.7066,-1.84497 3.73606,-4.0128 2.02946,-2.16784 3.73605,-4.47404 1.70659,-2.35233 2.8597,-4.75079 1.1531,-2.44457 1.1531,-4.7969 0,-1.24536 -0.69186,-2.12171 -0.69186,-0.92249 -1.79884,-1.56822 -1.06086,-0.64574 -2.44458,-1.01473 -1.3376,-0.369 -2.72132,-0.55349 -1.38373,-0.23062 -2.62908,-0.27675 -1.24535,-0.0922 -2.12171,-0.0922 -0.23062,0 -0.59961,0.0461 -0.369,0 -0.78411,0.0461 -0.369,0 -0.69186,0.0461 -0.32287,0.0461 -0.369,0.0461 l -0.59961,0.55349 q 0,0.0923 -0.0461,0.78411 0,0.69186 -0.0461,1.56822 0,0.87636 0,1.79884 v 1.42985 q 0,4.65853 0.32287,9.27095 0.36899,4.56628 0.36899,9.22482 0,0.27674 0,0.59961 0.0461,0.32287 0,0.64574 -0.0461,0.27674 -0.27674,0.50737 -0.1845,0.18449 -0.59962,0.18449 -0.27674,0 -0.55348,-0.13837 -0.27675,-0.13837 -0.32287,-0.46124 l -1.79884,-24.26129 q -0.13838,0.0923 -0.50737,0.27675 -0.32287,0.13837 -0.69186,0.32287 -0.36899,0.18449 -0.73799,0.41511 -0.32287,0.1845 -0.41511,0.1845 -0.0461,0 -0.1845,0.0461 -0.0922,0 -0.13837,0 -0.23062,0 -0.55349,-0.0922 -0.27675,-0.13837 -0.27675,-0.55348 0,-0.69187 0.27675,-1.10698 0.32287,-0.46124 0.78411,-0.83024 0.50736,-0.36899 1.06085,-0.73798 0.55349,-0.369 1.01473,-0.92249 0.50737,-0.59961 0.78411,-1.47597 0.32287,-0.87636 0.32287,-2.21396 0.92248,0 1.1531,0.32287 0.23063,0.32287 0.27675,0.78411 0.0461,0.41512 0.0923,0.87636 0.0922,0.41512 0.69186,0.59962 1.29147,-0.0461 3.09032,0 1.84496,0.0461 3.8283,0.32286 2.02946,0.23062 3.96667,0.73799 1.98334,0.50737 3.50543,1.42985 1.56822,0.92248 2.44458,2.35233 0.92249,1.38372 0.83024,3.41318 -0.59962,3.55156 -2.30621,6.82637 -1.66047,3.27481 -3.96667,6.31901 -2.26009,2.99806 -4.93528,5.76551 -2.62908,2.76745 -5.25815,5.30428 -0.0461,0 -0.13838,0 -0.0922,0.0461 -0.13837,0.0461 -0.41512,0 -0.69186,-0.27675 -0.27674,-0.27674 -0.27674,-0.69186 z m 19.97174,-0.27674 q 0.13837,-0.64574 0.23062,-1.66047 0.0922,-1.01473 0.23062,-2.6752 0.1845,-1.66047 0.36899,-4.10505 0.23063,-2.44457 0.59962,-5.95001 0.36899,-3.50543 0.83023,-8.21009 0.50737,-4.75078 1.29148,-11.02367 0.0461,-0.46124 0.41511,-0.55348 0.41512,-0.0922 0.73799,-0.0922 0.50737,0 0.83024,0.36899 0.32286,0.36899 0.55348,0.83023 0.27675,0.46125 0.50737,0.96861 0.23062,0.50737 0.50737,0.83024 0.46124,1.06085 0.92248,2.44457 0.50736,1.38373 1.06085,2.95195 0.55349,1.56822 1.10698,3.18256 0.55349,1.56822 1.10698,3.09032 0.55349,1.47597 1.01473,2.76744 0.50737,1.24536 0.92248,2.07559 0.50737,-0.0461 1.42985,-0.36899 0.92248,-0.369 1.98334,-0.69187 1.06085,-0.32286 2.07558,-0.50736 1.01473,-0.1845 1.7066,0 0.69186,0.13837 0.87635,0.78411 0.23062,0.64574 -0.32287,2.02946 -0.32286,0 -0.59961,-0.0923 -0.27674,-0.13837 -0.55349,-0.23062 -0.27674,-0.13837 -0.59961,-0.23062 -0.27675,-0.13837 -0.64574,-0.13837 -0.23062,0 -1.06085,0.27674 -0.78411,0.23062 -1.7066,0.55349 -0.92248,0.27675 -1.61434,0.59962 -0.69186,0.27674 -0.69186,0.41511 l 3.18256,12.49964 -1.19923,1.75272 q -0.78411,-1.3376 -1.33759,-3.0442 -0.50737,-1.75271 -0.96861,-3.4593 -0.46124,-1.75272 -0.96861,-3.22869 -0.46124,-1.5221 -1.19922,-2.53683 -0.96861,0.46124 -2.30621,0.78411 -1.3376,0.32287 -2.58295,0.83024 -1.24535,0.46124 -2.16784,1.29147 -0.87635,0.78411 -1.06085,2.16783 -0.0923,0.55349 -0.1845,1.47598 -0.0461,0.92248 -0.13837,1.75271 -0.13837,1.01473 -0.23062,2.07559 z m 5.30427,-27.16711 -0.0922,0.78411 q -0.0461,0.78411 -0.13838,1.84497 -0.0922,1.01473 -0.23062,2.12171 -0.0922,1.06085 -0.13837,1.79884 -0.23062,2.58295 -0.50736,5.11977 -0.23063,2.49071 -0.23063,5.11978 0.87636,0 1.84497,-0.23062 1.01473,-0.23062 1.93721,-0.59961 0.92249,-0.41512 1.66047,-0.96861 0.78411,-0.59961 1.19923,-1.3376 -0.36899,-1.61434 -0.83024,-3.32094 -0.41511,-1.75271 -0.92248,-3.50543 -0.50736,-1.79884 -1.10698,-3.50543 -0.59961,-1.70659 -1.29147,-3.32094 -0.0461,-0.0461 -0.32287,-0.18449 -0.27675,-0.1845 -0.83024,0.18449 z m 20.80199,27.21323 q 0,-1.66047 0.50736,-3.22869 0.50737,-1.61434 1.10698,-3.22868 0.59962,-1.61435 1.01473,-3.18257 0.46124,-1.61434 0.32287,-3.36706 -1.3376,-1.47597 -2.95194,-3.18256 -1.61435,-1.75272 -3.18257,-3.59769 -1.56822,-1.89108 -2.90582,-3.87442 -1.3376,-2.02946 -2.16783,-4.10505 -0.0461,-0.0461 -0.0461,-0.13837 v -0.1845 q 0,-0.55349 0.41511,-0.73798 0.41512,-0.1845 0.87636,-0.1845 1.19923,1.42985 2.53683,3.27481 1.38372,1.79884 2.81357,3.59768 1.42985,1.79885 2.90582,3.45931 1.47597,1.61435 2.90582,2.6752 h 0.59961 q 0.1845,-0.32287 0.64574,-1.56822 0.46124,-1.29147 1.10698,-3.04419 0.69186,-1.75272 1.42985,-3.87443 0.73798,-2.1217 1.38372,-4.15117 0.69186,-2.07558 1.1531,-3.87442 0.50737,-1.79884 0.73799,-2.95195 0.0461,-0.0922 0.27674,-0.0922 0.69187,0 1.10698,0.64573 0.46124,0.59962 0.369,1.24535 -1.24536,4.3818 -2.07559,7.19537 -0.78411,2.81357 -1.3376,4.61241 -0.50736,1.75272 -0.87636,2.85969 -0.36899,1.06086 -0.78411,2.02947 -0.36899,0.9686 -0.78411,2.16783 -0.41511,1.1531 -1.10698,3.13644 -0.69186,1.93721 -1.70659,5.02753 -1.01473,3.04419 -2.53683,7.79498 -0.0461,0 -0.27674,0 -0.1845,0.0461 -0.27674,0.0461 -1.19923,0 -1.19923,-1.19923 z"
       id="text83"
       style="font-size:47.2311px;font-family:ShadowsIntoLight;fill:#2f3030;stroke:#2f3030;stroke-width:0.326045;stroke-miterlimit:10"
       transform="rotate(-0.95111769)"
       aria-label="TUESDAY" /><line
       style="fill:none;stroke:#e77d25;stroke-width:0.72959;stroke-miterlimit:10"
       x1="201.25"
       y1="251.791"
       x2="200.77901"
       y2="254.92999"
       id="line85" /><path
       style="fill:none;stroke:#f2943f;stroke-width:0.72959;stroke-miterlimit:10"
       d="m 205.731,291.364 5.789,-25.115 c 0.639,-2.774 -1.091,-5.541 -3.865,-6.181 v 0 c -2.774,-0.639 -5.541,1.091 -6.181,3.865 l -9.262,40.183 c -0.639,2.774 1.091,5.541 3.865,6.181 l 4.305,0.992 c 2.774,0.639 5.541,-1.091 6.181,-3.865 l 11.909,-51.664 c 0.639,-2.774 -1.091,-5.541 -3.865,-6.181 l -7.176,-1.654 c -2.774,-0.639 -5.541,1.091 -6.181,3.865"
       id="path85" /><line
       style="fill:none;stroke:#e0e1e0;stroke-width:0.72959;stroke-miterlimit:10"
       x1="578.914"
       y1="245.289"
       x2="579.00201"
       y2="248.461"
       id="line86" /><path
       style="fill:none;stroke:#ffffff;stroke-width:0.72959;stroke-miterlimit:10"
       d="m 590.285,283.456 1.282,-25.741 c 0.141,-2.843 -2.049,-5.263 -4.892,-5.405 v 0 c -2.843,-0.142 -5.263,2.049 -5.405,4.892 l -2.051,41.186 c -0.142,2.843 2.049,5.263 4.892,5.405 l 4.413,0.22 c 2.843,0.142 5.263,-2.049 5.405,-4.892 l 2.637,-52.953 c 0.142,-2.843 -2.049,-5.263 -4.892,-5.405 l -7.355,-0.366 c -2.843,-0.142 -5.263,2.049 -5.405,4.892"
       id="path86" /><line
       style="fill:none;stroke:#e65239;stroke-width:0.72959;stroke-miterlimit:10"
       x1="999.72198"
       y1="254.38699"
       x2="999.37598"
       y2="257.54199"
       id="line87" /><path
       style="fill:none;stroke:#f26342;stroke-width:0.72959;stroke-miterlimit:10"
       d="m 1005.778,293.75 4.782,-25.326 c 0.528,-2.797 -1.311,-5.493 -4.109,-6.022 v 0 c -2.797,-0.528 -5.493,1.311 -6.021,4.109 l -7.651,40.521 c -0.528,2.797 1.311,5.493 4.109,6.022 l 4.341,0.82 c 2.797,0.528 5.493,-1.311 6.022,-4.109 l 9.837,-52.098 c 0.528,-2.797 -1.311,-5.493 -4.109,-6.021 l -7.236,-1.366 c -2.797,-0.528 -5.493,1.311 -6.021,4.109"
       id="path87" /><line
       style="fill:none;stroke:#e1b843;stroke-width:0.72959;stroke-miterlimit:10"
       x1="767.67401"
       y1="256.49301"
       x2="768.20898"
       y2="259.621"
       id="line88" /><path
       style="fill:none;stroke:#ffd95e;stroke-width:0.72959;stroke-miterlimit:10"
       d="m 784.329,292.668 -2.372,-25.664 c -0.262,-2.835 -2.773,-4.92 -5.607,-4.658 v 0 c -2.835,0.262 -4.92,2.773 -4.658,5.607 l 3.796,41.062 c 0.262,2.835 2.773,4.92 5.607,4.658 l 4.4,-0.407 c 2.835,-0.262 4.92,-2.773 4.658,-5.607 l -4.88,-52.794 c -0.262,-2.835 -2.772,-4.92 -5.607,-4.658 l -7.333,0.678 c -2.835,0.262 -4.92,2.772 -4.658,5.607"
       id="path88" /><line
       style="fill:none;stroke:#2eb7cd;stroke-width:0.72959;stroke-miterlimit:10"
       x1="359.095"
       y1="253.576"
       x2="359.49899"
       y2="256.724"
       id="line89" /><path
       style="fill:none;stroke:#35c4e6;stroke-width:0.72959;stroke-miterlimit:10"
       d="m 374.219,290.418 -1.294,-25.741 c -0.143,-2.843 -2.564,-5.032 -5.407,-4.889 v 0 c -2.843,0.143 -5.032,2.564 -4.889,5.407 l 2.071,41.185 c 0.143,2.843 2.564,5.032 5.407,4.889 l 4.413,-0.222 c 2.843,-0.143 5.032,-2.564 4.889,-5.407 l -2.662,-52.952 c -0.143,-2.843 -2.564,-5.032 -5.407,-4.889 l -7.354,0.37 c -2.843,0.143 -5.032,2.564 -4.889,5.407"
       id="path89" /><rect
       style="display:inline;fill:#de8725;fill-opacity:1;stroke-width:0.642265"
       id="rect92"
       width="202.04401"
       height="161.15802"
       x="80.153999"
       y="533.59998"
       ry="22.268978" /><rect
       style="display:inline;fill:#4fc020;fill-opacity:1;stroke-width:0.642265"
       id="rect92-3"
       width="202.04401"
       height="161.15802"
       x="80.153015"
       y="693.71698"
       ry="22.268978" /><rect
       style="display:inline;fill:#ff00ff;fill-opacity:1;stroke-width:0.642265"
       id="rect92-3-6"
       width="202.04401"
       height="161.15802"
       x="80.153992"
       y="941.77197"
       ry="22.268978" /><rect
       style="display:inline;fill:#b3a900;fill-opacity:1;stroke-width:0.642265"
       id="rect92-3-6-7"
       width="202.04401"
       height="161.15802"
       x="281.21249"
       y="534.55896"
       ry="22.268978" /><rect
       style="display:inline;fill:#b3a900;fill-opacity:1;stroke-width:0.642265"
       id="rect92-3-6-7-3"
       width="202.04401"
       height="161.15802"
       x="683.33044"
       y="534.56"
       ry="22.268978" /><rect
       style="display:inline;fill:#de8725;fill-opacity:1;stroke-width:0.642265"
       id="rect92-3-6-7-56"
       width="202.04401"
       height="161.15802"
       x="683.33044"
       y="856.87604"
       ry="22.268978" /><rect
       style="display:inline;fill:#4fc020;fill-opacity:1;stroke-width:0.642265"
       id="rect92-3-6-7-2"
       width="202.04401"
       height="161.15802"
       x="884.38904"
       y="776.776"
       ry="22.268978" /><rect
       style="display:inline;fill:#4fc020;fill-opacity:1;stroke-width:0.642265"
       id="rect92-3-6-7-5"
       width="202.04401"
       height="81.058044"
       x="482.271"
       y="614.17896"
       ry="11.200683" /></g></g>
</svg>
