<?xml version="1.0" encoding="UTF-8" standalone="no"?>
<!-- Generator: Adobe Illustrator 27.5.0, SVG Export Plug-In . SVG Version: 6.00 Build 0)  -->

<svg
   version="1.1"
   id="PRINT"
   x="0px"
   y="0px"
   viewBox="0 0 3000.0001 2562.5756"
   xml:space="preserve"
   sodipodi:docname="calendar2.svg"
   inkscape:version="1.3.2 (091e20ef0f, 2023-11-25, custom)"
   width="3000"
   height="2562.5757"
   xmlns:inkscape="http://www.inkscape.org/namespaces/inkscape"
   xmlns:sodipodi="http://sodipodi.sourceforge.net/DTD/sodipodi-0.dtd"
   xmlns="http://www.w3.org/2000/svg"
   xmlns:svg="http://www.w3.org/2000/svg"><defs
   id="defs92">
	
	
	
		

		
		
		
		
		
		
		
	
			
			
			
			
			
			
			
			
			
			
			
			
			
			
			
			
			
			
			
			
			
			
			
			
			
			
			
			
			
			
			
			
			
			
			
			
			
			
			
			
			
			
			
			
			
			
			
			
			
			
			
			
			
			
			
			
			
			
			
			
			
			
			
			
			
			
			
			
			
			
			
			
			
		
				
				
					
			
				
				
					
			
				
				
					
			
			
				
			
		
			
				
			
		
				
				
					
			
				
				
					
			</defs><sodipodi:namedview
   id="namedview92"
   pagecolor="#505050"
   bordercolor="#eeeeee"
   borderopacity="1"
   inkscape:showpageshadow="0"
   inkscape:pageopacity="0"
   inkscape:pagecheckerboard="0"
   inkscape:deskcolor="#d1d1d1"
   inkscape:zoom="0.14804082"
   inkscape:cx="415.42597"
   inkscape:cy="496.4847"
   inkscape:window-width="1600"
   inkscape:window-height="924"
   inkscape:window-x="0"
   inkscape:window-y="0"
   inkscape:window-maximized="1"
   inkscape:current-layer="g1" />
<g
   id="g1"
   inkscape:groupmode="layer"
   style="display:inline"
   transform="translate(-73.439,-239.31675)"><g
     id="g2"
     style="stroke-width:0.339866"
     transform="matrix(2.9411419,0,0,2.943536,-142.55552,-467.20753)">
				<path
   style="fill:#58c9e5;stroke-width:0.339866"
   d="m 73.439,312.831 v 797.772 H 1093.148 V 312.831 Z m 997.054,773.791 H 96.094 V 311.528 h 974.399 z"
   id="path2" />
			</g><rect
     x="687.42883"
     y="2532.2351"
     style="fill:#ffffff;stroke-width:1"
     width="588.44305"
     height="247.07156"
     id="rect3" /><rect
     x="1870.1149"
     y="2293.635"
     style="fill:#f3f3f3;stroke-width:1"
     width="588.44305"
     height="241.42293"
     id="rect4" /><rect
     x="687.42883"
     y="605.08728"
     style="fill:#f3f3f3;stroke-width:1"
     width="588.44305"
     height="498.37595"
     id="rect5" /><rect
     x="1870.1149"
     y="2532.2351"
     style="fill:#ffffff;stroke-width:1"
     width="588.44305"
     height="247.07156"
     id="rect6" /><rect
     x="1870.1149"
     y="2055.0349"
     style="fill:#ffffff;stroke-width:1"
     width="588.44305"
     height="241.42293"
     id="rect7" /><rect
     x="1870.1149"
     y="1816.4377"
     style="fill:#f3f3f3;stroke-width:1"
     width="588.44305"
     height="241.42293"
     id="rect8" /><rect
     x="1870.1149"
     y="1577.8376"
     style="fill:#ffffff;stroke-width:1"
     width="588.44305"
     height="241.42293"
     id="rect9" /><rect
     x="1870.1149"
     y="605.08728"
     style="fill:#f3f3f3;stroke-width:1"
     width="588.44305"
     height="498.37595"
     id="rect10" /><rect
     x="687.42883"
     y="2055.0349"
     style="fill:#ffffff;stroke-width:1"
     width="588.44305"
     height="241.42293"
     id="rect11" /><rect
     x="1870.1149"
     y="1100.6404"
     style="fill:#ffffff;stroke-width:1"
     width="588.44305"
     height="241.42293"
     id="rect12" /><rect
     x="687.42883"
     y="1816.4377"
     style="fill:#f3f3f3;stroke-width:1"
     width="588.44305"
     height="241.42293"
     id="rect13" /><rect
     x="687.42883"
     y="1577.8376"
     style="fill:#ffffff;stroke-width:1"
     width="588.44305"
     height="241.42293"
     id="rect14" /><rect
     x="687.42883"
     y="1339.2375"
     style="fill:#f3f3f3;stroke-width:1"
     width="588.44305"
     height="241.42293"
     id="rect15" /><rect
     x="687.42883"
     y="1100.6404"
     style="fill:#ffffff;stroke-width:1"
     width="588.44305"
     height="241.42293"
     id="rect16" /><rect
     x="1870.1149"
     y="1339.2375"
     style="fill:#f3f3f3;stroke-width:1"
     width="588.44305"
     height="241.42293"
     id="rect17" /><rect
     x="687.42883"
     y="2293.635"
     style="fill:#f3f3f3;stroke-width:1"
     width="588.44305"
     height="241.42293"
     id="rect18" /><rect
     x="93.188766"
     y="576.84998"
     style="opacity:0.7;fill:#ffffff;stroke-width:1"
     width="594.24011"
     height="28.237343"
     id="rect19" /><rect
     x="93.188766"
     y="1577.8376"
     style="fill:#f3f3f3;stroke-width:1"
     width="594.24011"
     height="241.42293"
     id="rect20" /><rect
     x="93.188766"
     y="1577.8376"
     style="fill:#f3f3f3;stroke-width:1"
     width="594.24011"
     height="241.42293"
     id="rect21" /><rect
     x="93.188766"
     y="1100.6404"
     style="fill:#f3f3f3;stroke-width:1"
     width="594.24011"
     height="241.42293"
     id="rect22" /><rect
     x="93.188766"
     y="1100.6404"
     style="fill:#f3f3f3;stroke-width:1"
     width="594.24011"
     height="241.42293"
     id="rect23" /><rect
     x="93.188766"
     y="1339.2375"
     style="fill:#f3f3f3;stroke-width:1"
     width="594.24011"
     height="241.42293"
     id="rect24" /><rect
     x="93.188766"
     y="1339.2375"
     style="opacity:0.7;fill:#ffffff;stroke-width:1"
     width="594.24011"
     height="241.42293"
     id="rect25" /><rect
     x="93.188766"
     y="605.08728"
     style="fill:#f3f3f3;stroke-width:1"
     width="594.24011"
     height="498.37595"
     id="rect26" /><rect
     x="93.188766"
     y="605.08728"
     style="opacity:0.7;fill:#ffffff;stroke-width:1"
     width="594.24011"
     height="498.37595"
     id="rect27" /><rect
     x="93.188766"
     y="2293.635"
     style="fill:#f3f3f3;stroke-width:1"
     width="594.24011"
     height="241.42293"
     id="rect28" /><rect
     x="93.188766"
     y="2293.635"
     style="opacity:0.7;fill:#ffffff;stroke-width:1"
     width="594.24011"
     height="241.42293"
     id="rect29" /><rect
     x="93.188766"
     y="2055.0349"
     style="fill:#f3f3f3;stroke-width:1"
     width="594.24011"
     height="241.42293"
     id="rect30" /><rect
     x="93.188766"
     y="2055.0349"
     style="fill:#f3f3f3;stroke-width:1"
     width="594.24011"
     height="241.42293"
     id="rect31" /><rect
     x="93.188766"
     y="2532.2351"
     style="fill:#f3f3f3;stroke-width:1"
     width="594.24011"
     height="247.07156"
     id="rect32" /><rect
     x="93.188766"
     y="2532.2351"
     style="fill:#f3f3f3;stroke-width:1"
     width="594.24011"
     height="247.07156"
     id="rect33" /><rect
     x="93.188766"
     y="1816.4377"
     style="fill:#f3f3f3;stroke-width:1"
     width="594.24011"
     height="241.42293"
     id="rect34" /><rect
     x="93.188766"
     y="1816.4377"
     style="opacity:0.7;fill:#ffffff;stroke-width:1"
     width="594.24011"
     height="241.42293"
     id="rect35" /><rect
     x="1275.8719"
     y="576.84998"
     style="opacity:0.7;fill:#ffffff;stroke-width:1"
     width="594.24011"
     height="28.237343"
     id="rect36" /><rect
     x="1275.8719"
     y="1339.2375"
     style="fill:#f3f3f3;stroke-width:1"
     width="594.24011"
     height="241.42293"
     id="rect37" /><rect
     x="1275.8719"
     y="1339.2375"
     style="opacity:0.7;fill:#ffffff;stroke-width:1"
     width="594.24011"
     height="241.42293"
     id="rect38" /><rect
     x="1275.8719"
     y="1577.8376"
     style="fill:#f3f3f3;stroke-width:1"
     width="594.24011"
     height="241.42293"
     id="rect39" /><rect
     x="1275.8719"
     y="1577.8376"
     style="fill:#f3f3f3;stroke-width:1"
     width="594.24011"
     height="241.42293"
     id="rect40" /><rect
     x="1275.8719"
     y="1816.4377"
     style="fill:#f3f3f3;stroke-width:1"
     width="594.24011"
     height="241.42293"
     id="rect41" /><rect
     x="1275.8719"
     y="1816.4377"
     style="opacity:0.7;fill:#ffffff;stroke-width:1"
     width="594.24011"
     height="241.42293"
     id="rect42" /><rect
     x="1275.8719"
     y="2293.635"
     style="fill:#f3f3f3;stroke-width:1"
     width="594.24011"
     height="241.42293"
     id="rect43" /><rect
     x="1275.8719"
     y="2293.635"
     style="opacity:0.7;fill:#ffffff;stroke-width:1"
     width="594.24011"
     height="241.42293"
     id="rect44" /><rect
     x="1275.8719"
     y="2055.0349"
     style="fill:#f3f3f3;stroke-width:1"
     width="594.24011"
     height="241.42293"
     id="rect45" /><rect
     x="1275.8719"
     y="2055.0349"
     style="fill:#f3f3f3;stroke-width:1"
     width="594.24011"
     height="241.42293"
     id="rect46" /><rect
     x="1275.8719"
     y="1100.6404"
     style="fill:#f3f3f3;stroke-width:1"
     width="594.24011"
     height="241.42293"
     id="rect47" /><rect
     x="1275.8719"
     y="1100.6404"
     style="fill:#f3f3f3;stroke-width:1"
     width="594.24011"
     height="241.42293"
     id="rect48" /><rect
     x="1275.8719"
     y="605.08728"
     style="fill:#f3f3f3;stroke-width:1"
     width="594.24011"
     height="498.37595"
     id="rect49" /><rect
     x="1275.8719"
     y="605.08728"
     style="opacity:0.7;fill:#ffffff;stroke-width:1"
     width="594.24011"
     height="498.37595"
     id="rect50" /><rect
     x="1275.8719"
     y="2532.2351"
     style="fill:#f3f3f3;stroke-width:1"
     width="594.24011"
     height="247.07156"
     id="rect51" /><rect
     x="1275.8719"
     y="2532.2351"
     style="fill:#f3f3f3;stroke-width:1"
     width="594.24011"
     height="247.07156"
     id="rect52" /><rect
     x="2458.5579"
     y="576.84998"
     style="opacity:0.7;fill:#ffffff;stroke-width:1"
     width="594.24011"
     height="28.237343"
     id="rect53" /><rect
     x="2458.5579"
     y="2055.0349"
     style="fill:#f3f3f3;stroke-width:1"
     width="594.24011"
     height="241.42293"
     id="rect54" /><rect
     x="2458.5579"
     y="2055.0349"
     style="fill:#f3f3f3;stroke-width:1"
     width="594.24011"
     height="241.42293"
     id="rect55" /><rect
     x="2458.5579"
     y="2532.2351"
     style="fill:#f3f3f3;stroke-width:1"
     width="594.24011"
     height="247.07156"
     id="rect56" /><rect
     x="2458.5579"
     y="2532.2351"
     style="fill:#f3f3f3;stroke-width:1"
     width="594.24011"
     height="247.07156"
     id="rect57" /><rect
     x="2458.5579"
     y="605.08728"
     style="fill:#f3f3f3;stroke-width:1"
     width="594.24011"
     height="498.37595"
     id="rect58" /><rect
     x="2458.5579"
     y="605.08728"
     style="opacity:0.7;fill:#ffffff;stroke-width:1"
     width="594.24011"
     height="498.37595"
     id="rect59" /><rect
     x="2458.5579"
     y="1339.2375"
     style="fill:#f3f3f3;stroke-width:1"
     width="594.24011"
     height="241.42293"
     id="rect60" /><rect
     x="2458.5579"
     y="1339.2375"
     style="opacity:0.7;fill:#ffffff;stroke-width:1"
     width="594.24011"
     height="241.42293"
     id="rect61" /><rect
     x="2458.5579"
     y="1816.4377"
     style="fill:#f3f3f3;stroke-width:1"
     width="594.24011"
     height="241.42293"
     id="rect62" /><rect
     x="2458.5579"
     y="1816.4377"
     style="opacity:0.7;fill:#ffffff;stroke-width:1"
     width="594.24011"
     height="241.42293"
     id="rect63" /><rect
     x="2458.5579"
     y="2293.635"
     style="fill:#f3f3f3;stroke-width:1"
     width="594.24011"
     height="241.42293"
     id="rect64" /><rect
     x="2458.5579"
     y="2293.635"
     style="opacity:0.7;fill:#ffffff;stroke-width:1"
     width="594.24011"
     height="241.42293"
     id="rect65" /><rect
     x="2458.5579"
     y="1100.6404"
     style="fill:#f3f3f3;stroke-width:1"
     width="594.24011"
     height="241.42293"
     id="rect66" /><rect
     x="2458.5579"
     y="1100.6404"
     style="fill:#f3f3f3;stroke-width:1"
     width="594.24011"
     height="241.42293"
     id="rect67" /><rect
     x="2458.5579"
     y="1577.8376"
     style="fill:#f3f3f3;stroke-width:1"
     width="594.24011"
     height="241.42293"
     id="rect68" /><rect
     x="2458.5579"
     y="1577.8376"
     style="fill:#f3f3f3;stroke-width:1"
     width="594.24011"
     height="241.42293"
     id="rect69" /><g
     id="g71"
     style="stroke-width:0.339866"
     transform="matrix(2.9411419,0,0,2.943536,-142.55552,-467.20753)">
					<polygon
   style="fill:#ffd95e;stroke-width:0.339866"
   points="277.746,425.843 294.514,265.559 91.298,244.299 79.121,360.696 156.858,456.599 230.322,464.284 "
   id="polygon69" />
					<polygon
   style="fill:#f9d84e;stroke-width:0.339866"
   points="273.255,468.776 277.746,425.843 230.322,464.284 "
   id="polygon70" />
					<polygon
   style="fill:#f5c639;stroke-width:0.339866"
   points="156.858,456.599 165.941,369.779 79.121,360.696 "
   id="polygon71" />
				</g><path
     d="m 344.30188,463.4529 q -0.54282,-0.27141 -1.62846,3.12121 -0.94994,3.25693 -2.5784,8.54942 -1.62846,5.1568 -3.52833,11.80635 -1.76417,6.51384 -3.93545,13.02768 -2.17128,6.51385 -4.34256,12.21346 -2.17128,5.56391 -4.34256,8.82083 -2.17128,3.25692 -4.07115,3.66404 -1.89988,0.27141 -3.39263,-3.93545 -1.08564,-1.89987 -3.12122,-5.97102 -1.89987,-4.20686 -4.47827,-9.36365 -2.57839,-5.1568 -5.4282,-10.85641 -2.84981,-5.69961 -5.4282,-10.7207 -2.44269,-5.15679 -4.61398,-9.22795 -2.03557,-4.07115 -2.98551,-5.97102 -1.62846,-2.98551 -2.98551,-4.74968 -1.22135,-1.89987 -3.93545,-1.89987 0,9.49936 1.08564,20.89858 1.08564,11.39923 2.30699,23.06987 1.35705,11.67064 2.44269,23.06986 1.08564,11.26352 1.08564,20.89859 0.54282,1.22134 -0.40711,2.30698 -0.81423,1.08564 -2.44269,1.62846 -1.49276,0.54282 -3.39263,0 -1.76417,-0.40711 -2.98551,-2.17128 -1.22135,-12.07775 -1.35705,-24.56262 0,-12.62057 -0.13571,-25.24114 -0.1357,-12.62058 -1.08564,-25.24115 -0.94994,-12.75628 -3.79974,-25.37685 -0.13571,-2.44269 0.81423,-2.98551 0.94993,-0.67853 2.44269,-0.67853 3.25692,0 5.83532,1.62846 2.7141,1.49276 4.88538,3.93545 2.17128,2.30699 3.79974,5.15679 1.76417,2.84981 3.12122,5.1568 1.08564,1.76416 2.98551,5.56391 l 4.34257,8.82083 q 2.44269,4.88538 5.02108,10.31358 2.71411,5.2925 5.1568,10.17788 2.44269,4.74968 4.47826,8.54942 2.03558,3.66404 3.12122,5.2925 0.54282,0 0.94994,-0.40711 0.40711,-0.40712 1.08564,-2.30699 0.81423,-1.89987 2.03557,-5.83532 1.35705,-3.93545 3.66404,-10.85641 2.30699,-6.92095 5.69961,-17.50595 3.39263,-10.585 8.27801,-25.78397 0.27141,-0.67852 1.76417,-1.22134 1.49276,-0.54282 2.7141,-0.54282 1.22135,0 1.62846,0.81423 0.54282,0.81423 0.81423,2.7141 1.22135,11.53493 1.89988,24.1555 0.81423,12.48487 2.03557,25.37685 1.22135,12.75628 2.98551,25.37686 1.89987,12.62057 5.1568,24.0198 l -9.36365,3.66403 z m 23.34128,61.20299 q 1.62846,-23.61269 6.78525,-38.40454 5.1568,-14.92756 11.94205,-21.3057 6.92096,-6.37814 14.24903,-4.20685 7.46378,2.03557 13.43481,12.34916 2.03557,6.78525 2.57839,15.19897 0.67853,8.41371 -0.27141,17.09884 -0.81423,8.54942 -3.12121,16.82743 -2.17128,8.27801 -6.10673,14.92756 -3.93545,6.64955 -9.36365,11.26352 -5.42821,4.47827 -12.48487,5.4282 -5.02109,0 -8.41372,-3.12121 -3.39262,-3.12122 -5.4282,-7.59949 -2.03558,-4.61397 -2.98551,-9.49936 -0.81423,-5.02108 -0.81423,-8.95653 z m 7.19237,-0.81423 q 0,3.39263 0.27141,7.05666 0.40711,3.66404 1.62846,6.78526 1.22134,2.98551 3.66404,5.02109 2.57839,1.89987 6.78525,1.89987 4.74968,0 8.68513,-4.34257 3.93544,-4.34256 6.78525,-11.26352 2.84981,-6.92096 4.47827,-15.33467 1.76416,-8.41372 2.03557,-16.42032 0.40712,-8.1423 -0.81423,-14.92756 -1.08564,-6.78525 -3.93544,-10.17788 -2.84981,-3.52833 -7.59949,-2.8498 -4.61397,0.67852 -11.12782,7.46377 -1.89987,5.56391 -3.79974,11.53494 -1.89987,5.83532 -3.39262,11.94204 -1.49276,5.97103 -2.5784,11.94205 -1.08564,5.97103 -1.08564,11.67064 z m 48.1753,-53.60351 v -6.51384 q 1.62846,0 3.66404,1.08564 2.03557,1.08564 3.93544,2.57839 1.89987,1.49276 3.52833,3.39263 1.62847,1.76417 2.5784,2.98551 l 40.033,53.87492 q 0.40712,-2.30699 0.67853,-8.54942 0.40711,-6.24243 0.27141,-14.11333 0,-8.0066 -0.40712,-16.69172 -0.27141,-8.68513 -0.94993,-16.14891 -0.54282,-7.59948 -1.35706,-12.75628 -0.67852,-5.29249 -1.89987,-6.37813 0,-2.03558 0.67853,-3.79975 0.81423,-1.76416 2.98551,-1.76416 2.17128,0 3.52833,2.44269 1.35705,2.44269 2.03558,5.56391 0.67852,2.98551 0.94994,5.97102 0.40711,2.84981 0.40711,3.79974 0.13571,2.44269 0.27141,7.46378 0.13571,4.88539 0.27141,11.26352 0.13571,6.24244 0.27141,13.2991 0.27141,7.05667 0.40712,13.2991 0.27141,6.24243 0.27141,11.39923 0.1357,5.02109 0.27141,7.46378 0,1.76416 0.54282,3.25692 0.67852,1.49276 1.22134,2.98551 0.67853,1.49276 1.22135,2.98551 0.54282,1.49276 0.54282,3.12122 0,2.7141 -2.03558,4.07115 -1.89987,1.22135 -4.34256,1.22135 -1.35705,0 -2.44269,-0.27141 -0.94994,-0.40712 -1.62846,-1.22135 -0.54282,-0.94993 -0.67853,-2.30698 0,-1.35705 0.54282,-3.52834 -1.49275,-1.76416 -4.61397,-5.69961 -3.12122,-4.07115 -7.05667,-8.95654 -3.79974,-5.02108 -8.1423,-10.44929 -4.34256,-5.4282 -8.27801,-10.31358 -3.93545,-5.02109 -7.05666,-8.95654 l -4.61398,-5.83532 q -0.27141,-0.40711 -0.94993,-1.08564 l -3.25693,-3.25692 q -0.67852,-0.67853 -1.08564,-0.94994 -0.54282,7.8709 0.13571,15.8775 0.67852,7.87089 1.76417,15.74179 1.22134,7.87089 2.30698,15.74179 1.22135,7.73519 1.22135,15.60608 0,2.17128 -0.40712,3.93545 -0.40711,1.62846 -3.25692,2.5784 -2.7141,-0.94994 -3.66404,-3.52833 -0.94993,-2.71411 0.13571,-5.1568 z m 92.82228,80.74453 q 0,-2.71411 3.39262,-6.92096 3.39263,-4.34257 8.41372,-9.77077 5.02109,-5.4282 10.99211,-11.80634 5.97102,-6.37814 10.99211,-13.16339 5.02109,-6.92096 8.41372,-13.97763 3.39263,-7.19237 3.39263,-14.11333 0,-3.66403 -2.03558,-6.24243 -2.03558,-2.7141 -5.2925,-4.61397 -3.12122,-1.89988 -7.19237,-2.98552 -3.93545,-1.08564 -8.0066,-1.62846 -4.07115,-0.67852 -7.73519,-0.81423 -3.66404,-0.27141 -6.24243,-0.27141 -0.67853,0 -1.76417,0.13571 -1.08564,0 -2.30698,0.1357 -1.08565,0 -2.03558,0.13571 -0.94994,0.1357 -1.08564,0.1357 l -1.76417,1.62846 q 0,0.27141 -0.1357,2.30699 0,2.03558 -0.13571,4.61397 0,2.5784 0,5.2925 v 4.20686 q 0,13.70621 0.94994,27.27672 1.08564,13.4348 1.08564,27.14102 0,0.81423 0,1.76416 0.1357,0.94994 0,1.89987 -0.13571,0.81424 -0.81423,1.49276 -0.54282,0.54282 -1.76417,0.54282 -0.81423,0 -1.62846,-0.40711 -0.81423,-0.40712 -0.94993,-1.35706 l -5.2925,-71.38087 q -0.40712,0.27141 -1.49276,0.81423 -0.94993,0.40712 -2.03558,0.94994 -1.08564,0.54282 -2.17128,1.22134 -0.94993,0.54282 -1.22134,0.54282 -0.13571,0 -0.54282,0.13571 -0.27141,0 -0.40712,0 -0.67852,0 -1.62846,-0.27141 -0.81423,-0.40712 -0.81423,-1.62846 0,-2.03558 0.81423,-3.25692 0.94994,-1.35706 2.30699,-2.4427 1.49275,-1.08564 3.12121,-2.17128 1.62847,-1.08564 2.98552,-2.7141 1.49275,-1.76417 2.30698,-4.34256 0.94994,-2.5784 0.94994,-6.51385 2.7141,0 3.39263,0.94994 0.67852,0.94993 0.81423,2.30699 0.1357,1.22134 0.27141,2.57839 0.27141,1.22135 2.03557,1.76417 3.79974,-0.13571 9.09224,0 5.42821,0.1357 11.26352,0.94993 5.97103,0.67853 11.67064,2.17129 5.83532,1.49275 10.31359,4.20685 4.61397,2.7141 7.19237,6.92096 2.7141,4.07115 2.44269,10.04218 -1.76417,10.44929 -6.78525,20.08435 -4.88539,9.63506 -11.67064,18.5916 -6.64955,8.82083 -14.52045,16.96313 -7.73519,8.14231 -15.47038,15.60609 -0.1357,0 -0.40711,0 -0.27141,0.1357 -0.40712,0.1357 -1.22134,0 -2.03557,-0.81423 -0.81423,-0.81423 -0.81423,-2.03557 z m 58.76032,-0.81423 q 0.40711,-1.89988 0.67852,-4.88539 0.27141,-2.98551 0.67853,-7.87089 0.54282,-4.88539 1.08564,-12.07776 0.67852,-7.19236 1.76416,-17.50595 1.08564,-10.31359 2.4427,-24.15551 1.49275,-13.97762 3.79974,-32.43351 0.1357,-1.35705 1.22134,-1.62846 1.22135,-0.27141 2.17128,-0.27141 1.49276,0 2.4427,1.08564 0.94993,1.08564 1.62846,2.44269 0.81423,1.35705 1.49275,2.84981 0.67853,1.49275 1.49276,2.44269 1.35705,3.12122 2.7141,7.19237 1.49276,4.07115 3.12122,8.68512 1.62846,4.61398 3.25692,9.36365 1.62846,4.61398 3.25692,9.09224 1.62846,4.34257 2.98551,8.14231 1.49276,3.66404 2.71411,6.10673 1.49275,-0.13571 4.20685,-1.08564 2.7141,-1.08564 5.83532,-2.03558 3.12122,-0.94993 6.10673,-1.49275 2.98551,-0.54282 5.02109,0 2.03557,0.40711 2.57839,2.30698 0.67853,1.89987 -0.94993,5.97103 -0.94994,0 -1.76417,-0.27141 -0.81423,-0.40712 -1.62846,-0.67853 -0.81423,-0.40712 -1.76416,-0.67853 -0.81423,-0.40711 -1.89988,-0.40711 -0.67852,0 -3.12121,0.81423 -2.30699,0.67853 -5.02109,1.62846 -2.7141,0.81423 -4.74968,1.76417 -2.03557,0.81423 -2.03557,1.22134 l 9.36365,36.77608 -3.52834,5.15679 q -2.30698,-3.93544 -3.93544,-8.95653 -1.49276,-5.1568 -2.84981,-10.17788 -1.35705,-5.1568 -2.84981,-9.49936 -1.35705,-4.47827 -3.52833,-7.46378 -2.84981,1.35705 -6.78525,2.30699 -3.93545,0.94993 -7.59949,2.44269 -3.66403,1.35705 -6.37814,3.79974 -2.57839,2.30699 -3.12121,6.37814 -0.27141,1.62846 -0.54282,4.34256 -0.13571,2.7141 -0.40712,5.1568 -0.40711,2.98551 -0.67852,6.10673 z m 15.60608,-79.9303 -0.27141,2.30699 q -0.1357,2.30698 -0.40711,5.4282 -0.27141,2.98551 -0.67853,6.24243 -0.27141,3.12122 -0.40712,5.2925 -0.67852,7.59949 -1.49275,15.06327 -0.67853,7.32807 -0.67853,15.06326 2.5784,0 5.42821,-0.67852 2.98551,-0.67853 5.69961,-1.76417 2.7141,-1.22135 4.88538,-2.84981 2.30699,-1.76416 3.52834,-3.93544 -1.08565,-4.74968 -2.4427,-9.77077 -1.22134,-5.15679 -2.7141,-10.31359 -1.49275,-5.29249 -3.25692,-10.31358 -1.76417,-5.02109 -3.79974,-9.77077 -0.13571,-0.1357 -0.94994,-0.54282 -0.81423,-0.54282 -2.44269,0.54282 z m 61.20297,80.066 q 0,-4.88538 1.49276,-9.49936 1.49275,-4.74967 3.25692,-9.49935 1.76417,-4.74968 2.98551,-9.36365 1.35705,-4.74968 0.94994,-9.90647 -3.93545,-4.34257 -8.68513,-9.36365 -4.74967,-5.1568 -9.36365,-10.585 -4.61397,-5.56391 -8.54942,-11.39923 -3.93545,-5.97102 -6.37814,-12.07775 -0.1357,-0.13571 -0.1357,-0.40712 v -0.54282 q 0,-1.62846 1.22134,-2.17128 1.22135,-0.54282 2.5784,-0.54282 3.52833,4.20686 7.46378,9.63506 4.07115,5.2925 8.27801,10.585 4.20686,5.2925 8.54942,10.17788 4.34256,4.74968 8.54942,7.8709 h 1.76417 q 0.54282,-0.94994 1.89987,-4.61398 1.35705,-3.79974 3.25692,-8.95653 2.03558,-5.1568 4.20686,-11.39923 2.17128,-6.24243 4.07115,-12.21346 2.03558,-6.10673 3.39263,-11.39922 1.49275,-5.2925 2.17128,-8.68513 0.1357,-0.27141 0.81423,-0.27141 2.03558,0 3.25692,1.89987 1.35705,1.76417 1.08564,3.66404 -3.66404,12.89198 -6.10673,21.16999 -2.30698,8.27801 -3.93544,13.57051 -1.49276,5.15679 -2.5784,8.41372 -1.08564,3.12121 -2.30699,5.97102 -1.08564,2.84981 -2.30698,6.37814 -1.22135,3.39263 -3.25693,9.22794 -2.03557,5.69962 -5.02108,14.79186 -2.98552,8.95653 -7.46378,22.93416 -0.13571,0 -0.81423,0 -0.54282,0.1357 -0.81423,0.1357 -3.52834,0 -3.52834,-3.52833 z"
     id="text71"
     style="font-size:138.962px;font-family:ShadowsIntoLight;fill:#2f3030;stroke:#2f3030;stroke-width:0.959282;stroke-miterlimit:10"
     transform="matrix(0.99161375,0.12615351,-0.1260509,0.99242093,0,0)"
     aria-label="MONDAY" /><g
     id="g74"
     style="stroke-width:0.339866"
     transform="matrix(2.9411419,0,0,2.943536,-142.55552,-467.20753)">
					<polygon
   style="fill:#f8a45e;stroke-width:0.339866"
   points="684.443,384.439 692.702,471.341 779.605,463.082 "
   id="polygon72" />
					<polygon
   style="fill:#f2943f;stroke-width:0.339866"
   points="892.027,409.036 876.78,248.601 673.371,267.932 684.443,384.439 779.605,463.082 853.138,456.094 "
   id="polygon73" />
					<polygon
   style="fill:#e77d25;stroke-width:0.339866"
   points="849.053,413.12 853.138,456.094 892.027,409.036 "
   id="polygon74" />
				</g><path
     d="m 1874.0574,834.4141 q -3.7719,0 -7.6617,0.70723 -3.7719,0.70723 -7.5438,1.65021 -3.7719,0.82511 -7.5438,1.53234 -3.7719,0.70723 -7.6617,0.70723 -1.1787,0 -2.4753,-0.23574 -1.1788,-0.35362 -1.1788,-2.1217 0,-1.17872 0.943,-2.35744 1.0609,-1.2966 2.2396,-1.41447 l 31.5897,-4.59701 q 0.1179,-0.47149 0.3536,-1.41446 0.2358,-1.06085 0.5894,-2.00383 0.4715,-1.06085 1.1787,-1.76808 0.7072,-0.8251 1.6502,-0.8251 1.4145,0 2.2396,0.70723 0.8251,0.70723 1.4144,1.65021 0.5894,0.8251 1.0609,1.53233 0.4715,0.70724 1.1787,0.70724 h 0.943 q 1.1787,-0.11787 3.7719,-0.35362 2.5932,-0.35362 5.8936,-0.70723 3.4183,-0.35362 7.1902,-0.70723 3.7719,-0.47149 7.1902,-0.70724 3.4183,-0.35361 6.0115,-0.58936 2.5932,-0.35361 3.7719,-0.58936 0.3536,0 1.6502,0 1.4144,-0.11787 2.0038,-0.11787 0,2.23957 -2.4753,3.77191 -2.3574,1.41446 -6.1294,2.47531 -3.654,0.94298 -8.251,1.53234 -4.4791,0.47149 -8.8404,0.8251 -4.2434,0.35362 -7.8974,0.58936 -3.5362,0.23575 -5.4221,0.58936 -0.4715,8.36892 0.3536,17.44507 0.9429,9.07615 2.2395,18.27017 1.4145,9.19402 2.5932,18.27017 1.1787,9.07615 1.1787,17.32719 0.4715,1.65021 0.3537,2.59319 0,0.94297 -0.5894,1.29659 -0.5894,0.35362 -1.7681,0.35362 -1.1787,0 -2.8289,-0.11787 -1.1787,-4.2434 -2.1217,-9.90126 -0.8251,-5.77573 -1.5323,-12.25869 -0.7073,-6.60084 -1.4145,-13.55529 -0.5894,-6.95445 -1.1787,-13.79103 -0.5894,-6.83658 -1.2966,-13.0838 -0.7073,-6.24722 -1.6502,-11.31572 z m 74.8487,33.12205 q -1.2966,0.94298 -4.597,2.82893 -3.1825,1.76808 -6.8366,3.88978 -3.654,2.1217 -6.9544,4.12552 -3.3004,1.88595 -4.597,2.82893 -2.5932,2.00383 -3.5362,4.59701 -0.943,2.59319 -0.943,5.65786 0,2.9468 0.5894,6.24722 0.5894,3.18255 0.8251,6.48296 0,1.65021 -1.0608,3.06468 -1.0609,1.41446 -2.7111,1.41446 -0.7072,0 -1.5323,-0.35361 -0.8251,-0.47149 -0.8251,-1.2966 l -2.7111,-75.55599 q 0,-0.70723 0.4715,-1.88596 0.5894,-1.17872 0.943,-1.29659 0.3536,0 0.9429,0.11787 0.7073,0.11788 1.4145,0.47149 0.7072,0.23575 1.2966,0.58936 0.7072,0.23575 0.943,0.47149 0.4715,4.71488 0.5893,10.84423 0.1179,6.12935 0.2358,12.37657 0.2357,6.24722 0.5893,12.14082 0.4715,5.77573 1.5324,9.78338 5.0685,-2.12169 9.5476,-4.00765 4.4792,-1.88595 7.7796,-4.36126 3.3004,-2.47532 5.1863,-6.01148 1.886,-3.65403 1.7681,-9.07615 0,-2.9468 -0.1178,-5.18637 -0.1179,-2.23957 -0.4715,-4.36127 -0.3536,-2.23957 -1.0609,-4.71488 -0.5893,-2.59318 -1.5323,-5.8936 -0.2358,-2.1217 0.7072,-2.71106 0.943,-0.58936 2.2396,-0.58936 1.5323,0 2.3574,0.70723 0.8251,0.70723 1.2966,1.88596 0.5894,1.17872 0.7073,2.59318 0.1178,1.29659 0.2357,2.47531 0.2357,1.88596 0.5894,5.65786 0.3536,3.77191 0.7072,8.60466 0.4715,4.71489 0.943,10.01913 0.5893,5.30424 1.0608,10.01913 0.4715,4.71488 0.7072,8.48678 0.3537,3.77191 0.5894,5.65786 0.3536,4.47914 0.943,8.84041 0.5893,4.36127 0.5893,8.95828 v 1.88595 q 0,0.94298 -0.2357,1.88595 -0.1179,0.82511 -0.8251,1.53234 -0.5894,0.58936 -2.0038,0.94298 -2.1217,-1.53234 -2.4753,-3.41829 -0.3537,-1.88596 -0.5894,-4.12553 -0.1179,-1.29659 -0.2357,-3.88978 -0.1179,-2.71105 -0.4715,-5.8936 -0.2358,-3.30042 -0.5894,-6.83658 -0.2357,-3.65403 -0.5894,-6.83658 -0.2357,-3.30042 -0.4714,-5.8936 -0.2358,-2.59319 -0.3537,-3.88978 z m 55.7535,9.19402 q -1.1787,4.36127 -3.1825,9.66551 -1.886,5.18637 -4.8328,9.78338 -2.8289,4.59701 -6.8366,7.77956 -4.0076,3.06467 -9.3118,3.06467 -4.1256,0 -6.7188,-1.65021 -2.4753,-1.76808 -3.8897,-4.59701 -1.4145,-2.9468 -2.1217,-6.36509 -0.5894,-3.53616 -0.8251,-7.07232 -0.1179,-1.17872 -0.2358,-4.71489 -0.1178,-3.65403 -0.2357,-8.48678 -0.1179,-4.95063 -0.3536,-10.49062 -0.1179,-5.53999 -0.3537,-10.37274 -0.1178,-4.83275 -0.2357,-8.48679 -0.1179,-3.65403 -0.1179,-4.83275 -0.1178,-1.17872 0.1179,-1.76808 0.2357,-0.70724 0.8251,-0.94298 0.5894,-0.35362 1.2966,-0.35362 0.8251,-0.11787 1.4145,-0.11787 h 0.9429 q 0.7073,0 1.2966,0.11787 0.5894,0.11787 1.0609,0.58936 0.4715,0.35362 0.4715,1.06085 v 50.2135 q 0,2.1217 0.5893,4.2434 0.7073,2.12169 1.886,4.00765 1.1787,1.76808 2.9468,2.9468 1.7681,1.17872 4.0076,1.17872 4.4792,-0.35362 7.6617,-4.71488 3.3004,-4.47914 5.6579,-11.19785 2.3574,-6.71871 3.8898,-14.61614 1.5323,-7.89742 2.711,-15.20549 1.1787,-7.30807 2.0038,-12.96593 0.943,-5.65786 2.0039,-7.89743 2.2395,-2.00382 3.5361,-0.94298 1.2966,0.94298 1.886,3.06468 0.7072,2.00382 0.8251,4.47914 0.1179,2.35744 -0.2358,3.41829 0,7.89743 -0.8251,15.67698 -0.7072,7.77956 -0.7072,15.79486 0,5.0685 0.4715,10.137 0.4715,5.0685 1.0608,10.13699 0.5894,5.0685 1.0609,10.137 0.4715,4.95063 0.4715,9.90126 0,0.94297 -0.1179,1.88595 -0.1179,1.06085 -0.5894,1.88595 -0.3536,0.82511 -1.0608,1.41447 -0.7072,0.58936 -2.0038,0.58936 0,0 -0.3536,-0.11787 -0.2358,0 -0.4715,0 z m 16.1485,-64.1224 q 0.1179,0 0.8251,0.11787 0.7072,0.11787 1.5323,0.23574 0.8251,0 1.5324,0.11788 0.8251,0.11787 0.943,0.11787 0.5893,0 1.768,0.23574 1.1788,0.11787 1.1788,1.29659 v 10.37275 q 2.0038,-0.47149 4.597,-2.1217 2.5932,-1.76808 6.1293,-3.53616 3.5362,-1.76808 7.8974,-2.9468 4.3613,-1.17873 10.0192,-0.58937 8.7225,1.76809 12.6123,4.2434 3.8898,2.35744 4.1255,5.30424 0.2357,2.82893 -2.4753,6.12935 -2.5932,3.30042 -6.9545,6.83658 -4.3612,3.41829 -9.7833,6.83658 -5.3043,3.41829 -10.4907,6.71871 -5.0685,3.18254 -9.3119,6.01147 -4.2433,2.82893 -6.365,5.0685 1.8859,0.82511 5.4221,2.71106 3.654,1.76808 7.8974,4.00765 4.3613,2.1217 8.9583,4.59701 4.7149,2.47531 8.8404,4.59701 4.1255,2.00383 7.4259,3.65403 3.3004,1.53234 4.7149,2.00383 1.1787,0.58936 2.2396,1.06085 0.8251,0.58936 1.5323,1.06085 0.8251,0.47149 0.8251,0.94297 0,0.47149 -0.3536,1.2966 -0.2357,0.8251 -0.8251,1.53233 -0.5894,0.70724 -1.2966,1.2966 -0.5894,0.47148 -1.1787,0.47148 -0.2358,0 -0.5894,0 -0.2357,-0.11787 -0.3536,-0.11787 -0.2357,-0.11787 -1.6502,-0.70723 -1.2966,-0.70723 -2.8289,-1.53234 -1.4145,-0.8251 -2.829,-1.41446 -1.2966,-0.70723 -1.6502,-0.82511 -1.2966,-0.47148 -4.2434,-1.76808 -2.8289,-1.41446 -6.4829,-3.06467 -3.5362,-1.76808 -7.5438,-3.77191 -4.0077,-2.00382 -7.6617,-3.7719 -3.5362,-1.76808 -6.483,-3.06468 -2.8289,-1.29659 -4.1255,-1.53233 v 36.06885 h -5.3043 z m 7.7796,20.27399 q -0.2358,2.1217 -0.4715,4.95063 -0.2358,2.82893 -0.5894,5.8936 -0.2357,3.06468 -0.4715,6.12935 -0.1179,3.06467 -0.1179,5.65786 0.4715,-0.58936 3.3005,-2.00383 2.8289,-1.41446 6.8365,-3.53616 4.0077,-2.1217 8.6047,-4.71488 4.7149,-2.59319 8.8404,-5.30424 4.1255,-2.82893 7.1902,-5.53999 3.1826,-2.71106 4.0077,-4.95063 0.9429,-2.35744 -0.943,-4.24339 -1.7681,-1.88595 -7.5438,-2.9468 -3.1826,-0.23575 -7.3081,0.35361 -4.0077,0.58936 -8.1332,2.00383 -4.0076,1.41446 -7.5438,3.53616 -3.5361,2.00382 -5.6578,4.71488 z m 62.59,69.89814 q 0.2358,-1.17872 2.9468,-2.23957 2.7111,-1.06085 6.7187,-2.23957 4.0077,-1.17872 8.8404,-2.59319 4.8328,-1.41446 9.3119,-3.18254 4.4792,-1.76808 8.1332,-4.00765 3.7719,-2.23957 5.54,-5.18637 0,-1.76808 -2.3574,-2.71106 -2.2396,-0.94298 -6.1294,-1.53234 -3.7719,-0.70723 -8.7225,-1.06085 -4.8328,-0.47148 -10.0192,-1.17872 -5.0685,-0.8251 -10.0191,-1.88595 -4.8327,-1.17872 -8.7225,-3.18255 -3.7719,-2.12169 -6.1294,-5.30424 -2.2395,-3.18254 -2.2395,-7.77955 0,-4.59702 2.0038,-9.07615 2.0038,-4.59701 5.3042,-8.84041 3.4183,-4.24339 7.6617,-7.89743 4.3613,-3.65403 9.0762,-6.36509 4.7149,-2.71106 9.3119,-4.24339 4.7148,-1.53234 8.7225,-1.53234 1.0608,0 2.2396,0 1.1787,-0.11787 2.0038,0.11787 0.943,0.11787 1.5323,0.82511 0.5894,0.70723 0.5894,2.12169 0,3.41829 -2.2396,4.95063 -2.2395,1.41446 -5.4221,1.41446 l -4.597,-3.30041 q -2.7111,0 -6.0115,1.53233 -3.1825,1.53234 -6.6008,4.12553 -3.3004,2.47531 -6.483,5.77573 -3.1825,3.30042 -5.6578,6.83658 -2.3575,3.53616 -3.8898,7.07232 -1.4145,3.53616 -1.4145,6.36509 0,4.12553 2.2396,6.71871 2.3574,2.47531 6.1293,4.00765 3.8898,1.41447 8.8404,2.1217 4.9507,0.70723 10.0192,1.17872 5.0685,0.47149 10.0191,0.94298 4.9506,0.35361 8.7225,1.41446 3.8898,1.06085 6.1294,2.82893 2.3574,1.76808 2.3574,4.83275 1.2966,1.88596 -0.5893,4.36127 -1.7681,2.35744 -5.6579,4.83276 -3.7719,2.35744 -9.0762,4.83275 -5.1863,2.35744 -10.7263,4.36127 -5.54,1.88595 -10.7264,3.30041 -5.1863,1.2966 -8.8404,1.65021 -1.0608,0 -1.8859,-0.70723 -0.7073,-0.70723 -0.2358,-2.47531 z m 70.016,3.18254 q 0,-2.35744 2.9468,-6.01147 2.9468,-3.77191 7.3081,-8.48679 4.3613,-4.71488 9.5476,-10.25487 5.1864,-5.53999 9.5477,-11.43359 4.3613,-6.01148 7.3081,-12.14082 2.9468,-6.24722 2.9468,-12.2587 0,-3.18254 -1.7681,-5.42211 -1.7681,-2.35744 -4.597,-4.00765 -2.7111,-1.65021 -6.2473,-2.59319 -3.4182,-0.94298 -6.9544,-1.41446 -3.5362,-0.58936 -6.7187,-0.70724 -3.1826,-0.23574 -5.4221,-0.23574 -0.5894,0 -1.5324,0.11787 -0.9429,0 -2.0038,0.11787 -0.943,0 -1.7681,0.11788 -0.8251,0.11787 -0.9429,0.11787 l -1.5324,1.41446 q 0,0.23575 -0.1179,2.00383 0,1.76808 -0.1178,4.00765 0,2.23957 0,4.59701 v 3.65403 q 0,11.90508 0.8251,23.69229 0.943,11.66933 0.943,23.57441 0,0.70723 0,1.53234 0.1178,0.8251 0,1.65021 -0.1179,0.70723 -0.7073,1.29659 -0.4715,0.47149 -1.5323,0.47149 -0.7073,0 -1.4145,-0.35362 -0.7072,-0.35361 -0.8251,-1.17872 l -4.597,-62.00071 q -0.3536,0.23575 -1.2966,0.70724 -0.8251,0.35361 -1.7681,0.8251 -0.9429,0.47149 -1.8859,1.06085 -0.8251,0.47149 -1.0609,0.47149 -0.1178,0 -0.4715,0.11787 -0.2357,0 -0.3536,0 -0.5893,0 -1.4144,-0.23574 -0.7073,-0.35362 -0.7073,-1.41447 0,-1.76808 0.7073,-2.82893 0.8251,-1.17872 2.0038,-2.1217 1.2966,-0.94297 2.711,-1.88595 1.4145,-0.94298 2.5932,-2.35744 1.2966,-1.53234 2.0039,-3.77191 0.8251,-2.23957 0.8251,-5.65786 2.3574,0 2.9468,0.82511 0.5893,0.8251 0.7072,2.00382 0.1179,1.06085 0.2357,2.23957 0.2358,1.06085 1.7681,1.53234 3.3004,-0.11787 7.8974,0 4.7149,0.11787 9.7834,0.8251 5.1864,0.58937 10.137,1.88596 5.0685,1.29659 8.9583,3.65403 4.0076,2.35744 6.2472,6.01148 2.3575,3.53616 2.1217,8.72253 -1.5323,9.07615 -5.8936,17.44507 -4.2434,8.36891 -10.137,16.14847 -5.7757,7.66168 -12.6123,14.73401 -6.7187,7.07232 -13.4374,13.55529 -0.1179,0 -0.3536,0 -0.2358,0.11787 -0.3536,0.11787 -1.0609,0 -1.7681,-0.70724 -0.7073,-0.70723 -0.7073,-1.76808 z m 51.0386,-0.70723 q 0.3537,-1.65021 0.5894,-4.24339 0.2357,-2.59319 0.5894,-6.83658 0.4714,-4.2434 0.9429,-10.49062 0.5894,-6.24722 1.5324,-15.20549 0.9429,-8.95828 2.1217,-20.98123 1.2966,-12.14082 3.3004,-28.17143 0.1179,-1.17872 1.0608,-1.41446 1.0609,-0.23574 1.886,-0.23574 1.2966,0 2.1217,0.94297 0.8251,0.94298 1.4145,2.1217 0.7072,1.17872 1.2965,2.47531 0.5894,1.2966 1.2966,2.1217 1.1788,2.71106 2.3575,6.24722 1.2966,3.53616 2.711,7.54381 1.4145,4.00765 2.829,8.13317 1.4144,4.00765 2.8289,7.89743 1.4145,3.77191 2.5932,7.07233 1.2966,3.18254 2.3574,5.30424 1.2966,-0.11787 3.6541,-0.94298 2.3574,-0.94297 5.0685,-1.76808 2.711,-0.8251 5.3042,-1.29659 2.5932,-0.47149 4.3613,0 1.768,0.35362 2.2395,2.00383 0.5894,1.6502 -0.8251,5.18637 -0.8251,0 -1.5323,-0.23575 -0.7072,-0.35361 -1.4145,-0.58936 -0.7072,-0.35361 -1.5323,-0.58936 -0.7072,-0.35362 -1.6502,-0.35362 -0.5894,0 -2.7111,0.70724 -2.0038,0.58936 -4.3612,1.41446 -2.3575,0.70723 -4.1256,1.53234 -1.768,0.70723 -1.768,1.06085 l 8.1331,31.94333 -3.0646,4.47914 q -2.0039,-3.41829 -3.4183,-7.77956 -1.2966,-4.47914 -2.4754,-8.84041 -1.1787,-4.47913 -2.4753,-8.25104 -1.1787,-3.88978 -3.0646,-6.48296 -2.4754,1.17872 -5.8936,2.00382 -3.4183,0.82511 -6.6009,2.1217 -3.1825,1.17872 -5.54,3.30042 -2.2395,2.00382 -2.711,5.53998 -0.2358,1.41447 -0.4715,3.77191 -0.1179,2.35744 -0.3536,4.47914 -0.3536,2.59318 -0.5894,5.30424 z m 13.5553,-69.42665 -0.2357,2.00383 q -0.1179,2.00382 -0.3536,4.71488 -0.2358,2.59319 -0.5894,5.42212 -0.2357,2.71105 -0.3536,4.59701 -0.5894,6.60083 -1.2966,13.0838 -0.5894,6.36509 -0.5894,13.0838 2.2396,0 4.7149,-0.58936 2.5932,-0.58936 4.9506,-1.53234 2.3575,-1.06085 4.2434,-2.47531 2.0039,-1.53234 3.0647,-3.41829 -0.943,-4.12553 -2.1217,-8.48679 -1.0608,-4.47914 -2.3574,-8.95828 -1.2966,-4.59701 -2.829,-8.95828 -1.5323,-4.36126 -3.3004,-8.48679 -0.1178,-0.11787 -0.8251,-0.47148 -0.7072,-0.47149 -2.1217,0.47148 z m 53.1603,69.54452 q 0,-4.24339 1.2966,-8.25104 1.2966,-4.12552 2.829,-8.25105 1.5323,-4.12552 2.5931,-8.13317 1.1788,-4.12552 0.8251,-8.60466 -3.4182,-3.77191 -7.5438,-8.13317 -4.1255,-4.47914 -8.1331,-9.19402 -4.0077,-4.83276 -7.426,-9.90126 -3.4183,-5.18637 -5.54,-10.49061 -0.1178,-0.11787 -0.1178,-0.35362 v -0.47149 q 0,-1.41446 1.0608,-1.88595 1.0609,-0.47149 2.2396,-0.47149 3.0647,3.65404 6.4829,8.36892 3.5362,4.59701 7.1902,9.19402 3.6541,4.59701 7.426,8.84041 3.7719,4.12552 7.4259,6.83658 h 1.5324 q 0.4714,-0.82511 1.6502,-4.00765 1.1787,-3.30042 2.8289,-7.77956 1.7681,-4.47914 3.654,-9.90125 1.886,-5.42212 3.5362,-10.60849 1.7681,-5.30424 2.9468,-9.90125 1.2966,-4.59701 1.8859,-7.54382 0.1179,-0.23574 0.7073,-0.23574 1.7681,0 2.8289,1.65021 1.1787,1.53234 0.943,3.18254 -3.1826,11.19785 -5.3043,18.38805 -2.0038,7.19019 -3.4182,11.7872 -1.2966,4.47914 -2.2396,7.30807 -0.943,2.71106 -2.0038,5.18637 -0.943,2.47532 -2.0039,5.53999 -1.0608,2.9468 -2.8289,8.0153 -1.7681,4.95063 -4.3613,12.84806 -2.5931,7.77955 -6.4829,19.92038 -0.1179,0 -0.7073,0 -0.4714,0.11787 -0.7072,0.11787 -3.0647,0 -3.0647,-3.06468 z"
     id="text74"
     style="font-size:120.701px;font-family:ShadowsIntoLight;fill:#2f3030;stroke:#2f3030;stroke-width:0.959297;stroke-miterlimit:10"
     transform="matrix(0.99009884,-0.13755619,0.13744431,0.99090479,0,0)"
     aria-label="THURSDAY" /><g
     id="g77"
     style="stroke-width:0.339866"
     transform="matrix(2.9411419,0,0,2.943536,-142.55552,-467.20753)">
					<polygon
   style="fill:#35c4e6;stroke-width:0.339866"
   points="1076.683,427.761 1093.451,267.478 890.235,246.218 878.058,362.614 955.795,458.517 1029.258,466.203 "
   id="polygon75" />
					<polygon
   style="fill:#2eb7cd;stroke-width:0.339866"
   points="1072.191,470.694 1076.683,427.761 1029.258,466.203 "
   id="polygon76" />
					<polygon
   style="fill:#58c9e5;stroke-width:0.339866"
   points="878.058,362.614 868.975,449.435 955.795,458.517 "
   id="polygon77" />
				</g><path
     d="m 2608.015,223.76137 q 0,-1.35704 0.8142,-1.89985 0.8142,-0.67852 2.0356,-0.94993 1.2213,-0.27141 2.5783,-0.27141 1.3571,0 2.307,-0.1357 v 12.89189 q 8.9565,-2.57838 14.656,-5.15676 5.6996,-2.71408 10.1779,-4.88535 4.4782,-2.30697 8.8207,-4.07112 4.4783,-1.89986 10.7206,-3.2569 0.95,0 1.3571,0.94993 0.4071,0.94993 0.4071,1.76415 0,1.49275 -1.7642,2.44268 l -43.561,20.89843 1.7642,38.26855 q 10.0421,-5.56386 16.963,-9.49928 6.9209,-3.93542 11.3991,-6.5138 4.4783,-2.57838 6.9209,-3.93542 2.5784,-1.35704 3.7998,-1.89986 l 1.4927,-0.67852 q 0.2714,-0.1357 0.4071,-0.1357 0.2714,0 0.4071,0.54282 0.1357,0.40711 0.1357,1.08563 v 1.62845 q 0,0.67852 0.2714,1.22133 -0.6785,0.81423 -4.0711,2.98549 -3.2569,2.17127 -7.8708,5.02106 -4.614,2.71408 -9.9064,5.83527 -5.1568,2.98549 -9.635,5.69957 -4.4782,2.71409 -7.4637,4.74965 -2.8498,1.89986 -2.8498,2.57838 v 20.76272 q 0,1.76416 -0.6785,2.71409 -0.5429,0.94992 -1.8999,0.94992 -1.4927,0 -2.7141,-3.3926 -1.0856,-3.3926 -1.8998,-8.95647 -0.6786,-5.69957 -1.2214,-13.02759 -0.5428,-7.32802 -0.9499,-15.19886 -0.4071,-7.87084 -0.6785,-15.74168 -0.1357,-7.87083 -0.2714,-14.52034 0,-6.7852 0,-11.67055 z m 60.9311,-20.62702 q 0.1357,0 0.9499,0.13571 0.8143,0.1357 1.7642,0.2714 0.9499,0 1.7641,0.13571 0.95,0.1357 1.0857,0.1357 0.6785,0 2.0355,0.27141 1.3571,0.1357 1.3571,1.49274 v 11.94197 q 2.307,-0.54282 5.2924,-2.44268 2.9855,-2.03556 7.0567,-4.07112 4.0711,-2.03556 9.0921,-3.3926 5.0211,-1.35704 11.5349,-0.67852 10.0421,2.03556 14.5203,4.88534 4.4783,2.71409 4.7497,6.10669 0.2714,3.2569 -2.8498,7.05661 -2.9855,3.79972 -8.0066,7.87084 -5.021,3.93542 -11.2634,7.87084 -6.1067,3.93542 -12.0777,7.73513 -5.8352,3.66401 -10.7206,6.92091 -4.8853,3.2569 -7.328,5.83528 2.1712,0.94992 6.2424,3.12119 4.2068,2.03556 9.0921,4.61394 5.0211,2.44267 10.3136,5.29246 5.4281,2.84979 10.1778,5.29246 4.7496,2.30697 8.5493,4.20683 3.7997,1.76415 5.4282,2.30697 1.357,0.67852 2.5784,1.22133 0.9499,0.67852 1.7641,1.22134 0.9499,0.54282 0.9499,1.08563 0,0.54282 -0.4071,1.49275 -0.2714,0.94993 -0.9499,1.76415 -0.6785,0.81423 -1.4927,1.49275 -0.6786,0.54281 -1.3571,0.54281 -0.2714,0 -0.6785,0 -0.2714,-0.1357 -0.4071,-0.1357 -0.2714,-0.13571 -1.8999,-0.81423 -1.4927,-0.81422 -3.2569,-1.76415 -1.6284,-0.94993 -3.2569,-1.62845 -1.4927,-0.81422 -1.8998,-0.94993 -1.4928,-0.54281 -4.8854,-2.03556 -3.2569,-1.62845 -7.4637,-3.52831 -4.0711,-2.03556 -8.6851,-4.34253 -4.6139,-2.30697 -8.8207,-4.34253 -4.0711,-2.03556 -7.4638,-3.5283 -3.2569,-1.49275 -4.7496,-1.76416 v 41.52546 h -6.1067 z m 8.9565,23.34111 q -0.2714,2.44267 -0.5428,5.69957 -0.2714,3.2569 -0.6786,6.7852 -0.2714,3.52831 -0.5428,7.05662 -0.1357,3.5283 -0.1357,6.51379 0.5428,-0.67852 3.7997,-2.30697 3.2569,-1.62845 7.8709,-4.07112 4.6139,-2.44267 9.9064,-5.42816 5.4281,-2.98549 10.1778,-6.10669 4.7496,-3.2569 8.2779,-6.37809 3.664,-3.12119 4.614,-5.69957 1.0856,-2.71408 -1.0857,-4.88535 -2.0355,-2.17127 -8.685,-3.3926 -3.664,-0.27141 -8.4137,0.40711 -4.6139,0.67852 -9.3636,2.30697 -4.6139,1.62845 -8.685,4.07112 -4.0711,2.30697 -6.5138,5.42817 z m 62.6953,-14.52034 q 0,-1.08564 0.6785,-1.49275 0.8142,-0.54281 1.7641,-0.54281 1.0857,-0.13571 2.1713,0 1.2213,0.1357 2.0356,0.1357 0.6785,1.62845 1.0856,6.5138 0.5428,4.74964 0.9499,11.67055 0.5429,6.7852 0.6786,15.06315 0.2714,8.27795 0.4071,16.82731 0.2714,8.41366 0.2714,16.5559 0.1357,8.14225 0.1357,14.92745 0.1357,6.64951 0.1357,11.39915 v 6.10668 q -0.1357,2.71409 -1.2214,3.2569 -0.9499,0.40711 -4.6139,-0.67852 -0.4071,-0.1357 -0.6785,-4.07112 -0.2714,-3.93542 -0.4071,-10.31351 -0.1357,-6.5138 -0.2714,-14.79175 -0.1357,-8.41365 -0.2714,-17.23442 -0.1357,-8.82077 -0.4072,-17.64153 -0.1357,-8.82077 -0.4071,-16.01309 -0.2714,-7.32802 -0.8142,-12.48478 -0.4071,-5.29246 -1.2213,-7.19231 z m 36.0973,98.65688 q 0,-2.71408 3.3926,-6.92091 3.3926,-4.34253 8.4136,-9.7707 5.0211,-5.42816 10.9921,-11.80625 5.9709,-6.3781 10.992,-13.1633 5.021,-6.92091 8.4136,-13.97752 3.3926,-7.19232 3.3926,-14.11323 0,-3.66401 -2.0355,-6.24239 -2.0356,-2.71408 -5.2925,-4.61394 -3.1212,-1.89985 -7.1923,-2.98549 -3.9354,-1.08563 -8.0065,-1.62845 -4.0712,-0.67852 -7.7352,-0.81422 -3.664,-0.27141 -6.2424,-0.27141 -0.6785,0 -1.7641,0.1357 -1.0856,0 -2.307,0.13571 -1.0856,0 -2.0355,0.1357 -0.95,0.13571 -1.0857,0.13571 l -1.7641,1.62845 q 0,0.2714 -0.1357,2.30697 0,2.03556 -0.1357,4.61394 0,2.57837 0,5.29246 v 4.20682 q 0,13.70612 0.9499,27.27653 1.0856,13.4347 1.0856,27.14082 0,0.81422 0,1.76415 0.1357,0.94993 0,1.89986 -0.1357,0.81422 -0.8142,1.49274 -0.5428,0.54282 -1.7642,0.54282 -0.8142,0 -1.6284,-0.40711 -0.8142,-0.40712 -0.9499,-1.35704 l -5.2925,-71.38036 q -0.4071,0.27141 -1.4927,0.81422 -0.95,0.40712 -2.0356,0.94993 -1.0856,0.54282 -2.1713,1.22134 -0.9499,0.54282 -1.2213,0.54282 -0.1357,0 -0.5428,0.1357 -0.2714,0 -0.4071,0 -0.6786,0 -1.6285,-0.27141 -0.8142,-0.40711 -0.8142,-1.62845 0,-2.03556 0.8142,-3.2569 0.9499,-1.35704 2.307,-2.44267 1.4927,-1.08563 3.1212,-2.17127 1.6284,-1.08563 2.9855,-2.71408 1.4927,-1.76415 2.3069,-4.34253 0.95,-2.57838 0.95,-6.5138 2.7141,0 3.3926,0.94993 0.6785,0.94993 0.8142,2.30697 0.1357,1.22134 0.2714,2.57838 0.2714,1.22134 2.0356,1.76415 3.7997,-0.1357 9.0921,0 5.4282,0.13571 11.2635,0.94993 5.971,0.67852 11.6705,2.17127 5.8353,1.49274 10.3135,4.20683 4.614,2.71408 7.1924,6.9209 2.714,4.07113 2.4426,10.04211 -1.7641,10.44921 -6.7852,20.0842 -4.8853,9.635 -11.6705,18.59147 -6.6495,8.82076 -14.5204,16.96301 -7.7351,8.14224 -15.4702,15.60597 -0.1357,0 -0.4071,0 -0.2714,0.1357 -0.4072,0.1357 -1.2213,0 -2.0355,-0.81422 -0.8142,-0.81422 -0.8142,-2.03556 z m 58.7598,-0.81423 q 0.4071,-1.89985 0.6786,-4.88534 0.2714,-2.98549 0.6785,-7.87084 0.5428,-4.88535 1.0856,-12.07767 0.6785,-7.19231 1.7642,-17.50583 1.0856,-10.31351 2.4426,-24.15533 1.4928,-13.97752 3.7997,-32.43328 0.1358,-1.35704 1.2214,-1.62844 1.2213,-0.27141 2.1713,-0.27141 1.4927,0 2.4426,1.08563 0.95,1.08563 1.6285,2.44267 0.8142,1.35704 1.4927,2.84979 0.6785,1.49275 1.4928,2.44267 1.357,3.1212 2.714,7.19232 1.4928,4.07112 3.1212,8.68506 1.6285,4.61394 3.2569,9.36359 1.6285,4.61394 3.2569,9.09217 1.6285,4.34253 2.9855,8.14225 1.4928,3.66401 2.7141,6.10668 1.4928,-0.1357 4.2068,-1.08563 2.7141,-1.08563 5.8353,-2.03556 3.1212,-0.94993 6.1067,-1.49275 2.9855,-0.54281 5.0211,0 2.0355,0.40711 2.5783,2.30697 0.6785,1.89986 -0.9499,5.97098 -0.9499,0 -1.7642,-0.27141 -0.8142,-0.40711 -1.6284,-0.67852 -0.8142,-0.40711 -1.7642,-0.67852 -0.8142,-0.40711 -1.8998,-0.40711 -0.6785,0 -3.1212,0.81423 -2.307,0.67852 -5.0211,1.62844 -2.714,0.81423 -4.7496,1.76416 -2.0356,0.81422 -2.0356,1.22133 l 9.3636,36.77582 -3.5283,5.15675 q -2.307,-3.93542 -3.9354,-8.95647 -1.4928,-5.15675 -2.8498,-10.17781 -1.357,-5.15675 -2.8498,-9.49928 -1.357,-4.47824 -3.5283,-7.46373 -2.8498,1.35704 -6.7852,2.30697 -3.9354,0.94993 -7.5994,2.44267 -3.664,1.35705 -6.3781,3.79972 -2.5784,2.30697 -3.1212,6.37809 -0.2714,1.62845 -0.5428,4.34253 -0.1357,2.71409 -0.4071,5.15676 -0.4071,2.98549 -0.6786,6.10668 z m 15.606,-79.92971 -0.2714,2.30697 q -0.1357,2.30697 -0.4071,5.42816 -0.2714,2.98549 -0.6785,6.24239 -0.2714,3.1212 -0.4071,5.29246 -0.6786,7.59943 -1.4928,15.06316 -0.6785,7.32802 -0.6785,15.06315 2.5784,0 5.4282,-0.67852 2.9854,-0.67852 5.6995,-1.76415 2.7141,-1.22134 4.8854,-2.84979 2.3069,-1.76415 3.5283,-3.93542 -1.0857,-4.74964 -2.4427,-9.77069 -1.2213,-5.15676 -2.7141,-10.31351 -1.4927,-5.29246 -3.2569,-10.31352 -1.7641,-5.02105 -3.7997,-9.77069 -0.1357,-0.13571 -0.9499,-0.54282 -0.8142,-0.54281 -2.4427,0.54282 z m 61.2026,80.06542 q 0,-4.88535 1.4927,-9.49929 1.4928,-4.74964 3.2569,-9.49929 1.7642,-4.74964 2.9855,-9.36358 1.357,-4.74964 0.9499,-9.9064 -3.9354,-4.34253 -8.685,-9.36358 -4.7497,-5.15676 -9.3636,-10.58492 -4.614,-5.56387 -8.5494,-11.39915 -3.9354,-5.97098 -6.3781,-12.07766 -0.1357,-0.1357 -0.1357,-0.40711 v -0.54282 q 0,-1.62845 1.2214,-2.17126 1.2213,-0.54282 2.5783,-0.54282 3.5283,4.20683 7.4638,9.63499 4.0711,5.29246 8.2779,10.58492 4.2068,5.29246 8.5494,10.17781 4.3425,4.74964 8.5493,7.87084 h 1.7642 q 0.5428,-0.94993 1.8998,-4.61394 1.3571,-3.79972 3.2569,-8.95647 2.0356,-5.15676 4.2069,-11.39915 2.1712,-6.24239 4.0711,-12.21337 2.0356,-6.10668 3.3926,-11.39914 1.4927,-5.29246 2.1713,-8.68507 0.1357,-0.2714 0.8142,-0.2714 2.0355,0 3.2569,1.89985 1.357,1.76416 1.0856,3.66401 -3.664,12.89189 -6.1067,21.16984 -2.3069,8.27795 -3.9354,13.57041 -1.4927,5.15676 -2.5784,8.41366 -1.0856,3.12119 -2.3069,5.97098 -1.0857,2.84979 -2.307,6.37809 -1.2213,3.3926 -3.2569,9.22788 -2.0356,5.69957 -5.0211,14.79175 -2.9854,8.95647 -7.4637,22.93399 -0.1357,0 -0.8142,0 -0.5428,0.1357 -0.8142,0.1357 -3.5283,0 -3.5283,-3.5283 z"
     id="text77"
     style="font-size:138.961px;font-family:ShadowsIntoLight;fill:#2f3030;stroke:#2f3030;stroke-width:0.95927;stroke-miterlimit:10"
     transform="matrix(0.99332616,0.11184891,-0.11175794,0.9941347,0,0)"
     aria-label="FRIDAY" /><g
     id="g80"
     style="stroke-width:0.339866"
     transform="matrix(2.9411419,0,0,2.943536,-142.55552,-467.20753)">
					<polygon
   style="fill:#abd266;stroke-width:0.339866"
   points="481.848,364.808 481.297,452.1 568.589,452.651 "
   id="polygon78" />
					<polygon
   style="fill:#a0cc5a;stroke-width:0.339866"
   points="685.891,410.224 686.909,249.069 482.587,247.779 481.848,364.808 568.589,452.651 642.452,453.118 "
   id="polygon79" />
					<polygon
   style="fill:#8eb23e;stroke-width:0.339866"
   points="642.725,409.951 642.452,453.118 685.891,410.224 "
   id="polygon80" />
				</g><path
     d="m 1599.7026,306.21384 q 0.2339,-0.58475 0.9356,-1.28646 0.7017,-0.81865 1.5204,-1.6373 0.9356,-0.81865 1.7542,-1.52035 0.9356,-0.81865 1.6373,-1.1695 0.9356,0.7017 1.5204,1.75425 0.7017,1.05255 1.6373,3.62546 0.9356,2.45595 2.2221,6.78311 1.4034,4.32715 3.6254,11.57807 2.2221,7.25091 5.4967,17.89338 3.3915,10.52552 8.1865,25.37819 0.4678,-0.35085 1.6373,-3.74241 1.2864,-3.39155 3.0407,-8.42041 1.7542,-5.14581 3.7424,-11.34417 2.1051,-6.31531 4.0933,-12.63062 1.9881,-6.43226 3.7424,-12.16282 1.8712,-5.84751 3.1576,-10.05772 0.3509,-1.6373 0.4678,-3.15765 0.2339,-1.63731 0.5848,-2.92376 0.3508,-1.28645 1.1695,-2.1051 0.9356,-0.9356 3.0407,-0.9356 1.6373,-0.70171 3.0407,1.6373 1.4034,2.339 2.8068,6.78311 1.5203,4.44411 3.1576,10.40857 1.6373,5.84751 3.6255,12.27977 2.1051,6.43226 4.5611,12.86452 2.5729,6.31531 5.9644,11.57807 l 16.49,-67.36331 q 0.2339,-0.93561 0.8186,-1.52036 0.7017,-0.58475 1.5204,-0.58475 0.9356,0 1.8712,0.81865 0.9356,0.81866 1.7542,2.68986 l -16.373,65.95991 q 0,1.52035 -0.3508,3.62546 -0.3509,1.98815 -0.9356,3.9763 -0.5848,1.87121 -1.4034,3.27461 -0.7017,1.4034 -1.7543,1.75425 -0.9356,0.2339 -2.1051,-0.81865 -1.1695,-1.1695 -2.4559,-4.44411 -6.5493,-11.57807 -11.6951,-24.09174 -5.1458,-12.63062 -9.356,-26.66464 l -14.9696,49.35298 q -0.7017,5.14581 -2.1051,8.30346 -1.2865,3.04071 -2.9238,4.56106 -1.5203,1.52036 -3.1576,1.87121 -1.6373,0.35085 -2.9238,0.11695 -1.2864,-0.11695 -1.9881,-0.70171 -0.5848,-0.4678 -0.3509,-0.7017 -2.6898,-3.62545 -4.678,-8.65431 -1.8712,-5.14581 -3.5085,-11.11027 -1.5203,-6.08141 -3.0407,-12.63062 -1.5203,-6.66616 -3.2746,-13.09842 -1.6373,-6.54921 -3.9763,-12.51368 -2.339,-5.96446 -5.4967,-10.87636 z m 111.6875,65.84296 q 0,-9.47297 0.1169,-18.59508 0.117,-9.12212 -0.1169,-18.12728 -0.2339,-9.00517 -0.9356,-18.01033 -0.7017,-9.12212 -2.1051,-18.47814 0,-0.2339 -0.3509,-0.9356 -0.2339,-0.7017 -0.4678,-1.4034 -0.2339,-0.81865 -0.4678,-1.4034 -0.2339,-0.58475 -0.2339,-0.81865 0,-0.58475 0.3509,-1.40341 0.4678,-0.81865 1.0525,-1.52035 0.7017,-0.81865 1.5204,-1.28645 0.8186,-0.4678 1.6373,-0.35085 1.4034,0.35085 2.222,1.75425 0.9356,1.4034 1.4034,3.15766 0.4678,1.6373 0.5848,3.2746 0.2339,1.63731 0.2339,2.33901 3.5085,-1.87121 7.8356,-3.97631 4.4442,-2.22205 9.0052,-3.97631 4.678,-1.8712 9.2391,-3.0407 4.678,-1.28645 8.7712,-1.28645 0,1.05255 -0.4678,1.8712 -0.3508,0.81865 -1.5203,1.4034 l -32.863,16.48998 v 4.56106 q 0.1169,1.28645 0.2339,4.4441 0.2339,3.15766 0.4678,6.78312 0.2339,3.5085 0.3508,6.78311 0.2339,3.15765 0.3509,4.32715 l 24.0917,-13.44927 0.5848,-0.7017 q 0.5847,-0.7017 1.5203,-1.28645 0.9356,-0.58475 1.8712,-0.58475 1.0526,-0.11695 1.9882,1.1695 0,2.1051 -2.1051,4.09326 -2.1051,1.98815 -5.2628,3.9763 -3.1576,1.98816 -6.9,3.85936 -3.6255,1.8712 -6.7832,3.62546 -3.1576,1.75425 -5.2627,3.5085 -2.1051,1.75425 -2.1051,3.27461 v 22.57139 q 1.5203,0.58475 4.2102,-0.4678 2.8068,-1.16951 6.1984,-3.15766 3.3915,-1.98815 7.017,-4.56106 3.6254,-2.68985 7.017,-5.02886 3.5085,-2.339 6.4322,-4.2102 3.0407,-1.87121 5.0289,-2.22206 1.1695,0 2.1051,0.4678 0.9356,0.4678 0.9356,1.87121 0,1.4034 -1.6373,2.22205 -4.0933,2.45595 -9.473,6.19836 -5.2627,3.62546 -10.7594,7.36786 -5.4966,3.62546 -10.8764,6.66616 -5.2627,2.92376 -9.1221,3.85936 -1.5203,0 -2.4559,-0.2339 -0.9356,-0.2339 -2.1051,-1.4034 z m 67.2463,0.7017 q 0,-2.339 2.9238,-5.96446 2.9237,-3.74241 7.2509,-8.42041 4.3272,-4.67801 9.473,-10.17467 5.1458,-5.49666 9.4729,-11.34417 4.3272,-5.96446 7.2509,-12.04587 2.9238,-6.19836 2.9238,-12.16282 0,-3.15766 -1.7543,-5.37971 -1.7542,-2.33901 -4.561,-3.97631 -2.6899,-1.6373 -6.1984,-2.5729 -3.3915,-0.9356 -6.9,-1.40341 -3.5085,-0.58475 -6.6662,-0.7017 -3.1577,-0.2339 -5.3797,-0.2339 -0.5848,0 -1.5204,0.11695 -0.9356,0 -1.9881,0.11695 -0.9356,0 -1.7543,0.11695 -0.8186,0.11695 -0.9356,0.11695 l -1.5203,1.40341 q 0,0.2339 -0.117,1.98815 0,1.75425 -0.1169,3.97631 0,2.22205 0,4.56105 v 3.62546 q 0,11.81197 0.8186,23.50699 0.9356,11.57807 0.9356,23.39004 0,0.7017 0,1.52035 0.117,0.81865 0,1.63731 -0.1169,0.7017 -0.7017,1.28645 -0.4678,0.4678 -1.5203,0.4678 -0.7017,0 -1.4034,-0.35085 -0.7017,-0.35085 -0.8187,-1.1695 l -4.561,-61.51581 q -0.3509,0.2339 -1.2865,0.7017 -0.8186,0.35085 -1.7542,0.81865 -0.9356,0.4678 -1.8712,1.05256 -0.8187,0.4678 -1.0526,0.4678 -0.1169,0 -0.4678,0.11695 -0.2339,0 -0.3508,0 -0.5848,0 -1.4034,-0.2339 -0.7017,-0.35085 -0.7017,-1.40341 0,-1.75425 0.7017,-2.8068 0.8186,-1.1695 1.9881,-2.1051 1.2865,-0.93561 2.6899,-1.87121 1.4034,-0.9356 2.5729,-2.339 1.2864,-1.52035 1.9881,-3.74241 0.8187,-2.22205 0.8187,-5.61361 2.339,0 2.9237,0.81865 0.5848,0.81866 0.7017,1.98816 0.117,1.05255 0.2339,2.22205 0.2339,1.05255 1.7543,1.52035 3.2746,-0.11695 7.8356,0 4.6781,0.11695 9.7069,0.81865 5.1458,0.58476 10.0577,1.87121 5.0289,1.28645 8.8882,3.62545 3.9764,2.33901 6.1984,5.96446 2.339,3.50851 2.1051,8.65432 -1.5203,9.00516 -5.8475,17.30863 -4.2102,8.30346 -10.0577,16.02218 -5.7306,7.60176 -12.5137,14.61877 -6.6662,7.01701 -13.3323,13.44927 -0.117,0 -0.3509,0 -0.2339,0.11695 -0.3508,0.11695 -1.0526,0 -1.7543,-0.7017 -0.7017,-0.7017 -0.7017,-1.75425 z m 51.2242,-69.58537 v -5.61361 q 1.4034,0 3.1577,0.9356 1.7542,0.9356 3.3915,2.22206 1.6373,1.28645 3.0407,2.92375 1.4034,1.52035 2.2221,2.57291 l 34.5003,46.42923 q 0.3509,-1.98816 0.5848,-7.36787 0.3508,-5.37971 0.2339,-12.16282 0,-6.90006 -0.3509,-14.38487 -0.2339,-7.48481 -0.8186,-13.91708 -0.4678,-6.54921 -1.1695,-10.99331 -0.5848,-4.56106 -1.6374,-5.49666 0,-1.75426 0.5848,-3.27461 0.7017,-1.52035 2.5729,-1.52035 1.8712,0 3.0407,2.1051 1.1695,2.10511 1.7543,4.79496 0.5847,2.5729 0.8186,5.14581 0.3509,2.45595 0.3509,3.2746 0.1169,2.10511 0.2339,6.43226 0.1169,4.21021 0.2339,9.70687 0.1169,5.37971 0.2339,11.46112 0.2339,6.08141 0.3508,11.46112 0.2339,5.37971 0.2339,9.82382 0.117,4.32715 0.2339,6.43226 0,1.52035 0.4678,2.8068 0.5848,1.28646 1.0526,2.57291 0.5847,1.28645 1.0525,2.5729 0.4678,1.28645 0.4678,2.68986 0,2.339 -1.7542,3.5085 -1.6373,1.05255 -3.7424,1.05255 -1.1695,0 -2.1051,-0.2339 -0.8187,-0.35085 -1.4034,-1.05255 -0.4678,-0.81865 -0.5848,-1.98815 0,-1.1695 0.4678,-3.04071 -1.2864,-1.52035 -3.9763,-4.91191 -2.6899,-3.5085 -6.0814,-7.71871 -3.2746,-4.32716 -7.017,-9.00516 -3.7424,-4.67801 -7.134,-8.88822 -3.3915,-4.32716 -6.0814,-7.71871 l -3.9763,-5.02886 q -0.2339,-0.35085 -0.8187,-0.9356 l -2.8068,-2.80681 q -0.5847,-0.58475 -0.9356,-0.81865 -0.4678,6.78311 0.117,13.68318 0.5847,6.78311 1.5203,13.56622 1.0526,6.78311 1.9882,13.56622 1.0525,6.66616 1.0525,13.44927 0,1.87121 -0.3508,3.39156 -0.3509,1.4034 -2.8068,2.22205 -2.339,-0.81865 -3.1577,-3.0407 -0.8186,-2.33901 0.117,-4.44411 z m 69.5854,68.88367 q 0,-9.47297 0.1169,-18.59508 0.117,-9.12212 -0.1169,-18.12728 -0.2339,-9.00517 -0.9356,-18.01033 -0.7017,-9.12212 -2.1051,-18.47814 0,-0.2339 -0.3509,-0.9356 -0.2339,-0.7017 -0.4678,-1.4034 -0.2339,-0.81865 -0.4678,-1.4034 -0.2339,-0.58475 -0.2339,-0.81865 0,-0.58475 0.3509,-1.40341 0.4678,-0.81865 1.0525,-1.52035 0.7017,-0.81865 1.5204,-1.28645 0.8186,-0.4678 1.6373,-0.35085 1.4034,0.35085 2.222,1.75425 0.9356,1.4034 1.4034,3.15766 0.4678,1.6373 0.5848,3.2746 0.2339,1.63731 0.2339,2.33901 3.5085,-1.87121 7.8357,-3.97631 4.4441,-2.22205 9.0051,-3.97631 4.678,-1.8712 9.2391,-3.0407 4.678,-1.28645 8.7713,-1.28645 0,1.05255 -0.4678,1.8712 -0.3509,0.81865 -1.5204,1.4034 l -32.863,16.48998 v 4.56106 q 0.1169,1.28645 0.2339,4.4441 0.2339,3.15766 0.4678,6.78312 0.2339,3.5085 0.3508,6.78311 0.2339,3.15765 0.3509,4.32715 l 24.0917,-13.44927 0.5848,-0.7017 q 0.5847,-0.7017 1.5203,-1.28645 0.9356,-0.58475 1.8712,-0.58475 1.0526,-0.11695 1.9882,1.1695 0,2.1051 -2.1051,4.09326 -2.1051,1.98815 -5.2628,3.9763 -3.1576,1.98816 -6.9,3.85936 -3.6255,1.8712 -6.7831,3.62546 -3.1577,1.75425 -5.2628,3.5085 -2.1051,1.75425 -2.1051,3.27461 v 22.57139 q 1.5204,0.58475 4.2102,-0.4678 2.8068,-1.16951 6.1984,-3.15766 3.3915,-1.98815 7.017,-4.56106 3.6254,-2.68985 7.017,-5.02886 3.5085,-2.339 6.4323,-4.2102 3.0407,-1.87121 5.0288,-2.22206 1.1695,0 2.1051,0.4678 0.9356,0.4678 0.9356,1.87121 0,1.4034 -1.6373,2.22205 -4.0932,2.45595 -9.473,6.19836 -5.2627,3.62546 -10.7594,7.36786 -5.4966,3.62546 -10.8763,6.66616 -5.2628,2.92376 -9.1222,3.85936 -1.5203,0 -2.4559,-0.2339 -0.9356,-0.2339 -2.1051,-1.4034 z m 62.5683,-2.45596 q 0.2339,-1.1695 2.9238,-2.22205 2.6899,-1.05255 6.6662,-2.22205 3.9763,-1.16951 8.7712,-2.57291 4.795,-1.4034 9.2391,-3.15765 4.4441,-1.75426 8.0696,-3.97631 3.7424,-2.22205 5.4966,-5.14581 0,-1.75425 -2.339,-2.68985 -2.222,-0.9356 -6.0814,-1.52036 -3.7424,-0.7017 -8.6543,-1.05255 -4.795,-0.4678 -9.9408,-1.1695 -5.0288,-0.81865 -9.9407,-1.8712 -4.795,-1.1695 -8.6544,-3.15766 -3.7424,-2.1051 -6.0814,-5.26276 -2.222,-3.15765 -2.222,-7.71871 0,-4.56106 1.9881,-9.00517 1.9882,-4.56105 5.2628,-8.77126 3.3915,-4.21021 7.6018,-7.83566 4.3271,-3.62546 9.0051,-6.31531 4.678,-2.68986 9.2391,-4.21021 4.678,-1.52035 8.6543,-1.52035 1.0525,0 2.2221,0 1.1695,-0.11695 1.9881,0.11695 0.9356,0.11695 1.5204,0.81865 0.5847,0.7017 0.5847,2.1051 0,3.39156 -2.222,4.91191 -2.2221,1.4034 -5.3798,1.4034 l -4.561,-3.2746 q -2.6899,0 -5.9645,1.52035 -3.1576,1.52035 -6.5492,4.09326 -3.2746,2.45595 -6.4322,5.73056 -3.1577,3.2746 -5.6137,6.78311 -2.339,3.5085 -3.8593,7.01701 -1.4034,3.5085 -1.4034,6.31531 0,4.09326 2.222,6.66616 2.339,2.45596 6.0814,3.97631 3.8594,1.4034 8.7713,2.1051 4.9119,0.7017 9.9408,1.1695 5.0288,0.4678 9.9407,0.9356 4.912,0.35086 8.6544,1.40341 3.8593,1.05255 6.0814,2.8068 2.339,1.75426 2.339,4.79496 1.2864,1.8712 -0.5848,4.32716 -1.7542,2.339 -5.6136,4.79496 -3.7424,2.339 -9.0051,4.79495 -5.1459,2.33901 -10.6425,4.32716 -5.4967,1.8712 -10.6425,3.27461 -5.1458,1.28645 -8.7712,1.6373 -1.0526,0 -1.8713,-0.7017 -0.7017,-0.7017 -0.2339,-2.45596 z m 69.4685,3.15766 q 0,-2.339 2.9237,-5.96446 2.9238,-3.74241 7.2509,-8.42041 4.3272,-4.67801 9.473,-10.17467 5.1458,-5.49666 9.473,-11.34417 4.3271,-5.96446 7.2509,-12.04587 2.9237,-6.19836 2.9237,-12.16282 0,-3.15766 -1.7542,-5.37971 -1.7543,-2.33901 -4.5611,-3.97631 -2.6898,-1.6373 -6.1983,-2.5729 -3.3916,-0.9356 -6.9001,-1.40341 -3.5085,-0.58475 -6.6662,-0.7017 -3.1576,-0.2339 -5.3797,-0.2339 -0.5847,0 -1.5203,0.11695 -0.9356,0 -1.9882,0.11695 -0.9356,0 -1.7542,0.11695 -0.8187,0.11695 -0.9356,0.11695 l -1.5204,1.40341 q 0,0.2339 -0.1169,1.98815 0,1.75425 -0.117,3.97631 0,2.22205 0,4.56105 v 3.62546 q 0,11.81197 0.8187,23.50699 0.9356,11.57807 0.9356,23.39004 0,0.7017 0,1.52035 0.1169,0.81865 0,1.63731 -0.117,0.7017 -0.7017,1.28645 -0.4678,0.4678 -1.5204,0.4678 -0.7017,0 -1.4034,-0.35085 -0.7017,-0.35085 -0.8186,-1.1695 l -4.5611,-61.51581 q -0.3509,0.2339 -1.2865,0.7017 -0.8186,0.35085 -1.7542,0.81865 -0.9356,0.4678 -1.8712,1.05256 -0.8187,0.4678 -1.0526,0.4678 -0.1169,0 -0.4678,0.11695 -0.2339,0 -0.3508,0 -0.5848,0 -1.4034,-0.2339 -0.7017,-0.35085 -0.7017,-1.40341 0,-1.75425 0.7017,-2.8068 0.8186,-1.1695 1.9881,-2.1051 1.2865,-0.93561 2.6899,-1.87121 1.4034,-0.9356 2.5729,-2.339 1.2864,-1.52035 1.9881,-3.74241 0.8187,-2.22205 0.8187,-5.61361 2.339,0 2.9238,0.81865 0.5847,0.81866 0.7017,1.98816 0.1169,1.05255 0.2339,2.22205 0.2339,1.05255 1.7542,1.52035 3.2746,-0.11695 7.8357,0 4.678,0.11695 9.7068,0.81865 5.1458,0.58476 10.0578,1.87121 5.0288,1.28645 8.8882,3.62545 3.9763,2.33901 6.1983,5.96446 2.339,3.50851 2.1051,8.65432 -1.5203,9.00516 -5.8475,17.30863 -4.2102,8.30346 -10.0577,16.02218 -5.7306,7.60176 -12.5137,14.61877 -6.6661,7.01701 -13.3323,13.44927 -0.1169,0 -0.3508,0 -0.2339,0.11695 -0.3509,0.11695 -1.0525,0 -1.7542,-0.7017 -0.7017,-0.7017 -0.7017,-1.75425 z m 50.6394,-0.7017 q 0.3508,-1.6373 0.5847,-4.21021 0.2339,-2.5729 0.5848,-6.78311 0.4678,-4.21021 0.9356,-10.40857 0.5847,-6.19836 1.5203,-15.08657 0.9356,-8.88822 2.1051,-20.81714 1.2865,-12.04587 3.2747,-27.9511 0.1169,-1.1695 1.0525,-1.4034 1.0526,-0.2339 1.8712,-0.2339 1.2865,0 2.1051,0.9356 0.8187,0.9356 1.4034,2.10511 0.7017,1.1695 1.2865,2.45595 0.5847,1.28645 1.2864,2.1051 1.1695,2.68986 2.339,6.19836 1.2865,3.50851 2.6899,7.48482 1.4034,3.9763 2.8068,8.06956 1.4034,3.97631 2.8068,7.83566 1.4034,3.74241 2.5729,7.01702 1.2864,3.15765 2.339,5.26275 1.2864,-0.11695 3.6255,-0.9356 2.339,-0.9356 5.0288,-1.75425 2.6899,-0.81865 5.2628,-1.28645 2.5729,-0.4678 4.3271,0 1.7543,0.35085 2.2221,1.98815 0.5847,1.6373 -0.8187,5.14581 -0.8186,0 -1.5203,-0.2339 -0.7017,-0.35085 -1.4034,-0.58475 -0.7017,-0.35085 -1.5204,-0.58475 -0.7017,-0.35085 -1.6373,-0.35085 -0.5847,0 -2.6898,0.7017 -1.9882,0.58475 -4.3272,1.4034 -2.339,0.7017 -4.0933,1.52035 -1.7542,0.7017 -1.7542,1.05256 l 8.0696,31.6935 -3.0407,4.44411 q -1.9882,-3.39156 -3.3916,-7.71872 -1.2865,-4.4441 -2.456,-8.77126 -1.1695,-4.44411 -2.4559,-8.18652 -1.1695,-3.85935 -3.0407,-6.43226 -2.456,1.16951 -5.8475,1.98816 -3.3916,0.81865 -6.5492,2.1051 -3.1577,1.1695 -5.4967,3.27461 -2.222,1.98815 -2.6899,5.49666 -0.2339,1.4034 -0.4678,3.7424 -0.1169,2.33901 -0.3508,4.44411 -0.3509,2.5729 -0.5848,5.26276 z m 13.4493,-68.88367 -0.2339,1.98815 q -0.117,1.98816 -0.3509,4.67801 -0.2339,2.57291 -0.5847,5.37971 -0.2339,2.68986 -0.3509,4.56106 -0.5847,6.54921 -1.2864,12.98147 -0.5848,6.31531 -0.5848,12.98147 2.2221,0 4.678,-0.58475 2.5729,-0.58475 4.9119,-1.52035 2.339,-1.05255 4.2102,-2.45595 1.9882,-1.52036 3.0407,-3.39156 -0.9356,-4.09326 -2.1051,-8.42041 -1.0525,-4.44411 -2.339,-8.88822 -1.2864,-4.56106 -2.8068,-8.88821 -1.5203,-4.32716 -3.2746,-8.42042 -0.1169,-0.11695 -0.8186,-0.4678 -0.7017,-0.4678 -2.1051,0.4678 z m 52.7445,69.00062 q 0,-4.21021 1.2865,-8.18652 1.2864,-4.09325 2.8068,-8.18651 1.5203,-4.09326 2.5729,-8.06956 1.1695,-4.09326 0.8186,-8.53737 -3.3915,-3.7424 -7.4848,-8.06956 -4.0932,-4.44411 -8.0696,-9.12212 -3.9763,-4.79495 -7.3678,-9.82381 -3.3916,-5.14581 -5.4967,-10.40857 -0.1169,-0.11695 -0.1169,-0.35085 v -0.4678 q 0,-1.4034 1.0525,-1.87121 1.0526,-0.4678 2.2221,-0.4678 3.0407,3.62546 6.4322,8.30347 3.5085,4.56106 7.134,9.12211 3.6255,4.56106 7.3679,8.77127 3.7424,4.09326 7.3678,6.78311 h 1.5204 q 0.4678,-0.81865 1.6373,-3.97631 1.1695,-3.2746 2.8068,-7.71871 1.7542,-4.44411 3.6254,-9.82382 1.8712,-5.37971 3.5086,-10.52551 1.7542,-5.26276 2.9237,-9.82382 1.2865,-4.56106 1.8712,-7.48481 0.117,-0.2339 0.7017,-0.2339 1.7543,0 2.8068,1.6373 1.1695,1.52035 0.9356,3.15765 -3.1576,11.11027 -5.2627,18.24423 -1.9882,7.13397 -3.3916,11.69502 -1.2865,4.44411 -2.2221,7.25092 -0.9356,2.68985 -1.9881,5.14581 -0.9356,2.45595 -1.9882,5.49665 -1.0525,2.92376 -2.8068,7.95262 -1.7542,4.91191 -4.3271,12.74757 -2.5729,7.71871 -6.4323,19.76458 -0.1169,0 -0.7017,0 -0.4678,0.11695 -0.7017,0.11695 -3.0407,0 -3.0407,-3.0407 z"
     id="text80"
     style="font-size:119.757px;font-family:ShadowsIntoLight;fill:#2f3030;stroke:#2f3030;stroke-width:0.8267;stroke-miterlimit:10"
     transform="matrix(0.85695268,0.08776172,-0.11808038,1.1548328,0,0)"
     aria-label="WEDNESDAY" /><g
     id="g83"
     style="stroke-width:0.339866"
     transform="matrix(2.9411419,0,0,2.943536,-142.55552,-467.20753)">
					<polygon
   style="fill:#f26342;stroke-width:0.339866"
   points="283.467,380.602 291.725,467.504 378.628,459.245 "
   id="polygon81" />
					<polygon
   style="fill:#f26342;stroke-width:0.339866"
   points="491.05,405.199 475.803,244.764 272.394,264.095 283.467,380.602 378.628,459.245 452.161,452.257 "
   id="polygon82" />
					<polygon
   style="fill:#e65239;stroke-width:0.339866"
   points="448.077,409.283 452.161,452.257 491.05,405.199 "
   id="polygon83" />
				</g><path
     d="m 773.81095,540.6485 q -4.34282,0 -8.82134,0.81427 -4.34282,0.81428 -8.68563,1.89998 -4.34281,0.94999 -8.68562,1.76427 -4.34282,0.81428 -8.82134,0.81428 -1.35713,0 -2.84997,-0.27143 -1.35713,-0.40714 -1.35713,-2.44283 0,-1.35713 1.0857,-2.71426 1.22142,-1.49284 2.57855,-1.62855 l 36.37105,-5.29281 q 0.13572,-0.54285 0.40714,-1.62855 0.27143,-1.22142 0.67857,-2.30712 0.54285,-1.22141 1.35712,-2.03569 0.81428,-0.94999 1.89999,-0.94999 1.62855,0 2.57854,0.81427 0.94999,0.81428 1.62855,1.89999 0.67857,0.94999 1.22142,1.76426 0.54285,0.81428 1.35713,0.81428 h 1.0857 q 1.35713,-0.13571 4.34282,-0.40714 2.98568,-0.40714 6.78564,-0.81428 3.93567,-0.40713 8.27849,-0.81427 4.34281,-0.54285 8.27848,-0.81428 3.93568,-0.40714 6.92136,-0.67856 2.98568,-0.40714 4.34281,-0.67857 0.40714,0 1.89998,0 1.62856,-0.13571 2.30712,-0.13571 0,2.57854 -2.84997,4.34281 -2.71426,1.62855 -7.05707,2.84997 -4.2071,1.0857 -9.4999,1.76427 -5.15709,0.54285 -10.17847,0.94999 -4.88566,0.40714 -9.09276,0.67856 -4.07139,0.27143 -6.24279,0.67857 -0.54286,9.63561 0.40713,20.08551 1.08571,10.44989 2.57855,21.03549 1.62855,10.58561 2.98568,21.0355 1.35713,10.44989 1.35713,19.9498 0.54285,1.89998 0.40714,2.98568 0,1.0857 -0.67856,1.49284 -0.67857,0.40714 -2.0357,0.40714 -1.35713,0 -3.25711,-0.13571 -1.35713,-4.88567 -2.44283,-11.39988 -0.94999,-6.64994 -1.76427,-14.11415 -0.81427,-7.59992 -1.62855,-15.60698 -0.67857,-8.00706 -1.35713,-15.87841 -0.67856,-7.87134 -1.49284,-15.06413 -0.81428,-7.19278 -1.89998,-13.02843 z m 91.33477,48.72092 q -1.35713,5.02138 -3.66424,11.12846 -2.17141,5.97137 -5.56423,11.26417 -3.25711,5.2928 -7.87135,8.95705 -4.61424,3.52854 -10.72132,3.52854 -4.74995,0 -7.73563,-1.89998 -2.84997,-2.0357 -4.47853,-5.29281 -1.62855,-3.39282 -2.44283,-7.32849 -0.67857,-4.07139 -0.94999,-8.14278 -0.13571,-1.35713 -0.27143,-5.42851 -0.13571,-4.2071 -0.27142,-9.77133 -0.13572,-5.69994 -0.40714,-12.07845 -0.13571,-6.3785 -0.40714,-11.94273 -0.13571,-5.56423 -0.27143,-9.77133 -0.13571,-4.2071 -0.13571,-5.56423 -0.13571,-1.35713 0.13571,-2.03569 0.27143,-0.81428 0.94999,-1.08571 0.67857,-0.40713 1.49285,-0.40713 0.94999,-0.13572 1.62855,-0.13572 h 1.0857 q 0.81428,0 1.49285,0.13572 0.67856,0.13571 1.22141,0.67856 0.54285,0.40714 0.54285,1.22142 v 57.81369 q 0,2.44283 0.67857,4.88566 0.81427,2.44283 2.1714,4.61424 1.35713,2.03569 3.39283,3.39282 2.03569,1.35713 4.61423,1.35713 5.15709,-0.40714 8.82134,-5.42851 3.79996,-5.15709 6.51422,-12.89273 2.71426,-7.73563 4.47853,-16.8284 1.76426,-9.09276 3.12139,-17.50696 1.35713,-8.4142 2.30712,-14.92842 1.08571,-6.51422 2.30712,-9.09276 2.57855,-2.30712 4.07139,-1.0857 1.49284,1.0857 2.1714,3.52853 0.81428,2.30712 0.94999,5.15709 0.13572,2.71426 -0.27142,3.93567 0,9.09277 -0.94999,18.04982 -0.81428,8.95705 -0.81428,18.18553 0,5.83565 0.54285,11.6713 0.54285,5.83566 1.22142,11.67131 0.67856,5.83566 1.22141,11.67131 0.54286,5.69994 0.54286,11.39989 0,1.0857 -0.13572,2.1714 -0.13571,1.22142 -0.67856,2.17141 -0.40714,0.94999 -1.22142,1.62855 -0.81427,0.67857 -2.30712,0.67857 0,0 -0.40713,-0.13572 -0.27143,0 -0.54286,0 z m 22.93548,32.84252 q 0,-10.99274 0.13572,-21.57835 0.13571,-10.5856 -0.13572,-21.03549 -0.27142,-10.4499 -1.0857,-20.89979 -0.81428,-10.58561 -2.44283,-21.44264 0,-0.27142 -0.40714,-1.0857 -0.27143,-0.81428 -0.54285,-1.62855 -0.27143,-0.95 -0.54285,-1.62856 -0.27143,-0.67856 -0.27143,-0.94999 0,-0.67856 0.40714,-1.62855 0.54285,-0.94999 1.22142,-1.76427 0.81427,-0.94999 1.76426,-1.49284 0.94999,-0.54286 1.89998,-0.40714 1.62856,0.40714 2.57855,2.03569 1.0857,1.62856 1.62855,3.66425 0.54285,1.89998 0.67857,3.79996 0.27142,1.89998 0.27142,2.71426 4.07139,-2.17141 9.09277,-4.61424 5.15709,-2.57855 10.44989,-4.61424 5.42852,-2.17141 10.72132,-3.52853 5.42851,-1.49285 10.17847,-1.49285 0,1.22142 -0.54286,2.17141 -0.40713,0.94999 -1.76426,1.62856 l -38.13533,19.13551 v 5.29281 q 0.13572,1.49284 0.27143,5.15709 0.27143,3.66424 0.54285,7.87134 0.27143,4.07139 0.40714,7.87135 0.27143,3.66425 0.40714,5.02138 l 27.95685,-15.60698 0.67857,-0.81428 q 0.67856,-0.81428 1.76427,-1.49284 1.0857,-0.67857 2.1714,-0.67857 1.22142,-0.13571 2.30712,1.35713 0,2.44283 -2.44283,4.74995 -2.44283,2.30712 -6.10708,4.61424 -3.66425,2.30712 -8.00706,4.47853 -4.2071,2.1714 -7.87135,4.2071 -3.66425,2.03569 -6.10708,4.07138 -2.44283,2.0357 -2.44283,3.79996 v 26.19259 q 1.76427,0.67857 4.88566,-0.54285 3.25711,-1.35713 7.19279,-3.66425 3.93567,-2.30712 8.14277,-5.2928 4.2071,-3.1214 8.14277,-5.83566 4.07139,-2.71425 7.46421,-4.88566 3.52854,-2.17141 5.83566,-2.57854 1.35713,0 2.44283,0.54285 1.0857,0.54285 1.0857,2.1714 0,1.62856 -1.89998,2.57855 -4.74995,2.84997 -10.99274,7.19278 -6.10708,4.2071 -12.48559,8.54991 -6.3785,4.2071 -12.6213,7.73564 -6.10708,3.39282 -10.5856,4.47852 -1.76427,0 -2.84997,-0.27142 -1.08571,-0.27143 -2.44284,-1.62856 z m 72.6064,-2.84997 q 0.27143,-1.35713 3.39282,-2.57854 3.1214,-1.22142 7.73564,-2.57855 4.61424,-1.35713 10.17847,-2.98568 5.56422,-1.62856 10.72131,-3.66425 5.15709,-2.03569 9.36416,-4.61424 4.3428,-2.57854 6.3785,-5.97136 0,-2.0357 -2.7142,-3.1214 -2.5786,-1.0857 -7.05709,-1.76427 -4.34281,-0.81428 -10.04275,-1.22141 -5.56423,-0.54286 -11.5356,-1.35713 -5.83565,-0.94999 -11.53559,-2.17141 -5.56423,-1.35713 -10.04276,-3.66425 -4.34281,-2.44283 -7.05707,-6.10708 -2.57854,-3.66425 -2.57854,-8.95705 0,-5.2928 2.30712,-10.44989 2.30712,-5.2928 6.10708,-10.17847 3.93567,-4.88566 8.82133,-9.09276 5.02138,-4.2071 10.4499,-7.3285 5.42851,-3.12139 10.72132,-4.88566 5.42851,-1.76427 10.04275,-1.76427 1.22142,0 2.57854,0 1.35713,-0.13571 2.30712,0.13571 1.08574,0.13572 1.76424,0.94999 0.6786,0.81428 0.6786,2.44284 0,3.93567 -2.57855,5.69994 -2.57854,1.62855 -6.24279,1.62855 l -5.29281,-3.79996 q -3.12139,0 -6.92135,1.76427 -3.66425,1.76427 -7.59992,4.74995 -3.79997,2.84997 -7.46421,6.64993 -3.66425,3.79996 -6.51422,7.87135 -2.71426,4.07139 -4.47853,8.14277 -1.62855,4.07139 -1.62855,7.3285 0,4.74995 2.57854,7.73563 2.71426,2.84997 7.05707,4.61424 4.47853,1.62856 10.17847,2.44283 5.69994,0.81428 11.5356,1.35713 5.83565,0.54285 11.53559,1.08571 5.69996,0.40713 10.04276,1.62855 4.4785,1.22142 7.0571,3.25711 2.7142,2.03569 2.7142,5.56423 1.4929,2.1714 -0.6785,5.02138 -2.0357,2.71425 -6.5143,5.56422 -4.3428,2.71426 -10.44985,5.56423 -5.97137,2.71426 -12.34988,5.02138 -6.3785,2.17141 -12.34987,3.79996 -5.97137,1.49284 -10.17847,1.89998 -1.22141,0 -2.1714,-0.81428 -0.81428,-0.81427 -0.27143,-2.84997 z m 80.6135,3.66425 q 0,-2.71426 3.3928,-6.92136 3.3928,-4.34281 8.4142,-9.77133 5.0214,-5.42851 10.9927,-11.80702 5.9714,-6.3785 10.9928,-13.16415 5.0214,-6.92135 8.4142,-13.97842 3.3928,-7.19279 3.3928,-14.11415 0,-3.66424 -2.0357,-6.24279 -2.0357,-2.71426 -5.2928,-4.61424 -3.1214,-1.89998 -7.1928,-2.98568 -3.9357,-1.0857 -8.007,-1.62856 -4.0714,-0.67856 -7.7357,-0.81427 -3.6642,-0.27143 -6.2428,-0.27143 -0.6785,0 -1.7642,0.13571 -1.0857,0 -2.3072,0.13572 -1.0857,0 -2.0356,0.13571 -0.95,0.13571 -1.0857,0.13571 l -1.7643,1.62856 q 0,0.27142 -0.1357,2.30712 0,2.03569 -0.1357,4.61424 0,2.57854 0,5.2928 v 4.2071 q 0,13.707 0.9499,27.27829 1.0858,13.43558 1.0858,27.14258 0,0.81427 0,1.76426 0.1357,0.95 0,1.89999 -0.1358,0.81427 -0.8143,1.49284 -0.5429,0.54285 -1.7643,0.54285 -0.8143,0 -1.6285,-0.40714 -0.8143,-0.40714 -0.95,-1.35713 l -5.2928,-71.38498 q -0.4072,0.27143 -1.4929,0.81428 -0.95,0.40714 -2.0357,0.94999 -1.0857,0.54285 -2.1714,1.22141 -0.95,0.54286 -1.2214,0.54286 -0.1357,0 -0.5429,0.13571 -0.2714,0 -0.4071,0 -0.6786,0 -1.6285,-0.27143 -0.8143,-0.40714 -0.8143,-1.62855 0,-2.0357 0.8143,-3.25711 0.9499,-1.35713 2.3071,-2.44283 1.4928,-1.08571 3.1214,-2.17141 1.6285,-1.0857 2.9857,-2.71426 1.4928,-1.76427 2.3071,-4.34281 0.95,-2.57855 0.95,-6.51422 2.7142,0 3.3928,0.94999 0.6786,0.94999 0.8143,2.30712 0.1357,1.22142 0.2714,2.57855 0.2714,1.22141 2.0357,1.76426 3.7999,-0.13571 9.0927,0 5.4286,0.13572 11.2642,0.94999 5.9714,0.67857 11.6713,2.17141 5.8357,1.49284 10.3142,4.2071 4.6142,2.71426 7.1928,6.92136 2.7142,4.07138 2.4428,10.04275 -1.7642,10.44989 -6.7856,20.08551 -4.8857,9.63561 -11.6713,18.59266 -6.65,8.82134 -14.5213,16.96412 -7.7356,8.14277 -15.4713,15.60698 -0.1357,0 -0.4071,0 -0.2714,0.13571 -0.4072,0.13571 -1.2214,0 -2.0357,-0.81428 -0.8142,-0.81427 -0.8142,-2.03569 z m 58.7636,-0.81428 q 0.4072,-1.89998 0.6786,-4.88566 0.2714,-2.98568 0.6786,-7.87135 0.5428,-4.88566 1.0857,-12.07845 0.6785,-7.19278 1.7642,-17.50696 1.0857,-10.31418 2.4429,-24.15689 1.4928,-13.97843 3.7999,-32.43538 0.1357,-1.35713 1.2214,-1.62856 1.2215,-0.27143 2.1714,-0.27143 1.4929,0 2.4429,1.08571 0.95,1.0857 1.6285,2.44283 0.8143,1.35713 1.4929,2.84997 0.6785,1.49284 1.4928,2.44283 1.3571,3.1214 2.7143,7.19279 1.4928,4.07138 3.1214,8.68562 1.6285,4.61424 3.2571,9.36419 1.6285,4.61424 3.2571,9.09276 1.6285,4.34282 2.9857,8.14278 1.4928,3.66425 2.7142,6.10708 1.4929,-0.13571 4.2071,-1.08571 2.7143,-1.0857 5.8357,-2.03569 3.1214,-0.94999 6.1071,-1.49284 2.9856,-0.54285 5.0213,0 2.0357,0.40714 2.5786,2.30712 0.6785,1.89998 -0.95,5.97137 -0.95,0 -1.7643,-0.27143 -0.8143,-0.40714 -1.6285,-0.67856 -0.8143,-0.40714 -1.7643,-0.67857 -0.8143,-0.40714 -1.9,-0.40714 -0.6785,0 -3.1214,0.81428 -2.3071,0.67856 -5.0213,1.62855 -2.7143,0.81428 -4.75,1.76427 -2.0357,0.81428 -2.0357,1.22142 l 9.3642,36.77819 -3.5285,5.15709 q -2.3072,-3.93567 -3.9357,-8.95705 -1.4929,-5.15709 -2.85,-10.17847 -1.3571,-5.15709 -2.85,-9.4999 -1.3571,-4.47852 -3.5285,-7.46421 -2.85,1.35713 -6.7856,2.30712 -3.9357,0.94999 -7.6,2.44283 -3.6642,1.35713 -6.3785,3.79996 -2.5785,2.30712 -3.1214,6.37851 -0.2714,1.62856 -0.5428,4.34281 -0.1357,2.71426 -0.4071,5.15709 -0.4072,2.98569 -0.6786,6.10708 z m 15.607,-79.93489 -0.2714,2.30712 q -0.1357,2.30712 -0.4072,5.42851 -0.2714,2.98569 -0.6785,6.2428 -0.2714,3.12139 -0.4072,5.2928 -0.6785,7.59992 -1.4928,15.06413 -0.6786,7.3285 -0.6786,15.06413 2.5786,0 5.4286,-0.67856 2.9856,-0.67857 5.6999,-1.76427 2.7143,-1.22142 4.8857,-2.84997 2.3071,-1.76427 3.5285,-3.93567 -1.0857,-4.74996 -2.4428,-9.77133 -1.2215,-5.15709 -2.7143,-10.31418 -1.4928,-5.2928 -3.2571,-10.31418 -1.7643,-5.02138 -3.8,-9.77133 -0.1357,-0.13571 -0.95,-0.54285 -0.8142,-0.54285 -2.4428,0.54285 z m 61.2065,80.07061 q 0,-4.88567 1.4929,-9.49991 1.4928,-4.74995 3.2571,-9.4999 1.7642,-4.74995 2.9857,-9.36419 1.3571,-4.74995 0.95,-9.90704 -3.9357,-4.34281 -8.6857,-9.36419 -4.7499,-5.15709 -9.3642,-10.5856 -4.6142,-5.56423 -8.5499,-11.39989 -3.9357,-5.97136 -6.3785,-12.07844 -0.1357,-0.13572 -0.1357,-0.40714 v -0.54285 q 0,-1.62856 1.2214,-2.17141 1.2214,-0.54285 2.5786,-0.54285 3.5285,4.2071 7.4642,9.63561 4.0714,5.29281 8.2785,10.58561 4.2071,5.2928 8.5499,10.17847 4.3428,4.74995 8.5499,7.87134 h 1.7643 q 0.5428,-0.94999 1.8999,-4.61424 1.3572,-3.79996 3.2571,-8.95705 2.0357,-5.15709 4.2071,-11.39988 2.1714,-6.24279 4.0714,-12.21416 2.0357,-6.10708 3.3929,-11.39988 1.4928,-5.29281 2.1714,-8.68563 0.1357,-0.27142 0.8142,-0.27142 2.0357,0 3.2571,1.89998 1.3572,1.76426 1.0857,3.66425 -3.6642,12.89272 -6.107,21.17121 -2.3072,8.27848 -3.9357,13.57129 -1.4928,5.15709 -2.5786,8.41419 -1.0857,3.1214 -2.3071,5.97137 -1.0857,2.84997 -2.3071,6.37851 -1.2214,3.39282 -3.2571,9.22847 -2.0357,5.69995 -5.0214,14.79271 -2.9857,8.95705 -7.4642,22.93548 -0.1357,0 -0.8143,0 -0.5428,0.13571 -0.8142,0.13571 -3.5286,0 -3.5286,-3.52853 z"
     id="text83"
     style="font-size:138.97px;font-family:ShadowsIntoLight;fill:#2f3030;stroke:#2f3030;stroke-width:0.959335;stroke-miterlimit:10"
     transform="matrix(0.99945554,-0.01660613,0.01659262,1.0002691,0,0)"
     aria-label="TUESDAY" /><g
     id="g86"
     style="stroke-width:0.339866"
     transform="matrix(2.9411419,0,0,2.943536,-142.55552,-467.20753)">
			
				<line
   style="fill:none;stroke:#e77d25;stroke-width:0.72959;stroke-miterlimit:10"
   x1="201.25"
   y1="251.791"
   x2="200.77901"
   y2="254.92999"
   id="line85" />
			<path
   style="fill:none;stroke:#f2943f;stroke-width:0.72959;stroke-miterlimit:10"
   d="m 205.731,291.364 5.789,-25.115 c 0.639,-2.774 -1.091,-5.541 -3.865,-6.181 v 0 c -2.774,-0.639 -5.541,1.091 -6.181,3.865 l -9.262,40.183 c -0.639,2.774 1.091,5.541 3.865,6.181 l 4.305,0.992 c 2.774,0.639 5.541,-1.091 6.181,-3.865 l 11.909,-51.664 c 0.639,-2.774 -1.091,-5.541 -3.865,-6.181 l -7.176,-1.654 c -2.774,-0.639 -5.541,1.091 -6.181,3.865"
   id="path85" />
		</g><line
     style="fill:none;stroke:#e0e1e0;stroke-width:2.1467;stroke-miterlimit:10"
     x1="1560.1127"
     y1="254.80948"
     x2="1560.3716"
     y2="264.14636"
     id="line86" /><path
     style="fill:none;stroke:#ffffff;stroke-width:2.1467;stroke-miterlimit:10"
     d="m 1593.5564,367.15541 3.7706,-75.76956 c 0.4147,-8.36847 -6.0264,-15.49183 -14.3881,-15.90981 v 0 c -8.3617,-0.41798 -15.4792,6.0313 -15.8969,14.39978 l -6.0322,121.23247 c -0.4177,8.36847 6.0263,15.49183 14.388,15.90981 l 12.9793,0.64758 c 8.3616,0.41798 15.4792,-6.03131 15.8968,-14.39978 l 7.7558,-155.86906 c 0.4177,-8.36847 -6.0264,-15.49183 -14.388,-15.90981 l -21.6321,-1.07734 c -8.3617,-0.41798 -15.4793,6.03131 -15.8969,14.39978"
     id="path86" /><g
     id="g88"
     style="stroke-width:0.339866"
     transform="matrix(2.9411419,0,0,2.943536,-142.55552,-467.20753)">
			
				<line
   style="fill:none;stroke:#e65239;stroke-width:0.72959;stroke-miterlimit:10"
   x1="999.72198"
   y1="254.38699"
   x2="999.37598"
   y2="257.54199"
   id="line87" />
			<path
   style="fill:none;stroke:#f26342;stroke-width:0.72959;stroke-miterlimit:10"
   d="m 1005.778,293.75 4.782,-25.326 c 0.528,-2.797 -1.311,-5.493 -4.109,-6.022 v 0 c -2.797,-0.528 -5.493,1.311 -6.021,4.109 l -7.651,40.521 c -0.528,2.797 1.311,5.493 4.109,6.022 l 4.341,0.82 c 2.797,0.528 5.493,-1.311 6.022,-4.109 l 9.837,-52.098 c 0.528,-2.797 -1.311,-5.493 -4.109,-6.021 l -7.236,-1.366 c -2.797,-0.528 -5.493,1.311 -6.021,4.109"
   id="path87" />
		</g><line
     style="fill:none;stroke:#e1b843;stroke-width:2.1467;stroke-miterlimit:10"
     x1="2115.2827"
     y1="287.78888"
     x2="2116.8562"
     y2="296.99625"
     id="line88" /><path
     style="fill:none;stroke:#ffd95e;stroke-width:2.1467;stroke-miterlimit:10"
     d="m 2164.2674,394.27126 -6.9764,-75.5429 c -0.7706,-8.34493 -8.1558,-14.4822 -16.491,-13.71099 v 0 c -8.3381,0.7712 -14.4704,8.16242 -13.6998,16.5044 l 11.1645,120.86748 c 0.7706,8.34492 8.1558,14.48219 16.491,13.71099 l 12.941,-1.19802 c 8.3382,-0.77121 14.4705,-8.16243 13.6999,-16.50441 l -14.3528,-155.40104 c -0.7706,-8.34492 -8.1528,-14.48219 -16.491,-13.71099 l -21.5674,1.99572 c -8.3381,0.77121 -14.4704,8.15948 -13.6998,16.50441"
     id="path88" /><g
     id="g90"
     style="stroke-width:0.339866"
     transform="matrix(2.9411419,0,0,2.943536,-142.55552,-467.20753)">
			
				<line
   style="fill:none;stroke:#2eb7cd;stroke-width:0.72959;stroke-miterlimit:10"
   x1="359.095"
   y1="253.576"
   x2="359.49899"
   y2="256.724"
   id="line89" />
			<path
   style="fill:none;stroke:#35c4e6;stroke-width:0.72959;stroke-miterlimit:10"
   d="m 374.219,290.418 -1.294,-25.741 c -0.143,-2.843 -2.564,-5.032 -5.407,-4.889 v 0 c -2.843,0.143 -5.032,2.564 -4.889,5.407 l 2.071,41.185 c 0.143,2.843 2.564,5.032 5.407,4.889 l 4.413,-0.222 c 2.843,-0.143 5.032,-2.564 4.889,-5.407 l -2.662,-52.952 c -0.143,-2.843 -2.564,-5.032 -5.407,-4.889 l -7.354,0.37 c -2.843,0.143 -5.032,2.564 -4.889,5.407"
   id="path89" />
		</g><rect
     style="display:inline;fill:#de8725;fill-opacity:1;stroke-width:1.88976"
     id="rect92"
     width="594.24011"
     height="474.37442"
     x="93.188766"
     y="1103.4633"
     ry="65.549538" /><rect
     style="display:inline;fill:#4fc020;fill-opacity:1;stroke-width:1.88976"
     id="rect92-3"
     width="594.24011"
     height="474.37442"
     x="93.185875"
     y="1574.7733"
     ry="65.549538" /><rect
     style="display:inline;fill:#ff00ff;fill-opacity:1;stroke-width:1.88976"
     id="rect92-3-6"
     width="594.24011"
     height="474.37442"
     x="93.188744"
     y="2304.9321"
     ry="65.549538" /><rect
     style="display:inline;fill:#b3a900;fill-opacity:1;stroke-width:1.88976"
     id="rect92-3-6-7"
     width="594.24011"
     height="474.37442"
     x="684.53033"
     y="1106.286"
     ry="65.549538" /><rect
     style="display:inline;fill:#b3a900;fill-opacity:1;stroke-width:1.88976"
     id="rect92-3-6-7-3"
     width="594.24011"
     height="474.37442"
     x="1867.2163"
     y="1106.2891"
     ry="65.549538" /><rect
     style="display:inline;fill:#de8725;fill-opacity:1;stroke-width:1.88976"
     id="rect92-3-6-7-56"
     width="594.24011"
     height="474.37442"
     x="1867.2163"
     y="2055.0378"
     ry="65.549538" /><rect
     style="display:inline;fill:#4fc020;fill-opacity:1;stroke-width:1.88976"
     id="rect92-3-6-7-2"
     width="594.24011"
     height="474.37442"
     x="2458.5581"
     y="1819.2606"
     ry="65.549538" /><rect
     style="display:inline;fill:#4fc020;fill-opacity:1;stroke-width:1.88976"
     id="rect92-3-6-7-5"
     width="594.24011"
     height="238.59727"
     x="1275.8719"
     y="1340.6504"
     ry="32.969612" /><rect
     style="display:inline;fill:#ff0000;fill-opacity:1;stroke-width:1.88976"
     id="rect92-3-6-7-5-9"
     width="594.24011"
     height="238.59727"
     x="1275.8748"
     y="1816.4347"
     ry="32.969612" /><rect
     style="display:inline;fill:#ff0000;fill-opacity:1;stroke-width:1.88976"
     id="rect92-3-6-7-5-1"
     width="594.24011"
     height="238.59727"
     x="2458.5608"
     y="1339.2406"
     ry="32.969612" /><rect
     style="display:inline;fill:#ff0000;fill-opacity:1;stroke-width:1.88976"
     id="rect92-3-6-7-5-2"
     width="594.24011"
     height="238.59727"
     x="2458.5608"
     y="2283.1797"
     ry="32.969612" /><rect
     style="display:inline;fill:#ff0000;fill-opacity:1;stroke-width:1.88976"
     id="rect92-3-6-7-5-7"
     width="594.24011"
     height="238.59727"
     x="1275.8719"
     y="2535.0608"
     ry="32.969612" /></g>
</svg>
