<?xml version="1.0" encoding="UTF-8" standalone="no"?>
<svg
   xmlns:dc="http://purl.org/dc/elements/1.1/"
   xmlns:cc="http://creativecommons.org/ns#"
   xmlns:rdf="http://www.w3.org/1999/02/22-rdf-syntax-ns#"
   xmlns:svg="http://www.w3.org/2000/svg"
   xmlns="http://www.w3.org/2000/svg"
   xmlns:sodipodi="http://sodipodi.sourceforge.net/DTD/sodipodi-0.dtd"
   xmlns:inkscape="http://www.inkscape.org/namespaces/inkscape"
   version="1.0"
   width="893.000000pt"
   height="1280.000000pt"
   viewBox="0 0 893.000000 1280.000000"
   preserveAspectRatio="xMidYMid meet"
   id="svg24"
   sodipodi:docname="disfluency.svg"
   inkscape:version="0.92.4 5da689c313, 2019-01-14">
  <defs
     id="defs28" />
  <sodipodi:namedview
     pagecolor="#ffffff"
     bordercolor="#666666"
     borderopacity="1"
     objecttolerance="10"
     gridtolerance="10"
     guidetolerance="10"
     inkscape:pageopacity="0"
     inkscape:pageshadow="2"
     inkscape:window-width="1920"
     inkscape:window-height="1003"
     id="namedview26"
     showgrid="false"
     inkscape:zoom="0.13828125"
     inkscape:cx="-221.84181"
     inkscape:cy="853.33333"
     inkscape:window-x="0"
     inkscape:window-y="0"
     inkscape:window-maximized="1"
     inkscape:current-layer="svg24" />
  <metadata
     id="metadata2">
Created by potrace 1.15, written by Peter Selinger 2001-2017
<rdf:RDF>
  <cc:Work
     rdf:about="">
    <dc:format>image/svg+xml</dc:format>
    <dc:type
       rdf:resource="http://purl.org/dc/dcmitype/StillImage" />
  </cc:Work>
</rdf:RDF>
</metadata>
  <g
     transform="matrix(-0.1,0,0,-0.1,892.43831,1280)"
     id="g22"
     style="fill:#000000;stroke:none">
    <path
       d="m 5240,12797 c 3,-4 33,-37 68,-74 126,-135 192,-212 192,-225 0,-7 11,-23 25,-36 30,-29 59,-103 96,-251 26,-100 52,-297 44,-326 -2,-5 -6,-22 -9,-37 -4,-16 -13,-28 -22,-28 -11,0 -13,6 -9,21 5,14 0,27 -18,43 -20,19 -25,35 -30,103 -11,137 -89,403 -118,403 -5,0 -22,26 -39,58 -41,79 -58,96 -195,199 -131,99 -179,127 -201,119 -27,-10 -14,-36 34,-65 94,-58 152,-107 172,-146 11,-23 16,-43 11,-48 -5,-5 -38,2 -78,18 -37,15 -97,32 -133,37 -162,24 -248,40 -332,65 -79,22 -95,24 -127,13 -28,-9 -51,-9 -96,-1 -96,18 -106,15 -65,-16 19,-15 82,-70 140,-122 58,-52 124,-112 148,-133 23,-22 46,-37 51,-34 5,3 11,29 13,57 3,28 12,57 20,65 32,32 104,-58 174,-219 24,-56 44,-109 44,-118 0,-19 -20,-29 -59,-29 -15,0 -31,-4 -37,-10 -6,-6 -16,2 -28,24 -10,18 -35,43 -57,55 -21,12 -39,27 -39,32 0,16 -88,106 -170,174 -107,89 -175,130 -260,161 -41,14 -104,37 -140,50 -96,34 -221,47 -327,34 -96,-12 -262,-55 -290,-76 -16,-11 -15,-13 11,-20 16,-4 58,-2 94,3 92,14 356,-2 456,-27 98,-25 142,-50 242,-141 109,-99 118,-104 153,-90 46,20 135,-11 151,-53 4,-12 31,-58 59,-101 38,-58 51,-87 51,-115 0,-21 6,-43 14,-49 7,-6 16,-29 19,-51 3,-22 15,-52 27,-67 19,-24 21,-36 16,-85 -4,-35 -3,-59 4,-63 5,-3 10,-13 10,-22 0,-26 -64,-9 -118,31 -62,45 -121,114 -269,317 -67,91 -148,191 -180,223 -78,78 -198,168 -269,201 -57,27 -61,27 -193,22 -154,-6 -226,-22 -371,-85 -128,-54 -277,-98 -440,-127 -269,-50 -372,-80 -518,-152 -164,-80 -258,-192 -250,-296 2,-34 7,-43 25,-45 16,-2 26,5 39,29 21,42 146,165 207,206 78,51 236,97 343,99 50,1 99,6 110,12 11,6 53,13 94,17 41,4 162,27 268,51 305,70 436,91 491,79 71,-15 22,-42 -165,-88 -261,-65 -325,-104 -338,-206 -4,-30 -11,-62 -17,-72 -7,-14 -4,-21 12,-30 21,-11 66,-9 175,7 90,13 57,-45 -43,-76 -131,-40 -233,-36 -233,10 0,10 -4,22 -10,25 -14,9 -12,70 5,143 8,35 12,68 9,74 -10,16 -169,3 -233,-19 -47,-16 -55,-22 -66,-57 -12,-35 -12,-40 6,-59 10,-11 19,-27 19,-34 0,-30 45,-100 96,-149 36,-35 72,-59 114,-75 58,-22 110,-60 110,-80 0,-30 -236,29 -320,80 -42,25 -81,64 -95,96 -7,17 -37,55 -65,85 -45,48 -49,50 -32,20 104,-190 117,-210 133,-210 17,0 50,-34 103,-108 25,-35 53,-60 120,-106 19,-13 19,-14 -6,-30 -14,-9 -61,-21 -104,-28 -75,-11 -82,-10 -123,12 -25,12 -79,50 -120,84 -42,34 -92,71 -112,84 -20,12 -42,37 -50,55 -7,17 -30,51 -51,74 -21,24 -38,50 -38,59 0,22 -40,92 -56,98 -15,6 -20,-11 -27,-87 -9,-91 -82,-151 -246,-202 -142,-43 -223,-76 -286,-115 -33,-20 -109,-63 -170,-95 -60,-32 -131,-73 -156,-90 -25,-18 -61,-36 -80,-40 -19,-4 -41,-13 -49,-20 -8,-7 -35,-19 -60,-26 -98,-27 -87,-56 14,-38 82,14 464,7 518,-10 89,-28 55,-55 -113,-90 -250,-53 -420,-122 -570,-232 -59,-43 -73,-61 -138,-175 -40,-69 -85,-160 -101,-201 -52,-134 -111,-208 -210,-262 l -55,-31 h 42 c 58,0 84,12 147,69 57,52 114,87 124,77 3,-4 -25,-84 -63,-179 -58,-144 -76,-179 -111,-214 -48,-47 -144,-103 -239,-140 -36,-14 -64,-30 -62,-36 2,-6 14,-19 28,-29 25,-19 27,-19 102,2 43,12 90,20 105,18 l 27,-3 v -155 c -1,-136 -4,-161 -22,-202 -32,-71 -118,-116 -130,-68 -5,19 -33,29 -33,12 0,-20 83,-82 110,-82 6,0 40,27 75,60 97,90 135,76 95,-36 -32,-93 -114,-164 -229,-198 -82,-24 -151,-21 -195,9 -30,20 -36,22 -36,8 0,-55 99,-184 154,-203 19,-6 36,-19 39,-29 11,-42 -37,-126 -87,-153 -10,-6 -50,-14 -88,-19 -37,-5 -77,-13 -88,-19 -33,-18 -24,-37 21,-43 45,-6 57,-5 242,25 71,11 130,18 132,16 8,-8 25,-249 19,-275 -14,-60 -35,-70 -181,-82 -52,-5 -99,-13 -106,-20 -26,-26 124,-142 256,-197 43,-18 89,-43 102,-56 13,-13 37,-34 55,-47 17,-12 40,-41 52,-64 l 20,-41 -28,-23 c -54,-44 -118,-84 -144,-89 -116,-24 -184,-70 -214,-145 -18,-45 -18,-45 32,-108 l 19,-24 -1,62 c -1,59 1,64 32,92 53,48 146,35 185,-25 16,-24 16,-26 -23,-71 -56,-65 -79,-146 -87,-310 -3,-72 -3,-147 1,-166 4,-21 26,-59 56,-94 73,-87 95,-151 130,-388 33,-222 63,-297 128,-318 20,-6 60,-33 88,-59 27,-26 59,-50 71,-54 26,-8 43,-47 53,-121 8,-65 51,-148 115,-225 l 35,-42 -6,-109 -7,-109 h 24 c 30,0 40,-8 60,-45 9,-17 33,-57 53,-89 20,-33 36,-70 36,-82 0,-12 9,-32 19,-46 11,-13 23,-41 26,-62 4,-20 14,-44 22,-52 13,-12 18,-12 40,6 20,16 29,18 40,9 11,-10 11,-15 -2,-33 -36,-50 -37,-56 -13,-56 30,-1 47,-15 87,-74 18,-26 49,-57 67,-68 19,-11 34,-24 34,-28 0,-24 -24,-62 -80,-130 l -62,-75 5,-60 c 2,-33 16,-87 30,-121 16,-38 32,-105 42,-180 25,-184 36,-214 100,-271 30,-27 61,-65 70,-86 9,-21 28,-43 45,-52 20,-10 33,-26 37,-45 4,-20 12,-30 24,-30 23,0 28,-9 50,-93 16,-62 16,-73 3,-98 -8,-15 -14,-35 -14,-43 0,-30 -43,-130 -67,-153 -13,-13 -30,-40 -37,-58 -17,-39 -102,-135 -121,-135 -6,0 -39,-22 -72,-48 -33,-27 -106,-72 -161,-101 -56,-28 -104,-55 -107,-60 -3,-5 -20,-13 -38,-16 -17,-4 -40,-16 -50,-26 -10,-11 -26,-19 -36,-19 -9,0 -73,-32 -142,-72 -68,-39 -178,-96 -243,-125 -66,-30 -140,-67 -164,-84 -69,-47 -112,-66 -219,-98 -56,-16 -127,-43 -159,-59 -33,-16 -181,-78 -331,-137 L 1,2277 18,2248 C 27,2233 95,2136 169,2033 486,1590 546,1522 830,1294 1217,983 1260,955 1665,752 2200,484 2374,412 2725,315 3419,124 4140,16 4815,3 c 409,-7 539,3 990,78 552,92 917,191 1280,349 396,172 730,332 857,411 288,177 728,546 847,709 75,102 133,206 134,242 2,29 -3,35 -35,51 -21,10 -48,32 -60,48 -55,73 -157,149 -309,229 -60,32 -123,70 -141,85 -43,35 -315,198 -497,296 -79,43 -149,84 -157,90 -7,5 -73,30 -146,54 -187,61 -300,110 -350,154 -24,20 -61,48 -83,61 -82,49 -193,136 -293,232 -57,54 -115,106 -129,115 -13,9 -31,30 -40,47 -8,17 -23,40 -33,51 -45,49 -63,200 -86,710 -18,400 -16,504 10,553 19,36 299,230 408,281 81,39 185,123 195,159 5,15 34,74 66,132 40,73 68,112 92,127 45,30 53,63 30,126 -13,35 -18,81 -19,162 -1,124 7,145 55,145 40,0 79,17 79,34 0,9 -13,22 -30,31 -33,17 -60,61 -60,98 0,13 11,34 25,47 14,13 25,34 25,47 0,13 15,40 34,60 28,31 40,37 77,38 54,2 54,15 1,94 -34,50 -37,59 -35,120 3,104 29,208 77,306 24,50 50,113 57,142 11,47 10,57 -9,108 -29,74 -30,172 -3,207 11,13 22,46 26,73 9,61 52,149 137,280 36,55 71,118 78,139 7,23 13,93 14,167 1,126 1,128 -26,156 -16,16 -28,40 -28,53 0,13 -17,53 -39,89 -59,101 -64,127 -58,275 6,149 40,300 121,531 56,158 60,222 20,276 -73,97 -135,269 -158,439 -56,408 -59,832 -6,1082 11,51 20,131 20,178 1,47 5,132 9,189 10,116 28,154 76,159 31,4 45,-11 45,-46 0,-30 22,-24 34,10 7,19 4,35 -10,64 -17,35 -24,39 -74,49 l -55,10 -1,68 c -2,70 -10,105 -21,93 -4,-4 -8,-26 -8,-49 -2,-60 -32,-196 -50,-223 -17,-27 -53,-40 -67,-26 -16,16 -12,64 6,77 21,16 20,24 -4,55 -24,31 -26,107 -6,233 10,62 20,93 33,103 89,68 122,85 177,91 31,3 59,9 61,13 2,4 -3,17 -12,30 -15,21 -21,22 -88,18 -60,-4 -85,-11 -139,-41 -99,-55 -125,-48 -126,31 0,28 -10,28 -63,0 -37,-20 -62,-23 -217,-28 -194,-6 -222,-14 -233,-67 -5,-21 -1,-33 15,-45 25,-22 32,-22 53,-2 14,14 22,15 54,6 46,-14 87,-50 73,-64 -6,-6 -31,-13 -57,-16 -31,-3 -49,-10 -52,-21 -3,-9 -20,-28 -37,-43 -26,-23 -29,-29 -16,-38 8,-5 34,-10 57,-10 47,0 59,-11 44,-39 -13,-24 -106,-71 -142,-71 -29,0 -69,40 -69,69 0,43 -25,95 -69,143 -69,77 -82,98 -71,118 5,10 19,71 30,136 27,153 57,217 125,262 27,18 62,36 77,39 21,4 28,11 28,29 0,30 5,33 94,44 90,11 137,-3 161,-50 20,-38 19,-66 -4,-117 -22,-48 -48,-65 -111,-73 -40,-4 -45,-8 -48,-33 -2,-16 1,-34 7,-41 17,-20 123,-39 185,-34 64,5 147,44 161,76 5,12 17,22 27,22 24,0 31,32 23,113 -8,93 -39,209 -72,268 -20,37 -34,51 -67,63 -168,61 -184,65 -246,66 -38,0 -101,-10 -150,-24 -47,-12 -90,-21 -96,-19 -6,2 -33,-8 -59,-22 -30,-16 -64,-25 -92,-25 -47,0 -65,-13 -107,-80 -28,-45 -62,-52 -76,-14 -6,14 -8,36 -4,48 8,26 44,66 59,66 7,0 52,32 99,70 48,39 96,70 106,70 10,0 23,6 27,14 9,15 129,77 187,96 58,19 221,15 253,-5 28,-18 37,-16 27,8 -12,34 -92,52 -219,51 -140,-1 -224,-16 -280,-51 -82,-51 -391,-213 -418,-219 -36,-7 -46,2 -95,84 -47,78 -85,122 -107,122 -21,0 -19,-17 5,-47 11,-14 20,-34 20,-44 0,-10 15,-53 34,-96 67,-152 88,-359 53,-518 -23,-105 -46,-350 -34,-370 4,-8 43,-33 86,-54 42,-22 83,-46 90,-55 22,-26 39,-19 61,24 11,22 25,40 31,40 5,0 18,-20 29,-45 21,-49 26,-52 54,-30 18,14 21,12 44,-28 38,-64 62,-87 94,-87 22,0 33,-9 53,-40 28,-44 87,-85 203,-144 96,-48 194,-109 265,-164 104,-80 234,-263 256,-362 30,-136 61,-471 61,-653 0,-88 4,-117 21,-158 20,-46 20,-51 5,-83 -13,-28 -14,-44 -5,-92 15,-85 49,-196 65,-214 7,-9 16,-35 20,-59 5,-32 19,-57 52,-94 72,-82 89,-143 52,-190 -11,-14 -20,-35 -20,-46 0,-12 -12,-44 -27,-72 -20,-37 -24,-53 -15,-56 19,-7 14,-23 -8,-23 -19,0 -20,-4 -14,-48 5,-37 2,-56 -14,-87 -11,-22 -24,-67 -27,-100 -5,-45 -15,-70 -37,-99 -29,-36 -30,-41 -24,-105 10,-99 35,-211 57,-257 10,-22 19,-56 19,-76 0,-24 9,-47 30,-73 20,-25 30,-49 30,-71 0,-18 5,-36 10,-39 6,-3 10,-15 10,-26 0,-10 5,-19 11,-19 22,0 3,-141 -30,-224 -17,-43 -31,-89 -31,-103 0,-16 -13,-36 -35,-56 -19,-17 -35,-36 -35,-42 0,-5 -34,-49 -75,-95 -65,-74 -72,-86 -54,-90 11,-3 20,-8 20,-12 -1,-5 -1,-12 -1,-18 0,-5 -25,-24 -55,-41 -66,-37 -70,-43 -51,-71 20,-29 7,-51 -52,-85 -26,-14 -69,-44 -96,-65 -57,-44 -66,-45 -241,-22 -162,21 -323,52 -356,69 -40,21 -100,32 -244,45 -169,14 -239,26 -355,58 -81,23 -115,27 -230,27 -74,0 -198,-7 -275,-14 -136,-14 -143,-13 -240,9 -209,48 -284,60 -405,66 -161,8 -312,-7 -410,-42 -69,-25 -91,-27 -272,-31 -173,-5 -204,-3 -250,13 -58,20 -88,40 -88,60 0,7 -13,29 -30,47 -16,19 -30,39 -30,45 0,16 -68,124 -97,154 -36,37 -45,35 -41,-9 l 3,-38 -42,3 c -57,5 -58,-18 -3,-54 27,-18 40,-34 40,-49 0,-12 7,-28 15,-35 8,-7 15,-18 15,-26 0,-7 9,-19 21,-28 33,-23 16,-51 -52,-85 -105,-52 -131,-54 -639,-47 -521,7 -601,14 -706,66 -101,49 -119,103 -57,171 36,39 36,42 18,55 -10,8 -24,14 -31,14 -18,0 -64,40 -64,56 0,8 6,14 14,14 13,0 135,155 136,172 0,12 -144,-32 -173,-53 -29,-21 -57,-19 -57,3 1,23 36,91 89,172 28,44 50,87 49,95 -2,12 -18,17 -60,19 -83,4 -87,15 -43,111 25,57 34,87 29,106 -5,18 1,37 20,66 l 27,40 -50,52 -49,52 112,115 c 114,118 126,138 126,211 0,35 -21,38 -48,8 -22,-22 -125,-39 -135,-22 -8,13 60,151 112,228 23,33 41,67 41,75 0,8 22,47 49,87 42,61 51,84 62,149 7,46 24,99 41,132 19,34 28,65 26,85 l -3,30 -48,-41 c -56,-49 -97,-72 -127,-72 -31,0 -25,16 30,82 27,33 50,67 50,77 0,9 7,26 15,37 8,10 15,35 15,55 0,20 7,42 15,49 8,7 15,23 15,36 0,13 9,33 21,45 23,23 39,66 32,87 -16,44 -173,-38 -173,-90 0,-9 -13,-33 -30,-51 -16,-19 -30,-42 -30,-50 0,-20 -89,-99 -137,-122 -45,-22 -118,-31 -127,-17 -14,22 6,43 38,40 29,-3 31,-1 28,27 -3,46 36,107 85,130 23,11 43,27 46,36 2,9 18,19 36,22 23,5 31,12 31,27 0,12 9,24 23,29 36,15 136,120 161,170 12,25 28,72 35,104 7,31 19,63 26,71 8,7 17,25 20,38 4,13 37,61 74,106 37,45 76,99 85,120 12,27 35,49 77,75 49,31 58,41 49,52 -8,10 -8,19 -1,33 12,23 88,92 101,92 5,0 19,18 30,39 10,22 34,51 52,65 18,14 29,28 25,33 -5,4 -39,9 -76,11 -66,4 -70,3 -107,-30 -22,-18 -65,-52 -97,-73 l -59,-40 -146,-6 c -149,-7 -215,-17 -279,-44 -20,-8 -44,-15 -54,-15 -41,0 -15,31 72,86 50,31 99,65 108,74 9,10 34,20 57,22 23,3 59,19 84,37 55,40 124,60 228,68 75,5 86,4 112,-15 37,-28 54,-21 75,33 12,33 33,57 82,95 35,29 62,54 59,57 -3,3 -29,-4 -58,-15 -61,-24 -238,-55 -318,-56 -62,-1 -130,27 -138,56 -2,10 -20,22 -41,28 -20,5 -72,39 -116,75 -44,36 -86,65 -95,65 -8,0 -31,13 -50,29 -44,36 -92,60 -205,104 -119,46 -208,61 -302,53 -61,-6 -80,-4 -100,9 l -25,17 27,28 c 41,42 114,75 319,140 149,48 196,59 225,54 48,-9 146,-50 190,-80 20,-13 47,-24 61,-24 64,-1 184,-86 245,-174 47,-69 43,-91 -16,-83 -60,8 -212,85 -307,156 -86,64 -153,104 -160,96 -6,-5 152,-177 274,-299 47,-47 103,-93 124,-102 22,-10 40,-22 40,-27 0,-6 41,-8 101,-5 97,5 105,7 194,53 51,26 116,67 143,91 28,24 52,44 55,44 3,0 8,-7 11,-16 10,-25 -19,-79 -58,-109 -20,-15 -36,-34 -36,-42 0,-10 9,-7 33,11 44,34 174,92 256,115 36,11 86,28 111,40 51,24 81,26 98,9 36,-36 0,-78 -162,-192 -68,-49 -127,-95 -131,-103 -9,-26 48,-8 124,37 37,22 77,40 90,40 12,0 37,11 55,25 18,14 40,25 50,25 9,0 19,7 22,15 4,8 17,15 30,15 13,0 34,11 48,25 14,14 33,25 42,25 9,0 31,9 48,19 17,11 50,24 73,30 23,6 63,27 90,46 93,68 107,75 151,75 36,0 44,4 52,25 11,29 28,32 46,8 12,-16 13,-17 14,-1 1,49 114,130 195,138 l 50,5 5,50 5,50 40,-1 c 22,0 54,-7 72,-14 28,-12 42,-12 100,2 37,10 90,20 118,23 27,4 71,18 97,31 58,30 157,54 220,54 h 47 l -5,128 c -6,142 2,174 35,135 10,-12 30,-60 45,-106 26,-83 56,-132 56,-90 0,10 -6,28 -14,38 -8,11 -12,25 -9,32 11,29 43,10 97,-56 30,-38 70,-79 88,-92 18,-12 41,-31 51,-41 23,-23 39,-23 88,2 33,18 45,19 77,10 20,-6 108,-13 196,-17 149,-6 160,-8 187,-31 40,-33 62,-24 47,19 -14,41 -4,172 18,224 14,34 16,70 12,255 -5,228 -9,247 -57,308 -17,20 -39,62 -51,94 -22,59 -43,77 -67,56 -31,-26 -35,-47 -13,-79 12,-16 19,-36 16,-45 -3,-8 4,-24 15,-35 19,-19 19,-21 3,-48 -15,-26 -15,-30 1,-55 15,-22 17,-40 12,-99 -10,-113 -61,-277 -86,-277 -5,0 -11,84 -13,188 -3,171 -5,191 -26,233 -13,27 -24,69 -25,101 -6,108 -71,178 -167,178 -61,0 -79,15 -112,88 -47,107 -51,113 -88,132 -85,43 -352,113 -330,87 z m 531,-369 c 0,-2 7,-57 14,-123 7,-66 20,-140 29,-164 24,-63 25,-213 2,-266 -16,-36 -19,-38 -30,-23 -8,11 -15,67 -19,145 -4,71 -14,176 -22,233 -8,58 -15,126 -15,153 0,40 3,47 20,47 11,0 20,-1 21,-2 z m -1931,-346 c 45,-25 46,-34 9,-56 -17,-10 -71,-56 -120,-102 -48,-46 -93,-84 -98,-84 -19,0 -25,25 -23,87 3,71 -9,81 -36,32 -43,-79 -72,-97 -92,-59 -14,26 15,93 58,134 65,61 229,87 302,48 z m 1148,-111 c -5,-24 -38,-27 -38,-3 0,10 3,21 6,25 11,11 35,-5 32,-22 z m 660,-236 c 5,-62 -6,-103 -34,-122 -35,-23 -46,-5 -41,71 3,47 8,63 27,78 32,26 44,18 48,-27 z m -1405,23 c 25,-19 32,-71 13,-91 -9,-9 -53,-28 -98,-42 -68,-21 -93,-25 -147,-20 -65,7 -67,6 -131,-35 -81,-52 -120,-89 -120,-111 0,-10 -11,-30 -24,-46 -14,-16 -35,-54 -49,-84 -24,-55 -124,-159 -153,-159 -8,0 -23,-9 -35,-21 -26,-26 -146,-89 -170,-89 -32,0 -21,26 29,66 43,35 186,155 205,172 4,4 18,27 31,52 12,25 38,55 57,68 20,14 34,33 35,45 1,12 2,29 3,39 0,9 23,43 51,76 44,53 61,65 147,103 187,82 312,109 356,77 z m 3271,-289 c 0,-99 -4,-122 -23,-162 -22,-45 -114,-137 -136,-137 -13,0 -55,71 -55,93 0,8 18,37 41,63 47,56 74,106 100,182 22,65 36,84 58,80 14,-3 16,-21 15,-119 z m -3331,-4 c 87,-15 109,-28 105,-59 -3,-20 -10,-21 -203,-27 -167,-5 -211,-10 -265,-27 -36,-12 -68,-22 -72,-22 -33,0 40,79 122,132 44,29 47,30 140,23 52,-3 130,-13 173,-20 z m 3483,-572 c 10,-51 -11,-141 -38,-170 -25,-27 -85,-32 -94,-8 -13,32 86,215 116,215 5,0 12,-17 16,-37 z m -5507,-32 c 40,-5 77,-15 81,-22 21,-33 -41,-91 -112,-104 -21,-4 -38,-11 -38,-16 0,-13 42,-39 63,-39 26,0 170,43 312,95 149,53 185,62 185,43 0,-25 -41,-54 -155,-111 -206,-104 -314,-124 -495,-92 -117,21 -271,19 -336,-3 -66,-23 -164,-82 -164,-99 0,-24 48,-20 110,10 87,41 360,23 486,-32 62,-28 54,-47 -17,-43 -30,2 -82,-3 -116,-12 -38,-8 -86,-12 -121,-9 -65,6 -245,-19 -307,-43 -97,-38 -129,-58 -220,-139 -53,-47 -98,-85 -101,-85 -3,0 -14,5 -25,10 -23,13 -24,32 -5,63 8,12 16,52 19,88 11,154 170,355 357,453 138,72 398,110 599,87 z m -239,-539 45,-7 -30,-12 c -16,-7 -70,-19 -120,-28 -54,-9 -101,-23 -117,-35 -15,-11 -32,-20 -38,-20 -16,0 -297,-278 -349,-345 -25,-33 -75,-118 -111,-190 -57,-115 -68,-130 -92,-133 -15,-2 -38,-17 -53,-33 -21,-26 -25,-41 -25,-93 0,-64 -11,-86 -42,-86 -66,0 -66,204 0,309 9,15 31,44 49,65 18,22 33,47 33,57 0,9 29,38 65,65 37,27 90,80 122,121 31,41 65,79 75,84 10,5 18,15 18,22 0,7 23,35 51,62 28,28 58,65 66,83 11,27 28,40 91,69 48,23 94,37 122,38 25,1 56,7 70,13 24,12 73,10 170,-6 z m -173,-338 c 7,-19 -30,-60 -78,-85 -21,-10 -59,-47 -88,-86 -46,-62 -63,-92 -124,-220 -41,-88 -342,-413 -382,-413 -20,0 -19,5 11,102 44,139 131,291 194,339 76,59 100,83 123,122 52,89 211,222 297,248 37,11 40,10 47,-7 z m 483,-399 c 0,-8 -32,-38 -71,-67 -51,-37 -72,-59 -76,-80 -3,-15 -8,-28 -10,-28 -3,0 -23,16 -46,35 -46,40 -76,44 -102,15 -22,-24 -51,-26 -59,-4 -7,20 20,54 42,54 9,0 23,6 31,13 32,27 193,74 259,76 22,1 32,-4 32,-14 z m -542,-142 c 2,-15 -18,-39 -76,-90 -43,-38 -97,-80 -120,-93 -45,-25 -56,-46 -19,-35 34,11 197,93 223,114 13,10 40,22 59,25 26,5 36,13 41,31 7,30 33,40 53,20 14,-14 9,-22 -59,-85 -41,-39 -82,-70 -90,-70 -8,0 -41,-18 -74,-40 -32,-22 -67,-40 -77,-40 -11,0 -39,-20 -64,-44 -42,-42 -152,-106 -182,-106 -7,0 -13,-4 -13,-10 0,-5 -16,-16 -35,-24 -19,-8 -35,-20 -35,-26 0,-6 -11,-26 -24,-43 -13,-18 -38,-60 -56,-94 -17,-34 -47,-76 -66,-93 -19,-17 -34,-37 -34,-45 0,-8 -11,-22 -25,-31 -18,-12 -25,-25 -25,-49 0,-38 -33,-85 -49,-70 -6,6 -11,39 -12,73 -2,57 1,66 24,88 15,14 27,31 27,39 0,8 14,22 30,32 46,27 149,195 150,244 0,9 16,29 35,44 20,14 102,94 183,176 113,114 155,150 180,155 18,4 39,16 47,27 17,24 55,48 70,43 6,-1 11,-12 13,-23 z M 960,9012 c 0,-11 -9,-27 -20,-37 -10,-9 -26,-39 -35,-65 -18,-55 -36,-73 -86,-89 -28,-9 -44,-8 -79,4 -47,17 -110,60 -110,76 0,16 81,49 121,49 50,0 98,18 139,51 41,33 70,37 70,11 z m 770,-97 c 0,-31 -72,-125 -96,-125 -7,0 -17,-13 -23,-30 -12,-35 -45,-41 -61,-10 -11,20 -45,26 -66,12 -6,-4 -14,-18 -17,-32 -9,-35 -75,-110 -96,-110 -14,0 -20,-10 -24,-41 -5,-40 -63,-139 -132,-224 -61,-76 -66,-93 -47,-163 18,-70 11,-89 -32,-78 -64,16 -80,69 -66,215 11,117 30,182 70,241 35,53 118,140 134,140 6,0 36,25 67,56 42,41 67,58 99,65 24,6 48,16 54,23 6,8 32,21 58,31 26,10 53,24 59,31 17,21 119,19 119,-1 z m 150,-60 c 10,-13 8,-22 -14,-53 -14,-21 -26,-45 -26,-53 0,-35 -47,-52 -69,-25 -15,18 -4,41 46,104 38,46 45,49 63,27 z m -150,-284 c 0,-15 -115,-158 -188,-233 -35,-37 -83,-95 -105,-130 -23,-34 -60,-75 -82,-89 -25,-17 -47,-43 -59,-69 -18,-40 -120,-160 -137,-160 -5,0 -16,11 -25,25 -25,39 -12,89 31,114 22,13 35,28 35,41 0,11 9,29 21,41 15,15 20,29 16,52 -10,65 33,116 180,211 40,25 79,56 87,68 10,14 21,19 36,15 17,-4 24,0 31,22 11,32 54,67 107,86 46,17 52,17 52,6 z m 134,-202 6,-31 46,41 c 57,50 89,55 81,12 -3,-16 -18,-46 -32,-66 -14,-21 -25,-45 -25,-55 0,-9 -13,-35 -29,-57 -41,-57 -71,-118 -71,-145 0,-19 10,-27 50,-41 58,-21 84,-43 75,-66 -4,-9 -9,-40 -12,-68 -7,-62 0,-65 55,-28 43,29 61,20 46,-22 -14,-40 -60,-62 -146,-69 -89,-8 -119,4 -151,61 -13,22 -33,45 -46,51 -13,7 -27,18 -31,25 -11,16 -1,39 16,39 21,0 28,44 18,118 -15,125 -13,142 33,202 22,30 44,66 48,80 4,14 14,35 22,48 18,29 38,16 47,-29 z m -174,19 c 0,-39 -46,-173 -70,-203 -15,-19 -31,-50 -34,-69 -4,-19 -13,-39 -21,-46 -8,-7 -15,-22 -15,-34 0,-13 -16,-45 -35,-72 -19,-27 -35,-59 -35,-71 0,-29 -30,-31 -55,-3 -17,19 -17,21 -1,39 14,15 17,33 15,70 -2,28 0,51 5,51 15,0 33,30 98,154 71,139 148,234 148,184 z m 390,-203 c 21,-25 18,-99 -4,-124 -19,-21 -70,-29 -80,-12 -8,12 18,96 38,126 19,29 29,31 46,10 z m -163,-109 c -10,-25 -37,-19 -37,7 0,13 3,27 7,31 11,11 36,-21 30,-38 z m -613,-313 c 17,-14 67,-44 111,-65 l 80,-39 95,6 c 90,6 98,5 147,-20 30,-16 73,-52 103,-86 31,-35 71,-69 98,-82 38,-18 52,-32 74,-76 l 27,-53 -21,-42 c -29,-57 -29,-123 2,-146 29,-22 22,-60 -15,-84 -14,-9 -25,-23 -25,-32 0,-24 -55,-40 -219,-63 -110,-15 -164,-27 -188,-42 -22,-14 -61,-23 -122,-29 -91,-8 -118,-17 -141,-44 -19,-23 -46,-19 -69,9 -14,19 -27,25 -48,23 -36,-4 -41,23 -18,92 19,57 15,74 -25,125 -35,44 -37,58 -10,92 11,14 20,38 20,52 0,15 6,34 13,43 13,17 133,68 160,68 17,0 57,-45 57,-65 0,-22 89,-135 123,-155 20,-13 50,-20 80,-20 27,0 57,-5 69,-11 26,-14 59,-5 97,27 26,21 31,33 31,69 0,52 -21,105 -67,168 -44,60 -101,93 -178,101 -33,4 -92,18 -131,31 -98,34 -219,52 -239,35 -8,-7 -15,-18 -15,-26 0,-7 -16,-25 -36,-40 -40,-31 -105,-122 -137,-192 -17,-38 -22,-75 -26,-186 -6,-149 -16,-174 -47,-115 -24,47 -15,259 16,384 44,181 144,335 255,393 54,28 81,27 119,-5 z m 1901,-853 c 0,-22 -29,-18 -33,3 -3,14 1,18 15,15 10,-2 18,-10 18,-18 z m -53,-36 c 35,-18 95,-18 148,1 52,18 51,18 44,1 -4,-10 6,-20 30,-30 41,-17 66,-60 95,-165 19,-69 19,-71 1,-71 -23,0 -175,47 -211,66 -32,16 -41,10 -148,-88 -41,-37 -80,-68 -87,-68 -8,0 -14,26 -19,78 -12,148 -10,145 -141,186 -45,15 -87,33 -94,41 -17,21 -5,44 31,59 42,17 312,10 351,-10 z m 1593,-59 c 56,-85 112,-135 150,-135 11,0 41,7 68,15 26,8 54,12 62,9 19,-8 20,-73 2,-99 -18,-24 -83,-16 -124,14 -29,22 -169,51 -245,51 -28,0 -41,6 -55,26 -16,21 -30,28 -71,32 -33,3 -52,9 -52,17 0,19 182,154 207,155 1,0 28,-38 58,-85 z m -2954,-4 c 16,-12 36,-21 46,-21 43,-1 47,-16 18,-65 -22,-38 -25,-49 -14,-56 8,-5 17,-9 20,-9 4,0 9,-15 12,-32 3,-18 12,-51 21,-73 8,-22 15,-59 16,-82 0,-52 -28,-76 -86,-71 -36,3 -37,5 -51,57 -16,63 -46,117 -74,132 -42,22 -141,-37 -175,-103 -9,-16 -31,-36 -50,-44 -19,-8 -34,-15 -34,-17 -1,-1 -3,-20 -6,-42 -3,-22 -7,-46 -9,-52 -7,-22 -35,-14 -47,12 -9,21 -8,32 5,61 20,42 62,247 54,267 -3,8 -26,20 -51,27 -25,7 -52,20 -61,30 -24,27 -1,39 104,54 50,8 98,20 106,26 43,36 208,36 256,1 z m 4394,-141 c -4,-14 -1,-22 12,-27 10,-3 30,-17 46,-31 25,-24 30,-25 60,-14 47,17 78,15 112,-8 40,-27 55,-25 126,11 79,40 94,36 94,-21 v -45 l 167,-1 c 92,-1 174,-4 183,-8 9,-3 15,-14 14,-23 -3,-36 2,-41 44,-47 145,-22 169,-28 179,-52 11,-24 41,-40 56,-30 5,3 19,-2 33,-11 13,-10 37,-16 56,-14 18,1 33,-2 33,-8 0,-12 -40,-51 -52,-51 -17,0 -7,-17 17,-28 31,-14 33,-47 3,-66 -13,-8 -52,-22 -87,-31 -36,-9 -76,-25 -90,-36 -30,-24 -52,-21 -143,23 -44,22 -68,40 -70,53 -4,28 -74,49 -253,75 -82,12 -199,32 -260,45 -60,13 -162,29 -225,35 -63,6 -160,22 -215,37 -145,37 -163,40 -354,58 -95,9 -190,22 -210,28 -45,15 -52,41 -14,60 49,25 215,77 247,77 17,0 48,5 68,10 31,9 42,8 63,-6 41,-27 138,-14 227,29 40,19 88,36 106,36 29,1 33,-2 27,-19 z M 4214,6480 c 31,-27 66,-54 76,-60 23,-13 26,-48 6,-76 -13,-17 -26,-19 -133,-17 -65,1 -130,6 -145,10 l -27,8 40,59 c 21,32 39,64 39,71 0,16 49,54 71,55 9,0 42,-22 73,-50 z m 1253,-129 c 23,-11 49,-31 58,-45 10,-14 24,-26 31,-26 8,0 46,16 85,36 l 71,35 27,-25 c 20,-20 38,-26 69,-26 55,0 60,-16 26,-69 -21,-31 -38,-44 -68,-52 -42,-11 -86,0 -86,22 0,6 -7,8 -17,5 -9,-4 -45,3 -80,16 -57,20 -69,21 -110,10 -54,-15 -67,-7 -67,40 -1,41 -28,49 -61,18 -16,-15 -37,-23 -67,-24 -65,-2 -50,-20 27,-31 61,-9 70,-13 85,-40 l 17,-30 111,-3 c 98,-2 113,-5 122,-22 9,-16 20,-19 78,-18 60,2 75,-2 147,-39 95,-49 123,-69 112,-79 -10,-10 -146,13 -164,28 -10,8 -21,8 -40,-1 -15,-7 -90,-21 -168,-31 -77,-11 -160,-26 -185,-35 -37,-13 -54,-14 -100,-4 -69,14 -109,34 -118,60 -5,11 -26,30 -47,42 -45,25 -58,61 -26,70 15,3 18,10 14,27 -3,12 0,32 7,45 7,13 10,34 7,46 -10,38 9,49 82,49 73,0 79,3 104,43 21,33 62,36 124,8 z m -615,-67 c 4,-3 8,-13 8,-24 0,-19 -19,-30 -51,-30 -11,0 -24,-11 -30,-24 -9,-20 -7,-31 15,-68 32,-56 35,-98 5,-98 -11,0 -68,20 -126,45 -58,25 -109,45 -113,45 -5,0 -36,-19 -68,-41 -76,-53 -92,-49 -92,24 0,45 -4,57 -27,77 -25,21 -25,24 -9,36 10,7 37,15 59,19 23,3 80,16 127,27 81,20 85,20 117,3 30,-16 35,-17 50,-3 10,9 25,18 33,21 16,7 87,0 102,-9 z m -802,-24 c 20,-11 -44,-70 -75,-70 -23,0 -65,45 -65,68 0,20 103,21 140,2 z m -2346,-78 c 2,-10 8,-32 11,-51 l 7,-33 76,4 c 48,2 77,8 80,16 4,14 62,17 62,3 0,-16 -70,-68 -137,-102 l -65,-33 -27,32 c -14,18 -34,32 -43,32 -11,0 -20,10 -24,26 -8,32 1,101 16,119 14,17 37,10 44,-13 z m 4354,12 c 32,-22 27,-40 -20,-75 -79,-57 -100,-57 -160,-1 -57,53 -18,91 92,92 44,0 73,-5 88,-16 z m 154,-33 c -22,-39 -9,-49 32,-27 31,17 35,17 59,2 13,-9 31,-15 38,-14 7,2 15,-6 17,-17 7,-34 21,-41 38,-17 21,30 52,29 60,-3 3,-14 8,-25 10,-25 2,0 20,11 40,25 42,28 69,32 78,10 3,-9 18,-15 40,-15 44,0 66,-9 66,-26 0,-19 7,-18 37,6 32,25 77,26 102,1 13,-13 41,-22 85,-26 119,-13 124,-41 15,-90 -49,-22 -86,-29 -178,-36 -64,-5 -127,-10 -141,-12 -14,-1 -36,-8 -49,-16 -13,-7 -50,-13 -83,-14 -47,0 -63,4 -80,20 -20,20 -21,20 -52,3 -17,-10 -53,-20 -80,-24 -27,-3 -57,-13 -66,-21 -20,-18 -46,-19 -57,-2 -4,6 -12,34 -18,62 -9,44 -15,52 -53,73 -57,32 -67,53 -41,86 28,36 157,126 180,126 17,0 17,-2 1,-29 z m -3974,-67 c 32,-9 28,-33 -19,-103 -58,-87 -68,-90 -118,-36 -54,59 -68,95 -45,112 10,7 34,15 53,19 20,3 41,7 46,9 17,6 59,5 83,-1 z m 1782,-14 c 0,-24 -78,-55 -116,-46 -32,8 -30,22 4,40 30,17 112,21 112,6 z m 1145,-71 c 0,-8 -10,-15 -22,-17 -25,-4 -33,22 -10,31 18,8 32,2 32,-14 z m 1825,-78 c 0,-11 -25,-21 -53,-21 -22,1 -22,1 -3,15 22,17 56,20 56,6 z m -3455,-36 c 36,-18 61,-55 52,-79 -5,-13 -27,-16 -126,-16 h -121 l -21,-42 c -32,-65 -68,-108 -89,-108 -28,0 -120,122 -120,160 0,5 10,10 21,10 12,0 37,14 57,31 31,27 40,31 77,26 31,-5 51,-1 76,13 43,24 147,26 194,5 z m 757,-16 c 9,-5 57,-9 107,-9 50,0 91,-4 91,-9 0,-10 -39,-62 -60,-78 -28,-23 -82,-14 -145,22 -33,19 -80,44 -105,56 -35,16 -41,22 -30,30 16,11 115,2 142,-12 z m -1514,-19 c 17,-11 32,-26 32,-34 0,-19 -52,-59 -104,-80 -48,-20 -70,-21 -63,-2 4,9 -2,17 -14,21 -46,15 -40,76 11,102 37,19 101,16 138,-7 z m 2979,-151 c 81,-11 156,-18 167,-15 10,3 33,-2 50,-11 23,-12 62,-16 156,-17 69,-1 137,2 152,6 21,6 33,3 56,-17 34,-28 52,-30 117,-13 43,12 49,11 95,-15 26,-15 55,-27 64,-27 9,0 19,-7 22,-15 4,-9 19,-15 38,-15 18,0 41,-6 51,-14 19,-14 19,-15 2,-34 -17,-19 -17,-19 23,-25 48,-6 148,-67 198,-119 21,-23 45,-38 58,-38 34,0 53,-45 66,-151 14,-108 5,-139 -41,-139 -45,0 -80,17 -126,59 -50,46 -68,56 -115,66 -19,3 -102,38 -185,77 -241,114 -319,137 -550,158 -153,15 -213,26 -244,47 -13,9 -39,17 -55,18 -17,1 -54,14 -82,28 -28,14 -60,24 -71,21 -13,-4 -32,5 -53,23 -33,27 -36,28 -214,35 -99,5 -184,12 -189,17 -41,41 105,142 162,111 27,-14 154,-11 216,5 69,17 67,18 232,-6 z m -1472,-28 c 0,-24 -58,-51 -124,-57 -55,-6 -64,-10 -73,-33 -6,-14 -11,-46 -11,-69 -1,-60 -25,-75 -109,-69 -35,3 -77,8 -94,12 -37,8 -88,-15 -151,-68 -53,-44 -220,-130 -228,-118 -15,26 79,220 139,284 14,15 36,27 50,27 13,0 37,11 53,24 47,39 69,46 141,46 59,0 158,10 337,33 49,7 70,3 70,-12 z m -2329,-12 c 7,-12 -13,-29 -36,-29 -23,0 -43,17 -36,29 4,6 20,11 36,11 16,0 32,-5 36,-11 z m 120,-52 c 34,-30 27,-53 -18,-62 -18,-4 -52,-18 -76,-32 -61,-35 -86,-29 -90,23 -3,47 4,55 68,77 62,22 85,21 116,-6 z m 1004,-35 c 0,-29 -35,-54 -85,-59 -55,-7 -57,4 -10,46 42,36 95,43 95,13 z m -859,-107 c 26,-3 55,-12 65,-20 18,-13 18,-14 -6,-24 -14,-5 -59,-13 -101,-16 -94,-8 -108,-21 -139,-122 -24,-80 -51,-113 -78,-97 -9,6 -19,22 -20,35 -2,13 -13,34 -23,48 -23,29 -25,98 -4,127 16,24 97,61 158,74 41,8 52,7 148,-5 z m 3459,-8 c 0,-8 -27,-25 -60,-40 -42,-18 -60,-31 -60,-44 0,-10 -9,-32 -20,-50 -23,-39 -12,-50 23,-23 19,15 40,20 86,20 43,0 70,6 93,20 46,28 80,27 76,-2 -2,-15 -22,-33 -62,-55 -32,-19 -82,-50 -110,-71 -46,-34 -57,-37 -116,-37 -36,-1 -79,-7 -96,-15 -28,-12 -36,-11 -67,3 -57,28 -270,16 -354,-19 -27,-12 -92,-19 -217,-25 -99,-4 -183,-6 -188,-3 -4,3 -8,12 -8,20 0,21 -13,17 -54,-15 -43,-34 -83,-45 -126,-36 -17,4 -36,2 -43,-4 -17,-14 -190,-71 -215,-71 -15,0 -21,8 -24,34 -5,46 0,56 28,56 31,0 84,27 84,42 0,7 -23,9 -75,5 -77,-6 -100,3 -74,28 17,16 117,45 155,45 15,0 72,21 126,46 95,44 118,48 118,18 0,-22 26,-17 42,9 9,13 34,27 59,34 25,6 62,26 83,42 28,22 49,31 76,31 25,0 42,6 51,19 20,28 57,37 66,15 4,-12 -3,-24 -23,-41 -45,-36 -9,-27 71,17 39,22 75,37 78,33 12,-11 8,-31 -9,-48 -30,-29 -16,-31 126,-20 36,3 103,10 150,16 72,9 90,8 115,-5 40,-21 67,-20 96,3 33,25 64,41 124,62 61,22 75,23 75,6 z m -2600,-32 c 0,-8 -13,-21 -29,-30 -36,-18 -71,-61 -71,-86 0,-10 9,-23 20,-29 11,-6 20,-20 20,-30 0,-22 -3,-23 -125,-20 -90,2 -82,6 -288,-145 -49,-36 -93,-65 -98,-65 -14,0 -10,56 10,150 21,100 25,97 -91,81 -40,-5 -74,-8 -76,-6 -7,6 50,54 88,74 19,10 80,26 135,35 55,9 125,24 155,35 30,10 104,24 165,31 60,6 112,13 114,16 2,2 19,4 38,4 22,0 33,-5 33,-15 z m 3040,-144 c 32,-23 35,-42 12,-71 -24,-30 -83,-38 -267,-39 -197,-1 -222,10 -137,57 28,16 74,27 153,37 85,10 115,18 122,30 12,22 80,13 117,-14 z m -2190,-95 c 0,-18 -30,-30 -43,-17 -5,5 -6,14 -3,20 10,16 46,13 46,-3 z m 141,-41 c 7,-31 16,-58 21,-61 13,-8 9,-36 -9,-56 -20,-22 -49,-23 -97,-3 -35,15 -39,15 -70,-5 -40,-24 -59,-25 -76,-5 -10,12 -10,18 0,30 11,13 9,20 -9,38 -25,28 -27,43 -5,51 11,4 30,-7 56,-34 l 40,-40 22,28 c 36,47 98,112 107,112 4,0 13,-25 20,-55 z m 2350,8 c 16,-10 29,-20 29,-24 0,-10 -173,-20 -183,-10 -37,37 99,66 154,34 z m -2747,-22 c 7,-11 -22,-23 -35,-15 -5,3 -9,9 -9,15 0,12 37,12 44,0 z m -64,-39 c 0,-12 -71,-78 -99,-92 -19,-10 -25,-9 -32,1 -11,18 5,35 66,70 52,30 65,34 65,21 z m 45,-93 c 0,-7 -8,-15 -17,-17 -18,-3 -25,18 -11,32 10,10 28,1 28,-15 z m -265,-13 c 0,-1 -5,-17 -11,-35 -9,-25 -16,-31 -40,-31 -40,0 -38,25 4,50 30,19 47,25 47,16 z m -196,-47 c -17,-19 -34,-17 -34,5 0,22 22,37 37,24 11,-9 11,-14 -3,-29 z m 276,6 c 0,-14 -6,-25 -13,-25 -21,0 -27,11 -16,31 14,27 29,23 29,-6 z m -380,-16 c 0,-25 -50,-100 -86,-128 -14,-11 -46,-23 -72,-26 -26,-4 -69,-18 -95,-32 -27,-13 -71,-27 -98,-30 -62,-7 -145,-56 -177,-103 -14,-22 -48,-48 -90,-71 -53,-28 -75,-47 -104,-91 -21,-31 -63,-78 -94,-105 -60,-51 -84,-88 -84,-126 0,-33 7,-37 43,-22 78,31 77,32 70,-24 -4,-33 -2,-56 6,-65 7,-8 13,-36 14,-62 2,-46 1,-48 -33,-57 -29,-7 -36,-6 -45,9 -22,39 -55,64 -83,64 -16,0 -35,7 -42,15 -7,8 -20,15 -29,15 -14,0 -16,7 -13,35 3,25 -1,42 -13,55 -21,24 -14,65 15,80 14,7 20,21 20,43 0,54 19,102 50,130 51,46 31,83 -29,53 -44,-23 -70,-20 -77,8 -3,13 -21,39 -40,57 -19,18 -34,39 -34,46 0,17 33,33 70,33 59,0 116,36 144,92 8,15 26,25 67,33 30,6 68,20 83,32 15,12 47,25 71,29 25,3 49,12 56,20 9,11 16,11 40,-2 27,-13 33,-13 72,4 23,11 64,38 92,61 72,60 112,55 60,-7 -34,-40 -32,-52 9,-52 25,0 38,6 50,25 15,23 23,25 86,25 60,0 71,3 80,21 8,14 18,19 33,16 12,-3 36,0 52,8 43,19 55,18 55,-6 z m 3515,-143 c 0,-19 -61,-60 -77,-50 -13,9 -9,41 8,59 22,22 69,16 69,-9 z m -3080,-26 c 3,-5 -3,-31 -14,-56 -21,-47 -29,-134 -12,-134 5,0 11,-10 13,-22 2,-17 11,-24 30,-26 23,-3 28,-9 33,-40 10,-65 26,-115 61,-192 27,-58 37,-71 45,-60 30,45 49,93 49,124 0,19 5,38 10,41 6,3 10,21 10,39 0,22 10,46 30,71 17,21 30,43 30,50 0,6 9,20 19,29 15,14 24,15 40,7 11,-6 35,-11 54,-11 19,0 49,-10 68,-23 33,-22 41,-34 73,-109 9,-23 31,-47 56,-63 54,-34 63,-62 57,-165 -6,-92 -63,-333 -92,-390 -25,-49 -80,-116 -148,-179 -32,-30 -62,-62 -68,-72 -5,-10 -23,-132 -39,-271 -46,-394 -79,-552 -125,-602 -15,-16 -21,-32 -18,-52 3,-22 -3,-39 -26,-67 -16,-21 -33,-52 -36,-69 -11,-47 -43,-114 -71,-148 -22,-25 -33,-30 -70,-30 -52,0 -101,19 -127,47 -10,11 -22,49 -28,83 -11,70 -31,115 -54,123 -8,4 -15,14 -15,23 0,10 -16,65 -37,123 -20,58 -52,153 -72,210 -20,58 -42,107 -48,109 -20,6 -16,-54 12,-218 35,-209 51,-276 84,-360 21,-54 27,-79 20,-92 -12,-23 -17,-22 -81,3 -29,11 -77,27 -106,35 -114,30 -294,143 -398,248 -39,39 -92,88 -118,109 -27,23 -56,59 -71,90 -13,29 -50,86 -82,127 -56,73 -58,77 -58,137 0,58 5,73 73,203 39,77 72,147 72,155 0,8 9,20 20,27 26,16 25,50 -2,124 -31,86 -31,249 1,319 12,27 32,60 43,72 18,19 22,40 27,127 l 6,103 54,49 c 33,30 63,68 77,99 30,69 107,137 135,119 6,-3 20,3 32,14 12,11 47,27 78,36 31,9 59,23 63,31 3,8 13,15 23,15 9,0 26,9 38,20 14,13 42,23 75,27 31,4 69,16 89,30 54,37 147,62 233,62 42,1 80,-3 83,-9 z m -1385,-23 c 0,-8 -3,-17 -7,-20 -9,-9 -34,13 -27,24 8,14 34,11 34,-4 z m 4404,-85 c -68,-60 -85,-89 -107,-185 -12,-50 0,-189 59,-687 13,-113 28,-275 34,-360 8,-127 17,-183 51,-315 22,-88 43,-196 46,-240 5,-75 4,-84 -25,-140 -61,-121 -144,-205 -202,-205 -51,0 -152,60 -225,134 -141,143 -205,348 -205,656 0,110 19,324 39,440 75,440 109,538 243,717 113,151 234,243 321,243 h 38 z"
       id="path4"
       inkscape:connector-curvature="0" />
    <path
       d="m 2920,12631 c -31,-10 -70,-33 -70,-43 0,-3 25,-4 55,-1 66,7 83,-4 115,-79 17,-39 21,-66 18,-117 l -3,-66 55,-3 c 63,-3 104,14 108,45 8,57 -110,213 -192,253 -46,22 -49,22 -86,11 z"
       id="path6"
       inkscape:connector-curvature="0" />
    <path
       d="m 6017,12523 c -4,-3 -7,-15 -7,-25 0,-25 56,-25 69,1 6,10 7,21 4,25 -8,8 -58,8 -66,-1 z"
       id="path8"
       inkscape:connector-curvature="0" />
    <path
       d="m 3302,10778 c -14,-14 -16,-38 -4,-38 12,0 32,23 32,37 0,16 -12,17 -28,1 z"
       id="path10"
       inkscape:connector-curvature="0" />
    <path
       d="m 5711,9598 c -29,-18 -37,-20 -65,-10 -42,15 -121,15 -149,0 -12,-6 -38,-14 -57,-17 -32,-6 -35,-9 -38,-46 -5,-62 -69,-114 -86,-70 -7,19 -92,58 -163,74 -40,10 -69,10 -130,1 -43,-7 -163,-13 -268,-13 -158,-1 -199,1 -245,16 -35,12 -101,21 -182,24 -144,7 -167,-1 -263,-81 -65,-55 -122,-93 -220,-146 -143,-77 -217,-147 -298,-284 -43,-72 -79,-164 -70,-179 8,-14 33,14 75,87 56,97 134,202 169,226 38,28 106,47 209,59 54,7 89,16 96,26 25,34 89,11 99,-34 12,-58 -32,-111 -135,-162 -116,-57 -197,-116 -313,-228 -102,-100 -218,-231 -202,-231 3,0 22,8 43,19 20,10 56,24 79,31 39,12 45,11 102,-19 33,-17 69,-31 81,-31 30,0 24,29 -7,35 -44,10 -78,32 -81,54 -4,27 25,69 62,88 34,18 150,14 291,-11 44,-8 83,-12 86,-10 3,2 6,27 6,56 1,64 26,131 61,158 16,13 40,20 68,20 38,0 44,-3 50,-25 3,-14 3,-50 0,-79 -19,-145 72,-190 284,-142 141,32 160,33 160,6 0,-26 -30,-37 -140,-56 -47,-7 -116,-19 -153,-25 -58,-9 -77,-18 -129,-60 l -61,-49 h -117 c -134,0 -180,-7 -180,-26 0,-22 66,-29 255,-28 132,1 216,7 314,23 74,11 156,21 183,21 55,0 98,-22 98,-51 0,-10 -47,-64 -105,-120 -58,-57 -105,-108 -105,-115 0,-8 48,9 120,42 139,65 199,72 264,33 91,-54 203,-17 276,91 l 41,60 h 85 c 109,0 139,14 155,73 17,64 73,199 139,332 33,66 63,131 66,145 4,14 21,48 38,75 18,28 40,71 49,97 20,50 31,64 62,70 29,5 29,32 1,75 -14,21 -33,62 -41,90 -17,56 -28,63 -102,63 -37,0 -43,3 -43,20 0,12 7,34 15,50 18,35 12,37 -34,8 z m -176,-29 c 8,-25 -7,-44 -29,-36 -19,8 -21,43 -3,50 21,9 26,7 32,-14 z M 4434,9264 c 25,-25 20,-41 -12,-36 -22,3 -32,-2 -46,-22 -31,-48 -78,-24 -55,28 20,42 84,60 113,30 z m -164,-18 c 0,-21 -44,-81 -63,-84 -22,-4 -23,28 -2,68 11,21 23,30 40,30 14,0 25,-6 25,-14 z m 184,-316 c 56,-84 53,-122 -5,-73 -33,28 -64,87 -54,103 12,20 33,9 59,-30 z"
       id="path12"
       inkscape:connector-curvature="0" />
    <path
       d="m 6353,9558 c -6,-7 -13,-34 -16,-61 -4,-26 -16,-65 -27,-87 -20,-39 -22,-40 -70,-40 -57,0 -64,-12 -20,-30 39,-16 80,-65 80,-95 0,-12 7,-28 15,-35 7,-6 17,-33 21,-58 3,-26 10,-52 14,-57 5,-6 22,-48 39,-94 35,-95 79,-178 126,-236 17,-22 58,-78 90,-125 33,-47 90,-123 128,-170 89,-110 105,-142 114,-234 5,-42 13,-78 18,-79 6,-1 29,31 52,71 22,40 43,75 45,77 2,2 55,9 118,15 179,18 207,38 217,152 9,103 38,141 120,154 62,10 88,-11 112,-88 10,-35 21,-56 24,-48 20,57 27,91 27,125 1,95 -7,191 -17,210 -18,32 -87,94 -124,113 -53,26 -95,122 -70,160 10,17 84,4 204,-34 44,-14 81,-24 83,-21 7,6 -104,100 -156,132 -25,15 -83,65 -130,111 -50,49 -104,91 -130,103 -25,11 -124,31 -220,46 -380,57 -485,77 -557,106 -82,32 -96,35 -110,17 z"
       id="path14"
       inkscape:connector-curvature="0" />
    <path
       d="m 6498,8186 c -16,-8 -39,-27 -52,-43 l -24,-27 -54,17 c -30,9 -62,17 -72,17 -15,0 -15,-2 1,-26 16,-25 16,-27 -2,-40 -21,-15 -101,-19 -109,-5 -3,5 1,14 9,21 31,26 13,29 -42,7 -52,-20 -73,-22 -196,-19 -105,2 -144,-1 -165,-12 -15,-8 -42,-20 -61,-27 -39,-14 -108,-80 -204,-193 -65,-77 -67,-80 -67,-136 0,-101 89,-230 159,-230 17,0 33,-4 36,-10 11,-18 41,-10 69,19 43,45 136,82 209,84 l 62,2 8,-70 c 4,-38 10,-76 13,-84 7,-22 31,5 38,44 4,19 16,41 26,48 26,18 103,7 133,-20 12,-11 30,-23 40,-27 10,-3 24,-20 30,-36 6,-17 15,-30 18,-30 4,0 15,21 25,48 10,26 24,55 32,65 22,26 81,22 122,-8 19,-14 48,-25 65,-25 86,0 194,71 234,153 36,74 25,271 -19,358 -27,51 -117,148 -146,155 -14,4 -29,15 -35,25 -12,23 -44,24 -81,5 z"
       id="path16"
       inkscape:connector-curvature="0" />
    <path
       d="m 5318,8043 c -14,-16 -41,-55 -61,-88 -19,-33 -67,-96 -105,-140 -38,-44 -74,-90 -81,-102 -6,-13 -20,-23 -31,-23 -34,0 -51,-12 -71,-51 -11,-22 -23,-39 -27,-39 -5,0 -35,-33 -67,-72 -33,-40 -49,-65 -35,-55 86,61 117,77 149,77 20,0 45,7 55,15 13,10 44,15 94,15 64,0 78,-3 104,-25 32,-27 79,-33 97,-11 8,10 8,16 -3,25 -28,23 -41,103 -41,256 0,146 1,151 28,198 32,54 31,58 -5,20 z"
       id="path18"
       inkscape:connector-curvature="0" />
    <path
       d="m 6927,7676 c -3,-32 -13,-69 -22,-82 -9,-14 -13,-29 -10,-34 10,-16 105,-12 111,4 3,8 -12,49 -34,92 l -39,77 z"
       id="path20"
       inkscape:connector-curvature="0" />
  </g>
</svg>
